<svg width="41" height="40" viewBox="0 0 41 40" fill="none" xmlns="http://www.w3.org/2000/svg">
<path d="M36.2602 16.9233C36.4652 18.0216 36.5769 19.1699 36.5769 20.3683C36.5769 29.7416 30.3035 36.4066 20.8285 36.4066C18.6738 36.4072 16.5401 35.9833 14.5492 35.159C12.5584 34.3348 10.7494 33.1263 9.22581 31.6027C7.70218 30.079 6.4937 28.2701 5.66942 26.2793C4.84514 24.2884 4.42122 22.1547 4.42188 19.9999C4.42122 17.8452 4.84514 15.7114 5.66942 13.7206C6.4937 11.7297 7.70218 9.92083 9.22581 8.3972C10.7494 6.87357 12.5584 5.66509 14.5492 4.84081C16.5401 4.01653 18.6738 3.59261 20.8285 3.59326C25.2585 3.59326 28.9602 5.22326 31.8002 7.86993L27.1752 12.4949V12.4833C25.4535 10.8433 23.2685 10.0016 20.8285 10.0016C15.4152 10.0016 11.0152 14.5749 11.0152 19.9899C11.0152 25.4033 15.4152 29.9866 20.8285 29.9866C25.7402 29.9866 29.0835 27.1783 29.7702 23.3216H20.8285V16.9233H36.2619H36.2602Z" fill="#05195E"/>
</svg>
