<svg width="40" height="40" viewBox="0 0 40 40" fill="none" xmlns="http://www.w3.org/2000/svg">
<path d="M35.7602 16.9233C35.9652 18.0216 36.0769 19.1699 36.0769 20.3683C36.0769 29.7416 29.8035 36.4066 20.3285 36.4066C18.1738 36.4072 16.0401 35.9833 14.0492 35.159C12.0584 34.3348 10.2494 33.1263 8.72581 31.6027C7.20218 30.079 5.9937 28.2701 5.16942 26.2793C4.34514 24.2884 3.92122 22.1547 3.92188 19.9999C3.92122 17.8452 4.34514 15.7114 5.16942 13.7206C5.9937 11.7297 7.20218 9.92083 8.72581 8.3972C10.2494 6.87357 12.0584 5.66509 14.0492 4.84081C16.0401 4.01653 18.1738 3.59261 20.3285 3.59326C24.7585 3.59326 28.4602 5.22326 31.3002 7.86993L26.6752 12.4949V12.4833C24.9535 10.8433 22.7685 10.0016 20.3285 10.0016C14.9152 10.0016 10.5152 14.5749 10.5152 19.9899C10.5152 25.4033 14.9152 29.9866 20.3285 29.9866C25.2402 29.9866 28.5835 27.1783 29.2702 23.3216H20.3285V16.9233H35.7619H35.7602Z" fill="#05195E"/>
</svg>
