<svg width="30" height="30" viewBox="0 0 30 30" fill="none" xmlns="http://www.w3.org/2000/svg">
<path fill-rule="evenodd" clip-rule="evenodd" d="M18.9333 15.8C19.4667 15.4 19.4667 14.6 18.9333 14.2L14.1 10.575C13.4408 10.0806 12.5 10.551 12.5 11.375V18.625C12.5 19.449 13.4408 19.9194 14.1 19.425L18.9333 15.8ZM2.5 15C2.5 21.9 8.1 27.5 15 27.5C21.9 27.5 27.5 21.9 27.5 15C27.5 8.1 21.9 2.5 15 2.5C8.1 2.5 2.5 8.1 2.5 15ZM5 15C5 9.4875 9.4875 5 15 5C20.5125 5 25 9.4875 25 15C25 20.5125 20.5125 25 15 25C9.4875 25 5 20.5125 5 15Z" fill="#C2D1D9"/>
<mask id="mask0_1083_4927" style="mask-type:luminance" maskUnits="userSpaceOnUse" x="2" y="2" width="26" height="26">
<path fill-rule="evenodd" clip-rule="evenodd" d="M18.9333 15.8C19.4667 15.4 19.4667 14.6 18.9333 14.2L14.1 10.575C13.4408 10.0806 12.5 10.551 12.5 11.375V18.625C12.5 19.449 13.4408 19.9194 14.1 19.425L18.9333 15.8ZM2.5 15C2.5 21.9 8.1 27.5 15 27.5C21.9 27.5 27.5 21.9 27.5 15C27.5 8.1 21.9 2.5 15 2.5C8.1 2.5 2.5 8.1 2.5 15ZM5 15C5 9.4875 9.4875 5 15 5C20.5125 5 25 9.4875 25 15C25 20.5125 20.5125 25 15 25C9.4875 25 5 20.5125 5 15Z" fill="white"/>
</mask>
<g mask="url(#mask0_1083_4927)">
<rect width="30" height="30" fill="#05195E"/>
</g>
</svg>
