<svg width="26" height="25" viewBox="0 0 26 25" fill="none" xmlns="http://www.w3.org/2000/svg">
<g clip-path="url(#clip0_4_3666)">
<path d="M18.2821 0.105964C18.4351 0.194617 18.5534 0.332511 18.6178 0.497116C18.6823 0.661722 18.689 0.843309 18.6368 1.01221L15.8228 10.156H21.015C21.1675 10.1559 21.3168 10.2005 21.4443 10.2843C21.5718 10.3681 21.672 10.4874 21.7325 10.6275C21.793 10.7676 21.8111 10.9223 21.7847 11.0726C21.7583 11.2229 21.6884 11.3621 21.5837 11.4732L9.08371 24.7544C8.96276 24.883 8.80182 24.9669 8.62711 24.9923C8.4524 25.0177 8.27423 24.9832 8.12163 24.8944C7.96904 24.8056 7.85102 24.6678 7.78682 24.5033C7.72262 24.3388 7.71601 24.1575 7.76809 23.9888L10.5821 14.8435H5.38996C5.23737 14.8435 5.08811 14.7989 4.96059 14.7151C4.83308 14.6313 4.73289 14.512 4.67241 14.3719C4.61192 14.2318 4.59378 14.0771 4.62022 13.9268C4.64666 13.7765 4.71654 13.6373 4.82121 13.5263L17.3212 0.245026C17.442 0.116587 17.6027 0.0327896 17.7772 0.00725827C17.9516 -0.0182731 18.1296 0.0159635 18.2821 0.104401V0.105964Z" fill="white"/>
</g>
<defs>
<clipPath id="clip0_4_3666">
<rect width="25" height="25" fill="white" transform="translate(0.702637)"/>
</clipPath>
</defs>
</svg>
