<svg width="25" height="25" viewBox="0 0 25 25" fill="none" xmlns="http://www.w3.org/2000/svg">
<g clip-path="url(#clip0_3_3327)">
<path d="M17.5795 0.105964C17.7324 0.194617 17.8508 0.332511 17.9152 0.497116C17.9796 0.661722 17.9863 0.843309 17.9342 1.01221L15.1201 10.156H20.3123C20.4649 10.1559 20.6142 10.2005 20.7417 10.2843C20.8692 10.3681 20.9694 10.4874 21.0299 10.6275C21.0904 10.7676 21.1085 10.9223 21.0821 11.0726C21.0556 11.2229 20.9857 11.3621 20.8811 11.4732L8.38107 24.7544C8.26013 24.883 8.09918 24.9669 7.92447 24.9923C7.74976 25.0177 7.57159 24.9832 7.419 24.8944C7.2664 24.8056 7.14839 24.6678 7.08418 24.5033C7.01998 24.3388 7.01338 24.1575 7.06545 23.9888L9.87951 14.8435H4.68732C4.53474 14.8435 4.38547 14.7989 4.25796 14.7151C4.13044 14.6313 4.03026 14.512 3.96977 14.3719C3.90928 14.2318 3.89114 14.0771 3.91758 13.9268C3.94403 13.7765 4.0139 13.6373 4.11857 13.5263L16.6186 0.245026C16.7394 0.116587 16.9001 0.0327896 17.0745 0.00725827C17.249 -0.0182731 17.427 0.0159635 17.5795 0.104401V0.105964Z" fill="white"/>
</g>
<defs>
<clipPath id="clip0_3_3327">
<rect width="25" height="25" fill="white"/>
</clipPath>
</defs>
</svg>
