<svg width="26" height="25" viewBox="0 0 26 25" fill="none" xmlns="http://www.w3.org/2000/svg">
<g clip-path="url(#clip0_4_3678)">
<path d="M17.9843 0.105964C18.1372 0.194617 18.2556 0.332511 18.32 0.497116C18.3844 0.661722 18.3911 0.843309 18.339 1.01221L15.5249 10.156H20.7171C20.8697 10.1559 21.019 10.2005 21.1465 10.2843C21.274 10.3681 21.3742 10.4874 21.4347 10.6275C21.4952 10.7676 21.5133 10.9223 21.4868 11.0726C21.4604 11.2229 21.3905 11.3621 21.2859 11.4732L8.78586 24.7544C8.66491 24.883 8.50396 24.9669 8.32926 24.9923C8.15455 25.0177 7.97637 24.9832 7.82378 24.8944C7.67119 24.8056 7.55317 24.6678 7.48897 24.5033C7.42477 24.3388 7.41816 24.1575 7.47023 23.9888L10.2843 14.8435H5.09211C4.93952 14.8435 4.79026 14.7989 4.66274 14.7151C4.53523 14.6313 4.43504 14.512 4.37455 14.3719C4.31407 14.2318 4.29593 14.0771 4.32237 13.9268C4.34881 13.7765 4.41868 13.6373 4.52336 13.5263L17.0234 0.245026C17.1442 0.116587 17.3049 0.0327896 17.4793 0.00725827C17.6538 -0.0182731 17.8318 0.0159635 17.9843 0.104401V0.105964Z" fill="white"/>
</g>
<defs>
<clipPath id="clip0_4_3678">
<rect width="25" height="25" fill="white" transform="translate(0.404785)"/>
</clipPath>
</defs>
</svg>
