<svg width="40" height="40" viewBox="0 0 40 40" fill="none" xmlns="http://www.w3.org/2000/svg">
<path d="M10.8331 16.6668C10.4614 16.6668 10.1048 16.7235 9.74975 16.7751C9.86475 16.3885 9.98309 15.9951 10.1731 15.6418C10.3631 15.1285 10.6598 14.6835 10.9548 14.2351C11.2014 13.7501 11.6364 13.4218 11.9564 13.0068C12.2914 12.6035 12.7481 12.3351 13.1098 12.0001C13.4648 11.6501 13.9298 11.4751 14.2998 11.2285C14.6864 11.0068 15.0231 10.7618 15.3831 10.6451L16.2814 10.2751L17.0714 9.9468L16.2631 6.7168L15.2681 6.9568C14.9498 7.0368 14.5614 7.13013 14.1198 7.2418C13.6681 7.32513 13.1864 7.55346 12.6498 7.7618C12.1198 7.99846 11.5064 8.15846 10.9364 8.53846C10.3631 8.9018 9.70142 9.20513 9.11809 9.6918C8.55309 10.1935 7.87142 10.6285 7.36809 11.2668C6.81809 11.8635 6.27475 12.4901 5.85309 13.2035C5.36475 13.8835 5.03309 14.6301 4.68309 15.3685C4.36642 16.1068 4.11142 16.8618 3.90309 17.5951C3.50809 19.0651 3.33142 20.4618 3.26309 21.6568C3.20642 22.8535 3.23975 23.8485 3.30975 24.5685C3.33475 24.9085 3.38142 25.2385 3.41475 25.4668L3.45642 25.7468L3.49975 25.7368C3.79619 27.1215 4.47859 28.394 5.46803 29.4071C6.45746 30.4202 7.71349 31.1324 9.09082 31.4615C10.4681 31.7906 11.9105 31.723 13.251 31.2665C14.5915 30.8101 15.7754 29.9835 16.6658 28.8823C17.5561 27.7811 18.1165 26.4503 18.2821 25.044C18.4477 23.6376 18.2118 22.2131 17.6016 20.9352C16.9915 19.6573 16.032 18.5782 14.8342 17.8229C13.6364 17.0675 12.2492 16.6667 10.8331 16.6668V16.6668ZM29.1664 16.6668C28.7948 16.6668 28.4381 16.7235 28.0831 16.7751C28.1981 16.3885 28.3164 15.9951 28.5064 15.6418C28.6964 15.1285 28.9931 14.6835 29.2881 14.2351C29.5348 13.7501 29.9698 13.4218 30.2898 13.0068C30.6248 12.6035 31.0814 12.3351 31.4431 12.0001C31.7981 11.6501 32.2631 11.4751 32.6331 11.2285C33.0198 11.0068 33.3564 10.7618 33.7164 10.6451L34.6148 10.2751L35.4048 9.9468L34.5964 6.7168L33.6014 6.9568C33.2831 7.0368 32.8948 7.13013 32.4531 7.2418C32.0014 7.32513 31.5198 7.55346 30.9831 7.7618C30.4548 8.00013 29.8398 8.15846 29.2698 8.54013C28.6964 8.90346 28.0348 9.2068 27.4514 9.69346C26.8864 10.1951 26.2048 10.6301 25.7014 11.2668C25.1514 11.8635 24.6081 12.4901 24.1864 13.2035C23.6981 13.8835 23.3664 14.6301 23.0164 15.3685C22.6998 16.1068 22.4448 16.8618 22.2364 17.5951C21.8414 19.0651 21.6648 20.4618 21.5964 21.6568C21.5398 22.8535 21.5731 23.8485 21.6431 24.5685C21.6681 24.9085 21.7148 25.2385 21.7481 25.4668L21.7898 25.7468L21.8331 25.7368C22.1295 27.1215 22.8119 28.394 23.8014 29.4071C24.7908 30.4202 26.0468 31.1324 27.4242 31.4615C28.8015 31.7906 30.2438 31.723 31.5843 31.2665C32.9249 30.8101 34.1088 29.9835 34.9991 28.8823C35.8894 27.7811 36.4498 26.4503 36.6154 25.044C36.7811 23.6376 36.5451 22.2131 35.935 20.9352C35.3248 19.6573 34.3653 18.5782 33.1675 17.8229C31.9697 17.0675 30.5825 16.6667 29.1664 16.6668V16.6668Z" fill="white"/>
</svg>
