<svg width="40" height="40" viewBox="0 0 40 40" fill="none" xmlns="http://www.w3.org/2000/svg">
<path d="M37 20.5C37 10.8323 29.1611 3 19.5 3C9.83234 3 2 10.8323 2 20.5C2 29.2325 8.39734 36.4731 16.7656 37.7845V25.5597H12.3217V20.5011H16.7656V16.6434C16.7656 12.2586 19.3742 9.83703 23.373 9.83703C25.2881 9.83703 27.293 10.1783 27.293 10.1783V14.4844H25.0825C22.9125 14.4844 22.2344 15.8352 22.2344 17.2188V20.5H27.0873L26.3075 25.5586H22.2344V37.7834C30.5961 36.472 37 29.2314 37 20.4989V20.5Z" fill="#05195E"/>
</svg>
