<svg width="41" height="40" viewBox="0 0 41 40" fill="none" xmlns="http://www.w3.org/2000/svg">
<path d="M37.5 20.5C37.5 10.8323 29.6611 3 20 3C10.3323 3 2.5 10.8323 2.5 20.5C2.5 29.2325 8.89734 36.4731 17.2656 37.7845V25.5597H12.8217V20.5011H17.2656V16.6434C17.2656 12.2586 19.8742 9.83703 23.873 9.83703C25.7881 9.83703 27.793 10.1783 27.793 10.1783V14.4844H25.5825C23.4125 14.4844 22.7344 15.8352 22.7344 17.2188V20.5H27.5873L26.8075 25.5586H22.7344V37.7834C31.0961 36.472 37.5 29.2314 37.5 20.4989V20.5Z" fill="#05195E"/>
</svg>
