<svg width="25" height="25" viewBox="0 0 25 25" fill="none" xmlns="http://www.w3.org/2000/svg">
<path d="M12.4987 21.875C11.183 20.7527 9.96348 19.5224 8.85287 18.1969C7.1862 16.2062 5.20703 13.2417 5.20703 10.4167C5.20631 8.97391 5.6336 7.56338 6.43484 6.36356C7.23607 5.16375 8.37523 4.2286 9.70814 3.67645C11.0411 3.1243 12.5078 2.97998 13.9228 3.26176C15.3377 3.54353 16.6373 4.23873 17.657 5.25937C18.3359 5.93526 18.8741 6.7391 19.2402 7.62434C19.6064 8.50959 19.7934 9.45867 19.7904 10.4167C19.7904 13.2417 17.8112 16.2062 16.1445 18.1969C15.0339 19.5224 13.8144 20.7527 12.4987 21.875ZM12.4987 7.29166C11.6699 7.29166 10.875 7.6209 10.289 8.20695C9.70294 8.793 9.3737 9.58786 9.3737 10.4167C9.3737 11.2455 9.70294 12.0403 10.289 12.6264C10.875 13.2124 11.6699 13.5417 12.4987 13.5417C13.3275 13.5417 14.1224 13.2124 14.7084 12.6264C15.2945 12.0403 15.6237 11.2455 15.6237 10.4167C15.6237 9.58786 15.2945 8.793 14.7084 8.20695C14.1224 7.6209 13.3275 7.29166 12.4987 7.29166Z" fill="white"/>
</svg>
