<svg width="24" height="24" viewBox="0 0 24 24" fill="none" xmlns="http://www.w3.org/2000/svg">
<g clip-path="url(#clip0_506_36312)">
<path d="M21.44 10.72L5.96005 2.98003C5.75121 2.88328 5.5215 2.84029 5.29181 2.85499C5.06212 2.86968 4.83975 2.94159 4.64495 3.06417C4.45015 3.18675 4.2891 3.35611 4.17647 3.55682C4.06383 3.75753 4.00318 3.98323 4.00005 4.21337V19.6867C3.9981 19.9229 4.05712 20.1557 4.17141 20.3624C4.28571 20.5692 4.4514 20.743 4.65249 20.867C4.85357 20.991 5.08324 21.061 5.31931 21.0703C5.55537 21.0796 5.78984 21.0278 6.00005 20.92L21.44 13.18C21.6688 13.0652 21.861 12.8891 21.9954 12.6713C22.1298 12.4535 22.2009 12.2026 22.2009 11.9467C22.2009 11.6908 22.1298 11.4399 21.9954 11.2221C21.861 11.0043 21.6688 10.8282 21.44 10.7134V10.72Z" fill="white"/>
</g>
<defs>
<clipPath id="clip0_506_36312">
<rect width="24" height="24" fill="white"/>
</clipPath>
</defs>
</svg>
