<svg width="24" height="24" viewBox="0 0 24 24" fill="none" xmlns="http://www.w3.org/2000/svg">
<g clip-path="url(#clip0_506_36800)">
<path d="M21.44 10.7199L5.96005 2.97991C5.75121 2.88316 5.5215 2.84017 5.29181 2.85487C5.06212 2.86956 4.83975 2.94147 4.64495 3.06405C4.45015 3.18663 4.2891 3.35598 4.17647 3.5567C4.06383 3.75741 4.00318 3.98311 4.00005 4.21325V19.6866C3.9981 19.9228 4.05712 20.1556 4.17141 20.3623C4.28571 20.5691 4.4514 20.7429 4.65249 20.8669C4.85357 20.9909 5.08324 21.0609 5.31931 21.0702C5.55537 21.0795 5.78984 21.0277 6.00005 20.9199L21.44 13.1799C21.6688 13.0651 21.861 12.889 21.9954 12.6712C22.1298 12.4534 22.2009 12.2025 22.2009 11.9466C22.2009 11.6907 22.1298 11.4398 21.9954 11.222C21.861 11.0042 21.6688 10.8281 21.44 10.7132V10.7199Z" fill="white"/>
</g>
<defs>
<clipPath id="clip0_506_36800">
<rect width="24" height="24" fill="white"/>
</clipPath>
</defs>
</svg>
