<svg xmlns="http://www.w3.org/2000/svg" width="24" height="24" id="close-circle"><g data-name="Close Circle"><path fill="none" d="M0 0h24v24H0Z" data-name="Path 3677"></path><path fill="#525863" d="M5.217 18.788a9.594 9.594 0 1 1 6.787 2.813 9.594 9.594 0 0 1-6.787-2.813Zm1.271-12.3a7.814 7.814 0 1 0 5.515-2.279 7.814 7.814 0 0 0-5.518 2.277Zm7.108 9.017-1.593-1.591-1.592 1.591a1.35 1.35 0 0 1-1.909-1.909l1.593-1.591-1.593-1.593a1.35 1.35 0 0 1 1.909-1.909l1.592 1.593 1.593-1.593a1.35 1.35 0 0 1 1.909 1.909l-1.593 1.593 1.593 1.591a1.348 1.348 0 0 1-.956 2.3 1.341 1.341 0 0 1-.955-.394Z" data-name="Cross Circle"></path></g></svg>