<svg width="40" height="41" viewBox="0 0 40 41" fill="none" xmlns="http://www.w3.org/2000/svg">
<path d="M14.1406 1.75C14.1406 11.6462 8.7925 20.5 1.25 20.5C8.7925 20.5 14.1406 29.3544 14.1406 39.25C14.1406 29.3544 19.4888 20.5 27.0312 20.5C19.4888 20.5 14.1406 11.6462 14.1406 1.75ZM29.375 20.5C29.375 25.4487 26.7019 29.875 22.9294 29.875C26.7019 29.875 29.375 34.3025 29.375 39.25C29.375 34.3025 32.0481 29.875 35.8206 29.875C32.0481 29.875 29.375 25.4487 29.375 20.5ZM32.305 1.75C32.305 6.69812 29.6319 11.125 25.8594 11.125C29.6313 11.125 32.305 15.5525 32.305 20.5C32.305 15.5525 34.9781 11.125 38.7506 11.125C34.9781 11.125 32.305 6.69812 32.305 1.75Z" fill="#FFF067"/>
</svg>
