<svg width="26" height="27" viewBox="0 0 26 27" fill="none" xmlns="http://www.w3.org/2000/svg">
<path d="M17.3349 2.79175C18.6002 2.79145 19.8382 3.1605 20.8969 3.85363C21.9555 4.54676 22.7889 5.53383 23.2946 6.69375C23.8004 7.85366 23.9566 9.13598 23.7441 10.3834C23.5316 11.6308 22.9596 12.7891 22.0983 13.7161L21.8924 13.9263L12.4382 23.3805L12.3808 23.4347L12.3201 23.4834C11.5499 24.1474 10.5573 24.4957 9.54116 24.4587C8.525 24.4216 7.56038 24.0019 6.84061 23.2836C6.12085 22.5654 5.69912 21.6016 5.65994 20.5856C5.62076 19.5695 5.96703 18.5761 6.62935 17.8046L6.79077 17.6269L6.80702 17.615L14.7045 9.70234C14.9075 9.49891 15.183 9.38446 15.4704 9.38416C15.7577 9.38385 16.0335 9.49772 16.2369 9.70071C16.4403 9.9037 16.5548 10.1792 16.5551 10.4666C16.5554 10.7539 16.4415 11.0297 16.2385 11.2331L8.34102 19.1458L8.32802 19.1544C8.00927 19.4948 7.82965 19.9423 7.8246 20.4086C7.81955 20.8749 7.98944 21.3262 8.30075 21.6734C8.61206 22.0206 9.04219 22.2386 9.50628 22.2842C9.97038 22.3299 10.4347 22.2 10.8078 21.9202L10.9399 21.8118L10.941 21.8129L20.3682 12.3879L20.5404 12.2092C21.2989 11.3755 21.7027 10.2791 21.6662 9.15266C21.6297 8.02619 21.1557 6.95826 20.3449 6.17546C19.534 5.39265 18.4501 4.95657 17.323 4.95972C16.196 4.96287 15.1145 5.40501 14.308 6.19234L14.1401 6.36567L14.1206 6.37867L4.01744 16.4862C3.91679 16.5867 3.79731 16.6665 3.66583 16.7209C3.53434 16.7753 3.39343 16.8033 3.25114 16.8033C3.10884 16.8032 2.96795 16.7751 2.83651 16.7206C2.70507 16.6661 2.58564 16.5863 2.48506 16.4856C2.38448 16.385 2.30471 16.2655 2.2503 16.134C2.1959 16.0025 2.16792 15.8616 2.16797 15.7193C2.16807 15.432 2.28233 15.1564 2.4856 14.9533L12.5704 4.86417L12.6202 4.81759C13.227 4.17675 13.9582 3.66653 14.7691 3.31819C15.58 2.96984 16.4534 2.79071 17.3359 2.79175H17.3349Z" fill="#05195E" fill-opacity="0.79"/>
</svg>
