<svg width="70" height="71" viewBox="0 0 70 71" fill="none" xmlns="http://www.w3.org/2000/svg">
<path d="M12.25 25C10.8576 25 9.52226 25.5531 8.53769 26.5377C7.55312 27.5223 7 28.8576 7 30.25V40.75C7 42.1424 7.55312 43.4777 8.53769 44.4623C9.52226 45.4469 10.8576 46 12.25 46H26.25C27.6424 46 28.9777 45.4469 29.9623 44.4623C30.9469 43.4777 31.5 42.1424 31.5 40.75V30.25C31.5 28.8576 30.9469 27.5223 29.9623 26.5377C28.9777 25.5531 27.6424 25 26.25 25H12.25ZM43.75 25C42.3576 25 41.0223 25.5531 40.0377 26.5377C39.0531 27.5223 38.5 28.8576 38.5 30.25V40.75C38.5 42.1424 39.0531 43.4777 40.0377 44.4623C41.0223 45.4469 42.3576 46 43.75 46H57.75C59.1424 46 60.4777 45.4469 61.4623 44.4623C62.4469 43.4777 63 42.1424 63 40.75V30.25C63 28.8576 62.4469 27.5223 61.4623 26.5377C60.4777 25.5531 59.1424 25 57.75 25H43.75Z" fill="#3C21B2"/>
</svg>
