<svg width="10" height="10" viewBox="0 0 10 10" fill="none" xmlns="http://www.w3.org/2000/svg">
<g clip-path="url(#clip0_1294_16460)">
<path d="M2.22367 9.10028C2.13756 9.19131 2.03407 9.26416 1.91933 9.31452C1.80458 9.36488 1.68091 9.39172 1.55561 9.39346C1.43031 9.39521 1.30594 9.37181 1.18984 9.32467C1.07374 9.27752 0.968269 9.20757 0.879662 9.11897C0.791056 9.03036 0.721112 8.92489 0.673964 8.80879C0.626817 8.69269 0.603423 8.56831 0.605166 8.44302C0.606908 8.31772 0.633751 8.19405 0.684109 8.0793C0.734467 7.96456 0.807316 7.86107 0.898353 7.77496L3.64523 5.02809C3.64887 5.02446 3.65175 5.02015 3.65372 5.0154C3.65569 5.01066 3.6567 5.00557 3.6567 5.00043C3.6567 4.9953 3.65569 4.99021 3.65372 4.98546C3.65175 4.98072 3.64887 4.97641 3.64523 4.97278L0.898353 2.2259C0.810124 2.13912 0.73995 2.03572 0.69188 1.92169C0.643809 1.80765 0.618794 1.68522 0.618275 1.56146C0.617757 1.43771 0.641746 1.31507 0.688859 1.20064C0.735972 1.0862 0.805277 0.98222 0.892776 0.894701C0.980275 0.807181 1.08424 0.737852 1.19866 0.690712C1.31309 0.643572 1.43572 0.619553 1.55947 0.620042C1.68323 0.620532 1.80566 0.645519 1.91971 0.693562C2.03376 0.741606 2.13717 0.811755 2.22398 0.899964L4.97085 3.64684C4.97448 3.65048 4.97879 3.65336 4.98354 3.65533C4.98828 3.6573 4.99337 3.65832 4.99851 3.65832C5.00365 3.65832 5.00873 3.6573 5.01348 3.65533C5.01823 3.65336 5.02254 3.65048 5.02617 3.64684L7.77304 0.899964C7.85982 0.811735 7.96322 0.741561 8.07726 0.693491C8.1913 0.64542 8.31372 0.620405 8.43748 0.619886C8.56123 0.619368 8.68387 0.643357 8.79831 0.69047C8.91274 0.737583 9.01672 0.806888 9.10424 0.894387C9.19176 0.981886 9.26109 1.08585 9.30823 1.20027C9.35537 1.3147 9.37939 1.43733 9.3789 1.56108C9.37841 1.68484 9.35342 1.80727 9.30538 1.92132C9.25734 2.03537 9.18719 2.13878 9.09898 2.22559L6.3521 4.97246C6.34846 4.97609 6.34558 4.9804 6.34361 4.98515C6.34164 4.98989 6.34063 4.99498 6.34063 5.00012C6.34063 5.00526 6.34164 5.01035 6.34361 5.01509C6.34558 5.01984 6.34846 5.02415 6.3521 5.02778L9.09898 7.77465C9.27245 7.95093 9.36924 8.18861 9.36826 8.43593C9.36728 8.68325 9.26862 8.92016 9.09376 9.09506C8.9189 9.26996 8.68201 9.36868 8.43469 9.36971C8.18738 9.37075 7.94967 9.27402 7.77335 9.10059L5.02648 6.35371C5.02285 6.35008 5.01854 6.34719 5.01379 6.34522C5.00905 6.34325 5.00396 6.34224 4.99882 6.34224C4.99368 6.34224 4.9886 6.34325 4.98385 6.34522C4.9791 6.34719 4.97479 6.35008 4.97117 6.35371L2.22429 9.10059L2.22367 9.10028Z" fill="white"/>
</g>
<defs>
<clipPath id="clip0_1294_16460">
<rect width="10" height="10" fill="white" transform="matrix(-1 0 0 -1 10 10)"/>
</clipPath>
</defs>
</svg>
