<svg width="26" height="27" viewBox="0 0 26 27" fill="none" xmlns="http://www.w3.org/2000/svg">
<g clip-path="url(#clip0_1294_16313)">
<path d="M19.3407 0.991643L19.7931 2.38394C19.9339 2.80732 20.1717 3.19197 20.4875 3.50725C20.8032 3.82254 21.1882 4.05977 21.6118 4.20004L23.0041 4.65244L23.0314 4.66024C23.1387 4.69804 23.2317 4.76824 23.2975 4.86115C23.3633 4.95406 23.3987 5.0651 23.3987 5.17894C23.3987 5.29279 23.3633 5.40382 23.2975 5.49673C23.2317 5.58964 23.1387 5.65984 23.0314 5.69764L21.6391 6.15004C21.3041 6.26111 20.9926 6.43299 20.72 6.65704L20.7226 6.66094C20.3054 7.00442 19.9943 7.4593 19.8256 7.97264L19.8087 8.02074L19.797 8.03764L19.5045 8.94114L19.5032 8.95154L19.3693 9.35844C19.3311 9.46555 19.2607 9.5582 19.1678 9.62364C19.0984 9.67298 19.0185 9.70552 18.9344 9.71872C18.8503 9.73192 18.7642 9.7254 18.6831 9.69969C18.6019 9.67398 18.5278 9.62978 18.4666 9.57056C18.4055 9.51134 18.3589 9.43873 18.3306 9.35844L17.8769 7.96614C17.7362 7.54218 17.4995 7.15645 17.1853 6.83904C16.8689 6.52282 16.4836 6.2843 16.0595 6.14224L15.2184 5.86924L14.6672 5.69504C14.5595 5.65727 14.4662 5.58691 14.4002 5.49374C14.3343 5.40056 14.299 5.28918 14.2993 5.17504V5.17114C14.2993 5.05723 14.3347 4.94614 14.4006 4.85322C14.4665 4.7603 14.5597 4.69015 14.6672 4.65244L16.0595 4.20004C16.4776 4.05573 16.8567 3.81673 17.1673 3.50169C17.4778 3.18666 17.7113 2.80412 17.8496 2.38394L18.302 0.992943C18.3395 0.885106 18.4097 0.791625 18.5027 0.725474C18.5958 0.659322 18.7071 0.623779 18.8213 0.623779C18.9355 0.623779 19.0468 0.659322 19.1399 0.725474C19.233 0.791625 19.3031 0.885106 19.3407 0.992943V0.991643ZM25.7172 11.3019L24.7214 10.9795C24.419 10.8788 24.1444 10.709 23.9192 10.4835C23.694 10.2581 23.5244 9.98325 23.424 9.68084L23.099 8.68764C23.072 8.61085 23.0219 8.54433 22.9556 8.49726C22.8892 8.45019 22.8098 8.42491 22.7285 8.42491C22.6471 8.42491 22.5677 8.45019 22.5014 8.49726C22.435 8.54433 22.3849 8.61085 22.358 8.68764L22.0356 9.68084C21.9368 9.98164 21.7696 10.2554 21.5472 10.4808C21.3248 10.7061 21.0532 10.8768 20.7538 10.9795L19.7593 11.3019C19.6825 11.3291 19.6161 11.3795 19.5695 11.4462C19.5339 11.4956 19.5104 11.5526 19.5008 11.6127C19.4913 11.6728 19.4959 11.7343 19.5143 11.7923C19.5328 11.8503 19.5645 11.9032 19.6071 11.9467C19.6496 11.9902 19.7017 12.0232 19.7593 12.0429L20.7538 12.3653C21.0575 12.4664 21.3335 12.6368 21.5598 12.8632C21.7845 13.0886 21.9537 13.3632 22.0538 13.6653L22.3788 14.6598C22.3788 14.6598 22.3775 14.6598 22.3788 14.6598V14.6624C22.4057 14.7392 22.4558 14.8058 22.5222 14.8528C22.5885 14.8999 22.6679 14.9252 22.7493 14.9252C22.8306 14.9252 22.91 14.8999 22.9764 14.8528C23.0427 14.8058 23.0928 14.7392 23.1198 14.6624L23.4435 13.6692C23.5439 13.3666 23.7137 13.0917 23.9391 12.8662C24.1646 12.6408 24.4396 12.471 24.7422 12.3705L25.7367 12.0481C25.8129 12.0206 25.8787 11.9703 25.9253 11.904C25.9718 11.8377 25.9968 11.7587 25.9968 11.6776C25.9968 11.5966 25.9718 11.5176 25.9253 11.4513C25.8787 11.385 25.8129 11.3346 25.7367 11.3071L25.7172 11.3019V11.3019ZM12.9993 24.025C15.3105 24.025 17.5559 23.2553 19.3812 21.8375C21.2064 20.4197 22.5076 18.4345 23.0795 16.1951C22.8544 16.2393 22.6228 16.2372 22.3986 16.1889C22.1744 16.1407 21.9624 16.0472 21.7756 15.9143C21.4813 15.7051 21.2609 15.4079 21.1464 15.0654L20.824 14.0748C20.7881 13.9656 20.7274 13.8661 20.6466 13.7843C20.5659 13.7024 20.4673 13.6403 20.3586 13.6029L19.3329 13.2688C19.1099 13.1909 18.9057 13.0671 18.7336 12.9053C18.5614 12.7436 18.4251 12.5475 18.3335 12.3298C18.2418 12.1121 18.1969 11.8776 18.2015 11.6414C18.2062 11.4052 18.2603 11.1727 18.3605 10.9587C18.1554 10.9023 17.9618 10.8103 17.7885 10.687L17.7274 10.6441L17.6949 10.6181C17.4184 10.3947 17.2114 10.0971 17.0982 9.76014L16.6471 8.37304C16.5587 8.10392 16.3987 7.86393 16.1843 7.67884C16.032 7.54601 15.8554 7.44402 15.6643 7.37854L14.2343 6.91574C13.8701 6.78806 13.555 6.54959 13.3332 6.23379C13.1113 5.91799 12.9939 5.54068 12.9974 5.15478C13.0008 4.76887 13.1249 4.39372 13.3523 4.08192C13.5798 3.77012 13.8991 3.53732 14.2655 3.41614L14.5164 3.33424C13.1027 3.12777 11.6617 3.21476 10.2832 3.5898C8.90461 3.96483 7.61812 4.61987 6.50392 5.51406C5.38972 6.40825 4.47169 7.52241 3.8071 8.78706C3.14251 10.0517 2.7456 11.4397 2.64113 12.8645C2.53665 14.2894 2.72686 15.7204 3.19988 17.0685C3.67291 18.4165 4.4186 19.6527 5.39046 20.6998C6.36232 21.747 7.53951 22.5827 8.8486 23.1548C10.1577 23.7269 11.5706 24.0231 12.9993 24.025V24.025ZM8.38166 16.7775C8.5039 16.656 8.66939 16.588 8.84175 16.5885C9.0141 16.589 9.17921 16.6579 9.30076 16.7801C10.2404 17.7262 11.5068 18.2763 12.8396 18.3174C14.1723 18.3585 15.4702 17.8875 16.4664 17.0011L16.6978 16.7801L16.7888 16.7047C16.9137 16.6181 17.0651 16.578 17.2165 16.5915C17.368 16.6049 17.5099 16.6711 17.6177 16.7783C17.7254 16.8856 17.7922 17.0273 17.8063 17.1787C17.8204 17.3301 17.7809 17.4816 17.6949 17.6069L17.6208 17.6979L17.3556 17.9501C16.1124 19.068 14.4871 19.6651 12.816 19.6179C11.1449 19.5707 9.55583 18.8828 8.37776 17.6966C8.25642 17.5742 8.18866 17.4086 8.1894 17.2363C8.19013 17.0639 8.25928 16.8989 8.38166 16.7775V16.7775ZM14.9493 11.675C14.9493 11.3303 15.0862 10.9996 15.33 10.7558C15.5738 10.512 15.9045 10.375 16.2493 10.375C16.594 10.375 16.9247 10.512 17.1685 10.7558C17.4123 10.9996 17.5493 11.3303 17.5493 11.675C17.5493 12.0198 17.4123 12.3505 17.1685 12.5943C16.9247 12.8381 16.594 12.975 16.2493 12.975C15.9045 12.975 15.5738 12.8381 15.33 12.5943C15.0862 12.3505 14.9493 12.0198 14.9493 11.675ZM8.44926 11.675C8.44926 11.3303 8.58622 10.9996 8.83002 10.7558C9.07382 10.512 9.40448 10.375 9.74926 10.375C10.094 10.375 10.4247 10.512 10.6685 10.7558C10.9123 10.9996 11.0493 11.3303 11.0493 11.675C11.0493 12.0198 10.9123 12.3505 10.6685 12.5943C10.4247 12.8381 10.094 12.975 9.74926 12.975C9.40448 12.975 9.07382 12.8381 8.83002 12.5943C8.58622 12.3505 8.44926 12.0198 8.44926 11.675Z" fill="#05195E" fill-opacity="0.79"/>
</g>
<defs>
<clipPath id="clip0_1294_16313">
<rect width="26" height="26" fill="white" transform="translate(0 0.625)"/>
</clipPath>
</defs>
</svg>
