<svg width="11" height="10" viewBox="0 0 11 10" fill="none" xmlns="http://www.w3.org/2000/svg">
<path d="M2.72367 9.10028C2.63756 9.19131 2.53407 9.26416 2.41933 9.31452C2.30458 9.36488 2.18091 9.39172 2.05561 9.39346C1.93031 9.39521 1.80594 9.37181 1.68984 9.32467C1.57374 9.27752 1.46827 9.20757 1.37966 9.11897C1.29106 9.03036 1.22111 8.92489 1.17396 8.80879C1.12682 8.69269 1.10342 8.56831 1.10517 8.44302C1.10691 8.31772 1.13375 8.19405 1.18411 8.0793C1.23447 7.96456 1.30732 7.86107 1.39835 7.77496L4.14523 5.02809C4.14887 5.02446 4.15175 5.02015 4.15372 5.0154C4.15569 5.01066 4.1567 5.00557 4.1567 5.00043C4.1567 4.9953 4.15569 4.99021 4.15372 4.98546C4.15175 4.98072 4.14887 4.97641 4.14523 4.97278L1.39835 2.2259C1.31012 2.13912 1.23995 2.03572 1.19188 1.92169C1.14381 1.80765 1.11879 1.68522 1.11828 1.56146C1.11776 1.43771 1.14175 1.31507 1.18886 1.20064C1.23597 1.0862 1.30528 0.98222 1.39278 0.894701C1.48027 0.807181 1.58424 0.737852 1.69866 0.690712C1.81309 0.643572 1.93572 0.619553 2.05947 0.620042C2.18323 0.620532 2.30566 0.645519 2.41971 0.693562C2.53376 0.741606 2.63717 0.811755 2.72398 0.899964L5.47085 3.64684C5.47448 3.65048 5.47879 3.65336 5.48354 3.65533C5.48828 3.6573 5.49337 3.65832 5.49851 3.65832C5.50365 3.65832 5.50873 3.6573 5.51348 3.65533C5.51823 3.65336 5.52254 3.65048 5.52617 3.64684L8.27304 0.899964C8.35982 0.811735 8.46322 0.741561 8.57726 0.693491C8.6913 0.64542 8.81372 0.620405 8.93748 0.619886C9.06123 0.619368 9.18387 0.643357 9.29831 0.69047C9.41274 0.737583 9.51672 0.806888 9.60424 0.894387C9.69176 0.981886 9.76109 1.08585 9.80823 1.20027C9.85537 1.3147 9.87939 1.43733 9.8789 1.56108C9.87841 1.68484 9.85342 1.80727 9.80538 1.92132C9.75734 2.03537 9.68719 2.13878 9.59898 2.22559L6.8521 4.97246C6.84846 4.97609 6.84558 4.9804 6.84361 4.98515C6.84164 4.98989 6.84063 4.99498 6.84063 5.00012C6.84063 5.00526 6.84164 5.01035 6.84361 5.01509C6.84558 5.01984 6.84846 5.02415 6.8521 5.02778L9.59898 7.77465C9.77245 7.95093 9.86924 8.18861 9.86826 8.43593C9.86728 8.68325 9.76862 8.92016 9.59376 9.09506C9.4189 9.26996 9.18201 9.36868 8.93469 9.36971C8.68738 9.37075 8.44967 9.27402 8.27335 9.10059L5.52648 6.35371C5.52285 6.35008 5.51854 6.34719 5.51379 6.34522C5.50905 6.34325 5.50396 6.34224 5.49882 6.34224C5.49368 6.34224 5.4886 6.34325 5.48385 6.34522C5.4791 6.34719 5.47479 6.35008 5.47117 6.35371L2.72429 9.10059L2.72367 9.10028Z" fill="white"/>
</svg>
