<svg width="21" height="20" viewBox="0 0 21 20" fill="none" xmlns="http://www.w3.org/2000/svg">
<path d="M9.66547 14.5834C9.66412 13.5496 9.96004 12.5371 10.518 11.6667H4.04297C3.79671 11.6666 3.55284 11.715 3.32531 11.8092C3.09777 11.9034 2.89103 12.0415 2.7169 12.2157C2.54277 12.3898 2.40466 12.5965 2.31047 12.8241C2.21628 13.0516 2.16786 13.2955 2.16797 13.5417V14.3076C2.16797 14.7842 2.31797 15.2492 2.5938 15.6376C3.8788 17.4409 5.98214 18.3334 8.83214 18.3334C9.6088 18.3334 10.3296 18.2667 10.9921 18.1334C10.1356 17.1498 9.66432 15.8893 9.66547 14.5851V14.5834ZM12.9988 5.83757C12.9988 4.7325 12.5598 3.67269 11.7784 2.89129C10.997 2.10989 9.9372 1.6709 8.83214 1.6709C7.72707 1.6709 6.66726 2.10989 5.88586 2.89129C5.10446 3.67269 4.66547 4.7325 4.66547 5.83757C4.66547 6.94263 5.10446 8.00244 5.88586 8.78384C6.66726 9.56524 7.72707 10.0042 8.83214 10.0042C9.9372 10.0042 10.997 9.56524 11.7784 8.78384C12.5598 8.00244 12.9988 6.94263 12.9988 5.83757ZM19.6655 14.5834C19.6655 13.3678 19.1826 12.202 18.323 11.3425C17.4635 10.483 16.2977 10.0001 15.0821 10.0001C13.8666 10.0001 12.7008 10.483 11.8412 11.3425C10.9817 12.202 10.4988 13.3678 10.4988 14.5834C10.4988 15.799 10.9817 16.9648 11.8412 17.8243C12.7008 18.6838 13.8666 19.1667 15.0821 19.1667C16.2977 19.1667 17.4635 18.6838 18.323 17.8243C19.1826 16.9648 19.6655 15.799 19.6655 14.5834ZM15.0071 11.6734L15.0821 11.6667L15.1571 11.6734C15.2404 11.6886 15.317 11.7288 15.3769 11.7887C15.4367 11.8485 15.4769 11.9251 15.4921 12.0084L15.4988 12.0834V14.1667H17.5855L17.6605 14.1734C17.7437 14.1886 17.8204 14.2288 17.8802 14.2887C17.9401 14.3485 17.9803 14.4251 17.9955 14.5084L18.0021 14.5834L17.9955 14.6584C17.9803 14.7417 17.9401 14.8183 17.8802 14.8781C17.8204 14.938 17.7437 14.9782 17.6605 14.9934L17.5855 15.0001H15.4988V17.0834L15.4921 17.1584C15.4769 17.2417 15.4367 17.3183 15.3769 17.3781C15.317 17.438 15.2404 17.4782 15.1571 17.4934L15.0821 17.5001L15.0071 17.4934C14.9239 17.4782 14.8472 17.438 14.7874 17.3781C14.7275 17.3183 14.6873 17.2417 14.6721 17.1584L14.6655 17.0834V15.0001H12.5855L12.5105 14.9934C12.4272 14.9782 12.3506 14.938 12.2907 14.8781C12.2309 14.8183 12.1907 14.7417 12.1755 14.6584L12.1688 14.5834L12.1755 14.5084C12.1907 14.4251 12.2309 14.3485 12.2907 14.2887C12.3506 14.2288 12.4272 14.1886 12.5105 14.1734L12.5855 14.1667H14.6655V12.0834L14.6721 12.0084C14.6873 11.9251 14.7275 11.8485 14.7874 11.7887C14.8472 11.7288 14.9239 11.6886 15.0071 11.6734V11.6734Z" fill="#05195E" fill-opacity="0.79"/>
</svg>
