<svg width="30" height="29" viewBox="0 0 30 29" fill="none" xmlns="http://www.w3.org/2000/svg">
<path fill-rule="evenodd" clip-rule="evenodd" d="M22.5488 8.27964L22.5035 8.25111C21.5667 7.40945 20.4636 7.01002 19.1944 7.06708L19.1491 6.98149L19.1793 6.96722C20.3276 6.72471 21.0076 6.46793 21.2191 6.18263C21.2796 5.95438 21.204 5.82599 20.9471 5.79746C20.373 5.86879 19.829 5.98291 19.3606 6.16836C19.965 5.79746 20.1917 5.54068 20.0557 5.41229C19.4664 5.42656 18.8166 5.71187 18.1518 6.28248C18.3936 5.88305 18.4993 5.6548 18.4389 5.62627C18.1065 5.82599 17.8345 6.05424 17.5927 6.29675C17.079 6.83883 16.671 7.33812 16.3537 7.79462L16.3386 7.82315C15.5378 9.06424 14.9636 10.3053 14.6312 11.575L14.5103 11.6748L14.4801 11.6891C13.9966 11.1185 13.4073 10.6334 12.7122 10.2483C11.8963 9.73472 10.9293 9.26396 9.81114 8.7932C8.60235 8.19405 7.36333 7.70903 6.12432 7.32386C6.10921 8.65054 6.80427 9.69192 8.14905 10.4623V10.4765C7.68064 10.4765 7.21223 10.5478 6.75894 10.6762C6.8496 11.9031 7.7713 12.7447 9.50894 13.2012L9.49383 13.2297C8.81388 13.1869 8.25482 13.4152 7.81663 13.886C8.39081 14.9416 9.40317 15.4409 10.8688 15.4124C10.5817 15.555 10.3551 15.6977 10.204 15.8688C9.93202 16.1399 9.84136 16.4537 9.93202 16.8104C10.2493 17.3525 10.8084 17.595 11.6394 17.5522L11.6848 17.6092L11.6697 17.6378C10.2342 19.0358 8.49658 19.6634 6.47185 19.5351L6.44163 19.5493C5.20261 19.5351 3.87294 18.9787 2.4375 17.866C3.87294 19.8204 5.7919 21.2326 8.16416 22.1314C10.8688 22.973 13.5886 23.0444 16.2933 22.3168H16.3386C18.9677 21.6035 21.1889 20.1199 23.0323 17.8945C23.8785 16.739 24.4073 15.6263 24.6189 14.5564C25.9939 14.5992 26.976 14.2283 27.5955 13.4295L27.5804 13.4009C27.112 13.5578 26.2205 13.5151 24.9059 13.2583V13.1156C26.3565 12.9587 27.2178 12.5165 27.4897 11.7889C26.4774 12.1598 25.4801 12.1741 24.498 11.8175C24.3167 10.5336 23.6669 9.34955 22.5488 8.27964" fill="#C2D1D9"/>
<mask id="mask0_1084_5023" style="mask-type:luminance" maskUnits="userSpaceOnUse" x="2" y="5" width="26" height="18">
<path fill-rule="evenodd" clip-rule="evenodd" d="M22.5488 8.27964L22.5035 8.25111C21.5667 7.40945 20.4636 7.01002 19.1944 7.06708L19.1491 6.98149L19.1793 6.96722C20.3276 6.72471 21.0076 6.46793 21.2191 6.18263C21.2796 5.95438 21.204 5.82599 20.9471 5.79746C20.373 5.86879 19.829 5.98291 19.3606 6.16836C19.965 5.79746 20.1917 5.54068 20.0557 5.41229C19.4664 5.42656 18.8166 5.71187 18.1518 6.28248C18.3936 5.88305 18.4993 5.6548 18.4389 5.62627C18.1065 5.82599 17.8345 6.05424 17.5927 6.29675C17.079 6.83883 16.671 7.33812 16.3537 7.79462L16.3386 7.82315C15.5378 9.06424 14.9636 10.3053 14.6312 11.575L14.5103 11.6748L14.4801 11.6891C13.9966 11.1185 13.4073 10.6334 12.7122 10.2483C11.8963 9.73472 10.9293 9.26396 9.81114 8.7932C8.60235 8.19405 7.36333 7.70903 6.12432 7.32386C6.10921 8.65054 6.80427 9.69192 8.14905 10.4623V10.4765C7.68064 10.4765 7.21223 10.5478 6.75894 10.6762C6.8496 11.9031 7.7713 12.7447 9.50894 13.2012L9.49383 13.2297C8.81388 13.1869 8.25482 13.4152 7.81663 13.886C8.39081 14.9416 9.40317 15.4409 10.8688 15.4124C10.5817 15.555 10.3551 15.6977 10.204 15.8688C9.93202 16.1399 9.84136 16.4537 9.93202 16.8104C10.2493 17.3525 10.8084 17.595 11.6394 17.5522L11.6848 17.6092L11.6697 17.6378C10.2342 19.0358 8.49658 19.6634 6.47185 19.5351L6.44163 19.5493C5.20261 19.5351 3.87294 18.9787 2.4375 17.866C3.87294 19.8204 5.7919 21.2326 8.16416 22.1314C10.8688 22.973 13.5886 23.0444 16.2933 22.3168H16.3386C18.9677 21.6035 21.1889 20.1199 23.0323 17.8945C23.8785 16.739 24.4073 15.6263 24.6189 14.5564C25.9939 14.5992 26.976 14.2283 27.5955 13.4295L27.5804 13.4009C27.112 13.5578 26.2205 13.5151 24.9059 13.2583V13.1156C26.3565 12.9587 27.2178 12.5165 27.4897 11.7889C26.4774 12.1598 25.4801 12.1741 24.498 11.8175C24.3167 10.5336 23.6669 9.34955 22.5488 8.27964" fill="white"/>
</mask>
<g mask="url(#mask0_1084_5023)">
<rect y="0.811432" width="29.2393" height="27.6051" fill="#3C21B2"/>
</g>
</svg>
