<svg width="30" height="29" viewBox="0 0 30 29" fill="none" xmlns="http://www.w3.org/2000/svg">
<path d="M18.8225 14.6204H16.4318C16.4318 18.2266 16.4318 22.6655 16.4318 22.6655H12.8891C12.8891 22.6655 12.8891 18.2697 12.8891 14.6204H11.2051V11.777H12.8891V9.9379C12.8891 8.62071 13.5521 6.5625 16.4643 6.5625L19.0895 6.572V9.33212C19.0895 9.33212 17.4943 9.33212 17.1841 9.33212C16.8739 9.33212 16.4329 9.47853 16.4329 10.1067V11.7776H19.1321L18.8225 14.6204Z" fill="#C2D1D9"/>
<mask id="mask0_1084_5025" style="mask-type:luminance" maskUnits="userSpaceOnUse" x="11" y="6" width="9" height="17">
<path d="M18.8225 14.6204H16.4318C16.4318 18.2266 16.4318 22.6655 16.4318 22.6655H12.8891C12.8891 22.6655 12.8891 18.2697 12.8891 14.6204H11.2051V11.777H12.8891V9.9379C12.8891 8.62071 13.5521 6.5625 16.4643 6.5625L19.0895 6.572V9.33212C19.0895 9.33212 17.4943 9.33212 17.1841 9.33212C16.8739 9.33212 16.4329 9.47853 16.4329 10.1067V11.7776H19.1321L18.8225 14.6204Z" fill="white"/>
</mask>
<g mask="url(#mask0_1084_5025)">
<rect x="0.240234" y="0.811432" width="29.2393" height="27.6051" fill="#3C21B2"/>
</g>
</svg>
