<svg width="30" height="28" viewBox="0 0 30 28" fill="none" xmlns="http://www.w3.org/2000/svg">
<path fill-rule="evenodd" clip-rule="evenodd" d="M23.6255 18.8871V12.2951V9.00828C23.6255 7.29186 22.1469 5.89648 20.3289 5.89648H9.86584C8.04781 5.89648 6.56982 7.29186 6.56982 9.00828V12.2951V18.8871C6.56982 20.6041 8.04781 21.9995 9.86584 21.9995H20.3295C22.1469 21.9995 23.6255 20.6041 23.6255 18.8871ZM18.1001 13.9471C18.1001 15.5102 16.7514 16.7812 15.0971 16.7812C13.4421 16.7812 12.0946 15.5096 12.0964 13.9466C12.097 13.3296 12.309 12.7599 12.6642 12.2946C13.2108 11.5806 14.0968 11.113 15.0989 11.113C16.1003 11.113 16.987 11.5812 17.5324 12.2951C17.8863 12.7605 18.1001 13.3301 18.1001 13.9471ZM21.6522 10.4801V8.10445V7.7509L21.276 7.75205L18.7609 7.75946L18.7706 10.4892L21.6522 10.4801ZM15.0977 18.3511C17.6701 18.3511 19.7623 16.3746 19.7623 13.9471C19.7623 13.3632 19.6373 12.8049 19.4156 12.2951H21.9627V18.8871C21.9627 19.7391 21.2288 20.429 20.3283 20.429H9.86523C8.96346 20.429 8.23082 19.7391 8.23082 18.8871V12.2951H10.7767C10.5568 12.8049 10.4336 13.3632 10.4336 13.9471C10.4336 16.3746 12.5252 18.3511 15.0977 18.3511Z" fill="black"/>
<mask id="mask0_3_3258" style="mask-type:luminance" maskUnits="userSpaceOnUse" x="6" y="5" width="18" height="17">
<path fill-rule="evenodd" clip-rule="evenodd" d="M23.6255 18.8871V12.2951V9.00828C23.6255 7.29186 22.1469 5.89648 20.3289 5.89648H9.86584C8.04781 5.89648 6.56982 7.29186 6.56982 9.00828V12.2951V18.8871C6.56982 20.6041 8.04781 21.9995 9.86584 21.9995H20.3295C22.1469 21.9995 23.6255 20.6041 23.6255 18.8871ZM18.1001 13.9471C18.1001 15.5102 16.7514 16.7812 15.0971 16.7812C13.4421 16.7812 12.0946 15.5096 12.0964 13.9466C12.097 13.3296 12.309 12.7599 12.6642 12.2946C13.2108 11.5806 14.0968 11.113 15.0989 11.113C16.1003 11.113 16.987 11.5812 17.5324 12.2951C17.8863 12.7605 18.1001 13.3301 18.1001 13.9471ZM21.6522 10.4801V8.10445V7.7509L21.276 7.75205L18.7609 7.75946L18.7706 10.4892L21.6522 10.4801ZM15.0977 18.3511C17.6701 18.3511 19.7623 16.3746 19.7623 13.9471C19.7623 13.3632 19.6373 12.8049 19.4156 12.2951H21.9627V18.8871C21.9627 19.7391 21.2288 20.429 20.3283 20.429H9.86523C8.96346 20.429 8.23082 19.7391 8.23082 18.8871V12.2951H10.7767C10.5568 12.8049 10.4336 13.3632 10.4336 13.9471C10.4336 16.3746 12.5252 18.3511 15.0977 18.3511Z" fill="white"/>
</mask>
<g mask="url(#mask0_3_3258)">
<rect x="0.478516" y="0.145508" width="29.2393" height="27.6051" fill="#3C21B2"/>
</g>
</svg>
