<svg width="30" height="29" viewBox="0 0 30 29" fill="none" xmlns="http://www.w3.org/2000/svg">
<path fill-rule="evenodd" clip-rule="evenodd" d="M23.626 19.5531V12.9612V9.6743C23.626 7.95788 22.1474 6.5625 20.3294 6.5625H9.86633C8.04829 6.5625 6.57031 7.95788 6.57031 9.6743V12.9612V19.5531C6.57031 21.2701 8.04829 22.6655 9.86633 22.6655H20.33C22.1474 22.6655 23.626 21.2701 23.626 19.5531ZM18.1006 14.6131C18.1006 16.1762 16.7519 17.4472 15.0975 17.4472C13.4426 17.4472 12.0951 16.1756 12.0969 14.6126C12.0975 13.9956 12.3095 13.4259 12.6646 12.9606C13.2113 12.2467 14.0973 11.7791 15.0994 11.7791C16.1008 11.7791 16.9875 12.2472 17.5329 12.9612C17.8868 13.4265 18.1006 13.9961 18.1006 14.6131ZM21.6527 11.1461V8.77047V8.41692L21.2764 8.41806L18.7614 8.42547L18.7711 11.1552L21.6527 11.1461ZM15.0981 19.0171C17.6706 19.0171 19.7628 17.0407 19.7628 14.6131C19.7628 14.0292 19.6378 13.471 19.4161 12.9612H21.9632V19.5531C21.9632 20.4051 21.2293 21.0951 20.3288 21.0951H9.86572C8.96395 21.0951 8.2313 20.4051 8.2313 19.5531V12.9612H10.7772C10.5573 13.471 10.4341 14.0292 10.4341 14.6131C10.4341 17.0407 12.5257 19.0171 15.0981 19.0171Z" fill="black"/>
<mask id="mask0_1084_5027" style="mask-type:luminance" maskUnits="userSpaceOnUse" x="6" y="6" width="18" height="17">
<path fill-rule="evenodd" clip-rule="evenodd" d="M23.626 19.5531V12.9612V9.6743C23.626 7.95788 22.1474 6.5625 20.3294 6.5625H9.86633C8.04829 6.5625 6.57031 7.95788 6.57031 9.6743V12.9612V19.5531C6.57031 21.2701 8.04829 22.6655 9.86633 22.6655H20.33C22.1474 22.6655 23.626 21.2701 23.626 19.5531ZM18.1006 14.6131C18.1006 16.1762 16.7519 17.4472 15.0975 17.4472C13.4426 17.4472 12.0951 16.1756 12.0969 14.6126C12.0975 13.9956 12.3095 13.4259 12.6646 12.9606C13.2113 12.2467 14.0973 11.7791 15.0994 11.7791C16.1008 11.7791 16.9875 12.2472 17.5329 12.9612C17.8868 13.4265 18.1006 13.9961 18.1006 14.6131ZM21.6527 11.1461V8.77047V8.41692L21.2764 8.41806L18.7614 8.42547L18.7711 11.1552L21.6527 11.1461ZM15.0981 19.0171C17.6706 19.0171 19.7628 17.0407 19.7628 14.6131C19.7628 14.0292 19.6378 13.471 19.4161 12.9612H21.9632V19.5531C21.9632 20.4051 21.2293 21.0951 20.3288 21.0951H9.86572C8.96395 21.0951 8.2313 20.4051 8.2313 19.5531V12.9612H10.7772C10.5573 13.471 10.4341 14.0292 10.4341 14.6131C10.4341 17.0407 12.5257 19.0171 15.0981 19.0171Z" fill="white"/>
</mask>
<g mask="url(#mask0_1084_5027)">
<rect x="0.478516" y="0.811432" width="29.2393" height="27.6051" fill="#3C21B2"/>
</g>
</svg>
