<svg width="30" height="29" viewBox="0 0 30 29" fill="none" xmlns="http://www.w3.org/2000/svg">
<path fill-rule="evenodd" clip-rule="evenodd" d="M22.6504 8.21818L22.605 8.18965C21.6682 7.34799 20.5652 6.94856 19.296 7.00562L19.2506 6.92003L19.2809 6.90576C20.4292 6.66325 21.1091 6.40647 21.3207 6.12116C21.3811 5.89292 21.3056 5.76453 21.0487 5.736C20.4745 5.80732 19.9306 5.92145 19.4622 6.1069C20.0666 5.736 20.2932 5.47922 20.1572 5.35083C19.5679 5.3651 18.9182 5.6504 18.2534 6.22102C18.4951 5.82159 18.6009 5.59334 18.5405 5.56481C18.208 5.76453 17.9361 5.99277 17.6943 6.23529C17.1806 6.77737 16.7726 7.27666 16.4553 7.73316L16.4402 7.76169C15.6394 9.00278 15.0652 10.2439 14.7328 11.5135L14.6119 11.6134L14.5817 11.6276C14.0981 11.057 13.5089 10.572 12.8138 10.1868C11.9979 9.67325 11.0308 9.20249 9.9127 8.73174C8.70391 8.13259 7.4649 7.64756 6.22588 7.2624C6.21077 8.58908 6.90583 9.63046 8.25061 10.4008V10.4151C7.7822 10.4151 7.3138 10.4864 6.8605 10.6148C6.95116 11.8416 7.87286 12.6833 9.6105 13.1398L9.59539 13.1683C8.91545 13.1255 8.35638 13.3537 7.91819 13.8245C8.49237 14.8801 9.50473 15.3794 10.9704 15.3509C10.6833 15.4935 10.4567 15.6362 10.3056 15.8074C10.0336 16.0784 9.94292 16.3923 10.0336 16.7489C10.3509 17.291 10.91 17.5335 11.741 17.4907L11.7863 17.5478L11.7712 17.5763C10.3358 18.9743 8.59814 19.602 6.57341 19.4736L6.54319 19.4879C5.30418 19.4736 3.9745 18.9172 2.53906 17.8045C3.9745 19.7589 5.89346 21.1712 8.26572 22.0699C10.9704 22.9116 13.6902 22.9829 16.3949 22.2554H16.4402C19.0693 21.5421 21.2905 20.0585 23.1339 17.8331C23.98 16.6776 24.5089 15.5649 24.7204 14.495C26.0954 14.5378 27.0776 14.1669 27.6971 13.368L27.682 13.3395C27.2136 13.4964 26.3221 13.4536 25.0075 13.1968V13.0542C26.4581 12.8972 27.3193 12.455 27.5913 11.7275C26.5789 12.0984 25.5817 12.1126 24.5995 11.756C24.4182 10.4721 23.7685 9.28809 22.6504 8.21818" fill="#C2D1D9"/>
<mask id="mask0_1294_16227" style="mask-type:luminance" maskUnits="userSpaceOnUse" x="2" y="5" width="26" height="18">
<path fill-rule="evenodd" clip-rule="evenodd" d="M22.6504 8.21818L22.605 8.18965C21.6682 7.34799 20.5652 6.94856 19.296 7.00562L19.2506 6.92003L19.2809 6.90576C20.4292 6.66325 21.1091 6.40647 21.3207 6.12116C21.3811 5.89292 21.3056 5.76453 21.0487 5.736C20.4745 5.80732 19.9306 5.92145 19.4622 6.1069C20.0666 5.736 20.2932 5.47922 20.1572 5.35083C19.5679 5.3651 18.9182 5.6504 18.2534 6.22102C18.4951 5.82159 18.6009 5.59334 18.5405 5.56481C18.208 5.76453 17.9361 5.99277 17.6943 6.23529C17.1806 6.77737 16.7726 7.27666 16.4553 7.73316L16.4402 7.76169C15.6394 9.00278 15.0652 10.2439 14.7328 11.5135L14.6119 11.6134L14.5817 11.6276C14.0981 11.057 13.5089 10.572 12.8138 10.1868C11.9979 9.67325 11.0308 9.20249 9.9127 8.73174C8.70391 8.13259 7.4649 7.64756 6.22588 7.2624C6.21077 8.58908 6.90583 9.63046 8.25061 10.4008V10.4151C7.7822 10.4151 7.3138 10.4864 6.8605 10.6148C6.95116 11.8416 7.87286 12.6833 9.6105 13.1398L9.59539 13.1683C8.91545 13.1255 8.35638 13.3537 7.91819 13.8245C8.49237 14.8801 9.50473 15.3794 10.9704 15.3509C10.6833 15.4935 10.4567 15.6362 10.3056 15.8074C10.0336 16.0784 9.94292 16.3923 10.0336 16.7489C10.3509 17.291 10.91 17.5335 11.741 17.4907L11.7863 17.5478L11.7712 17.5763C10.3358 18.9743 8.59814 19.602 6.57341 19.4736L6.54319 19.4879C5.30418 19.4736 3.9745 18.9172 2.53906 17.8045C3.9745 19.7589 5.89346 21.1712 8.26572 22.0699C10.9704 22.9116 13.6902 22.9829 16.3949 22.2554H16.4402C19.0693 21.5421 21.2905 20.0585 23.1339 17.8331C23.98 16.6776 24.5089 15.5649 24.7204 14.495C26.0954 14.5378 27.0776 14.1669 27.6971 13.368L27.682 13.3395C27.2136 13.4964 26.3221 13.4536 25.0075 13.1968V13.0542C26.4581 12.8972 27.3193 12.455 27.5913 11.7275C26.5789 12.0984 25.5817 12.1126 24.5995 11.756C24.4182 10.4721 23.7685 9.28809 22.6504 8.21818" fill="white"/>
</mask>
<g mask="url(#mask0_1294_16227)">
<rect x="0.101562" y="0.75" width="29.2393" height="27.6051" fill="#3C21B2"/>
</g>
</svg>
