<svg width="30" height="28" viewBox="0 0 30 28" fill="none" xmlns="http://www.w3.org/2000/svg">
<path fill-rule="evenodd" clip-rule="evenodd" d="M22.5478 7.61344L22.5025 7.58491C21.5657 6.74325 20.4627 6.34382 19.1934 6.40088L19.1481 6.31529L19.1783 6.30102C20.3267 6.05851 21.0066 5.80173 21.2181 5.51643C21.2786 5.28818 21.203 5.15979 20.9462 5.13126C20.372 5.20259 19.828 5.31671 19.3596 5.50216C19.964 5.13126 20.1907 4.87448 20.0547 4.74609C19.4654 4.76036 18.8157 5.04567 18.1508 5.61628C18.3926 5.21685 18.4984 4.98861 18.4379 4.96008C18.1055 5.15979 17.8335 5.38804 17.5918 5.63055C17.078 6.17264 16.6701 6.67193 16.3528 7.12842L16.3376 7.15695C15.5368 8.39804 14.9626 9.63913 14.6302 10.9088L14.5093 11.0086L14.4791 11.0229C13.9956 10.4523 13.4063 9.96724 12.7113 9.58207C11.8953 9.06852 10.9283 8.59776 9.81016 8.127C8.60137 7.52785 7.36236 7.04283 6.12334 6.65766C6.10823 7.98434 6.80329 9.02572 8.14807 9.79605V9.81032C7.67966 9.81032 7.21126 9.88165 6.75796 10.01C6.84862 11.2369 7.77032 12.0785 9.50796 12.535L9.49285 12.5635C8.81291 12.5207 8.25384 12.749 7.81565 13.2198C8.38983 14.2754 9.40219 14.7747 10.8679 14.7462C10.5808 14.8888 10.3541 15.0315 10.203 15.2026C9.93104 15.4737 9.84038 15.7875 9.93104 16.1442C10.2484 16.6863 10.8074 16.9288 11.6385 16.886L11.6838 16.943L11.6687 16.9716C10.2332 18.3696 8.4956 18.9973 6.47087 18.8689L6.44065 18.8831C5.20164 18.8689 3.87197 18.3125 2.43652 17.1998C3.87197 19.1542 5.79092 20.5664 8.16318 21.4652C10.8679 22.3068 13.5876 22.3782 16.2923 21.6506H16.3376C18.9668 20.9373 21.1879 19.4537 23.0313 17.2283C23.8775 16.0728 24.4063 14.9601 24.6179 13.8902C25.9929 13.933 26.975 13.5621 27.5945 12.7633L27.5794 12.7347C27.111 12.8916 26.2195 12.8489 24.905 12.5921V12.4494C26.3555 12.2925 27.2168 11.8503 27.4888 11.1227C26.4764 11.4936 25.4791 11.5079 24.497 11.1513C24.3157 9.86738 23.666 8.68335 22.5478 7.61344" fill="#C2D1D9"/>
<mask id="mask0_3_3254" style="mask-type:luminance" maskUnits="userSpaceOnUse" x="2" y="4" width="26" height="19">
<path fill-rule="evenodd" clip-rule="evenodd" d="M22.5478 7.61344L22.5025 7.58491C21.5657 6.74325 20.4627 6.34382 19.1934 6.40088L19.1481 6.31529L19.1783 6.30102C20.3267 6.05851 21.0066 5.80173 21.2181 5.51643C21.2786 5.28818 21.203 5.15979 20.9462 5.13126C20.372 5.20259 19.828 5.31671 19.3596 5.50216C19.964 5.13126 20.1907 4.87448 20.0547 4.74609C19.4654 4.76036 18.8157 5.04567 18.1508 5.61628C18.3926 5.21685 18.4984 4.98861 18.4379 4.96008C18.1055 5.15979 17.8335 5.38804 17.5918 5.63055C17.078 6.17264 16.6701 6.67193 16.3528 7.12842L16.3376 7.15695C15.5368 8.39804 14.9626 9.63913 14.6302 10.9088L14.5093 11.0086L14.4791 11.0229C13.9956 10.4523 13.4063 9.96724 12.7113 9.58207C11.8953 9.06852 10.9283 8.59776 9.81016 8.127C8.60137 7.52785 7.36236 7.04283 6.12334 6.65766C6.10823 7.98434 6.80329 9.02572 8.14807 9.79605V9.81032C7.67966 9.81032 7.21126 9.88165 6.75796 10.01C6.84862 11.2369 7.77032 12.0785 9.50796 12.535L9.49285 12.5635C8.81291 12.5207 8.25384 12.749 7.81565 13.2198C8.38983 14.2754 9.40219 14.7747 10.8679 14.7462C10.5808 14.8888 10.3541 15.0315 10.203 15.2026C9.93104 15.4737 9.84038 15.7875 9.93104 16.1442C10.2484 16.6863 10.8074 16.9288 11.6385 16.886L11.6838 16.943L11.6687 16.9716C10.2332 18.3696 8.4956 18.9973 6.47087 18.8689L6.44065 18.8831C5.20164 18.8689 3.87197 18.3125 2.43652 17.1998C3.87197 19.1542 5.79092 20.5664 8.16318 21.4652C10.8679 22.3068 13.5876 22.3782 16.2923 21.6506H16.3376C18.9668 20.9373 21.1879 19.4537 23.0313 17.2283C23.8775 16.0728 24.4063 14.9601 24.6179 13.8902C25.9929 13.933 26.975 13.5621 27.5945 12.7633L27.5794 12.7347C27.111 12.8916 26.2195 12.8489 24.905 12.5921V12.4494C26.3555 12.2925 27.2168 11.8503 27.4888 11.1227C26.4764 11.4936 25.4791 11.5079 24.497 11.1513C24.3157 9.86738 23.666 8.68335 22.5478 7.61344" fill="white"/>
</mask>
<g mask="url(#mask0_3_3254)">
<rect y="0.145508" width="29.2393" height="27.6051" fill="#3C21B2"/>
</g>
</svg>
