<svg width="30" height="28" viewBox="0 0 30 28" fill="none" xmlns="http://www.w3.org/2000/svg">
<path d="M18.8216 13.9544H16.4308C16.4308 17.5606 16.4308 21.9995 16.4308 21.9995H12.8881C12.8881 21.9995 12.8881 17.6036 12.8881 13.9544H11.2041V11.111H12.8881V9.27188C12.8881 7.9547 13.5511 5.89648 16.4633 5.89648L19.0885 5.90598V8.6661C19.0885 8.6661 17.4933 8.6661 17.1831 8.6661C16.873 8.6661 16.432 8.81252 16.432 9.44065V11.1116H19.1311L18.8216 13.9544Z" fill="#C2D1D9"/>
<mask id="mask0_3_3256" style="mask-type:luminance" maskUnits="userSpaceOnUse" x="11" y="5" width="9" height="17">
<path d="M18.8216 13.9544H16.4308C16.4308 17.5606 16.4308 21.9995 16.4308 21.9995H12.8881C12.8881 21.9995 12.8881 17.6036 12.8881 13.9544H11.2041V11.111H12.8881V9.27188C12.8881 7.9547 13.5511 5.89648 16.4633 5.89648L19.0885 5.90598V8.6661C19.0885 8.6661 17.4933 8.6661 17.1831 8.6661C16.873 8.6661 16.432 8.81252 16.432 9.44065V11.1116H19.1311L18.8216 13.9544Z" fill="white"/>
</mask>
<g mask="url(#mask0_3_3256)">
<rect x="0.239258" y="0.145508" width="29.2393" height="27.6051" fill="#3C21B2"/>
</g>
</svg>
