<svg width="30" height="29" viewBox="0 0 30 29" fill="none" xmlns="http://www.w3.org/2000/svg">
<path fill-rule="evenodd" clip-rule="evenodd" d="M23.7275 19.4917V12.8998V9.6129C23.7275 7.89648 22.249 6.5011 20.4309 6.5011H9.96789C8.14986 6.5011 6.67188 7.89648 6.67188 9.6129V12.8998V19.4917C6.67188 21.2087 8.14986 22.6041 9.96789 22.6041H20.4315C22.249 22.6041 23.7275 21.2087 23.7275 19.4917ZM18.2022 14.5517C18.2022 16.1148 16.8535 17.3858 15.1991 17.3858C13.5442 17.3858 12.1966 16.1142 12.1985 14.5512C12.1991 13.9342 12.4111 13.3645 12.7662 12.8992C13.3128 12.1852 14.1989 11.7177 15.2009 11.7177C16.2023 11.7177 17.089 12.1858 17.6344 12.8998C17.9884 13.3651 18.2022 13.9347 18.2022 14.5517ZM21.7543 11.0847V8.70907V8.35552L21.378 8.35666L18.863 8.36407L18.8726 11.0938L21.7543 11.0847ZM15.1997 18.9557C17.7721 18.9557 19.8644 16.9793 19.8644 14.5517C19.8644 13.9678 19.7394 13.4096 19.5177 12.8998H22.0647V19.4917C22.0647 20.3437 21.3309 21.0337 20.4303 21.0337H9.96728C9.06552 21.0337 8.33287 20.3437 8.33287 19.4917V12.8998H10.8787C10.6589 13.4096 10.5356 13.9678 10.5356 14.5517C10.5356 16.9793 12.6273 18.9557 15.1997 18.9557Z" fill="black"/>
<mask id="mask0_1294_16231" style="mask-type:luminance" maskUnits="userSpaceOnUse" x="6" y="6" width="18" height="17">
<path fill-rule="evenodd" clip-rule="evenodd" d="M23.7275 19.4917V12.8998V9.6129C23.7275 7.89648 22.249 6.5011 20.4309 6.5011H9.96789C8.14986 6.5011 6.67188 7.89648 6.67188 9.6129V12.8998V19.4917C6.67188 21.2087 8.14986 22.6041 9.96789 22.6041H20.4315C22.249 22.6041 23.7275 21.2087 23.7275 19.4917ZM18.2022 14.5517C18.2022 16.1148 16.8535 17.3858 15.1991 17.3858C13.5442 17.3858 12.1966 16.1142 12.1985 14.5512C12.1991 13.9342 12.4111 13.3645 12.7662 12.8992C13.3128 12.1852 14.1989 11.7177 15.2009 11.7177C16.2023 11.7177 17.089 12.1858 17.6344 12.8998C17.9884 13.3651 18.2022 13.9347 18.2022 14.5517ZM21.7543 11.0847V8.70907V8.35552L21.378 8.35666L18.863 8.36407L18.8726 11.0938L21.7543 11.0847ZM15.1997 18.9557C17.7721 18.9557 19.8644 16.9793 19.8644 14.5517C19.8644 13.9678 19.7394 13.4096 19.5177 12.8998H22.0647V19.4917C22.0647 20.3437 21.3309 21.0337 20.4303 21.0337H9.96728C9.06552 21.0337 8.33287 20.3437 8.33287 19.4917V12.8998H10.8787C10.6589 13.4096 10.5356 13.9678 10.5356 14.5517C10.5356 16.9793 12.6273 18.9557 15.1997 18.9557Z" fill="white"/>
</mask>
<g mask="url(#mask0_1294_16231)">
<rect x="0.582031" y="0.75" width="29.2393" height="27.6051" fill="#3C21B2"/>
</g>
</svg>
