<svg width="30" height="29" viewBox="0 0 30 29" fill="none" xmlns="http://www.w3.org/2000/svg">
<path d="M18.9222 14.559H16.5314C16.5314 18.1652 16.5314 22.6041 16.5314 22.6041H12.9887C12.9887 22.6041 12.9887 18.2083 12.9887 14.559H11.3047V11.7156H12.9887V9.8765C12.9887 8.55931 13.6517 6.5011 16.5639 6.5011L19.1891 6.5106V9.27071C19.1891 9.27071 17.5939 9.27071 17.2837 9.27071C16.9735 9.27071 16.5326 9.41713 16.5326 10.0453V11.7162H19.2317L18.9222 14.559Z" fill="#C2D1D9"/>
<mask id="mask0_1294_16229" style="mask-type:luminance" maskUnits="userSpaceOnUse" x="11" y="6" width="9" height="17">
<path d="M18.9222 14.559H16.5314C16.5314 18.1652 16.5314 22.6041 16.5314 22.6041H12.9887C12.9887 22.6041 12.9887 18.2083 12.9887 14.559H11.3047V11.7156H12.9887V9.8765C12.9887 8.55931 13.6517 6.5011 16.5639 6.5011L19.1891 6.5106V9.27071C19.1891 9.27071 17.5939 9.27071 17.2837 9.27071C16.9735 9.27071 16.5326 9.41713 16.5326 10.0453V11.7162H19.2317L18.9222 14.559Z" fill="white"/>
</mask>
<g mask="url(#mask0_1294_16229)">
<rect x="0.339844" y="0.75" width="29.2393" height="27.6051" fill="#3C21B2"/>
</g>
</svg>
