<svg width="25" height="24" viewBox="0 0 25 24" fill="none" xmlns="http://www.w3.org/2000/svg">
<path fill-rule="evenodd" clip-rule="evenodd" d="M20.2246 10.5V15.5858L21.6388 17C22.0139 17.3751 22.2246 17.8838 22.2246 18.4142V18.5C22.2246 19.3284 21.553 20 20.7246 20H4.72461C3.89618 20 3.22461 19.3284 3.22461 18.5V18.4142C3.22461 17.8838 3.43532 17.3751 3.8104 17L5.22461 15.5858V10.5C5.22461 7.27911 7.27214 4.47485 10.2255 3.43282C10.261 2.08168 11.3648 1 12.7246 1C14.0844 1 15.1882 2.08168 15.2237 3.43282C18.1771 4.47485 20.2246 7.27911 20.2246 10.5ZM10.7246 21C10.7246 22.1 11.6246 23 12.7246 23C13.8246 23 14.7246 22.1 14.7246 21H10.7246ZM18.2246 10.5V16.4142L19.8104 18H5.63882L7.22461 16.4142V10.5C7.22461 7.93924 8.99092 5.73692 11.4552 5.15306L12.2246 4.97075V3.5C12.2246 3.22228 12.4469 3 12.7246 3C13.0023 3 13.2246 3.22228 13.2246 3.5V4.97075L13.9941 5.15306C16.4583 5.73692 18.2246 7.93924 18.2246 10.5Z" fill="#05195E"/>
<mask id="mask0_3_2548" style="mask-type:luminance" maskUnits="userSpaceOnUse" x="3" y="1" width="20" height="22">
<path fill-rule="evenodd" clip-rule="evenodd" d="M20.2246 10.5V15.5858L21.6388 17C22.0139 17.3751 22.2246 17.8838 22.2246 18.4142V18.5C22.2246 19.3284 21.553 20 20.7246 20H4.72461C3.89618 20 3.22461 19.3284 3.22461 18.5V18.4142C3.22461 17.8838 3.43532 17.3751 3.8104 17L5.22461 15.5858V10.5C5.22461 7.27911 7.27214 4.47485 10.2255 3.43282C10.261 2.08168 11.3648 1 12.7246 1C14.0844 1 15.1882 2.08168 15.2237 3.43282C18.1771 4.47485 20.2246 7.27911 20.2246 10.5ZM10.7246 21C10.7246 22.1 11.6246 23 12.7246 23C13.8246 23 14.7246 22.1 14.7246 21H10.7246ZM18.2246 10.5V16.4142L19.8104 18H5.63882L7.22461 16.4142V10.5C7.22461 7.93924 8.99092 5.73692 11.4552 5.15306L12.2246 4.97075V3.5C12.2246 3.22228 12.4469 3 12.7246 3C13.0023 3 13.2246 3.22228 13.2246 3.5V4.97075L13.9941 5.15306C16.4583 5.73692 18.2246 7.93924 18.2246 10.5Z" fill="white"/>
</mask>
<g mask="url(#mask0_3_2548)">
<rect x="0.224609" width="24" height="24" fill="#05195E"/>
</g>
</svg>
