<svg width="30" height="31" viewBox="0 0 30 31" fill="none" xmlns="http://www.w3.org/2000/svg">
<path fill-rule="evenodd" clip-rule="evenodd" d="M25 13.375V19.7322L26.7678 21.5C27.2366 21.9688 27.5 22.6047 27.5 23.2678V23.375C27.5 24.4105 26.6605 25.25 25.625 25.25H5.625C4.58947 25.25 3.75 24.4105 3.75 23.375V23.2678C3.75 22.6047 4.01339 21.9688 4.48223 21.5L6.25 19.7322V13.375C6.25 9.34889 8.80941 5.84356 12.5011 4.54102C12.5455 2.8521 13.9252 1.5 15.625 1.5C17.3248 1.5 18.7045 2.8521 18.7489 4.54102C22.4406 5.84356 25 9.34889 25 13.375ZM13.125 26.5C13.125 27.875 14.25 29 15.625 29C17 29 18.125 27.875 18.125 26.5H13.125ZM22.5 13.375V20.7678L24.4822 22.75H6.76777L8.75 20.7678V13.375C8.75 10.1741 10.9579 7.42115 14.0382 6.69133L15 6.46344V4.625C15 4.27786 15.2779 4 15.625 4C15.9721 4 16.25 4.27786 16.25 4.625V6.46344L17.2118 6.69133C20.2921 7.42115 22.5 10.1741 22.5 13.375Z" fill="#05195E"/>
<mask id="mask0_1290_13235" style="mask-type:luminance" maskUnits="userSpaceOnUse" x="3" y="1" width="25" height="28">
<path fill-rule="evenodd" clip-rule="evenodd" d="M25 13.375V19.7322L26.7678 21.5C27.2366 21.9688 27.5 22.6047 27.5 23.2678V23.375C27.5 24.4105 26.6605 25.25 25.625 25.25H5.625C4.58947 25.25 3.75 24.4105 3.75 23.375V23.2678C3.75 22.6047 4.01339 21.9688 4.48223 21.5L6.25 19.7322V13.375C6.25 9.34889 8.80941 5.84356 12.5011 4.54102C12.5455 2.8521 13.9252 1.5 15.625 1.5C17.3248 1.5 18.7045 2.8521 18.7489 4.54102C22.4406 5.84356 25 9.34889 25 13.375ZM13.125 26.5C13.125 27.875 14.25 29 15.625 29C17 29 18.125 27.875 18.125 26.5H13.125ZM22.5 13.375V20.7678L24.4822 22.75H6.76777L8.75 20.7678V13.375C8.75 10.1741 10.9579 7.42115 14.0382 6.69133L15 6.46344V4.625C15 4.27786 15.2779 4 15.625 4C15.9721 4 16.25 4.27786 16.25 4.625V6.46344L17.2118 6.69133C20.2921 7.42115 22.5 10.1741 22.5 13.375Z" fill="white"/>
</mask>
<g mask="url(#mask0_1290_13235)">
<rect y="0.25" width="20.8333" height="20.8333" fill="#05195E"/>
</g>
</svg>
