<svg width="25" height="24" viewBox="0 0 25 24" fill="none" xmlns="http://www.w3.org/2000/svg">
<path fill-rule="evenodd" clip-rule="evenodd" d="M12.2246 12C14.9869 12 17.2246 9.76228 17.2246 7C17.2246 4.23772 14.9869 2 12.2246 2C9.46232 2 7.22461 4.23772 7.22461 7C7.22461 9.76228 9.46232 12 12.2246 12ZM12.2246 4C13.8823 4 15.2246 5.34228 15.2246 7C15.2246 8.65772 13.8823 10 12.2246 10C10.5669 10 9.22461 8.65772 9.22461 7C9.22461 5.34228 10.5669 4 12.2246 4ZM21.2246 21C21.2246 21.5523 20.7769 22 20.2246 22C19.6723 22 19.2246 21.5523 19.2246 21V19C19.2246 17.5399 15.3806 16 12.2246 16C9.06861 16 5.22461 17.5399 5.22461 19V21C5.22461 21.5523 4.77689 22 4.22461 22C3.67232 22 3.22461 21.5523 3.22461 21V19C3.22461 15.9353 8.05559 14 12.2246 14C16.3936 14 21.2246 15.9353 21.2246 19V21Z" fill="#05195E"/>
<mask id="mask0_3_2561" style="mask-type:luminance" maskUnits="userSpaceOnUse" x="3" y="2" width="19" height="20">
<path fill-rule="evenodd" clip-rule="evenodd" d="M12.2246 12C14.9869 12 17.2246 9.76228 17.2246 7C17.2246 4.23772 14.9869 2 12.2246 2C9.46232 2 7.22461 4.23772 7.22461 7C7.22461 9.76228 9.46232 12 12.2246 12ZM12.2246 4C13.8823 4 15.2246 5.34228 15.2246 7C15.2246 8.65772 13.8823 10 12.2246 10C10.5669 10 9.22461 8.65772 9.22461 7C9.22461 5.34228 10.5669 4 12.2246 4ZM21.2246 21C21.2246 21.5523 20.7769 22 20.2246 22C19.6723 22 19.2246 21.5523 19.2246 21V19C19.2246 17.5399 15.3806 16 12.2246 16C9.06861 16 5.22461 17.5399 5.22461 19V21C5.22461 21.5523 4.77689 22 4.22461 22C3.67232 22 3.22461 21.5523 3.22461 21V19C3.22461 15.9353 8.05559 14 12.2246 14C16.3936 14 21.2246 15.9353 21.2246 19V21Z" fill="white"/>
</mask>
<g mask="url(#mask0_3_2561)">
<rect x="0.224609" width="24" height="24" fill="#05195E"/>
</g>
</svg>
