<svg width="30" height="31" viewBox="0 0 30 31" fill="none" xmlns="http://www.w3.org/2000/svg">
<path fill-rule="evenodd" clip-rule="evenodd" d="M15 15.25C18.4529 15.25 21.25 12.4529 21.25 9C21.25 5.54714 18.4529 2.75 15 2.75C11.5471 2.75 8.75 5.54714 8.75 9C8.75 12.4529 11.5471 15.25 15 15.25ZM15 5.25C17.0721 5.25 18.75 6.92786 18.75 9C18.75 11.0721 17.0721 12.75 15 12.75C12.9279 12.75 11.25 11.0721 11.25 9C11.25 6.92786 12.9279 5.25 15 5.25ZM26.25 26.5C26.25 27.1904 25.6904 27.75 25 27.75C24.3096 27.75 23.75 27.1904 23.75 26.5V24C23.75 22.1749 18.945 20.25 15 20.25C11.055 20.25 6.25 22.1749 6.25 24V26.5C6.25 27.1904 5.69036 27.75 5 27.75C4.30964 27.75 3.75 27.1904 3.75 26.5V24C3.75 20.1691 9.78873 17.75 15 17.75C20.2113 17.75 26.25 20.1691 26.25 24V26.5Z" fill="#05195E"/>
<mask id="mask0_1290_13248" style="mask-type:luminance" maskUnits="userSpaceOnUse" x="3" y="2" width="24" height="26">
<path fill-rule="evenodd" clip-rule="evenodd" d="M15 15.25C18.4529 15.25 21.25 12.4529 21.25 9C21.25 5.54714 18.4529 2.75 15 2.75C11.5471 2.75 8.75 5.54714 8.75 9C8.75 12.4529 11.5471 15.25 15 15.25ZM15 5.25C17.0721 5.25 18.75 6.92786 18.75 9C18.75 11.0721 17.0721 12.75 15 12.75C12.9279 12.75 11.25 11.0721 11.25 9C11.25 6.92786 12.9279 5.25 15 5.25ZM26.25 26.5C26.25 27.1904 25.6904 27.75 25 27.75C24.3096 27.75 23.75 27.1904 23.75 26.5V24C23.75 22.1749 18.945 20.25 15 20.25C11.055 20.25 6.25 22.1749 6.25 24V26.5C6.25 27.1904 5.69036 27.75 5 27.75C4.30964 27.75 3.75 27.1904 3.75 26.5V24C3.75 20.1691 9.78873 17.75 15 17.75C20.2113 17.75 26.25 20.1691 26.25 24V26.5Z" fill="white"/>
</mask>
<g mask="url(#mask0_1290_13248)">
<rect y="0.25" width="30" height="30" fill="#05195E"/>
</g>
</svg>
