<svg width="40" height="40" viewBox="0 0 40 40" fill="none" xmlns="http://www.w3.org/2000/svg">
<path d="M35.7293 19.4367L20.4126 34.7534C18.5362 36.6298 15.9912 37.6839 13.3376 37.6839C10.684 37.6839 8.139 36.6298 6.26259 34.7534C4.38619 32.877 3.33203 30.332 3.33203 27.6784C3.33203 25.0247 4.38619 22.4798 6.26259 20.6034L21.5793 5.28671C22.8302 4.03578 24.5268 3.33301 26.2959 3.33301C28.065 3.33301 29.7617 4.03578 31.0126 5.28671C32.2635 6.53765 32.9663 8.23429 32.9663 10.0034C32.9663 11.7725 32.2635 13.4691 31.0126 14.72L15.6793 30.0367C15.3696 30.3464 15.0019 30.5921 14.5972 30.7597C14.1926 30.9273 13.7589 31.0136 13.3209 31.0136C12.8829 31.0136 12.4492 30.9273 12.0446 30.7597C11.64 30.5921 11.2723 30.3464 10.9626 30.0367C10.6529 29.727 10.4072 29.3593 10.2396 28.9547C10.072 28.5501 9.98574 28.1164 9.98574 27.6784C9.98574 27.2404 10.072 26.8067 10.2396 26.4021C10.4072 25.9974 10.6529 25.6297 10.9626 25.32L25.1126 11.1867" stroke="#05195E" stroke-width="2.5" stroke-linecap="round" stroke-linejoin="round"/>
</svg>
