<svg width="19" height="18" viewBox="0 0 19 18" fill="none" xmlns="http://www.w3.org/2000/svg">
<path d="M9.11217 11.25C10.3572 11.25 11.3547 10.245 11.3547 9L11.3622 4.5C11.3622 3.255 10.3572 2.25 9.11217 2.25C7.86717 2.25 6.86217 3.255 6.86217 4.5V9C6.86217 10.245 7.86717 11.25 9.11217 11.25ZM13.6722 9C13.3572 9 13.0947 9.225 13.0497 9.5325C12.7722 11.49 11.0097 12.825 9.11217 12.825C7.21467 12.825 5.45217 11.4975 5.17467 9.5325C5.15157 9.38404 5.07611 9.24875 4.96194 9.15108C4.84776 9.05341 4.70241 8.99982 4.55217 9C4.16217 9 3.86217 9.345 3.91467 9.7275C4.25967 11.955 6.13467 13.7025 8.36217 14.04V15.75C8.36217 16.1625 8.69967 16.5 9.11217 16.5C9.52467 16.5 9.86217 16.1625 9.86217 15.75V14.04C12.0822 13.7175 13.9647 11.955 14.3097 9.7275C14.3217 9.6367 14.3143 9.54438 14.2878 9.4567C14.2613 9.36903 14.2163 9.28803 14.1559 9.21914C14.0956 9.15025 14.0212 9.09506 13.9377 9.05727C13.8543 9.01947 13.7638 8.99995 13.6722 9V9Z" fill="#05195E"/>
</svg>
