<svg width="24" height="23" viewBox="0 0 24 23" fill="none" xmlns="http://www.w3.org/2000/svg">
<path d="M11.8754 14.0625C13.4317 14.0625 14.6786 12.8062 14.6786 11.25L14.6879 5.625C14.6879 4.06875 13.4317 2.8125 11.8754 2.8125C10.3192 2.8125 9.06294 4.06875 9.06294 5.625V11.25C9.06294 12.8062 10.3192 14.0625 11.8754 14.0625ZM17.5754 11.25C17.1817 11.25 16.8536 11.5312 16.7973 11.9156C16.4504 14.3625 14.2473 16.0312 11.8754 16.0312C9.50356 16.0312 7.30044 14.3719 6.95357 11.9156C6.92469 11.73 6.83037 11.5609 6.68765 11.4388C6.54494 11.3168 6.36325 11.2498 6.17544 11.25C5.68794 11.25 5.31294 11.6812 5.37857 12.1594C5.80982 14.9437 8.15356 17.1281 10.9379 17.55V19.6875C10.9379 20.2031 11.3598 20.625 11.8754 20.625C12.3911 20.625 12.8129 20.2031 12.8129 19.6875V17.55C15.5879 17.1469 17.9411 14.9437 18.3723 12.1594C18.3874 12.0459 18.3781 11.9305 18.3449 11.8209C18.3118 11.7113 18.2556 11.61 18.1802 11.5239C18.1047 11.4378 18.0117 11.3688 17.9074 11.3216C17.8031 11.2743 17.6899 11.2499 17.5754 11.25V11.25Z" fill="#05195E"/>
</svg>
