<svg width="660" height="963" viewBox="0 0 660 963" fill="none" xmlns="http://www.w3.org/2000/svg">
<g clip-path="url(#clip0_1290_12601)">
<rect width="660" height="963" rx="2" fill="#F2F5F7"/>
<rect x="0.5" y="0.5" width="659" height="962" rx="1.5" stroke="#C2D1D9"/>
</g>
<g clip-path="url(#clip1_1290_12601)">
<path d="M12 11L647.206 950.069" stroke="#C2D1D9"/>
<path d="M647.207 11L12.0012 950.069" stroke="#C2D1D9"/>
</g>
<rect x="296" y="453" width="68" height="56" rx="4" fill="#F2F5F7"/>
<path fill-rule="evenodd" clip-rule="evenodd" d="M360 453H300C297.791 453 296 454.791 296 457V505C296 507.209 297.791 509 300 509H360C362.209 509 364 507.209 364 505V457C364 454.791 362.209 453 360 453ZM300 505V457H360V505H300Z" fill="#C2D1D9"/>
<path fill-rule="evenodd" clip-rule="evenodd" d="M307 469.5C307 473.642 310.358 477 314.5 477C318.642 477 322 473.642 322 469.5C322 465.358 318.642 462 314.5 462C310.358 462 307 465.358 307 469.5ZM318 469.5C318 471.433 316.433 473 314.5 473C312.567 473 311 471.433 311 469.5C311 467.567 312.567 466 314.5 466C316.433 466 318 467.567 318 469.5Z" fill="#C2D1D9"/>
<path d="M310.408 500.42C309.624 501.198 308.357 501.193 307.58 500.408C306.802 499.624 306.807 498.357 307.592 497.58L324.041 481.272L333.313 489.336C334.146 490.061 334.234 491.324 333.509 492.158C332.784 492.991 331.521 493.079 330.687 492.354L324.219 486.728L310.408 500.42Z" fill="#C2D1D9"/>
<path d="M325.414 500.414C324.633 501.195 323.367 501.195 322.586 500.414C321.805 499.633 321.805 498.367 322.586 497.586L348.908 471.261L363.319 483.905C364.149 484.634 364.232 485.897 363.503 486.728C362.775 487.558 361.511 487.64 360.681 486.912L349.087 476.739L325.414 500.414Z" fill="#C2D1D9"/>
<defs>
<clipPath id="clip0_1290_12601">
<rect width="660" height="963" fill="white"/>
</clipPath>
<clipPath id="clip1_1290_12601">
<rect width="636" height="941" fill="white" transform="translate(12 11)"/>
</clipPath>
</defs>
</svg>
