<svg width="738" height="963" viewBox="0 0 738 963" fill="none" xmlns="http://www.w3.org/2000/svg">
<g clip-path="url(#clip0_1055_38077)">
<rect width="738" height="963" rx="2" fill="#F2F5F7"/>
<rect x="0.5" y="0.5" width="737" height="962" rx="1.5" stroke="#C2D1D9"/>
</g>
<g clip-path="url(#clip1_1055_38077)">
<path d="M12 11L725.108 950.069" stroke="#C2D1D9"/>
<path d="M725.109 11L12.001 950.069" stroke="#C2D1D9"/>
</g>
<rect x="335" y="453" width="68" height="56" rx="4" fill="#F2F5F7"/>
<path fill-rule="evenodd" clip-rule="evenodd" d="M399 453H339C336.791 453 335 454.791 335 457V505C335 507.209 336.791 509 339 509H399C401.209 509 403 507.209 403 505V457C403 454.791 401.209 453 399 453ZM339 505V457H399V505H339Z" fill="#C2D1D9"/>
<path fill-rule="evenodd" clip-rule="evenodd" d="M346 469.5C346 473.642 349.358 477 353.5 477C357.642 477 361 473.642 361 469.5C361 465.358 357.642 462 353.5 462C349.358 462 346 465.358 346 469.5ZM357 469.5C357 471.433 355.433 473 353.5 473C351.567 473 350 471.433 350 469.5C350 467.567 351.567 466 353.5 466C355.433 466 357 467.567 357 469.5Z" fill="#C2D1D9"/>
<path d="M349.408 500.42C348.624 501.198 347.357 501.193 346.58 500.408C345.802 499.624 345.807 498.357 346.592 497.58L363.041 481.272L372.313 489.336C373.146 490.061 373.234 491.324 372.509 492.158C371.784 492.991 370.521 493.079 369.687 492.354L363.219 486.728L349.408 500.42Z" fill="#C2D1D9"/>
<path d="M364.414 500.414C363.633 501.195 362.367 501.195 361.586 500.414C360.805 499.633 360.805 498.367 361.586 497.586L387.908 471.261L402.319 483.905C403.149 484.634 403.232 485.897 402.503 486.728C401.775 487.558 400.511 487.64 399.681 486.912L388.087 476.739L364.414 500.414Z" fill="#C2D1D9"/>
<defs>
<clipPath id="clip0_1055_38077">
<rect width="738" height="963" fill="white"/>
</clipPath>
<clipPath id="clip1_1055_38077">
<rect width="714" height="941" fill="white" transform="translate(12 11)"/>
</clipPath>
</defs>
</svg>
