<svg width="55" height="10" viewBox="0 0 55 10" fill="none" xmlns="http://www.w3.org/2000/svg">
<path d="M0.992188 9.8176V0.115601H6.84419V1.2776H2.35019V4.2036H6.34019V5.3516H2.35019V9.8176H0.992188Z" fill="#05195E"/>
<path d="M7.83031 6.1916C7.83031 5.5476 7.92365 4.9876 8.11031 4.5116C8.29698 4.02627 8.54431 3.62493 8.85231 3.3076C9.16031 2.99027 9.51498 2.75227 9.91631 2.5936C10.3176 2.43493 10.7283 2.3556 11.1483 2.3556C12.1283 2.3556 12.8796 2.6636 13.4023 3.2796C13.925 3.88627 14.1863 4.81493 14.1863 6.0656C14.1863 6.1216 14.1863 6.19627 14.1863 6.2896C14.1863 6.3736 14.1816 6.45293 14.1723 6.5276H9.18831C9.24431 7.2836 9.46365 7.8576 9.84631 8.2496C10.229 8.6416 10.8263 8.8376 11.6383 8.8376C12.0956 8.8376 12.4783 8.80027 12.7863 8.7256C13.1036 8.6416 13.3416 8.56227 13.5003 8.4876L13.6823 9.5796C13.5236 9.6636 13.2436 9.75227 12.8423 9.8456C12.4503 9.93893 12.0023 9.9856 11.4983 9.9856C10.8636 9.9856 10.313 9.89227 9.84631 9.7056C9.38898 9.5096 9.01098 9.2436 8.71231 8.9076C8.41365 8.5716 8.18965 8.17493 8.04031 7.7176C7.90031 7.25093 7.83031 6.74227 7.83031 6.1916ZM12.8283 5.4776C12.8376 4.8896 12.6883 4.40893 12.3803 4.0356C12.0816 3.65293 11.6663 3.4616 11.1343 3.4616C10.8356 3.4616 10.5696 3.52227 10.3363 3.6436C10.1123 3.7556 9.92098 3.90493 9.76231 4.0916C9.60365 4.27827 9.47765 4.49293 9.38431 4.7356C9.30031 4.97827 9.24431 5.2256 9.21631 5.4776H12.8283Z" fill="#05195E"/>
<path d="M18.5206 8.8796C18.8286 8.8796 19.0993 8.87493 19.3326 8.8656C19.5753 8.84693 19.776 8.81893 19.9346 8.7816V6.6116C19.8413 6.56493 19.6873 6.5276 19.4726 6.4996C19.2673 6.46227 19.0153 6.4436 18.7166 6.4436C18.5206 6.4436 18.3106 6.4576 18.0866 6.4856C17.872 6.5136 17.6713 6.57427 17.4846 6.6676C17.3073 6.7516 17.158 6.87293 17.0366 7.0316C16.9153 7.18093 16.8546 7.3816 16.8546 7.6336C16.8546 8.10027 17.004 8.42693 17.3026 8.6136C17.6013 8.79093 18.0073 8.8796 18.5206 8.8796ZM18.4086 2.3556C18.9313 2.3556 19.37 2.4256 19.7246 2.5656C20.0886 2.69627 20.378 2.8876 20.5926 3.1396C20.8166 3.38227 20.9753 3.67627 21.0686 4.0216C21.162 4.3576 21.2086 4.73093 21.2086 5.1416V9.6916C21.0966 9.71027 20.938 9.73827 20.7326 9.7756C20.5366 9.8036 20.3126 9.8316 20.0606 9.8596C19.8086 9.8876 19.5333 9.91093 19.2346 9.9296C18.9453 9.9576 18.656 9.9716 18.3666 9.9716C17.956 9.9716 17.578 9.9296 17.2326 9.8456C16.8873 9.7616 16.5886 9.63093 16.3366 9.4536C16.0846 9.26693 15.8886 9.02427 15.7486 8.7256C15.6086 8.42693 15.5386 8.0676 15.5386 7.6476C15.5386 7.24627 15.618 6.90093 15.7766 6.6116C15.9446 6.32227 16.1686 6.08893 16.4486 5.9116C16.7286 5.73427 17.0553 5.6036 17.4286 5.5196C17.802 5.4356 18.194 5.3936 18.6046 5.3936C18.7353 5.3936 18.8706 5.40293 19.0106 5.4216C19.1506 5.43093 19.2813 5.4496 19.4026 5.4776C19.5333 5.49627 19.6453 5.51493 19.7386 5.5336C19.832 5.55227 19.8973 5.56627 19.9346 5.5756V5.2116C19.9346 4.99693 19.9113 4.78693 19.8646 4.5816C19.818 4.36693 19.734 4.18027 19.6126 4.0216C19.4913 3.8536 19.3233 3.72293 19.1086 3.6296C18.9033 3.52693 18.6326 3.4756 18.2966 3.4756C17.8673 3.4756 17.4893 3.50827 17.1626 3.5736C16.8453 3.6296 16.6073 3.69027 16.4486 3.7556L16.2946 2.6776C16.4626 2.60293 16.7426 2.53293 17.1346 2.4676C17.5266 2.39293 17.9513 2.3556 18.4086 2.3556Z" fill="#05195E"/>
<path d="M24.5891 2.5376H27.3471V3.6296H24.5891V6.9896C24.5891 7.3536 24.6171 7.65693 24.6731 7.8996C24.7291 8.13293 24.8131 8.3196 24.9251 8.4596C25.0371 8.59027 25.1771 8.6836 25.3451 8.7396C25.5131 8.7956 25.7091 8.8236 25.9331 8.8236C26.3251 8.8236 26.6377 8.7816 26.8711 8.6976C27.1137 8.60427 27.2817 8.53893 27.3751 8.5016L27.6271 9.5796C27.4964 9.64493 27.2677 9.72427 26.9411 9.8176C26.6144 9.92027 26.2411 9.9716 25.8211 9.9716C25.3264 9.9716 24.9157 9.91093 24.5891 9.7896C24.2717 9.65893 24.0151 9.4676 23.8191 9.2156C23.6231 8.9636 23.4831 8.6556 23.3991 8.2916C23.3244 7.91827 23.2871 7.48893 23.2871 7.0036V0.5076L24.5891 0.2836V2.5376Z" fill="#05195E"/>
<path d="M34.7999 9.6076C34.5012 9.68227 34.1046 9.7616 33.6099 9.8456C33.1246 9.9296 32.5599 9.9716 31.9159 9.9716C31.3559 9.9716 30.8846 9.89227 30.5019 9.7336C30.1192 9.5656 29.8112 9.33227 29.5779 9.0336C29.3446 8.73493 29.1766 8.38493 29.0739 7.9836C28.9712 7.57293 28.9199 7.12027 28.9199 6.6256V2.5376H30.2219V6.3456C30.2219 7.23227 30.3619 7.86693 30.6419 8.2496C30.9219 8.63227 31.3932 8.8236 32.0559 8.8236C32.1959 8.8236 32.3406 8.81893 32.4899 8.8096C32.6392 8.80027 32.7792 8.79093 32.9099 8.7816C33.0406 8.76293 33.1572 8.74893 33.2599 8.7396C33.3719 8.72093 33.4512 8.70227 33.4979 8.6836V2.5376H34.7999V9.6076Z" fill="#05195E"/>
<path d="M39.731 2.3836C39.843 2.3836 39.969 2.39293 40.109 2.4116C40.2583 2.42093 40.403 2.4396 40.543 2.4676C40.683 2.48627 40.809 2.5096 40.921 2.5376C41.0423 2.55627 41.131 2.57493 41.187 2.5936L40.963 3.7276C40.8603 3.69027 40.6876 3.64827 40.445 3.6016C40.2116 3.5456 39.9083 3.5176 39.535 3.5176C39.2923 3.5176 39.0496 3.5456 38.807 3.6016C38.5736 3.64827 38.4196 3.68093 38.345 3.6996V9.8176H37.043V2.8456C37.351 2.7336 37.7336 2.63093 38.191 2.5376C38.6483 2.43493 39.1616 2.3836 39.731 2.3836Z" fill="#05195E"/>
<path d="M42.0373 6.1916C42.0373 5.5476 42.1307 4.9876 42.3173 4.5116C42.504 4.02627 42.7513 3.62493 43.0593 3.3076C43.3673 2.99027 43.722 2.75227 44.1233 2.5936C44.5247 2.43493 44.9353 2.3556 45.3553 2.3556C46.3353 2.3556 47.0867 2.6636 47.6093 3.2796C48.132 3.88627 48.3933 4.81493 48.3933 6.0656C48.3933 6.1216 48.3933 6.19627 48.3933 6.2896C48.3933 6.3736 48.3887 6.45293 48.3793 6.5276H43.3953C43.4513 7.2836 43.6707 7.8576 44.0533 8.2496C44.436 8.6416 45.0333 8.8376 45.8453 8.8376C46.3027 8.8376 46.6853 8.80027 46.9933 8.7256C47.3107 8.6416 47.5487 8.56227 47.7073 8.4876L47.8893 9.5796C47.7307 9.6636 47.4507 9.75227 47.0493 9.8456C46.6573 9.93893 46.2093 9.9856 45.7053 9.9856C45.0707 9.9856 44.52 9.89227 44.0533 9.7056C43.596 9.5096 43.218 9.2436 42.9193 8.9076C42.6207 8.5716 42.3967 8.17493 42.2473 7.7176C42.1073 7.25093 42.0373 6.74227 42.0373 6.1916ZM47.0353 5.4776C47.0447 4.8896 46.8953 4.40893 46.5873 4.0356C46.2887 3.65293 45.8733 3.4616 45.3413 3.4616C45.0427 3.4616 44.7767 3.52227 44.5433 3.6436C44.3193 3.7556 44.128 3.90493 43.9693 4.0916C43.8107 4.27827 43.6847 4.49293 43.5913 4.7356C43.5073 4.97827 43.4513 5.2256 43.4233 5.4776H47.0353Z" fill="#05195E"/>
<path d="M51.9577 8.8796C52.4897 8.8796 52.8817 8.8096 53.1337 8.6696C53.395 8.5296 53.5257 8.3056 53.5257 7.9976C53.5257 7.68027 53.3997 7.42827 53.1477 7.2416C52.8957 7.05493 52.4803 6.84493 51.9017 6.6116C51.6217 6.4996 51.351 6.3876 51.0897 6.2756C50.8377 6.15427 50.6183 6.01427 50.4317 5.8556C50.245 5.69693 50.0957 5.5056 49.9837 5.2816C49.8717 5.0576 49.8157 4.78227 49.8157 4.4556C49.8157 3.8116 50.0537 3.30293 50.5297 2.9296C51.0057 2.54693 51.6543 2.3556 52.4757 2.3556C52.681 2.3556 52.8863 2.3696 53.0917 2.3976C53.297 2.41627 53.4883 2.44427 53.6657 2.4816C53.843 2.5096 53.997 2.54227 54.1277 2.5796C54.2677 2.61693 54.375 2.6496 54.4497 2.6776L54.2117 3.7976C54.0717 3.72293 53.8523 3.64827 53.5537 3.5736C53.255 3.4896 52.8957 3.4476 52.4757 3.4476C52.1117 3.4476 51.7943 3.52227 51.5237 3.6716C51.253 3.8116 51.1177 4.0356 51.1177 4.3436C51.1177 4.50227 51.1457 4.64227 51.2017 4.7636C51.267 4.88493 51.3603 4.99693 51.4817 5.0996C51.6123 5.19293 51.771 5.2816 51.9577 5.3656C52.1443 5.4496 52.3683 5.53827 52.6297 5.6316C52.975 5.76227 53.283 5.89293 53.5537 6.0236C53.8243 6.14493 54.053 6.2896 54.2397 6.4576C54.4357 6.6256 54.585 6.83093 54.6877 7.0736C54.7903 7.30693 54.8417 7.59627 54.8417 7.9416C54.8417 8.6136 54.5897 9.12227 54.0857 9.4676C53.591 9.81293 52.8817 9.9856 51.9577 9.9856C51.3137 9.9856 50.8097 9.9296 50.4457 9.8176C50.0817 9.71493 49.8343 9.6356 49.7037 9.5796L49.9417 8.4596C50.091 8.5156 50.329 8.5996 50.6557 8.7116C50.9823 8.8236 51.4163 8.8796 51.9577 8.8796Z" fill="#05195E"/>
</svg>
