<svg width="59" height="11" viewBox="0 0 59 11" fill="none" xmlns="http://www.w3.org/2000/svg">
<path d="M0.21875 5.18562C0.21875 4.35495 0.340083 3.62228 0.58275 2.98762C0.83475 2.35295 1.17075 1.82562 1.59075 1.40561C2.02008 0.976281 2.51475 0.654281 3.07475 0.439615C3.64408 0.224948 4.24608 0.117615 4.88075 0.117615C5.50608 0.117615 6.09408 0.224948 6.64475 0.439615C7.20475 0.654281 7.69475 0.976281 8.11475 1.40561C8.53475 1.82562 8.86608 2.35295 9.10875 2.98762C9.36075 3.62228 9.48675 4.35495 9.48675 5.18562C9.48675 6.01628 9.36075 6.74895 9.10875 7.38362C8.86608 8.01828 8.53475 8.55028 8.11475 8.97962C7.69475 9.39962 7.20475 9.71695 6.64475 9.93161C6.09408 10.1463 5.50608 10.2536 4.88075 10.2536C4.24608 10.2536 3.64408 10.1463 3.07475 9.93161C2.51475 9.71695 2.02008 9.39962 1.59075 8.97962C1.17075 8.55028 0.83475 8.01828 0.58275 7.38362C0.340083 6.74895 0.21875 6.01628 0.21875 5.18562ZM1.64675 5.18562C1.64675 5.77362 1.72142 6.31028 1.87075 6.79562C2.02008 7.27162 2.23008 7.67762 2.50075 8.01362C2.78075 8.34962 3.11675 8.61095 3.50875 8.79762C3.91008 8.97495 4.35808 9.06362 4.85275 9.06362C5.34742 9.06362 5.79075 8.97495 6.18275 8.79762C6.57475 8.61095 6.90608 8.34962 7.17675 8.01362C7.45675 7.67762 7.67142 7.27162 7.82075 6.79562C7.97008 6.31028 8.04475 5.77362 8.04475 5.18562C8.04475 4.59762 7.97008 4.06561 7.82075 3.58961C7.67142 3.10428 7.45675 2.69361 7.17675 2.35761C6.90608 2.02161 6.57475 1.76495 6.18275 1.58762C5.79075 1.40095 5.34742 1.30762 4.85275 1.30762C4.35808 1.30762 3.91008 1.40095 3.50875 1.58762C3.11675 1.76495 2.78075 2.02161 2.50075 2.35761C2.23008 2.69361 2.02008 3.10428 1.87075 3.58961C1.72142 4.06561 1.64675 4.59762 1.64675 5.18562Z" fill="#05195E"/>
<path d="M17.2192 9.83362C16.9206 9.90828 16.5239 9.98762 16.0292 10.0716C15.5439 10.1556 14.9792 10.1976 14.3352 10.1976C13.7752 10.1976 13.3039 10.1183 12.9212 9.95962C12.5386 9.79162 12.2306 9.55828 11.9972 9.25961C11.7639 8.96095 11.5959 8.61095 11.4932 8.20961C11.3906 7.79895 11.3392 7.34628 11.3392 6.85161V2.76361H12.6412V6.57162C12.6412 7.45828 12.7812 8.09295 13.0612 8.47562C13.3412 8.85828 13.8126 9.04961 14.4752 9.04961C14.6152 9.04961 14.7599 9.04495 14.9092 9.03561C15.0586 9.02628 15.1986 9.01695 15.3292 9.00762C15.4599 8.98895 15.5766 8.97495 15.6792 8.96562C15.7912 8.94695 15.8706 8.92828 15.9172 8.90962V2.76361H17.2192V9.83362Z" fill="#05195E"/>
<path d="M22.1503 2.60962C22.2623 2.60962 22.3883 2.61895 22.5283 2.63762C22.6776 2.64695 22.8223 2.66562 22.9623 2.69361C23.1023 2.71228 23.2283 2.73562 23.3403 2.76361C23.4616 2.78228 23.5503 2.80095 23.6063 2.81961L23.3823 3.95362C23.2796 3.91628 23.107 3.87428 22.8643 3.82761C22.631 3.77161 22.3276 3.74362 21.9543 3.74362C21.7116 3.74362 21.469 3.77161 21.2263 3.82761C20.993 3.87428 20.839 3.90695 20.7643 3.92562V10.0436H19.4623V3.07162C19.7703 2.95961 20.153 2.85695 20.6103 2.76361C21.0676 2.66095 21.581 2.60962 22.1503 2.60962Z" fill="#05195E"/>
<path d="M29.3209 2.76361H32.0789V3.85561H29.3209V7.21562C29.3209 7.57962 29.3489 7.88295 29.4049 8.12562C29.4609 8.35895 29.5449 8.54562 29.6569 8.68562C29.7689 8.81628 29.9089 8.90962 30.0769 8.96562C30.2449 9.02162 30.4409 9.04961 30.6649 9.04961C31.0569 9.04961 31.3696 9.00762 31.6029 8.92362C31.8456 8.83028 32.0136 8.76495 32.1069 8.72762L32.3589 9.80562C32.2283 9.87095 31.9996 9.95028 31.6729 10.0436C31.3463 10.1463 30.9729 10.1976 30.5529 10.1976C30.0583 10.1976 29.6476 10.1369 29.3209 10.0156C29.0036 9.88495 28.7469 9.69362 28.5509 9.44162C28.3549 9.18962 28.2149 8.88162 28.1309 8.51762C28.0563 8.14428 28.0189 7.71495 28.0189 7.22962V0.733615L29.3209 0.509614V2.76361Z" fill="#05195E"/>
<path d="M33.193 6.41761C33.193 5.77361 33.2863 5.21362 33.473 4.73762C33.6597 4.25228 33.907 3.85095 34.215 3.53362C34.523 3.21628 34.8777 2.97828 35.279 2.81961C35.6803 2.66095 36.091 2.58161 36.511 2.58161C37.491 2.58161 38.2423 2.88961 38.765 3.50562C39.2877 4.11228 39.549 5.04095 39.549 6.29162C39.549 6.34762 39.549 6.42228 39.549 6.51562C39.549 6.59962 39.5443 6.67895 39.535 6.75362H34.551C34.607 7.50962 34.8263 8.08362 35.209 8.47562C35.5917 8.86762 36.189 9.06362 37.001 9.06362C37.4583 9.06362 37.841 9.02628 38.149 8.95162C38.4664 8.86762 38.7043 8.78828 38.863 8.71362L39.045 9.80562C38.8864 9.88962 38.6064 9.97828 38.205 10.0716C37.813 10.1649 37.365 10.2116 36.861 10.2116C36.2263 10.2116 35.6757 10.1183 35.209 9.93161C34.7517 9.73561 34.3737 9.46962 34.075 9.13362C33.7763 8.79762 33.5523 8.40095 33.403 7.94361C33.263 7.47695 33.193 6.96828 33.193 6.41761ZM38.191 5.70362C38.2004 5.11561 38.051 4.63495 37.743 4.26161C37.4443 3.87895 37.029 3.68762 36.497 3.68762C36.1984 3.68762 35.9324 3.74828 35.699 3.86962C35.475 3.98162 35.2837 4.13095 35.125 4.31762C34.9663 4.50428 34.8404 4.71895 34.747 4.96162C34.663 5.20428 34.607 5.45162 34.579 5.70362H38.191Z" fill="#05195E"/>
<path d="M43.8833 9.10562C44.1913 9.10562 44.462 9.10095 44.6953 9.09162C44.938 9.07295 45.1387 9.04495 45.2973 9.00762V6.83762C45.204 6.79095 45.05 6.75362 44.8353 6.72562C44.63 6.68828 44.378 6.66961 44.0793 6.66961C43.8833 6.66961 43.6733 6.68362 43.4493 6.71162C43.2347 6.73962 43.034 6.80028 42.8473 6.89361C42.67 6.97761 42.5207 7.09895 42.3993 7.25762C42.278 7.40695 42.2173 7.60762 42.2173 7.85962C42.2173 8.32628 42.3667 8.65295 42.6653 8.83961C42.964 9.01695 43.37 9.10562 43.8833 9.10562ZM43.7713 2.58161C44.294 2.58161 44.7327 2.65162 45.0873 2.79162C45.4513 2.92228 45.7407 3.11362 45.9553 3.36561C46.1793 3.60828 46.338 3.90228 46.4313 4.24761C46.5247 4.58361 46.5713 4.95695 46.5713 5.36761V9.91761C46.4593 9.93628 46.3007 9.96428 46.0953 10.0016C45.8993 10.0296 45.6753 10.0576 45.4233 10.0856C45.1713 10.1136 44.896 10.1369 44.5973 10.1556C44.308 10.1836 44.0187 10.1976 43.7293 10.1976C43.3187 10.1976 42.9407 10.1556 42.5953 10.0716C42.25 9.98762 41.9513 9.85695 41.6993 9.67962C41.4473 9.49295 41.2513 9.25028 41.1113 8.95162C40.9713 8.65295 40.9013 8.29362 40.9013 7.87362C40.9013 7.47228 40.9807 7.12695 41.1393 6.83762C41.3073 6.54828 41.5313 6.31495 41.8113 6.13762C42.0913 5.96028 42.418 5.82962 42.7913 5.74562C43.1647 5.66161 43.5567 5.61962 43.9673 5.61962C44.098 5.61962 44.2333 5.62895 44.3733 5.64762C44.5133 5.65695 44.644 5.67561 44.7653 5.70362C44.896 5.72228 45.008 5.74095 45.1013 5.75961C45.1947 5.77828 45.26 5.79228 45.2973 5.80162V5.43762C45.2973 5.22295 45.274 5.01295 45.2273 4.80762C45.1807 4.59295 45.0967 4.40628 44.9753 4.24761C44.854 4.07962 44.686 3.94895 44.4713 3.85561C44.266 3.75295 43.9953 3.70162 43.6593 3.70162C43.23 3.70162 42.852 3.73428 42.5253 3.79961C42.208 3.85561 41.97 3.91628 41.8113 3.98162L41.6573 2.90361C41.8253 2.82895 42.1053 2.75895 42.4973 2.69361C42.8893 2.61895 43.314 2.58161 43.7713 2.58161Z" fill="#05195E"/>
<path d="M48.7338 2.97362C49.0324 2.89895 49.4244 2.81961 49.9098 2.73561C50.4044 2.65161 50.9738 2.60962 51.6178 2.60962C52.0844 2.60962 52.4764 2.67495 52.7938 2.80562C53.1111 2.92695 53.3771 3.10895 53.5918 3.35161C53.6571 3.30495 53.7598 3.23961 53.8998 3.15561C54.0398 3.07161 54.2124 2.99228 54.4178 2.91761C54.6231 2.83361 54.8518 2.76362 55.1038 2.70761C55.3558 2.64228 55.6264 2.60962 55.9158 2.60962C56.4758 2.60962 56.9331 2.69362 57.2878 2.86162C57.6424 3.02028 57.9178 3.24895 58.1138 3.54762C58.3191 3.84628 58.4544 4.20095 58.5198 4.61162C58.5944 5.02228 58.6318 5.47028 58.6318 5.95562V10.0436H57.3298V6.23561C57.3298 5.80628 57.3064 5.43761 57.2598 5.12961C57.2224 4.82161 57.1431 4.56495 57.0218 4.35962C56.9098 4.15428 56.7511 4.00495 56.5458 3.91162C56.3498 3.80895 56.0931 3.75762 55.7758 3.75762C55.3371 3.75762 54.9731 3.81828 54.6838 3.93962C54.4038 4.05162 54.2124 4.15428 54.1098 4.24761C54.1844 4.49028 54.2404 4.75628 54.2778 5.04562C54.3151 5.33495 54.3338 5.63828 54.3338 5.95562V10.0436H53.0318V6.23561C53.0318 5.80628 53.0084 5.43761 52.9618 5.12961C52.9151 4.82161 52.8311 4.56495 52.7098 4.35962C52.5978 4.15428 52.4391 4.00495 52.2338 3.91162C52.0378 3.80895 51.7858 3.75762 51.4778 3.75762C51.3471 3.75762 51.2071 3.76228 51.0578 3.77162C50.9084 3.78095 50.7638 3.79495 50.6238 3.81361C50.4931 3.82295 50.3718 3.83695 50.2598 3.85561C50.1478 3.87428 50.0731 3.88828 50.0358 3.89762V10.0436H48.7338V2.97362Z" fill="#05195E"/>
</svg>
