<svg width="87" height="11" viewBox="0 0 87 11" fill="none" xmlns="http://www.w3.org/2000/svg">
<path d="M7.07475 7.81896C7.07475 8.21096 7.00475 8.57496 6.86475 8.91096C6.73408 9.23763 6.53342 9.52696 6.26275 9.77896C6.00142 10.0216 5.67008 10.2083 5.26875 10.339C4.86742 10.479 4.40542 10.549 3.88275 10.549C3.27608 10.549 2.76742 10.465 2.35675 10.297C1.95542 10.1196 1.63342 9.9003 1.39075 9.63896C1.14808 9.37763 0.975417 9.09296 0.87275 8.78496C0.770083 8.46763 0.71875 8.16896 0.71875 7.88896C0.71875 7.6183 0.76075 7.36163 0.84475 7.11896C0.938083 6.86696 1.05475 6.63363 1.19475 6.41896C1.34408 6.2043 1.51208 6.01296 1.69875 5.84496C1.89475 5.66763 2.10008 5.51363 2.31475 5.38296C1.40008 4.8603 0.94275 4.0903 0.94275 3.07296C0.94275 2.7183 1.01275 2.3823 1.15275 2.06496C1.29275 1.7383 1.48875 1.45363 1.74075 1.21096C2.00208 0.968297 2.31475 0.776964 2.67875 0.636964C3.04275 0.487631 3.44875 0.412964 3.89675 0.412964C4.41942 0.412964 4.86742 0.492297 5.24075 0.650964C5.61408 0.809631 5.91742 1.01496 6.15075 1.26696C6.39342 1.50963 6.56608 1.7803 6.66875 2.07896C6.78075 2.37763 6.83675 2.66696 6.83675 2.94696C6.83675 3.21763 6.79475 3.4743 6.71075 3.71696C6.63608 3.9503 6.52875 4.16963 6.38875 4.37496C6.25808 4.5803 6.10408 4.7623 5.92675 4.92096C5.75875 5.07963 5.58142 5.21963 5.39475 5.34096C6.49608 5.86363 7.05608 6.68963 7.07475 7.81896ZM2.03475 7.90296C2.03475 8.07096 2.06275 8.2483 2.11875 8.43496C2.18408 8.6123 2.29142 8.7803 2.44075 8.93896C2.59008 9.0883 2.78142 9.2143 3.01475 9.31696C3.24808 9.41963 3.54208 9.47096 3.89675 9.47096C4.21408 9.47096 4.48942 9.4243 4.72275 9.33096C4.96542 9.23763 5.16142 9.12096 5.31075 8.98096C5.46008 8.83163 5.57208 8.66363 5.64675 8.47696C5.72142 8.2903 5.75875 8.09896 5.75875 7.90296C5.75875 7.6043 5.70275 7.34296 5.59075 7.11896C5.47875 6.89496 5.31542 6.69896 5.10075 6.53096C4.89542 6.36296 4.64342 6.22296 4.34475 6.11096C4.05542 5.98963 3.72408 5.88696 3.35075 5.80296C2.93075 6.0363 2.60408 6.32563 2.37075 6.67096C2.14675 7.0163 2.03475 7.42696 2.03475 7.90296ZM5.53475 2.93296C5.53475 2.79296 5.50208 2.63896 5.43675 2.47096C5.38075 2.30296 5.28742 2.14896 5.15675 2.00896C5.02608 1.85963 4.85808 1.7383 4.65275 1.64496C4.44742 1.5423 4.19542 1.49096 3.89675 1.49096C3.59808 1.49096 3.34142 1.53763 3.12675 1.63096C2.92142 1.7243 2.75342 1.84563 2.62275 1.99496C2.49208 2.13496 2.39408 2.29363 2.32875 2.47096C2.27275 2.63896 2.24475 2.80696 2.24475 2.97496C2.24475 3.1803 2.28208 3.38563 2.35675 3.59096C2.43142 3.7963 2.54808 3.98763 2.70675 4.16496C2.86542 4.3423 3.07075 4.50096 3.32275 4.64096C3.58408 4.78096 3.89208 4.89296 4.24675 4.97696C4.63875 4.74363 4.95142 4.47296 5.18475 4.16496C5.41808 3.84763 5.53475 3.43696 5.53475 2.93296Z" fill="#05195E"/>
<path d="M14.9771 7.81896C14.9771 8.21096 14.9071 8.57496 14.7671 8.91096C14.6364 9.23763 14.4358 9.52696 14.1651 9.77896C13.9038 10.0216 13.5724 10.2083 13.1711 10.339C12.7698 10.479 12.3078 10.549 11.7851 10.549C11.1784 10.549 10.6698 10.465 10.2591 10.297C9.85776 10.1196 9.53576 9.9003 9.29309 9.63896C9.05043 9.37763 8.87776 9.09296 8.77509 8.78496C8.67243 8.46763 8.62109 8.16896 8.62109 7.88896C8.62109 7.6183 8.66309 7.36163 8.74709 7.11896C8.84043 6.86696 8.95709 6.63363 9.09709 6.41896C9.24643 6.2043 9.41443 6.01296 9.60109 5.84496C9.79709 5.66763 10.0024 5.51363 10.2171 5.38296C9.30243 4.8603 8.84509 4.0903 8.84509 3.07296C8.84509 2.7183 8.91509 2.3823 9.05509 2.06496C9.19509 1.7383 9.39109 1.45363 9.64309 1.21096C9.90443 0.968297 10.2171 0.776964 10.5811 0.636964C10.9451 0.487631 11.3511 0.412964 11.7991 0.412964C12.3218 0.412964 12.7698 0.492297 13.1431 0.650964C13.5164 0.809631 13.8198 1.01496 14.0531 1.26696C14.2958 1.50963 14.4684 1.7803 14.5711 2.07896C14.6831 2.37763 14.7391 2.66696 14.7391 2.94696C14.7391 3.21763 14.6971 3.4743 14.6131 3.71696C14.5384 3.9503 14.4311 4.16963 14.2911 4.37496C14.1604 4.5803 14.0064 4.7623 13.8291 4.92096C13.6611 5.07963 13.4838 5.21963 13.2971 5.34096C14.3984 5.86363 14.9584 6.68963 14.9771 7.81896ZM9.93709 7.90296C9.93709 8.07096 9.96509 8.2483 10.0211 8.43496C10.0864 8.6123 10.1938 8.7803 10.3431 8.93896C10.4924 9.0883 10.6838 9.2143 10.9171 9.31696C11.1504 9.41963 11.4444 9.47096 11.7991 9.47096C12.1164 9.47096 12.3918 9.4243 12.6251 9.33096C12.8678 9.23763 13.0638 9.12096 13.2131 8.98096C13.3624 8.83163 13.4744 8.66363 13.5491 8.47696C13.6238 8.2903 13.6611 8.09896 13.6611 7.90296C13.6611 7.6043 13.6051 7.34296 13.4931 7.11896C13.3811 6.89496 13.2178 6.69896 13.0031 6.53096C12.7978 6.36296 12.5458 6.22296 12.2471 6.11096C11.9578 5.98963 11.6264 5.88696 11.2531 5.80296C10.8331 6.0363 10.5064 6.32563 10.2731 6.67096C10.0491 7.0163 9.93709 7.42696 9.93709 7.90296ZM13.4371 2.93296C13.4371 2.79296 13.4044 2.63896 13.3391 2.47096C13.2831 2.30296 13.1898 2.14896 13.0591 2.00896C12.9284 1.85963 12.7604 1.7383 12.5551 1.64496C12.3498 1.5423 12.0978 1.49096 11.7991 1.49096C11.5004 1.49096 11.2438 1.53763 11.0291 1.63096C10.8238 1.7243 10.6558 1.84563 10.5251 1.99496C10.3944 2.13496 10.2964 2.29363 10.2311 2.47096C10.1751 2.63896 10.1471 2.80696 10.1471 2.97496C10.1471 3.1803 10.1844 3.38563 10.2591 3.59096C10.3338 3.7963 10.4504 3.98763 10.6091 4.16496C10.7678 4.3423 10.9731 4.50096 11.2251 4.64096C11.4864 4.78096 11.7944 4.89296 12.1491 4.97696C12.5411 4.74363 12.8538 4.47296 13.0871 4.16496C13.3204 3.84763 13.4371 3.43696 13.4371 2.93296Z" fill="#05195E"/>
<path d="M22.2914 3.11496C22.2914 3.45096 22.2214 3.77763 22.0814 4.09496C21.9508 4.40296 21.7734 4.71096 21.5494 5.01896C21.3254 5.31763 21.0734 5.6163 20.7934 5.91496C20.5134 6.2043 20.2334 6.48896 19.9534 6.76896C19.7948 6.92763 19.6081 7.1143 19.3934 7.32896C19.1881 7.54363 18.9921 7.76763 18.8054 8.00096C18.6188 8.2343 18.4601 8.4583 18.3294 8.67296C18.2081 8.88763 18.1474 9.0743 18.1474 9.23296H22.6134V10.339H16.7334C16.7241 10.283 16.7194 10.227 16.7194 10.171C16.7194 10.115 16.7194 10.0636 16.7194 10.017C16.7194 9.5783 16.7894 9.1723 16.9294 8.79896C17.0788 8.4163 17.2701 8.05696 17.5034 7.72096C17.7368 7.38496 17.9981 7.06763 18.2874 6.76896C18.5768 6.4703 18.8614 6.18096 19.1414 5.90096C19.3748 5.67696 19.5941 5.45763 19.7994 5.24296C20.0141 5.01896 20.2008 4.79963 20.3594 4.58496C20.5274 4.36096 20.6581 4.1323 20.7514 3.89896C20.8541 3.66563 20.9054 3.4183 20.9054 3.15696C20.9054 2.87696 20.8588 2.63896 20.7654 2.44296C20.6814 2.24696 20.5648 2.08363 20.4154 1.95296C20.2661 1.8223 20.0888 1.72896 19.8834 1.67296C19.6874 1.60763 19.4774 1.57496 19.2534 1.57496C18.9828 1.57496 18.7354 1.6123 18.5114 1.68696C18.2874 1.76163 18.0868 1.8503 17.9094 1.95296C17.7321 2.0463 17.5828 2.14896 17.4614 2.26096C17.3401 2.36363 17.2468 2.44296 17.1814 2.49896L16.5374 1.57496C16.6214 1.48163 16.7474 1.36963 16.9154 1.23896C17.0834 1.09896 17.2841 0.968297 17.5174 0.846964C17.7508 0.72563 18.0121 0.622964 18.3014 0.538964C18.5908 0.454964 18.9034 0.412964 19.2394 0.412964C20.2568 0.412964 21.0174 0.650964 21.5214 1.12696C22.0348 1.59363 22.2914 2.2563 22.2914 3.11496Z" fill="#05195E"/>
<path d="M24.0198 5.53696H27.4778V6.75496H24.0198V5.53696Z" fill="#05195E"/>
<path d="M30.6254 4.37496C32.0347 4.43096 33.066 4.73896 33.7194 5.29896C34.382 5.85896 34.7134 6.61963 34.7134 7.58096C34.7134 8.0103 34.6387 8.40696 34.4894 8.77096C34.3494 9.13496 34.13 9.44763 33.8314 9.70896C33.542 9.9703 33.1734 10.1756 32.7254 10.325C32.2774 10.4743 31.7454 10.549 31.1294 10.549C30.8867 10.549 30.6394 10.5303 30.3874 10.493C30.1354 10.4556 29.902 10.409 29.6874 10.353C29.4727 10.297 29.2814 10.241 29.1134 10.185C28.9454 10.129 28.824 10.0823 28.7494 10.045L29.0014 8.91096C29.16 8.98563 29.4167 9.08363 29.7714 9.20496C30.1354 9.3263 30.5787 9.38696 31.1014 9.38696C31.5214 9.38696 31.8714 9.3403 32.1514 9.24696C32.4407 9.15363 32.674 9.02763 32.8514 8.86896C33.0287 8.7103 33.1547 8.5283 33.2294 8.32296C33.3134 8.1083 33.3554 7.8843 33.3554 7.65096C33.3554 7.2963 33.2947 6.98363 33.1734 6.71296C33.052 6.43296 32.8374 6.19963 32.5294 6.01296C32.2214 5.8263 31.8107 5.6863 31.2974 5.59296C30.784 5.4903 30.1354 5.43896 29.3514 5.43896C29.4074 4.98163 29.4494 4.5523 29.4774 4.15096C29.5147 3.74963 29.5474 3.35763 29.5754 2.97496C29.6034 2.5923 29.6267 2.2143 29.6454 1.84096C29.664 1.4583 29.6827 1.05696 29.7014 0.636964H34.3774V1.74296H30.8354C30.826 1.88296 30.812 2.0743 30.7934 2.31696C30.7747 2.5503 30.756 2.79763 30.7374 3.05896C30.7187 3.31096 30.7 3.5583 30.6814 3.80096C30.6627 4.04363 30.644 4.23496 30.6254 4.37496Z" fill="#05195E"/>
<path d="M42.8677 7.81896C42.8677 8.21096 42.7977 8.57496 42.6577 8.91096C42.5271 9.23763 42.3264 9.52696 42.0557 9.77896C41.7944 10.0216 41.4631 10.2083 41.0617 10.339C40.6604 10.479 40.1984 10.549 39.6757 10.549C39.0691 10.549 38.5604 10.465 38.1497 10.297C37.7484 10.1196 37.4264 9.9003 37.1837 9.63896C36.9411 9.37763 36.7684 9.09296 36.6657 8.78496C36.5631 8.46763 36.5117 8.16896 36.5117 7.88896C36.5117 7.6183 36.5537 7.36163 36.6377 7.11896C36.7311 6.86696 36.8477 6.63363 36.9877 6.41896C37.1371 6.2043 37.3051 6.01296 37.4917 5.84496C37.6877 5.66763 37.8931 5.51363 38.1077 5.38296C37.1931 4.8603 36.7357 4.0903 36.7357 3.07296C36.7357 2.7183 36.8057 2.3823 36.9457 2.06496C37.0857 1.7383 37.2817 1.45363 37.5337 1.21096C37.7951 0.968297 38.1077 0.776964 38.4717 0.636964C38.8357 0.487631 39.2417 0.412964 39.6897 0.412964C40.2124 0.412964 40.6604 0.492297 41.0337 0.650964C41.4071 0.809631 41.7104 1.01496 41.9437 1.26696C42.1864 1.50963 42.3591 1.7803 42.4617 2.07896C42.5737 2.37763 42.6297 2.66696 42.6297 2.94696C42.6297 3.21763 42.5877 3.4743 42.5037 3.71696C42.4291 3.9503 42.3217 4.16963 42.1817 4.37496C42.0511 4.5803 41.8971 4.7623 41.7197 4.92096C41.5517 5.07963 41.3744 5.21963 41.1877 5.34096C42.2891 5.86363 42.8491 6.68963 42.8677 7.81896ZM37.8277 7.90296C37.8277 8.07096 37.8557 8.2483 37.9117 8.43496C37.977 8.6123 38.0844 8.7803 38.2337 8.93896C38.3831 9.0883 38.5744 9.2143 38.8077 9.31696C39.0411 9.41963 39.3351 9.47096 39.6897 9.47096C40.0071 9.47096 40.2824 9.4243 40.5157 9.33096C40.7584 9.23763 40.9544 9.12096 41.1037 8.98096C41.2531 8.83163 41.3651 8.66363 41.4397 8.47696C41.5144 8.2903 41.5517 8.09896 41.5517 7.90296C41.5517 7.6043 41.4957 7.34296 41.3837 7.11896C41.2717 6.89496 41.1084 6.69896 40.8937 6.53096C40.6884 6.36296 40.4364 6.22296 40.1377 6.11096C39.8484 5.98963 39.5171 5.88696 39.1437 5.80296C38.7237 6.0363 38.3971 6.32563 38.1637 6.67096C37.9397 7.0163 37.8277 7.42696 37.8277 7.90296ZM41.3277 2.93296C41.3277 2.79296 41.2951 2.63896 41.2297 2.47096C41.1737 2.30296 41.0804 2.14896 40.9497 2.00896C40.8191 1.85963 40.6511 1.7383 40.4457 1.64496C40.2404 1.5423 39.9884 1.49096 39.6897 1.49096C39.3911 1.49096 39.1344 1.53763 38.9197 1.63096C38.7144 1.7243 38.5464 1.84563 38.4157 1.99496C38.2851 2.13496 38.1871 2.29363 38.1217 2.47096C38.0657 2.63896 38.0377 2.80696 38.0377 2.97496C38.0377 3.1803 38.0751 3.38563 38.1497 3.59096C38.2244 3.7963 38.3411 3.98763 38.4997 4.16496C38.6584 4.3423 38.8637 4.50096 39.1157 4.64096C39.3771 4.78096 39.6851 4.89296 40.0397 4.97696C40.4317 4.74363 40.7444 4.47296 40.9777 4.16496C41.2111 3.84763 41.3277 3.43696 41.3277 2.93296Z" fill="#05195E"/>
<path d="M45.9261 10.339C45.9821 9.5923 46.1127 8.8083 46.3181 7.98696C46.5327 7.1563 46.7941 6.35363 47.1021 5.57896C47.4101 4.79496 47.7461 4.07163 48.1101 3.40896C48.4834 2.73696 48.8474 2.19096 49.2021 1.77096H44.4841V0.636964H50.6581V1.71496C50.3501 2.06963 50.0094 2.55963 49.6361 3.18496C49.2627 3.80096 48.9081 4.4963 48.5721 5.27096C48.2454 6.0363 47.9607 6.85763 47.7181 7.73496C47.4847 8.60296 47.3401 9.47096 47.2841 10.339H45.9261Z" fill="#05195E"/>
<path d="M51.9104 5.53696H55.3684V6.75496H51.9104V5.53696Z" fill="#05195E"/>
<path d="M58.894 9.38696C59.7247 9.38696 60.3173 9.22363 60.672 8.89696C61.036 8.5703 61.218 8.13163 61.218 7.58096C61.218 7.2263 61.1433 6.92763 60.994 6.68496C60.8447 6.4423 60.6487 6.25096 60.406 6.11096C60.1633 5.96163 59.8787 5.85896 59.552 5.80296C59.2347 5.73763 58.908 5.70496 58.572 5.70496H58.236V4.64096H58.698C58.9313 4.64096 59.1693 4.61763 59.412 4.57096C59.664 4.5243 59.8927 4.4403 60.098 4.31896C60.3033 4.19763 60.4713 4.0343 60.602 3.82896C60.7327 3.6143 60.798 3.3483 60.798 3.03096C60.798 2.76963 60.7513 2.54563 60.658 2.35896C60.5647 2.1723 60.4387 2.0183 60.28 1.89696C60.1307 1.77563 59.9533 1.69163 59.748 1.64496C59.552 1.58896 59.342 1.56096 59.118 1.56096C58.67 1.56096 58.2873 1.6263 57.97 1.75696C57.662 1.88763 57.4007 2.02296 57.186 2.16296L56.682 1.16896C56.794 1.0943 56.934 1.01496 57.102 0.930964C57.2793 0.83763 57.4753 0.75363 57.69 0.678964C57.9047 0.604297 58.1333 0.543631 58.376 0.496964C58.628 0.440964 58.8893 0.412964 59.16 0.412964C59.6733 0.412964 60.1167 0.478297 60.49 0.608964C60.8633 0.730297 61.1713 0.907631 61.414 1.14096C61.6567 1.36496 61.8387 1.63563 61.96 1.95296C62.0813 2.26096 62.142 2.59696 62.142 2.96096C62.142 3.46496 61.9973 3.89896 61.708 4.26296C61.4187 4.61763 61.0687 4.8883 60.658 5.07496C60.91 5.14963 61.1527 5.25696 61.386 5.39696C61.6193 5.53696 61.82 5.7143 61.988 5.92896C62.1653 6.14363 62.3053 6.39096 62.408 6.67096C62.52 6.95096 62.576 7.26363 62.576 7.60896C62.576 8.02896 62.5013 8.42096 62.352 8.78496C62.212 9.13963 61.988 9.44763 61.68 9.70896C61.3813 9.9703 61.0033 10.1756 60.546 10.325C60.0887 10.4743 59.5473 10.549 58.922 10.549C58.6793 10.549 58.4273 10.5303 58.166 10.493C57.914 10.4556 57.676 10.409 57.452 10.353C57.228 10.297 57.032 10.241 56.864 10.185C56.696 10.129 56.5747 10.0823 56.5 10.045L56.752 8.91096C56.9107 8.98563 57.172 9.08363 57.536 9.20496C57.9093 9.3263 58.362 9.38696 58.894 9.38696Z" fill="#05195E"/>
<path d="M64.3323 5.48096C64.3323 3.85696 64.617 2.6063 65.1863 1.72896C65.765 0.851631 66.563 0.412964 67.5803 0.412964C68.5977 0.412964 69.391 0.851631 69.9604 1.72896C70.539 2.6063 70.8283 3.85696 70.8283 5.48096C70.8283 7.10496 70.539 8.35563 69.9604 9.23296C69.391 10.1103 68.5977 10.549 67.5803 10.549C66.563 10.549 65.765 10.1103 65.1863 9.23296C64.617 8.35563 64.3323 7.10496 64.3323 5.48096ZM69.4563 5.48096C69.4563 4.94896 69.4237 4.44496 69.3583 3.96896C69.3023 3.49296 69.1997 3.07763 69.0503 2.72296C68.9103 2.3683 68.719 2.0883 68.4763 1.88296C68.2337 1.6683 67.935 1.56096 67.5803 1.56096C67.2257 1.56096 66.927 1.6683 66.6843 1.88296C66.4417 2.0883 66.2457 2.3683 66.0963 2.72296C65.9563 3.07763 65.8537 3.49296 65.7883 3.96896C65.7323 4.44496 65.7043 4.94896 65.7043 5.48096C65.7043 6.01296 65.7323 6.51696 65.7883 6.99296C65.8537 7.46896 65.9563 7.8843 66.0963 8.23896C66.2457 8.59363 66.4417 8.8783 66.6843 9.09296C66.927 9.2983 67.2257 9.40096 67.5803 9.40096C67.935 9.40096 68.2337 9.2983 68.4763 9.09296C68.719 8.8783 68.9103 8.59363 69.0503 8.23896C69.1997 7.8843 69.3023 7.46896 69.3583 6.99296C69.4237 6.51696 69.4563 6.01296 69.4563 5.48096Z" fill="#05195E"/>
<path d="M78.0727 3.11496C78.0727 3.45096 78.0027 3.77763 77.8627 4.09496C77.732 4.40296 77.5547 4.71096 77.3307 5.01896C77.1067 5.31763 76.8547 5.6163 76.5747 5.91496C76.2947 6.2043 76.0147 6.48896 75.7347 6.76896C75.576 6.92763 75.3894 7.1143 75.1747 7.32896C74.9694 7.54363 74.7734 7.76763 74.5867 8.00096C74.4 8.2343 74.2414 8.4583 74.1107 8.67296C73.9894 8.88763 73.9287 9.0743 73.9287 9.23296H78.3947V10.339H72.5147C72.5054 10.283 72.5007 10.227 72.5007 10.171C72.5007 10.115 72.5007 10.0636 72.5007 10.017C72.5007 9.5783 72.5707 9.1723 72.7107 8.79896C72.86 8.4163 73.0514 8.05696 73.2847 7.72096C73.518 7.38496 73.7794 7.06763 74.0687 6.76896C74.358 6.4703 74.6427 6.18096 74.9227 5.90096C75.156 5.67696 75.3754 5.45763 75.5807 5.24296C75.7954 5.01896 75.982 4.79963 76.1407 4.58496C76.3087 4.36096 76.4394 4.1323 76.5327 3.89896C76.6354 3.66563 76.6867 3.4183 76.6867 3.15696C76.6867 2.87696 76.64 2.63896 76.5467 2.44296C76.4627 2.24696 76.346 2.08363 76.1967 1.95296C76.0474 1.8223 75.87 1.72896 75.6647 1.67296C75.4687 1.60763 75.2587 1.57496 75.0347 1.57496C74.764 1.57496 74.5167 1.6123 74.2927 1.68696C74.0687 1.76163 73.868 1.8503 73.6907 1.95296C73.5134 2.0463 73.364 2.14896 73.2427 2.26096C73.1214 2.36363 73.028 2.44296 72.9627 2.49896L72.3187 1.57496C72.4027 1.48163 72.5287 1.36963 72.6967 1.23896C72.8647 1.09896 73.0654 0.968297 73.2987 0.846964C73.532 0.72563 73.7934 0.622964 74.0827 0.538964C74.372 0.454964 74.6847 0.412964 75.0207 0.412964C76.038 0.412964 76.7987 0.650964 77.3027 1.12696C77.816 1.59363 78.0727 2.2563 78.0727 3.11496Z" fill="#05195E"/>
<path d="M82.223 4.37496C83.6324 4.43096 84.6637 4.73896 85.317 5.29896C85.9797 5.85896 86.311 6.61963 86.311 7.58096C86.311 8.0103 86.2364 8.40696 86.087 8.77096C85.947 9.13496 85.7277 9.44763 85.429 9.70896C85.1397 9.9703 84.771 10.1756 84.323 10.325C83.875 10.4743 83.343 10.549 82.727 10.549C82.4844 10.549 82.237 10.5303 81.985 10.493C81.733 10.4556 81.4997 10.409 81.285 10.353C81.0704 10.297 80.879 10.241 80.711 10.185C80.543 10.129 80.4217 10.0823 80.347 10.045L80.599 8.91096C80.7577 8.98563 81.0144 9.08363 81.369 9.20496C81.733 9.3263 82.1764 9.38696 82.699 9.38696C83.119 9.38696 83.469 9.3403 83.749 9.24696C84.0384 9.15363 84.2717 9.02763 84.449 8.86896C84.6264 8.7103 84.7524 8.5283 84.827 8.32296C84.911 8.1083 84.953 7.8843 84.953 7.65096C84.953 7.2963 84.8924 6.98363 84.771 6.71296C84.6497 6.43296 84.435 6.19963 84.127 6.01296C83.819 5.8263 83.4084 5.6863 82.895 5.59296C82.3817 5.4903 81.733 5.43896 80.949 5.43896C81.005 4.98163 81.047 4.5523 81.075 4.15096C81.1124 3.74963 81.145 3.35763 81.173 2.97496C81.201 2.5923 81.2244 2.2143 81.243 1.84096C81.2617 1.4583 81.2804 1.05696 81.299 0.636964H85.975V1.74296H82.433C82.4237 1.88296 82.4097 2.0743 82.391 2.31696C82.3724 2.5503 82.3537 2.79763 82.335 3.05896C82.3164 3.31096 82.2977 3.5583 82.279 3.80096C82.2604 4.04363 82.2417 4.23496 82.223 4.37496Z" fill="#05195E"/>
</svg>
