<svg width="52" height="14" viewBox="0 0 52 14" fill="none" xmlns="http://www.w3.org/2000/svg">
<path d="M3.98819 9.62962C5.40685 9.62962 6.11619 9.14428 6.11619 8.17362C6.11619 7.87495 6.05085 7.62295 5.92019 7.41762C5.79885 7.20295 5.63085 7.02095 5.41619 6.87162C5.20152 6.71295 4.95419 6.57762 4.67419 6.46562C4.40352 6.35362 4.11419 6.24162 3.80619 6.12962C3.45152 6.00828 3.11552 5.87295 2.79819 5.72362C2.48085 5.56495 2.20552 5.38295 1.97219 5.17762C1.73885 4.96295 1.55219 4.71095 1.41219 4.42162C1.28152 4.13228 1.21619 3.78228 1.21619 3.37162C1.21619 2.52228 1.50552 1.85962 2.08419 1.38362C2.66285 0.907616 3.46085 0.669617 4.47819 0.669617C5.06619 0.669617 5.59819 0.73495 6.07419 0.865617C6.55952 0.98695 6.91419 1.12228 7.13819 1.27162L6.70419 2.37762C6.50819 2.25628 6.21419 2.13962 5.82219 2.02762C5.43952 1.90628 4.99152 1.84562 4.47819 1.84562C4.21685 1.84562 3.97419 1.87362 3.75019 1.92962C3.52619 1.98562 3.33019 2.06962 3.16219 2.18162C2.99419 2.29362 2.85885 2.43828 2.75619 2.61562C2.66285 2.78362 2.61619 2.98428 2.61619 3.21762C2.61619 3.47895 2.66752 3.69828 2.77019 3.87562C2.87285 4.05295 3.01752 4.21162 3.20419 4.35162C3.39085 4.48228 3.60552 4.60362 3.84819 4.71562C4.10019 4.82762 4.37552 4.93962 4.67419 5.05162C5.09419 5.21962 5.47685 5.38762 5.82219 5.55562C6.17685 5.72362 6.48019 5.92428 6.73219 6.15762C6.99352 6.39095 7.19419 6.67095 7.33419 6.99762C7.47419 7.31495 7.54419 7.70228 7.54419 8.15962C7.54419 9.00895 7.23152 9.66228 6.60619 10.1196C5.99019 10.577 5.11752 10.8056 3.98819 10.8056C3.60552 10.8056 3.25085 10.7776 2.92419 10.7216C2.60685 10.675 2.32219 10.619 2.07019 10.5536C1.81819 10.479 1.59885 10.4043 1.41219 10.3296C1.23485 10.2456 1.09485 10.1756 0.992188 10.1196L1.39819 8.99962C1.61285 9.12095 1.93952 9.25628 2.37819 9.40562C2.81685 9.55495 3.35352 9.62962 3.98819 9.62962Z" fill="#05195E"/>
<path d="M14.8974 10.3856C14.5987 10.4603 14.202 10.5396 13.7074 10.6236C13.222 10.7076 12.6574 10.7496 12.0134 10.7496C11.4534 10.7496 10.982 10.6703 10.5994 10.5116C10.2167 10.3436 9.90869 10.1103 9.67536 9.81162C9.44203 9.51295 9.27403 9.16295 9.17136 8.76162C9.06869 8.35095 9.01736 7.89828 9.01736 7.40362V3.31562H10.3194V7.12362C10.3194 8.01028 10.4594 8.64495 10.7394 9.02762C11.0194 9.41028 11.4907 9.60162 12.1534 9.60162C12.2934 9.60162 12.438 9.59695 12.5874 9.58762C12.7367 9.57828 12.8767 9.56895 13.0074 9.55962C13.138 9.54095 13.2547 9.52695 13.3574 9.51762C13.4694 9.49895 13.5487 9.48028 13.5954 9.46162V3.31562H14.8974V10.3856Z" fill="#05195E"/>
<path d="M22.1944 6.96962C22.1944 6.12028 21.9844 5.46695 21.5644 5.00962C21.1444 4.55228 20.5844 4.32362 19.8844 4.32362C19.4924 4.32362 19.1844 4.33762 18.9604 4.36562C18.7458 4.39362 18.5731 4.42628 18.4424 4.46362V9.05562C18.6011 9.18628 18.8298 9.31228 19.1284 9.43362C19.4271 9.55495 19.7538 9.61562 20.1084 9.61562C20.4818 9.61562 20.7991 9.55028 21.0604 9.41962C21.3311 9.27962 21.5504 9.09295 21.7184 8.85962C21.8864 8.61695 22.0078 8.33695 22.0824 8.01962C22.1571 7.69295 22.1944 7.34295 22.1944 6.96962ZM23.5524 6.96962C23.5524 7.52028 23.4778 8.02895 23.3284 8.49562C23.1884 8.96228 22.9784 9.36362 22.6984 9.69962C22.4184 10.0356 22.0731 10.297 21.6624 10.4836C21.2611 10.6703 20.7991 10.7636 20.2764 10.7636C19.8564 10.7636 19.4831 10.7076 19.1564 10.5956C18.8391 10.4836 18.6011 10.3763 18.4424 10.2736V13.1856H17.1404V3.53962C17.4484 3.46495 17.8311 3.38562 18.2884 3.30162C18.7551 3.20828 19.2918 3.16162 19.8984 3.16162C20.4584 3.16162 20.9624 3.25028 21.4104 3.42762C21.8584 3.60495 22.2411 3.85695 22.5584 4.18362C22.8758 4.51028 23.1184 4.91162 23.2864 5.38762C23.4638 5.85428 23.5524 6.38162 23.5524 6.96962Z" fill="#05195E"/>
<path d="M30.4386 6.96962C30.4386 6.12028 30.2286 5.46695 29.8086 5.00962C29.3886 4.55228 28.8286 4.32362 28.1286 4.32362C27.7366 4.32362 27.4286 4.33762 27.2046 4.36562C26.9899 4.39362 26.8172 4.42628 26.6866 4.46362V9.05562C26.8452 9.18628 27.0739 9.31228 27.3726 9.43362C27.6712 9.55495 27.9979 9.61562 28.3526 9.61562C28.7259 9.61562 29.0432 9.55028 29.3046 9.41962C29.5752 9.27962 29.7946 9.09295 29.9626 8.85962C30.1306 8.61695 30.2519 8.33695 30.3266 8.01962C30.4012 7.69295 30.4386 7.34295 30.4386 6.96962ZM31.7966 6.96962C31.7966 7.52028 31.7219 8.02895 31.5726 8.49562C31.4326 8.96228 31.2226 9.36362 30.9426 9.69962C30.6626 10.0356 30.3172 10.297 29.9066 10.4836C29.5052 10.6703 29.0432 10.7636 28.5206 10.7636C28.1006 10.7636 27.7272 10.7076 27.4006 10.5956C27.0832 10.4836 26.8452 10.3763 26.6866 10.2736V13.1856H25.3846V3.53962C25.6926 3.46495 26.0752 3.38562 26.5326 3.30162C26.9992 3.20828 27.5359 3.16162 28.1426 3.16162C28.7026 3.16162 29.2066 3.25028 29.6546 3.42762C30.1026 3.60495 30.4852 3.85695 30.8026 4.18362C31.1199 4.51028 31.3626 4.91162 31.5306 5.38762C31.7079 5.85428 31.7966 6.38162 31.7966 6.96962Z" fill="#05195E"/>
<path d="M40.0547 6.95562C40.0547 7.53428 39.9707 8.05695 39.8027 8.52362C39.6347 8.99028 39.3967 9.39162 39.0887 9.72762C38.79 10.0636 38.4307 10.325 38.0107 10.5116C37.5907 10.689 37.1334 10.7776 36.6387 10.7776C36.144 10.7776 35.6867 10.689 35.2667 10.5116C34.8467 10.325 34.4827 10.0636 34.1747 9.72762C33.876 9.39162 33.6427 8.99028 33.4747 8.52362C33.3067 8.05695 33.2227 7.53428 33.2227 6.95562C33.2227 6.38628 33.3067 5.86828 33.4747 5.40162C33.6427 4.92562 33.876 4.51962 34.1747 4.18362C34.4827 3.84762 34.8467 3.59095 35.2667 3.41362C35.6867 3.22695 36.144 3.13362 36.6387 3.13362C37.1334 3.13362 37.5907 3.22695 38.0107 3.41362C38.4307 3.59095 38.79 3.84762 39.0887 4.18362C39.3967 4.51962 39.6347 4.92562 39.8027 5.40162C39.9707 5.86828 40.0547 6.38628 40.0547 6.95562ZM38.6967 6.95562C38.6967 6.13428 38.51 5.48562 38.1367 5.00962C37.7727 4.52428 37.2734 4.28162 36.6387 4.28162C36.004 4.28162 35.5 4.52428 35.1267 5.00962C34.7627 5.48562 34.5807 6.13428 34.5807 6.95562C34.5807 7.77695 34.7627 8.43028 35.1267 8.91562C35.5 9.39162 36.004 9.62962 36.6387 9.62962C37.2734 9.62962 37.7727 9.39162 38.1367 8.91562C38.51 8.43028 38.6967 7.77695 38.6967 6.95562Z" fill="#05195E"/>
<path d="M44.5745 3.16162C44.6865 3.16162 44.8125 3.17095 44.9525 3.18962C45.1018 3.19895 45.2465 3.21762 45.3865 3.24562C45.5265 3.26428 45.6525 3.28762 45.7645 3.31562C45.8858 3.33428 45.9745 3.35295 46.0305 3.37162L45.8065 4.50562C45.7038 4.46828 45.5312 4.42628 45.2885 4.37962C45.0552 4.32362 44.7518 4.29562 44.3785 4.29562C44.1358 4.29562 43.8932 4.32362 43.6505 4.37962C43.4172 4.42628 43.2632 4.45895 43.1885 4.47762V10.5956H41.8865V3.62362C42.1945 3.51162 42.5772 3.40895 43.0345 3.31562C43.4918 3.21295 44.0052 3.16162 44.5745 3.16162Z" fill="#05195E"/>
<path d="M48.5049 3.31562H51.2629V4.40762H48.5049V7.76762C48.5049 8.13162 48.5329 8.43495 48.5889 8.67762C48.6449 8.91095 48.7289 9.09762 48.8409 9.23762C48.9529 9.36828 49.0929 9.46162 49.2609 9.51762C49.4289 9.57362 49.6249 9.60162 49.8489 9.60162C50.2409 9.60162 50.5536 9.55962 50.7869 9.47562C51.0296 9.38228 51.1976 9.31695 51.2909 9.27962L51.5429 10.3576C51.4122 10.423 51.1836 10.5023 50.8569 10.5956C50.5302 10.6983 50.1569 10.7496 49.7369 10.7496C49.2422 10.7496 48.8316 10.689 48.5049 10.5676C48.1876 10.437 47.9309 10.2456 47.7349 9.99362C47.5389 9.74162 47.3989 9.43362 47.3149 9.06962C47.2402 8.69628 47.2029 8.26695 47.2029 7.78162V1.28562L48.5049 1.06162V3.31562Z" fill="#05195E"/>
</svg>
