<svg width="43" height="14" viewBox="0 0 43 14" fill="none" xmlns="http://www.w3.org/2000/svg">
<path d="M3.56819 1.36362C4.93085 1.36362 5.97619 1.62495 6.70419 2.14762C7.44152 2.66095 7.81019 3.43095 7.81019 4.45762C7.81019 5.01762 7.70752 5.49829 7.50219 5.89962C7.30619 6.29162 7.01685 6.61362 6.63419 6.86562C6.26085 7.10829 5.80352 7.28562 5.26219 7.39762C4.72085 7.50962 4.10952 7.56562 3.42819 7.56562H2.35019V11.1636H0.992188V1.60162C1.37485 1.50829 1.79952 1.44762 2.26619 1.41962C2.74219 1.38229 3.17619 1.36362 3.56819 1.36362ZM3.68019 2.55362C3.10152 2.55362 2.65819 2.56762 2.35019 2.59562V6.40362H3.37219C3.83885 6.40362 4.25885 6.37562 4.63219 6.31962C5.00552 6.25429 5.31819 6.15162 5.57019 6.01162C5.83152 5.86229 6.03219 5.66162 6.17219 5.40962C6.31219 5.15762 6.38219 4.83562 6.38219 4.44362C6.38219 4.07029 6.30752 3.76229 6.15819 3.51962C6.01819 3.27695 5.82219 3.08562 5.57019 2.94562C5.32752 2.79629 5.04285 2.69362 4.71619 2.63762C4.38952 2.58162 4.04419 2.55362 3.68019 2.55362Z" fill="#05195E"/>
<path d="M12.1138 3.72962C12.2258 3.72962 12.3518 3.73895 12.4918 3.75762C12.6411 3.76695 12.7858 3.78562 12.9258 3.81362C13.0658 3.83229 13.1918 3.85562 13.3038 3.88362C13.4251 3.90229 13.5138 3.92095 13.5698 3.93962L13.3458 5.07362C13.2431 5.03629 13.0704 4.99429 12.8278 4.94762C12.5944 4.89162 12.2911 4.86362 11.9178 4.86362C11.6751 4.86362 11.4324 4.89162 11.1898 4.94762C10.9564 4.99429 10.8024 5.02695 10.7278 5.04562V11.1636H9.42577V4.19162C9.73377 4.07962 10.1164 3.97695 10.5738 3.88362C11.0311 3.78095 11.5444 3.72962 12.1138 3.72962Z" fill="#05195E"/>
<path d="M16.1282 11.1636H14.8262V3.88362H16.1282V11.1636ZM15.4702 2.56762C15.2368 2.56762 15.0362 2.49295 14.8682 2.34362C14.7095 2.18495 14.6302 1.97495 14.6302 1.71362C14.6302 1.45229 14.7095 1.24695 14.8682 1.09762C15.0362 0.938953 15.2368 0.859619 15.4702 0.859619C15.7035 0.859619 15.8995 0.938953 16.0582 1.09762C16.2262 1.24695 16.3102 1.45229 16.3102 1.71362C16.3102 1.97495 16.2262 2.18495 16.0582 2.34362C15.8995 2.49295 15.7035 2.56762 15.4702 2.56762Z" fill="#05195E"/>
<path d="M21.5312 11.3316C20.9432 11.3316 20.4252 11.2383 19.9772 11.0516C19.5385 10.865 19.1652 10.6036 18.8572 10.2676C18.5585 9.93162 18.3345 9.53495 18.1852 9.07762C18.0358 8.61095 17.9612 8.09762 17.9612 7.53762C17.9612 6.97762 18.0405 6.46429 18.1992 5.99762C18.3672 5.53095 18.6005 5.12962 18.8992 4.79362C19.1978 4.44829 19.5618 4.18229 19.9912 3.99562C20.4298 3.79962 20.9152 3.70162 21.4472 3.70162C21.7738 3.70162 22.1005 3.72962 22.4272 3.78562C22.7538 3.84162 23.0665 3.93029 23.3652 4.05162L23.0712 5.15762C22.8752 5.06429 22.6465 4.98962 22.3852 4.93362C22.1332 4.87762 21.8625 4.84962 21.5732 4.84962C20.8452 4.84962 20.2852 5.07829 19.8932 5.53562C19.5105 5.99295 19.3192 6.66029 19.3192 7.53762C19.3192 7.92962 19.3612 8.28895 19.4452 8.61562C19.5385 8.94229 19.6785 9.22229 19.8652 9.45562C20.0612 9.68895 20.3085 9.87095 20.6072 10.0016C20.9058 10.123 21.2698 10.1836 21.6992 10.1836C22.0445 10.1836 22.3572 10.151 22.6372 10.0856C22.9172 10.0203 23.1365 9.95029 23.2952 9.87562L23.4772 10.9676C23.4025 11.0143 23.2952 11.061 23.1552 11.1076C23.0152 11.145 22.8565 11.1776 22.6792 11.2056C22.5018 11.243 22.3105 11.271 22.1052 11.2896C21.9092 11.3176 21.7178 11.3316 21.5312 11.3316Z" fill="#05195E"/>
<path d="M26.177 11.1636H24.875V3.88362H26.177V11.1636ZM25.519 2.56762C25.2857 2.56762 25.085 2.49295 24.917 2.34362C24.7583 2.18495 24.679 1.97495 24.679 1.71362C24.679 1.45229 24.7583 1.24695 24.917 1.09762C25.085 0.938953 25.2857 0.859619 25.519 0.859619C25.7523 0.859619 25.9483 0.938953 26.107 1.09762C26.275 1.24695 26.359 1.45229 26.359 1.71362C26.359 1.97495 26.275 2.18495 26.107 2.34362C25.9483 2.49295 25.7523 2.56762 25.519 2.56762Z" fill="#05195E"/>
<path d="M28.416 4.09362C28.7147 4.01895 29.1113 3.93962 29.606 3.85562C30.1007 3.77162 30.67 3.72962 31.314 3.72962C31.8927 3.72962 32.3733 3.81362 32.756 3.98162C33.1387 4.14029 33.442 4.36895 33.666 4.66762C33.8993 4.95695 34.0627 5.30695 34.156 5.71762C34.2493 6.12829 34.296 6.58095 34.296 7.07562V11.1636H32.994V7.35562C32.994 6.90762 32.9613 6.52495 32.896 6.20762C32.84 5.89029 32.742 5.63362 32.602 5.43762C32.462 5.24162 32.2753 5.10162 32.042 5.01762C31.8087 4.92429 31.5193 4.87762 31.174 4.87762C31.034 4.87762 30.8893 4.88229 30.74 4.89162C30.5907 4.90095 30.446 4.91495 30.306 4.93362C30.1753 4.94295 30.054 4.95695 29.942 4.97562C29.8393 4.99429 29.7647 5.00829 29.718 5.01762V11.1636H28.416V4.09362Z" fill="#05195E"/>
<path d="M41.0191 10.4356C40.9071 10.5103 40.6877 10.6083 40.3611 10.7296C40.0437 10.8416 39.6704 10.8976 39.2411 10.8976C38.8024 10.8976 38.3871 10.8276 37.9951 10.6876C37.6124 10.5476 37.2764 10.333 36.9871 10.0436C36.6977 9.74495 36.4691 9.37629 36.3011 8.93762C36.1331 8.49895 36.0491 7.97629 36.0491 7.36962C36.0491 6.83762 36.1284 6.35229 36.2871 5.91362C36.4457 5.46562 36.6744 5.08295 36.9731 4.76562C37.2811 4.43895 37.6544 4.18695 38.0931 4.00962C38.5317 3.82295 39.0264 3.72962 39.5771 3.72962C40.1837 3.72962 40.7111 3.77629 41.1591 3.86962C41.6164 3.95362 41.9991 4.03295 42.3071 4.10762V10.6036C42.3071 11.7236 42.0177 12.5356 41.4391 13.0396C40.8604 13.5436 39.9831 13.7956 38.8071 13.7956C38.3497 13.7956 37.9157 13.7583 37.5051 13.6836C37.1037 13.609 36.7537 13.5203 36.4551 13.4176L36.6931 12.2836C36.9544 12.3863 37.2717 12.475 37.6451 12.5496C38.0277 12.6336 38.4244 12.6756 38.8351 12.6756C39.6097 12.6756 40.1651 12.5216 40.5011 12.2136C40.8464 11.9056 41.0191 11.4156 41.0191 10.7436V10.4356ZM41.0051 5.03162C40.8744 4.99429 40.6971 4.96162 40.4731 4.93362C40.2584 4.89629 39.9644 4.87762 39.5911 4.87762C38.8911 4.87762 38.3497 5.10629 37.9671 5.56362C37.5937 6.02095 37.4071 6.62762 37.4071 7.38362C37.4071 7.80362 37.4584 8.16295 37.5611 8.46162C37.6731 8.76029 37.8177 9.00762 37.9951 9.20362C38.1817 9.39962 38.3917 9.54429 38.6251 9.63762C38.8677 9.73095 39.1151 9.77762 39.3671 9.77762C39.7124 9.77762 40.0297 9.73095 40.3191 9.63762C40.6084 9.53495 40.8371 9.41829 41.0051 9.28762V5.03162Z" fill="#05195E"/>
</svg>
