<svg width="93" height="14" viewBox="0 0 93 14" fill="none" xmlns="http://www.w3.org/2000/svg">
<path d="M2.21675 11.2283H0.91475V3.94826H2.21675V11.2283ZM1.55875 2.63226C1.32542 2.63226 1.12475 2.55759 0.95675 2.40826C0.798083 2.24959 0.71875 2.03959 0.71875 1.77826C0.71875 1.51692 0.798083 1.31159 0.95675 1.16226C1.12475 1.00359 1.32542 0.924257 1.55875 0.924257C1.79208 0.924257 1.98808 1.00359 2.14675 1.16226C2.31475 1.31159 2.39875 1.51692 2.39875 1.77826C2.39875 2.03959 2.31475 2.24959 2.14675 2.40826C1.98808 2.55759 1.79208 2.63226 1.55875 2.63226Z" fill="#05195E"/>
<path d="M4.45577 4.15826C4.75443 4.08359 5.1511 4.00426 5.64577 3.92026C6.14043 3.83626 6.70977 3.79426 7.35377 3.79426C7.93243 3.79426 8.4131 3.87826 8.79577 4.04626C9.17843 4.20492 9.48177 4.43359 9.70577 4.73226C9.9391 5.02159 10.1024 5.37159 10.1958 5.78226C10.2891 6.19292 10.3358 6.64559 10.3358 7.14026V11.2283H9.03377V7.42026C9.03377 6.97226 9.0011 6.58959 8.93577 6.27226C8.87977 5.95492 8.78177 5.69826 8.64177 5.50226C8.50177 5.30626 8.3151 5.16626 8.08177 5.08226C7.84843 4.98892 7.5591 4.94226 7.21377 4.94226C7.07377 4.94226 6.9291 4.94692 6.77977 4.95626C6.63043 4.96559 6.48577 4.97959 6.34577 4.99826C6.2151 5.00759 6.09377 5.02159 5.98177 5.04026C5.8791 5.05892 5.80443 5.07292 5.75777 5.08226V11.2283H4.45577V4.15826Z" fill="#05195E"/>
<path d="M15.3368 0.364258C15.7195 0.364258 16.0462 0.392258 16.3168 0.448257C16.5968 0.504257 16.7928 0.555591 16.9048 0.602257L16.6668 1.72226C16.5548 1.66626 16.3962 1.61492 16.1908 1.56826C15.9855 1.51226 15.7335 1.48426 15.4348 1.48426C14.8282 1.48426 14.4035 1.65226 14.1608 1.98826C13.9182 2.31492 13.7968 2.75826 13.7968 3.31826V3.94826H16.5968V5.04026H13.7968V11.2283H12.4948V3.29026C12.4948 2.35692 12.7235 1.63826 13.1808 1.13426C13.6382 0.620924 14.3568 0.364258 15.3368 0.364258Z" fill="#05195E"/>
<path d="M24.3212 7.58826C24.3212 8.16692 24.2372 8.68959 24.0692 9.15626C23.9012 9.62292 23.6632 10.0243 23.3552 10.3603C23.0566 10.6963 22.6972 10.9576 22.2772 11.1443C21.8572 11.3216 21.3999 11.4103 20.9052 11.4103C20.4106 11.4103 19.9532 11.3216 19.5332 11.1443C19.1132 10.9576 18.7492 10.6963 18.4412 10.3603C18.1426 10.0243 17.9092 9.62292 17.7412 9.15626C17.5732 8.68959 17.4892 8.16692 17.4892 7.58826C17.4892 7.01892 17.5732 6.50092 17.7412 6.03426C17.9092 5.55826 18.1426 5.15226 18.4412 4.81626C18.7492 4.48026 19.1132 4.22359 19.5332 4.04626C19.9532 3.85959 20.4106 3.76626 20.9052 3.76626C21.3999 3.76626 21.8572 3.85959 22.2772 4.04626C22.6972 4.22359 23.0566 4.48026 23.3552 4.81626C23.6632 5.15226 23.9012 5.55826 24.0692 6.03426C24.2372 6.50092 24.3212 7.01892 24.3212 7.58826ZM22.9632 7.58826C22.9632 6.76692 22.7766 6.11826 22.4032 5.64226C22.0392 5.15692 21.5399 4.91426 20.9052 4.91426C20.2706 4.91426 19.7666 5.15692 19.3932 5.64226C19.0292 6.11826 18.8472 6.76692 18.8472 7.58826C18.8472 8.40959 19.0292 9.06292 19.3932 9.54826C19.7666 10.0243 20.2706 10.2623 20.9052 10.2623C21.5399 10.2623 22.0392 10.0243 22.4032 9.54826C22.7766 9.06292 22.9632 8.40959 22.9632 7.58826Z" fill="#05195E"/>
<path d="M34.693 10.6263C34.3944 10.6263 34.147 10.5843 33.951 10.5003C33.755 10.4163 33.5917 10.3043 33.461 10.1643C33.2557 10.2763 33.0084 10.3743 32.719 10.4583C32.4297 10.5329 32.1404 10.5703 31.851 10.5703C31.403 10.5703 30.9924 10.5003 30.619 10.3603C30.255 10.2203 29.9377 10.0149 29.667 9.74426C29.3964 9.46426 29.1864 9.12359 29.037 8.72226C28.8877 8.32092 28.813 7.85426 28.813 7.32226C28.813 6.87426 28.883 6.45426 29.023 6.06226C29.163 5.66092 29.3684 5.31559 29.639 5.02626C29.919 4.72759 30.255 4.49426 30.647 4.32626C31.0484 4.15826 31.501 4.07426 32.005 4.07426C32.481 4.07426 32.915 4.11159 33.307 4.18626C33.7084 4.26092 34.0164 4.33559 34.231 4.41026V8.69426C34.231 8.99292 34.2824 9.20292 34.385 9.32426C34.4877 9.44559 34.623 9.50626 34.791 9.50626C35.0337 9.50626 35.2437 9.42226 35.421 9.25426C35.6077 9.08626 35.757 8.86692 35.869 8.59626C35.9904 8.32559 36.079 8.02226 36.135 7.68626C36.191 7.34092 36.219 6.99092 36.219 6.63626C36.219 6.04826 36.1164 5.49759 35.911 4.98426C35.7057 4.46159 35.4117 4.00426 35.029 3.61226C34.6464 3.22026 34.1797 2.91226 33.629 2.68826C33.0877 2.46426 32.4764 2.35226 31.795 2.35226C31.1137 2.35226 30.4884 2.46892 29.919 2.70226C29.3497 2.92626 28.8597 3.25292 28.449 3.68226C28.0384 4.10226 27.7164 4.62026 27.483 5.23626C27.259 5.85226 27.147 6.55226 27.147 7.33626C27.147 8.15759 27.2684 8.88092 27.511 9.50626C27.7537 10.1223 28.0897 10.6403 28.519 11.0603C28.9577 11.4709 29.471 11.7789 30.059 11.9843C30.6564 12.1989 31.3097 12.3063 32.019 12.3063C32.5697 12.3063 33.0224 12.2736 33.377 12.2083C33.741 12.1429 33.9744 12.0916 34.077 12.0543L34.217 13.0903C34.0584 13.1463 33.769 13.2069 33.349 13.2723C32.9384 13.3376 32.495 13.3703 32.019 13.3703C31.1884 13.3703 30.4044 13.2489 29.667 13.0063C28.9297 12.7729 28.2857 12.4089 27.735 11.9143C27.1844 11.4289 26.7457 10.8083 26.419 10.0523C26.1017 9.28693 25.943 8.38159 25.943 7.33626C25.943 6.32826 26.1017 5.44626 26.419 4.69026C26.7364 3.93426 27.161 3.30892 27.693 2.81426C28.2344 2.31026 28.855 1.93226 29.555 1.68026C30.2644 1.42826 31.011 1.30226 31.795 1.30226C32.5604 1.30226 33.2837 1.42826 33.965 1.68026C34.6464 1.92292 35.2437 2.28226 35.757 2.75826C36.2704 3.22492 36.6764 3.79426 36.975 4.46626C37.2737 5.12892 37.423 5.88026 37.423 6.72026C37.423 7.35492 37.3484 7.91492 37.199 8.40026C37.059 8.88559 36.8677 9.29626 36.625 9.63226C36.3824 9.95893 36.093 10.2063 35.757 10.3743C35.421 10.5423 35.0664 10.6263 34.693 10.6263ZM31.893 9.49226C32.089 9.49226 32.285 9.47359 32.481 9.43626C32.6864 9.38959 32.8684 9.32426 33.027 9.24026C32.999 9.11892 32.9804 8.99759 32.971 8.87626C32.9617 8.75492 32.957 8.63826 32.957 8.52626V5.23626C32.901 5.21759 32.7937 5.19892 32.635 5.18026C32.4764 5.16159 32.299 5.15226 32.103 5.15226C31.4404 5.15226 30.9457 5.35759 30.619 5.76826C30.2924 6.17892 30.129 6.69692 30.129 7.32226C30.129 7.98492 30.2877 8.51226 30.605 8.90426C30.9224 9.29626 31.3517 9.49226 31.893 9.49226Z" fill="#05195E"/>
<path d="M42.0878 7.22426C42.3678 7.43893 42.6618 7.70492 42.9698 8.02226C43.2871 8.33959 43.5951 8.68492 43.8938 9.05826C44.2018 9.42226 44.4911 9.79559 44.7618 10.1783C45.0324 10.5516 45.2611 10.9016 45.4478 11.2283H43.9218C43.7258 10.9016 43.4971 10.5703 43.2358 10.2343C42.9838 9.88892 42.7178 9.56226 42.4378 9.25426C42.1578 8.93692 41.8731 8.64759 41.5838 8.38626C41.2944 8.12492 41.0191 7.90559 40.7578 7.72826V11.2283H39.4558V0.588257L40.7578 0.364258V7.00026C40.9818 6.77626 41.2291 6.52892 41.4998 6.25826C41.7704 5.98759 42.0364 5.71226 42.2978 5.43226C42.5591 5.15226 42.8064 4.88626 43.0398 4.63426C43.2731 4.37292 43.4738 4.14426 43.6418 3.94826H45.1678C44.9531 4.18159 44.7198 4.43826 44.4678 4.71826C44.2158 4.99826 43.9544 5.28292 43.6838 5.57226C43.4131 5.85226 43.1378 6.13692 42.8578 6.42626C42.5871 6.70626 42.3304 6.97226 42.0878 7.22426Z" fill="#05195E"/>
<path d="M45.9951 7.60226C45.9951 6.95826 46.0884 6.39826 46.2751 5.92226C46.4617 5.43692 46.7091 5.03559 47.0171 4.71826C47.3251 4.40092 47.6797 4.16292 48.0811 4.00426C48.4824 3.84559 48.8931 3.76626 49.3131 3.76626C50.2931 3.76626 51.0444 4.07426 51.5671 4.69026C52.0897 5.29692 52.3511 6.22559 52.3511 7.47626C52.3511 7.53226 52.3511 7.60692 52.3511 7.70026C52.3511 7.78426 52.3464 7.86359 52.3371 7.93826H47.3531C47.4091 8.69426 47.6284 9.26826 48.0111 9.66026C48.3937 10.0523 48.9911 10.2483 49.8031 10.2483C50.2604 10.2483 50.6431 10.2109 50.9511 10.1363C51.2684 10.0523 51.5064 9.97292 51.6651 9.89826L51.8471 10.9903C51.6884 11.0743 51.4084 11.1629 51.0071 11.2563C50.6151 11.3496 50.1671 11.3963 49.6631 11.3963C49.0284 11.3963 48.4777 11.3029 48.0111 11.1163C47.5537 10.9203 47.1757 10.6543 46.8771 10.3183C46.5784 9.98226 46.3544 9.58559 46.2051 9.12826C46.0651 8.66159 45.9951 8.15292 45.9951 7.60226ZM50.9931 6.88826C51.0024 6.30026 50.8531 5.81959 50.5451 5.44626C50.2464 5.06359 49.8311 4.87226 49.2991 4.87226C49.0004 4.87226 48.7344 4.93292 48.5011 5.05426C48.2771 5.16626 48.0857 5.31559 47.9271 5.50226C47.7684 5.68892 47.6424 5.90359 47.5491 6.14626C47.4651 6.38892 47.4091 6.63626 47.3811 6.88826H50.9931Z" fill="#05195E"/>
<path d="M54.2214 4.15826C54.5201 4.08359 54.9167 4.00426 55.4114 3.92026C55.9061 3.83626 56.4754 3.79426 57.1194 3.79426C57.6981 3.79426 58.1787 3.87826 58.5614 4.04626C58.9441 4.20492 59.2474 4.43359 59.4714 4.73226C59.7047 5.02159 59.8681 5.37159 59.9614 5.78226C60.0547 6.19292 60.1014 6.64559 60.1014 7.14026V11.2283H58.7994V7.42026C58.7994 6.97226 58.7667 6.58959 58.7014 6.27226C58.6454 5.95492 58.5474 5.69826 58.4074 5.50226C58.2674 5.30626 58.0807 5.16626 57.8474 5.08226C57.6141 4.98892 57.3247 4.94226 56.9794 4.94226C56.8394 4.94226 56.6947 4.94692 56.5454 4.95626C56.3961 4.96559 56.2514 4.97959 56.1114 4.99826C55.9807 5.00759 55.8594 5.02159 55.7474 5.04026C55.6447 5.05892 55.5701 5.07292 55.5234 5.08226V11.2283H54.2214V4.15826Z" fill="#05195E"/>
<path d="M61.8545 7.60226C61.8545 6.95826 61.9478 6.39826 62.1345 5.92226C62.3211 5.43692 62.5685 5.03559 62.8765 4.71826C63.1845 4.40092 63.5391 4.16292 63.9405 4.00426C64.3418 3.84559 64.7524 3.76626 65.1724 3.76626C66.1524 3.76626 66.9038 4.07426 67.4265 4.69026C67.9491 5.29692 68.2104 6.22559 68.2104 7.47626C68.2104 7.53226 68.2104 7.60692 68.2104 7.70026C68.2104 7.78426 68.2058 7.86359 68.1964 7.93826H63.2125C63.2685 8.69426 63.4878 9.26826 63.8705 9.66026C64.2531 10.0523 64.8505 10.2483 65.6625 10.2483C66.1198 10.2483 66.5024 10.2109 66.8104 10.1363C67.1278 10.0523 67.3658 9.97292 67.5245 9.89826L67.7065 10.9903C67.5478 11.0743 67.2678 11.1629 66.8664 11.2563C66.4744 11.3496 66.0265 11.3963 65.5225 11.3963C64.8878 11.3963 64.3371 11.3029 63.8705 11.1163C63.4131 10.9203 63.0351 10.6543 62.7365 10.3183C62.4378 9.98226 62.2138 9.58559 62.0645 9.12826C61.9245 8.66159 61.8545 8.15292 61.8545 7.60226ZM66.8524 6.88826C66.8618 6.30026 66.7124 5.81959 66.4044 5.44626C66.1058 5.06359 65.6904 4.87226 65.1584 4.87226C64.8598 4.87226 64.5938 4.93292 64.3605 5.05426C64.1365 5.16626 63.9451 5.31559 63.7865 5.50226C63.6278 5.68892 63.5018 5.90359 63.4085 6.14626C63.3245 6.38892 63.2685 6.63626 63.2405 6.88826H66.8524Z" fill="#05195E"/>
<path d="M71.7748 10.2903C72.3068 10.2903 72.6988 10.2203 72.9508 10.0803C73.2121 9.94026 73.3428 9.71626 73.3428 9.40826C73.3428 9.09093 73.2168 8.83892 72.9648 8.65226C72.7128 8.46559 72.2974 8.25559 71.7188 8.02226C71.4388 7.91026 71.1681 7.79826 70.9068 7.68626C70.6548 7.56493 70.4354 7.42493 70.2488 7.26626C70.0621 7.10759 69.9128 6.91626 69.8008 6.69226C69.6888 6.46826 69.6328 6.19292 69.6328 5.86626C69.6328 5.22226 69.8708 4.71359 70.3468 4.34026C70.8228 3.95759 71.4714 3.76626 72.2928 3.76626C72.4981 3.76626 72.7034 3.78026 72.9088 3.80826C73.1141 3.82693 73.3054 3.85492 73.4828 3.89226C73.6601 3.92026 73.8141 3.95292 73.9448 3.99026C74.0848 4.02759 74.1921 4.06026 74.2668 4.08826L74.0288 5.20826C73.8888 5.13359 73.6694 5.05892 73.3708 4.98426C73.0721 4.90026 72.7128 4.85826 72.2928 4.85826C71.9288 4.85826 71.6114 4.93292 71.3408 5.08226C71.0701 5.22226 70.9348 5.44626 70.9348 5.75426C70.9348 5.91292 70.9628 6.05292 71.0188 6.17426C71.0841 6.29559 71.1774 6.40759 71.2988 6.51026C71.4294 6.60359 71.5881 6.69226 71.7748 6.77626C71.9614 6.86026 72.1854 6.94892 72.4468 7.04226C72.7921 7.17292 73.1001 7.30359 73.3708 7.43426C73.6414 7.55559 73.8701 7.70026 74.0568 7.86826C74.2528 8.03626 74.4021 8.24159 74.5048 8.48426C74.6074 8.71759 74.6588 9.00692 74.6588 9.35226C74.6588 10.0243 74.4068 10.5329 73.9028 10.8783C73.4081 11.2236 72.6988 11.3963 71.7748 11.3963C71.1308 11.3963 70.6268 11.3403 70.2628 11.2283C69.8988 11.1256 69.6514 11.0463 69.5208 10.9903L69.7588 9.87026C69.9081 9.92626 70.1461 10.0103 70.4728 10.1223C70.7994 10.2343 71.2334 10.2903 71.7748 10.2903Z" fill="#05195E"/>
<path d="M77.8688 10.4723C77.8688 10.7243 77.7848 10.9436 77.6168 11.1303C77.4488 11.3169 77.2201 11.4103 76.9308 11.4103C76.6415 11.4103 76.4128 11.3169 76.2448 11.1303C76.0768 10.9436 75.9928 10.7243 75.9928 10.4723C75.9928 10.2203 76.0768 10.0009 76.2448 9.81426C76.4128 9.62759 76.6415 9.53426 76.9308 9.53426C77.2201 9.53426 77.4488 9.62759 77.6168 9.81426C77.7848 10.0009 77.8688 10.2203 77.8688 10.4723Z" fill="#05195E"/>
<path d="M82.4061 7.22426C82.6861 7.43893 82.9801 7.70492 83.2881 8.02226C83.6055 8.33959 83.9135 8.68492 84.2121 9.05826C84.5201 9.42226 84.8095 9.79559 85.0801 10.1783C85.3508 10.5516 85.5795 10.9016 85.7661 11.2283H84.2401C84.0441 10.9016 83.8155 10.5703 83.5541 10.2343C83.3021 9.88892 83.0361 9.56226 82.7561 9.25426C82.4761 8.93692 82.1915 8.64759 81.9021 8.38626C81.6128 8.12492 81.3375 7.90559 81.0761 7.72826V11.2283H79.7741V0.588257L81.0761 0.364258V7.00026C81.3001 6.77626 81.5475 6.52892 81.8181 6.25826C82.0888 5.98759 82.3548 5.71226 82.6161 5.43226C82.8775 5.15226 83.1248 4.88626 83.3581 4.63426C83.5915 4.37292 83.7921 4.14426 83.9601 3.94826H85.4861C85.2715 4.18159 85.0381 4.43826 84.7861 4.71826C84.5341 4.99826 84.2728 5.28292 84.0021 5.57226C83.7315 5.85226 83.4561 6.13692 83.1761 6.42626C82.9055 6.70626 82.6488 6.97226 82.4061 7.22426Z" fill="#05195E"/>
<path d="M91.9186 4.92826C91.7226 5.14292 91.4612 5.44626 91.1346 5.83826C90.8172 6.23026 90.4719 6.66426 90.0986 7.14026C89.7346 7.61626 89.3659 8.11559 88.9926 8.63826C88.6286 9.16092 88.3066 9.66026 88.0266 10.1363H92.0306V11.2283H86.4726V10.3603C86.6966 9.94959 86.9719 9.49692 87.2986 9.00226C87.6252 8.50759 87.9659 8.01759 88.3206 7.53226C88.6846 7.03759 89.0346 6.57559 89.3706 6.14626C89.7159 5.70759 90.0146 5.33892 90.2666 5.04026H86.6686V3.94826H91.9186V4.92826Z" fill="#05195E"/>
</svg>
