<svg width="48" height="11" viewBox="0 0 48 11" fill="none" xmlns="http://www.w3.org/2000/svg">
<path d="M4.78275 10.1856C4.10142 10.1856 3.48075 10.0736 2.92075 9.84962C2.36075 9.62562 1.88008 9.29896 1.47875 8.86962C1.07742 8.44029 0.76475 7.91296 0.54075 7.28762C0.326083 6.65296 0.21875 5.92962 0.21875 5.11762C0.21875 4.30562 0.340083 3.58695 0.58275 2.96162C0.83475 2.32696 1.17075 1.79496 1.59075 1.36562C2.01075 0.936289 2.50075 0.609622 3.06075 0.385621C3.62075 0.161621 4.21808 0.0496216 4.85275 0.0496216C5.25408 0.0496216 5.61342 0.0776218 5.93075 0.133622C6.25742 0.189622 6.53742 0.254955 6.77075 0.329622C7.01342 0.404289 7.20942 0.478955 7.35875 0.553622C7.50808 0.628289 7.61075 0.684289 7.66675 0.721622L7.27475 1.84162C7.19075 1.78562 7.06942 1.72496 6.91075 1.65962C6.75208 1.59429 6.57008 1.52896 6.36475 1.46362C6.16875 1.39829 5.94942 1.34696 5.70675 1.30962C5.47342 1.26296 5.23542 1.23962 4.99275 1.23962C4.47942 1.23962 4.01742 1.32829 3.60675 1.50562C3.19608 1.68296 2.84608 1.93962 2.55675 2.27562C2.26742 2.61162 2.04342 3.02229 1.88475 3.50762C1.73542 3.98362 1.66075 4.52029 1.66075 5.11762C1.66075 5.69629 1.72608 6.22362 1.85675 6.69962C1.99675 7.17562 2.20208 7.58629 2.47275 7.93162C2.74342 8.26762 3.07942 8.52896 3.48075 8.71562C3.89142 8.90229 4.36742 8.99562 4.90875 8.99562C5.53408 8.99562 6.05208 8.93029 6.46275 8.79962C6.87342 8.66896 7.18142 8.55229 7.38675 8.44962L7.73675 9.56962C7.67142 9.61629 7.55475 9.67696 7.38675 9.75162C7.21875 9.81696 7.00875 9.88229 6.75675 9.94762C6.50475 10.013 6.21075 10.069 5.87475 10.1156C5.53875 10.1623 5.17475 10.1856 4.78275 10.1856Z" fill="#05195E"/>
<path d="M11.6724 9.03762C11.9804 9.03762 12.2511 9.03296 12.4844 9.02362C12.7271 9.00496 12.9277 8.97696 13.0864 8.93962V6.76962C12.9931 6.72296 12.8391 6.68562 12.6244 6.65762C12.4191 6.62029 12.1671 6.60162 11.8684 6.60162C11.6724 6.60162 11.4624 6.61562 11.2384 6.64362C11.0237 6.67162 10.8231 6.73229 10.6364 6.82562C10.4591 6.90962 10.3097 7.03096 10.1884 7.18962C10.0671 7.33896 10.0064 7.53962 10.0064 7.79162C10.0064 8.25829 10.1557 8.58496 10.4544 8.77162C10.7531 8.94896 11.1591 9.03762 11.6724 9.03762ZM11.5604 2.51362C12.0831 2.51362 12.5217 2.58362 12.8764 2.72362C13.2404 2.85429 13.5297 3.04562 13.7444 3.29762C13.9684 3.54029 14.1271 3.83429 14.2204 4.17962C14.3137 4.51562 14.3604 4.88895 14.3604 5.29962V9.84962C14.2484 9.86829 14.0897 9.89629 13.8844 9.93362C13.6884 9.96162 13.4644 9.98962 13.2124 10.0176C12.9604 10.0456 12.6851 10.069 12.3864 10.0876C12.0971 10.1156 11.8077 10.1296 11.5184 10.1296C11.1077 10.1296 10.7297 10.0876 10.3844 10.0036C10.0391 9.91962 9.74039 9.78896 9.48839 9.61162C9.23639 9.42496 9.04039 9.18229 8.90039 8.88362C8.76039 8.58496 8.69039 8.22562 8.69039 7.80562C8.69039 7.40429 8.76972 7.05896 8.92839 6.76962C9.09639 6.48029 9.32039 6.24696 9.60039 6.06962C9.88039 5.89229 10.2071 5.76162 10.5804 5.67762C10.9537 5.59362 11.3457 5.55162 11.7564 5.55162C11.8871 5.55162 12.0224 5.56096 12.1624 5.57962C12.3024 5.58896 12.4331 5.60762 12.5544 5.63562C12.6851 5.65429 12.7971 5.67296 12.8904 5.69162C12.9837 5.71029 13.0491 5.72429 13.0864 5.73362V5.36962C13.0864 5.15496 13.0631 4.94496 13.0164 4.73962C12.9697 4.52496 12.8857 4.33829 12.7644 4.17962C12.6431 4.01162 12.4751 3.88096 12.2604 3.78762C12.0551 3.68496 11.7844 3.63362 11.4484 3.63362C11.0191 3.63362 10.6411 3.66629 10.3144 3.73162C9.99706 3.78762 9.75906 3.84829 9.60039 3.91362L9.44639 2.83562C9.61439 2.76096 9.89439 2.69096 10.2864 2.62562C10.6784 2.55095 11.1031 2.51362 11.5604 2.51362Z" fill="#05195E"/>
<path d="M19.2108 2.54162C19.3228 2.54162 19.4488 2.55096 19.5888 2.56962C19.7382 2.57896 19.8828 2.59762 20.0228 2.62562C20.1628 2.64429 20.2888 2.66762 20.4008 2.69562C20.5222 2.71429 20.6108 2.73295 20.6668 2.75162L20.4428 3.88562C20.3402 3.84829 20.1675 3.80629 19.9248 3.75962C19.6915 3.70362 19.3882 3.67562 19.0148 3.67562C18.7722 3.67562 18.5295 3.70362 18.2868 3.75962C18.0535 3.80629 17.8995 3.83896 17.8248 3.85762V9.97562H16.5228V3.00362C16.8308 2.89162 17.2135 2.78895 17.6708 2.69562C18.1282 2.59296 18.6415 2.54162 19.2108 2.54162Z" fill="#05195E"/>
<path d="M21.5172 6.34962C21.5172 5.70562 21.6106 5.14562 21.7972 4.66962C21.9839 4.18429 22.2312 3.78296 22.5392 3.46562C22.8472 3.14829 23.2019 2.91029 23.6032 2.75162C24.0046 2.59295 24.4152 2.51362 24.8352 2.51362C25.8152 2.51362 26.5666 2.82162 27.0892 3.43762C27.6119 4.04429 27.8732 4.97296 27.8732 6.22362C27.8732 6.27962 27.8732 6.35429 27.8732 6.44762C27.8732 6.53162 27.8686 6.61096 27.8592 6.68562H22.8752C22.9312 7.44162 23.1506 8.01562 23.5332 8.40762C23.9159 8.79962 24.5132 8.99562 25.3252 8.99562C25.7826 8.99562 26.1652 8.95829 26.4732 8.88362C26.7906 8.79962 27.0286 8.72029 27.1872 8.64562L27.3692 9.73762C27.2106 9.82162 26.9306 9.91029 26.5292 10.0036C26.1372 10.097 25.6892 10.1436 25.1852 10.1436C24.5506 10.1436 23.9999 10.0503 23.5332 9.86362C23.0759 9.66762 22.6979 9.40162 22.3992 9.06562C22.1006 8.72962 21.8766 8.33296 21.7272 7.87562C21.5872 7.40896 21.5172 6.90029 21.5172 6.34962ZM26.5152 5.63562C26.5246 5.04762 26.3752 4.56695 26.0672 4.19362C25.7686 3.81095 25.3532 3.61962 24.8212 3.61962C24.5226 3.61962 24.2566 3.68029 24.0232 3.80162C23.7992 3.91362 23.6079 4.06296 23.4492 4.24962C23.2906 4.43629 23.1646 4.65096 23.0712 4.89362C22.9872 5.13629 22.9312 5.38362 22.9032 5.63562H26.5152Z" fill="#05195E"/>
<path d="M29.3375 6.34962C29.3375 5.70562 29.4309 5.14562 29.6175 4.66962C29.8042 4.18429 30.0515 3.78296 30.3595 3.46562C30.6675 3.14829 31.0222 2.91029 31.4235 2.75162C31.8249 2.59295 32.2355 2.51362 32.6555 2.51362C33.6355 2.51362 34.3869 2.82162 34.9095 3.43762C35.4322 4.04429 35.6935 4.97296 35.6935 6.22362C35.6935 6.27962 35.6935 6.35429 35.6935 6.44762C35.6935 6.53162 35.6889 6.61096 35.6795 6.68562H30.6955C30.7515 7.44162 30.9709 8.01562 31.3535 8.40762C31.7362 8.79962 32.3335 8.99562 33.1455 8.99562C33.6029 8.99562 33.9855 8.95829 34.2935 8.88362C34.6109 8.79962 34.8489 8.72029 35.0075 8.64562L35.1895 9.73762C35.0309 9.82162 34.7509 9.91029 34.3495 10.0036C33.9575 10.097 33.5095 10.1436 33.0055 10.1436C32.3709 10.1436 31.8202 10.0503 31.3535 9.86362C30.8962 9.66762 30.5182 9.40162 30.2195 9.06562C29.9209 8.72962 29.6969 8.33296 29.5475 7.87562C29.4075 7.40896 29.3375 6.90029 29.3375 6.34962ZM34.3355 5.63562C34.3449 5.04762 34.1955 4.56695 33.8875 4.19362C33.5889 3.81095 33.1735 3.61962 32.6415 3.61962C32.3429 3.61962 32.0769 3.68029 31.8435 3.80162C31.6195 3.91362 31.4282 4.06296 31.2695 4.24962C31.1109 4.43629 30.9849 4.65096 30.8915 4.89362C30.8075 5.13629 30.7515 5.38362 30.7235 5.63562H34.3355Z" fill="#05195E"/>
<path d="M40.2519 2.54162C40.3639 2.54162 40.4899 2.55096 40.6299 2.56962C40.7792 2.57896 40.9239 2.59762 41.0639 2.62562C41.2039 2.64429 41.3299 2.66762 41.4419 2.69562C41.5632 2.71429 41.6519 2.73295 41.7079 2.75162L41.4839 3.88562C41.3812 3.84829 41.2085 3.80629 40.9659 3.75962C40.7325 3.70362 40.4292 3.67562 40.0559 3.67562C39.8132 3.67562 39.5705 3.70362 39.3279 3.75962C39.0945 3.80629 38.9405 3.83896 38.8659 3.85762V9.97562H37.5639V3.00362C37.8719 2.89162 38.2545 2.78895 38.7119 2.69562C39.1692 2.59296 39.6825 2.54162 40.2519 2.54162Z" fill="#05195E"/>
<path d="M44.6582 9.03762C45.1902 9.03762 45.5823 8.96762 45.8343 8.82762C46.0956 8.68762 46.2262 8.46362 46.2262 8.15562C46.2262 7.83829 46.1003 7.58629 45.8483 7.39962C45.5963 7.21296 45.1809 7.00296 44.6022 6.76962C44.3222 6.65762 44.0516 6.54562 43.7902 6.43362C43.5382 6.31229 43.3189 6.17229 43.1323 6.01362C42.9456 5.85496 42.7962 5.66362 42.6842 5.43962C42.5722 5.21562 42.5163 4.94029 42.5163 4.61362C42.5163 3.96962 42.7543 3.46095 43.2303 3.08762C43.7063 2.70495 44.3549 2.51362 45.1763 2.51362C45.3816 2.51362 45.5869 2.52762 45.7923 2.55562C45.9976 2.57429 46.1889 2.60229 46.3662 2.63962C46.5436 2.66762 46.6976 2.70029 46.8283 2.73762C46.9683 2.77496 47.0756 2.80762 47.1502 2.83562L46.9123 3.95562C46.7723 3.88095 46.5529 3.80629 46.2542 3.73162C45.9556 3.64762 45.5963 3.60562 45.1763 3.60562C44.8123 3.60562 44.4949 3.68029 44.2243 3.82962C43.9536 3.96962 43.8182 4.19362 43.8182 4.50162C43.8182 4.66029 43.8462 4.80029 43.9022 4.92162C43.9676 5.04295 44.0609 5.15496 44.1823 5.25762C44.3129 5.35096 44.4716 5.43962 44.6582 5.52362C44.8449 5.60762 45.0689 5.69629 45.3302 5.78962C45.6756 5.92029 45.9836 6.05095 46.2542 6.18162C46.5249 6.30295 46.7536 6.44762 46.9403 6.61562C47.1363 6.78362 47.2856 6.98896 47.3882 7.23162C47.4909 7.46496 47.5423 7.75429 47.5423 8.09962C47.5423 8.77162 47.2903 9.28029 46.7863 9.62562C46.2916 9.97096 45.5822 10.1436 44.6582 10.1436C44.0142 10.1436 43.5102 10.0876 43.1462 9.97562C42.7822 9.87296 42.5349 9.79362 42.4043 9.73762L42.6423 8.61762C42.7916 8.67362 43.0296 8.75762 43.3563 8.86962C43.6829 8.98162 44.1169 9.03762 44.6582 9.03762Z" fill="#05195E"/>
</svg>
