<svg width="82" height="12" viewBox="0 0 82 12" fill="none" xmlns="http://www.w3.org/2000/svg">
<path d="M7.09619 1.35762H8.45419V11.0596H7.09619V6.57962H2.35019V11.0596H0.992188V1.35762H2.35019V5.40362H7.09619V1.35762Z" fill="#05195E"/>
<path d="M17.2053 7.41962C17.2053 7.99828 17.1213 8.52095 16.9533 8.98762C16.7853 9.45428 16.5473 9.85562 16.2393 10.1916C15.9406 10.5276 15.5813 10.789 15.1613 10.9756C14.7413 11.153 14.2839 11.2416 13.7893 11.2416C13.2946 11.2416 12.8373 11.153 12.4173 10.9756C11.9973 10.789 11.6333 10.5276 11.3253 10.1916C11.0266 9.85562 10.7933 9.45428 10.6253 8.98762C10.4573 8.52095 10.3733 7.99828 10.3733 7.41962C10.3733 6.85028 10.4573 6.33228 10.6253 5.86562C10.7933 5.38962 11.0266 4.98362 11.3253 4.64762C11.6333 4.31162 11.9973 4.05495 12.4173 3.87762C12.8373 3.69095 13.2946 3.59762 13.7893 3.59762C14.2839 3.59762 14.7413 3.69095 15.1613 3.87762C15.5813 4.05495 15.9406 4.31162 16.2393 4.64762C16.5473 4.98362 16.7853 5.38962 16.9533 5.86562C17.1213 6.33228 17.2053 6.85028 17.2053 7.41962ZM15.8473 7.41962C15.8473 6.59828 15.6606 5.94962 15.2873 5.47362C14.9233 4.98828 14.4239 4.74562 13.7893 4.74562C13.1546 4.74562 12.6506 4.98828 12.2773 5.47362C11.9133 5.94962 11.7313 6.59828 11.7313 7.41962C11.7313 8.24095 11.9133 8.89428 12.2773 9.37962C12.6506 9.85562 13.1546 10.0936 13.7893 10.0936C14.4239 10.0936 14.9233 9.85562 15.2873 9.37962C15.6606 8.89428 15.8473 8.24095 15.8473 7.41962Z" fill="#05195E"/>
<path d="M24.8094 11.0596C24.548 10.3876 24.268 9.62228 23.9694 8.76362C23.68 7.89562 23.414 6.99495 23.1714 6.06162C22.9287 6.99495 22.6627 7.89562 22.3734 8.76362C22.084 9.62228 21.8087 10.3876 21.5474 11.0596H20.4134C19.984 10.0983 19.564 9.00162 19.1534 7.76962C18.7427 6.53762 18.3554 5.20762 17.9914 3.77962H19.3914C19.4847 4.21828 19.5967 4.69428 19.7274 5.20762C19.858 5.72095 19.9934 6.23428 20.1334 6.74762C20.2827 7.26095 20.4367 7.75562 20.5954 8.23162C20.754 8.70762 20.9034 9.12295 21.0434 9.47762C21.202 9.03895 21.356 8.57695 21.5054 8.09162C21.664 7.59695 21.8134 7.10228 21.9534 6.60762C22.0934 6.10362 22.224 5.61362 22.3454 5.13762C22.476 4.65228 22.588 4.19962 22.6814 3.77962H23.7594C23.8434 4.19962 23.946 4.65228 24.0674 5.13762C24.1887 5.61362 24.3194 6.10362 24.4594 6.60762C24.5994 7.10228 24.744 7.59695 24.8934 8.09162C25.052 8.57695 25.2107 9.03895 25.3694 9.47762C25.5094 9.12295 25.654 8.70762 25.8034 8.23162C25.962 7.75562 26.116 7.26095 26.2654 6.74762C26.4147 6.23428 26.5547 5.72095 26.6854 5.20762C26.816 4.69428 26.928 4.21828 27.0214 3.77962H28.3654C28.0014 5.20762 27.614 6.53762 27.2034 7.76962C26.7927 9.00162 26.3727 10.0983 25.9434 11.0596H24.8094Z" fill="#05195E"/>
<path d="M34.2844 11.0596H32.9824V3.77962H34.2844V11.0596ZM33.6264 2.46362C33.3931 2.46362 33.1924 2.38895 33.0244 2.23962C32.8657 2.08095 32.7864 1.87095 32.7864 1.60962C32.7864 1.34828 32.8657 1.14295 33.0244 0.993618C33.1924 0.834951 33.3931 0.755617 33.6264 0.755617C33.8597 0.755617 34.0557 0.834951 34.2144 0.993618C34.3824 1.14295 34.4664 1.34828 34.4664 1.60962C34.4664 1.87095 34.3824 2.08095 34.2144 2.23962C34.0557 2.38895 33.8597 2.46362 33.6264 2.46362Z" fill="#05195E"/>
<path d="M37.7414 3.77962H40.4994V4.87162H37.7414V8.23162C37.7414 8.59562 37.7694 8.89895 37.8254 9.14162C37.8814 9.37495 37.9654 9.56162 38.0774 9.70162C38.1894 9.83228 38.3294 9.92562 38.4974 9.98162C38.6654 10.0376 38.8614 10.0656 39.0854 10.0656C39.4774 10.0656 39.7901 10.0236 40.0234 9.93962C40.2661 9.84628 40.4341 9.78095 40.5274 9.74362L40.7794 10.8216C40.6488 10.887 40.4201 10.9663 40.0934 11.0596C39.7668 11.1623 39.3934 11.2136 38.9734 11.2136C38.4788 11.2136 38.0681 11.153 37.7414 11.0316C37.4241 10.901 37.1674 10.7096 36.9714 10.4576C36.7754 10.2056 36.6354 9.89762 36.5514 9.53362C36.4768 9.16028 36.4394 8.73095 36.4394 8.24562V1.74962L37.7414 1.52562V3.77962Z" fill="#05195E"/>
<path d="M51.3465 11.0596C51.0851 10.3876 50.8051 9.62228 50.5065 8.76362C50.2171 7.89562 49.9511 6.99495 49.7085 6.06162C49.4658 6.99495 49.1998 7.89562 48.9105 8.76362C48.6211 9.62228 48.3458 10.3876 48.0845 11.0596H46.9505C46.5211 10.0983 46.1011 9.00162 45.6905 7.76962C45.2798 6.53762 44.8925 5.20762 44.5285 3.77962H45.9285C46.0218 4.21828 46.1338 4.69428 46.2645 5.20762C46.3951 5.72095 46.5305 6.23428 46.6705 6.74762C46.8198 7.26095 46.9738 7.75562 47.1325 8.23162C47.2911 8.70762 47.4405 9.12295 47.5805 9.47762C47.7391 9.03895 47.8931 8.57695 48.0425 8.09162C48.2011 7.59695 48.3505 7.10228 48.4905 6.60762C48.6305 6.10362 48.7611 5.61362 48.8825 5.13762C49.0131 4.65228 49.1251 4.19962 49.2185 3.77962H50.2965C50.3805 4.19962 50.4831 4.65228 50.6045 5.13762C50.7258 5.61362 50.8565 6.10362 50.9965 6.60762C51.1365 7.10228 51.2811 7.59695 51.4305 8.09162C51.5891 8.57695 51.7478 9.03895 51.9065 9.47762C52.0465 9.12295 52.1911 8.70762 52.3405 8.23162C52.4991 7.75562 52.6531 7.26095 52.8025 6.74762C52.9518 6.23428 53.0918 5.72095 53.2225 5.20762C53.3531 4.69428 53.4651 4.21828 53.5585 3.77962H54.9025C54.5385 5.20762 54.1511 6.53762 53.7405 7.76962C53.3298 9.00162 52.9098 10.0983 52.4805 11.0596H51.3465Z" fill="#05195E"/>
<path d="M62.5412 7.41962C62.5412 7.99828 62.4572 8.52095 62.2892 8.98762C62.1212 9.45428 61.8832 9.85562 61.5752 10.1916C61.2766 10.5276 60.9172 10.789 60.4972 10.9756C60.0772 11.153 59.6199 11.2416 59.1252 11.2416C58.6306 11.2416 58.1732 11.153 57.7532 10.9756C57.3332 10.789 56.9692 10.5276 56.6612 10.1916C56.3626 9.85562 56.1292 9.45428 55.9612 8.98762C55.7932 8.52095 55.7092 7.99828 55.7092 7.41962C55.7092 6.85028 55.7932 6.33228 55.9612 5.86562C56.1292 5.38962 56.3626 4.98362 56.6612 4.64762C56.9692 4.31162 57.3332 4.05495 57.7532 3.87762C58.1732 3.69095 58.6306 3.59762 59.1252 3.59762C59.6199 3.59762 60.0772 3.69095 60.4972 3.87762C60.9172 4.05495 61.2766 4.31162 61.5752 4.64762C61.8832 4.98362 62.1212 5.38962 62.2892 5.86562C62.4572 6.33228 62.5412 6.85028 62.5412 7.41962ZM61.1832 7.41962C61.1832 6.59828 60.9966 5.94962 60.6232 5.47362C60.2592 4.98828 59.7599 4.74562 59.1252 4.74562C58.4906 4.74562 57.9866 4.98828 57.6132 5.47362C57.2492 5.94962 57.0672 6.59828 57.0672 7.41962C57.0672 8.24095 57.2492 8.89428 57.6132 9.37962C57.9866 9.85562 58.4906 10.0936 59.1252 10.0936C59.7599 10.0936 60.2592 9.85562 60.6232 9.37962C60.9966 8.89428 61.1832 8.24095 61.1832 7.41962Z" fill="#05195E"/>
<path d="M67.061 3.62562C67.173 3.62562 67.299 3.63495 67.439 3.65362C67.5884 3.66295 67.733 3.68162 67.873 3.70962C68.013 3.72828 68.139 3.75162 68.251 3.77962C68.3724 3.79828 68.461 3.81695 68.517 3.83562L68.293 4.96962C68.1904 4.93228 68.0177 4.89028 67.775 4.84362C67.5417 4.78762 67.2384 4.75962 66.865 4.75962C66.6224 4.75962 66.3797 4.78762 66.137 4.84362C65.9037 4.89028 65.7497 4.92295 65.675 4.94162V11.0596H64.373V4.08762C64.681 3.97562 65.0637 3.87295 65.521 3.77962C65.9784 3.67695 66.4917 3.62562 67.061 3.62562Z" fill="#05195E"/>
<path d="M72.4054 7.05562C72.6854 7.27028 72.9794 7.53628 73.2874 7.85362C73.6048 8.17095 73.9128 8.51628 74.2114 8.88962C74.5194 9.25362 74.8088 9.62695 75.0794 10.0096C75.3501 10.383 75.5788 10.733 75.7654 11.0596H74.2394C74.0434 10.733 73.8148 10.4016 73.5534 10.0656C73.3014 9.72028 73.0354 9.39362 72.7554 9.08562C72.4754 8.76828 72.1908 8.47895 71.9014 8.21762C71.6121 7.95628 71.3367 7.73695 71.0754 7.55962V11.0596H69.7734V0.419617L71.0754 0.195618V6.83162C71.2994 6.60762 71.5468 6.36028 71.8174 6.08962C72.0881 5.81895 72.3541 5.54362 72.6154 5.26362C72.8768 4.98362 73.1241 4.71762 73.3574 4.46562C73.5908 4.20428 73.7914 3.97562 73.9594 3.77962H75.4854C75.2708 4.01295 75.0374 4.26962 74.7854 4.54962C74.5334 4.82962 74.2721 5.11428 74.0014 5.40362C73.7308 5.68362 73.4554 5.96828 73.1754 6.25762C72.9048 6.53762 72.6481 6.80362 72.4054 7.05562Z" fill="#05195E"/>
<path d="M78.7819 10.1216C79.3139 10.1216 79.7059 10.0516 79.9579 9.91162C80.2192 9.77162 80.3499 9.54762 80.3499 9.23962C80.3499 8.92229 80.2239 8.67028 79.9719 8.48362C79.7199 8.29695 79.3045 8.08695 78.7259 7.85362C78.4459 7.74162 78.1752 7.62962 77.9139 7.51762C77.6619 7.39629 77.4425 7.25628 77.2559 7.09762C77.0692 6.93895 76.9199 6.74762 76.8079 6.52362C76.6959 6.29962 76.6399 6.02428 76.6399 5.69762C76.6399 5.05362 76.8779 4.54495 77.3539 4.17162C77.8299 3.78895 78.4785 3.59762 79.2999 3.59762C79.5052 3.59762 79.7105 3.61162 79.9159 3.63962C80.1212 3.65828 80.3125 3.68628 80.4899 3.72362C80.6672 3.75162 80.8212 3.78428 80.9519 3.82162C81.0919 3.85895 81.1992 3.89162 81.2739 3.91962L81.0359 5.03962C80.8959 4.96495 80.6765 4.89028 80.3779 4.81562C80.0792 4.73162 79.7199 4.68962 79.2999 4.68962C78.9359 4.68962 78.6185 4.76428 78.3479 4.91362C78.0772 5.05362 77.9419 5.27762 77.9419 5.58562C77.9419 5.74428 77.9699 5.88428 78.0259 6.00562C78.0912 6.12695 78.1845 6.23895 78.3059 6.34162C78.4365 6.43495 78.5952 6.52362 78.7819 6.60762C78.9685 6.69162 79.1925 6.78028 79.4539 6.87362C79.7992 7.00428 80.1072 7.13495 80.3779 7.26562C80.6485 7.38695 80.8772 7.53162 81.0639 7.69962C81.2599 7.86762 81.4092 8.07295 81.5119 8.31562C81.6145 8.54895 81.6659 8.83828 81.6659 9.18362C81.6659 9.85562 81.4139 10.3643 80.9099 10.7096C80.4152 11.055 79.7059 11.2276 78.7819 11.2276C78.1379 11.2276 77.6339 11.1716 77.2699 11.0596C76.9059 10.957 76.6585 10.8776 76.5279 10.8216L76.7659 9.70162C76.9152 9.75762 77.1532 9.84162 77.4799 9.95362C77.8065 10.0656 78.2405 10.1216 78.7819 10.1216Z" fill="#05195E"/>
</svg>
