<svg width="124" height="36" viewBox="0 0 124 36" fill="none" xmlns="http://www.w3.org/2000/svg">
<path d="M6.16475 10.2096C6.07142 9.98561 5.94542 9.70095 5.78675 9.35561C5.63742 9.01028 5.47408 8.63695 5.29675 8.23561C5.11942 7.83428 4.92808 7.42361 4.72275 7.00361C4.52675 6.57428 4.34008 6.17295 4.16275 5.79961C3.98542 5.41695 3.81742 5.07628 3.65875 4.77761C3.50942 4.47895 3.38808 4.25028 3.29475 4.09161C3.19208 5.19295 3.10808 6.38761 3.04275 7.67561C2.97742 8.95428 2.92142 10.2469 2.87475 11.5536H1.54475C1.58208 10.7136 1.62408 9.86895 1.67075 9.01961C1.71742 8.16095 1.76875 7.32095 1.82475 6.49961C1.89008 5.66895 1.95542 4.86161 2.02075 4.07761C2.09542 3.29361 2.17475 2.55161 2.25875 1.85161H3.44875C3.70075 2.26228 3.97142 2.74761 4.26075 3.30761C4.55008 3.86761 4.83942 4.45561 5.12875 5.07161C5.41808 5.67828 5.69808 6.28961 5.96875 6.90561C6.23942 7.51228 6.48675 8.06761 6.71075 8.57161C6.93475 8.06761 7.18208 7.51228 7.45275 6.90561C7.72342 6.28961 8.00342 5.67828 8.29275 5.07161C8.58208 4.45561 8.87142 3.86761 9.16075 3.30761C9.45008 2.74761 9.72075 2.26228 9.97275 1.85161H11.1627C11.4801 4.97828 11.7181 8.21228 11.8767 11.5536H10.5468C10.5001 10.2469 10.4441 8.95428 10.3787 7.67561C10.3134 6.38761 10.2294 5.19295 10.1267 4.09161C10.0334 4.25028 9.90742 4.47895 9.74875 4.77761C9.59942 5.07628 9.43608 5.41695 9.25875 5.79961C9.08142 6.17295 8.89008 6.57428 8.68475 7.00361C8.48875 7.42361 8.30208 7.83428 8.12475 8.23561C7.94742 8.63695 7.77942 9.01028 7.62075 9.35561C7.47142 9.70095 7.35008 9.98561 7.25675 10.2096H6.16475Z" fill="#05195E"/>
<path d="M16.3861 10.6156C16.6941 10.6156 16.9647 10.6109 17.1981 10.6016C17.4407 10.5829 17.6414 10.5549 17.8001 10.5176V8.34761C17.7067 8.30095 17.5527 8.26361 17.3381 8.23561C17.1327 8.19828 16.8807 8.17961 16.5821 8.17961C16.3861 8.17961 16.1761 8.19361 15.9521 8.22161C15.7374 8.24961 15.5367 8.31028 15.3501 8.40361C15.1727 8.48761 15.0234 8.60895 14.9021 8.76761C14.7807 8.91695 14.7201 9.11761 14.7201 9.36961C14.7201 9.83628 14.8694 10.1629 15.1681 10.3496C15.4667 10.5269 15.8727 10.6156 16.3861 10.6156ZM16.2741 4.09161C16.7967 4.09161 17.2354 4.16161 17.5901 4.30161C17.9541 4.43228 18.2434 4.62361 18.4581 4.87561C18.6821 5.11828 18.8407 5.41228 18.9341 5.75761C19.0274 6.09361 19.0741 6.46695 19.0741 6.87761V11.4276C18.9621 11.4463 18.8034 11.4743 18.5981 11.5116C18.4021 11.5396 18.1781 11.5676 17.9261 11.5956C17.6741 11.6236 17.3987 11.6469 17.1001 11.6656C16.8107 11.6936 16.5214 11.7076 16.2321 11.7076C15.8214 11.7076 15.4434 11.6656 15.0981 11.5816C14.7527 11.4976 14.4541 11.3669 14.2021 11.1896C13.9501 11.0029 13.7541 10.7603 13.6141 10.4616C13.4741 10.1629 13.4041 9.80361 13.4041 9.38361C13.4041 8.98228 13.4834 8.63695 13.6421 8.34761C13.8101 8.05828 14.0341 7.82495 14.3141 7.64761C14.5941 7.47028 14.9207 7.33961 15.2941 7.25561C15.6674 7.17161 16.0594 7.12961 16.4701 7.12961C16.6007 7.12961 16.7361 7.13895 16.8761 7.15761C17.0161 7.16695 17.1467 7.18561 17.2681 7.21361C17.3987 7.23228 17.5107 7.25095 17.6041 7.26961C17.6974 7.28828 17.7627 7.30228 17.8001 7.31161V6.94761C17.8001 6.73295 17.7767 6.52295 17.7301 6.31761C17.6834 6.10295 17.5994 5.91628 17.4781 5.75761C17.3567 5.58961 17.1887 5.45895 16.9741 5.36561C16.7687 5.26295 16.4981 5.21161 16.1621 5.21161C15.7327 5.21161 15.3547 5.24428 15.0281 5.30961C14.7107 5.36561 14.4727 5.42628 14.3141 5.49161L14.1601 4.41361C14.3281 4.33895 14.6081 4.26895 15.0001 4.20361C15.3921 4.12895 15.8167 4.09161 16.2741 4.09161Z" fill="#05195E"/>
<path d="M21.2365 4.48361C21.5352 4.40895 21.9318 4.32961 22.4265 4.24561C22.9212 4.16161 23.4905 4.11961 24.1345 4.11961C24.7132 4.11961 25.1939 4.20361 25.5765 4.37161C25.9592 4.53028 26.2625 4.75895 26.4865 5.05761C26.7199 5.34695 26.8832 5.69695 26.9765 6.10761C27.0698 6.51828 27.1165 6.97095 27.1165 7.46561V11.5536H25.8145V7.74561C25.8145 7.29761 25.7818 6.91495 25.7165 6.59761C25.6605 6.28028 25.5625 6.02361 25.4225 5.82761C25.2825 5.63161 25.0958 5.49161 24.8625 5.40761C24.6292 5.31428 24.3398 5.26761 23.9945 5.26761C23.8545 5.26761 23.7098 5.27228 23.5605 5.28161C23.4112 5.29095 23.2665 5.30495 23.1265 5.32361C22.9958 5.33295 22.8745 5.34695 22.7625 5.36561C22.6598 5.38428 22.5852 5.39828 22.5385 5.40761V11.5536H21.2365V4.48361Z" fill="#05195E"/>
<path d="M31.7396 10.6156C32.0476 10.6156 32.3182 10.6109 32.5516 10.6016C32.7942 10.5829 32.9949 10.5549 33.1536 10.5176V8.34761C33.0602 8.30095 32.9062 8.26361 32.6916 8.23561C32.4862 8.19828 32.2342 8.17961 31.9356 8.17961C31.7396 8.17961 31.5296 8.19361 31.3056 8.22161C31.0909 8.24961 30.8902 8.31028 30.7036 8.40361C30.5262 8.48761 30.3769 8.60895 30.2556 8.76761C30.1342 8.91695 30.0736 9.11761 30.0736 9.36961C30.0736 9.83628 30.2229 10.1629 30.5216 10.3496C30.8202 10.5269 31.2262 10.6156 31.7396 10.6156ZM31.6276 4.09161C32.1502 4.09161 32.5889 4.16161 32.9436 4.30161C33.3076 4.43228 33.5969 4.62361 33.8116 4.87561C34.0356 5.11828 34.1942 5.41228 34.2876 5.75761C34.3809 6.09361 34.4276 6.46695 34.4276 6.87761V11.4276C34.3156 11.4463 34.1569 11.4743 33.9516 11.5116C33.7556 11.5396 33.5316 11.5676 33.2796 11.5956C33.0276 11.6236 32.7522 11.6469 32.4536 11.6656C32.1642 11.6936 31.8749 11.7076 31.5856 11.7076C31.1749 11.7076 30.7969 11.6656 30.4516 11.5816C30.1062 11.4976 29.8076 11.3669 29.5556 11.1896C29.3036 11.0029 29.1076 10.7603 28.9676 10.4616C28.8276 10.1629 28.7576 9.80361 28.7576 9.38361C28.7576 8.98228 28.8369 8.63695 28.9956 8.34761C29.1636 8.05828 29.3876 7.82495 29.6676 7.64761C29.9476 7.47028 30.2742 7.33961 30.6476 7.25561C31.0209 7.17161 31.4129 7.12961 31.8236 7.12961C31.9542 7.12961 32.0896 7.13895 32.2296 7.15761C32.3696 7.16695 32.5002 7.18561 32.6216 7.21361C32.7522 7.23228 32.8642 7.25095 32.9576 7.26961C33.0509 7.28828 33.1162 7.30228 33.1536 7.31161V6.94761C33.1536 6.73295 33.1302 6.52295 33.0836 6.31761C33.0369 6.10295 32.9529 5.91628 32.8316 5.75761C32.7102 5.58961 32.5422 5.45895 32.3276 5.36561C32.1222 5.26295 31.8516 5.21161 31.5156 5.21161C31.0862 5.21161 30.7082 5.24428 30.3816 5.30961C30.0642 5.36561 29.8262 5.42628 29.6676 5.49161L29.5136 4.41361C29.6816 4.33895 29.9616 4.26895 30.3536 4.20361C30.7456 4.12895 31.1702 4.09161 31.6276 4.09161Z" fill="#05195E"/>
<path d="M38.284 10.6156C38.816 10.6156 39.208 10.5456 39.46 10.4056C39.7214 10.2656 39.852 10.0416 39.852 9.73361C39.852 9.41628 39.726 9.16428 39.474 8.97761C39.222 8.79095 38.8067 8.58095 38.228 8.34761C37.948 8.23561 37.6774 8.12361 37.416 8.01161C37.164 7.89028 36.9447 7.75028 36.758 7.59161C36.5714 7.43295 36.422 7.24161 36.31 7.01761C36.198 6.79361 36.142 6.51828 36.142 6.19161C36.142 5.54761 36.38 5.03895 36.856 4.66561C37.332 4.28295 37.9807 4.09161 38.802 4.09161C39.0074 4.09161 39.2127 4.10561 39.418 4.13361C39.6234 4.15228 39.8147 4.18028 39.992 4.21761C40.1694 4.24561 40.3234 4.27828 40.454 4.31561C40.594 4.35295 40.7014 4.38561 40.776 4.41361L40.538 5.53361C40.398 5.45895 40.1787 5.38428 39.88 5.30961C39.5814 5.22561 39.222 5.18361 38.802 5.18361C38.438 5.18361 38.1207 5.25828 37.85 5.40761C37.5794 5.54761 37.444 5.77161 37.444 6.07961C37.444 6.23828 37.472 6.37828 37.528 6.49961C37.5934 6.62095 37.6867 6.73295 37.808 6.83561C37.9387 6.92895 38.0974 7.01761 38.284 7.10161C38.4707 7.18561 38.6947 7.27428 38.956 7.36761C39.3014 7.49828 39.6094 7.62895 39.88 7.75961C40.1507 7.88095 40.3794 8.02561 40.566 8.19361C40.762 8.36161 40.9114 8.56695 41.014 8.80961C41.1167 9.04295 41.168 9.33228 41.168 9.67761C41.168 10.3496 40.916 10.8583 40.412 11.2036C39.9174 11.5489 39.208 11.7216 38.284 11.7216C37.64 11.7216 37.136 11.6656 36.772 11.5536C36.408 11.4509 36.1607 11.3716 36.03 11.3156L36.268 10.1956C36.4174 10.2516 36.6554 10.3356 36.982 10.4476C37.3087 10.5596 37.7427 10.6156 38.284 10.6156Z" fill="#05195E"/>
<path d="M48.4163 10.5876C49.835 10.5876 50.5443 10.1023 50.5443 9.13161C50.5443 8.83295 50.479 8.58095 50.3483 8.37561C50.227 8.16095 50.059 7.97895 49.8443 7.82961C49.6296 7.67095 49.3823 7.53561 49.1023 7.42361C48.8316 7.31161 48.5423 7.19961 48.2343 7.08762C47.8796 6.96628 47.5436 6.83095 47.2263 6.68161C46.909 6.52295 46.6336 6.34095 46.4003 6.13561C46.167 5.92095 45.9803 5.66895 45.8403 5.37961C45.7096 5.09028 45.6443 4.74028 45.6443 4.32961C45.6443 3.48028 45.9336 2.81761 46.5123 2.34161C47.091 1.86561 47.889 1.62761 48.9063 1.62761C49.4943 1.62761 50.0263 1.69295 50.5023 1.82361C50.9876 1.94495 51.3423 2.08028 51.5663 2.22961L51.1323 3.33561C50.9363 3.21428 50.6423 3.09761 50.2503 2.98561C49.8676 2.86428 49.4196 2.80361 48.9063 2.80361C48.645 2.80361 48.4023 2.83161 48.1783 2.88761C47.9543 2.94361 47.7583 3.02761 47.5903 3.13961C47.4223 3.25161 47.287 3.39628 47.1843 3.57361C47.091 3.74161 47.0443 3.94228 47.0443 4.17561C47.0443 4.43695 47.0956 4.65628 47.1983 4.83361C47.301 5.01095 47.4456 5.16961 47.6323 5.30961C47.819 5.44028 48.0336 5.56161 48.2763 5.67361C48.5283 5.78561 48.8036 5.89761 49.1023 6.00961C49.5223 6.17761 49.905 6.34561 50.2503 6.51361C50.605 6.68161 50.9083 6.88228 51.1603 7.11561C51.4216 7.34895 51.6223 7.62895 51.7623 7.95562C51.9023 8.27295 51.9723 8.66028 51.9723 9.11761C51.9723 9.96695 51.6596 10.6203 51.0343 11.0776C50.4183 11.5349 49.5456 11.7636 48.4163 11.7636C48.0336 11.7636 47.679 11.7356 47.3523 11.6796C47.035 11.6329 46.7503 11.5769 46.4983 11.5116C46.2463 11.4369 46.027 11.3623 45.8403 11.2876C45.663 11.2036 45.523 11.1336 45.4203 11.0776L45.8263 9.95761C46.041 10.0789 46.3676 10.2143 46.8063 10.3636C47.245 10.5129 47.7816 10.5876 48.4163 10.5876Z" fill="#05195E"/>
<path d="M54.7475 4.27361H57.5055V5.36561H54.7475V8.72561C54.7475 9.08961 54.7755 9.39295 54.8315 9.63561C54.8875 9.86895 54.9715 10.0556 55.0835 10.1956C55.1955 10.3263 55.3355 10.4196 55.5035 10.4756C55.6715 10.5316 55.8675 10.5596 56.0915 10.5596C56.4835 10.5596 56.7962 10.5176 57.0295 10.4336C57.2722 10.3403 57.4402 10.2749 57.5335 10.2376L57.7855 11.3156C57.6548 11.3809 57.4262 11.4603 57.0995 11.5536C56.7728 11.6563 56.3995 11.7076 55.9795 11.7076C55.4848 11.7076 55.0742 11.6469 54.7475 11.5256C54.4302 11.3949 54.1735 11.2036 53.9775 10.9516C53.7815 10.6996 53.6415 10.3916 53.5575 10.0276C53.4828 9.65428 53.4455 9.22495 53.4455 8.73961V2.24361L54.7475 2.01961V4.27361Z" fill="#05195E"/>
<path d="M61.8503 4.11961C61.9623 4.11961 62.0883 4.12895 62.2283 4.14761C62.3776 4.15695 62.5223 4.17561 62.6623 4.20361C62.8023 4.22228 62.9283 4.24561 63.0403 4.27361C63.1616 4.29228 63.2503 4.31095 63.3063 4.32961L63.0823 5.46361C62.9796 5.42628 62.807 5.38428 62.5643 5.33761C62.331 5.28161 62.0276 5.25361 61.6543 5.25361C61.4116 5.25361 61.169 5.28161 60.9263 5.33761C60.693 5.38428 60.539 5.41695 60.4643 5.43561V11.5536H59.1623V4.58161C59.4703 4.46961 59.853 4.36695 60.3103 4.27361C60.7676 4.17095 61.281 4.11961 61.8503 4.11961Z" fill="#05195E"/>
<path d="M64.1567 7.92761C64.1567 7.28361 64.25 6.72361 64.4367 6.24761C64.6234 5.76228 64.8707 5.36095 65.1787 5.04361C65.4867 4.72628 65.8414 4.48828 66.2427 4.32961C66.644 4.17095 67.0547 4.09161 67.4747 4.09161C68.4547 4.09161 69.206 4.39961 69.7287 5.01561C70.2514 5.62228 70.5127 6.55095 70.5127 7.80161C70.5127 7.85761 70.5127 7.93228 70.5127 8.02561C70.5127 8.10961 70.508 8.18895 70.4987 8.26361H65.5147C65.5707 9.01961 65.79 9.59361 66.1727 9.98561C66.5554 10.3776 67.1527 10.5736 67.9647 10.5736C68.422 10.5736 68.8047 10.5363 69.1127 10.4616C69.43 10.3776 69.668 10.2983 69.8267 10.2236L70.0087 11.3156C69.85 11.3996 69.57 11.4883 69.1687 11.5816C68.7767 11.6749 68.3287 11.7216 67.8247 11.7216C67.19 11.7216 66.6394 11.6283 66.1727 11.4416C65.7154 11.2456 65.3374 10.9796 65.0387 10.6436C64.74 10.3076 64.516 9.91095 64.3667 9.45361C64.2267 8.98695 64.1567 8.47828 64.1567 7.92761ZM69.1547 7.21361C69.164 6.62561 69.0147 6.14495 68.7067 5.77161C68.408 5.38895 67.9927 5.19761 67.4607 5.19761C67.162 5.19761 66.896 5.25828 66.6627 5.37961C66.4387 5.49161 66.2474 5.64095 66.0887 5.82761C65.93 6.01428 65.804 6.22895 65.7107 6.47161C65.6267 6.71428 65.5707 6.96161 65.5427 7.21361H69.1547Z" fill="#05195E"/>
<path d="M71.977 7.92761C71.977 7.28361 72.0703 6.72361 72.257 6.24761C72.4437 5.76228 72.691 5.36095 72.999 5.04361C73.307 4.72628 73.6617 4.48828 74.063 4.32961C74.4643 4.17095 74.875 4.09161 75.295 4.09161C76.275 4.09161 77.0263 4.39961 77.549 5.01561C78.0717 5.62228 78.333 6.55095 78.333 7.80161C78.333 7.85761 78.333 7.93228 78.333 8.02561C78.333 8.10961 78.3283 8.18895 78.319 8.26361H73.335C73.391 9.01961 73.6103 9.59361 73.993 9.98561C74.3757 10.3776 74.973 10.5736 75.785 10.5736C76.2423 10.5736 76.625 10.5363 76.933 10.4616C77.2503 10.3776 77.4883 10.2983 77.647 10.2236L77.829 11.3156C77.6703 11.3996 77.3903 11.4883 76.989 11.5816C76.597 11.6749 76.149 11.7216 75.645 11.7216C75.0103 11.7216 74.4597 11.6283 73.993 11.4416C73.5357 11.2456 73.1577 10.9796 72.859 10.6436C72.5603 10.3076 72.3363 9.91095 72.187 9.45361C72.047 8.98695 71.977 8.47828 71.977 7.92761ZM76.975 7.21361C76.9843 6.62561 76.835 6.14495 76.527 5.77161C76.2283 5.38895 75.813 5.19761 75.281 5.19761C74.9823 5.19761 74.7163 5.25828 74.483 5.37961C74.259 5.49161 74.0677 5.64095 73.909 5.82761C73.7503 6.01428 73.6243 6.22895 73.531 6.47161C73.447 6.71428 73.391 6.96161 73.363 7.21361H76.975Z" fill="#05195E"/>
<path d="M81.4213 4.27361H84.1793V5.36561H81.4213V8.72561C81.4213 9.08961 81.4493 9.39295 81.5053 9.63561C81.5613 9.86895 81.6453 10.0556 81.7573 10.1956C81.8693 10.3263 82.0093 10.4196 82.1773 10.4756C82.3453 10.5316 82.5413 10.5596 82.7653 10.5596C83.1573 10.5596 83.47 10.5176 83.7033 10.4336C83.946 10.3403 84.114 10.2749 84.2073 10.2376L84.4593 11.3156C84.3286 11.3809 84.1 11.4603 83.7733 11.5536C83.4466 11.6563 83.0733 11.7076 82.6533 11.7076C82.1586 11.7076 81.748 11.6469 81.4213 11.5256C81.104 11.3949 80.8473 11.2036 80.6513 10.9516C80.4553 10.6996 80.3153 10.3916 80.2313 10.0276C80.1566 9.65428 80.1193 9.22495 80.1193 8.73961V2.24361L81.4213 2.01961V4.27361Z" fill="#05195E"/>
<path d="M91.1204 10.6016C91.951 10.6016 92.5437 10.4383 92.8984 10.1116C93.2624 9.78495 93.4444 9.34628 93.4444 8.79561C93.4444 8.44095 93.3697 8.14228 93.2204 7.89961C93.071 7.65695 92.875 7.46561 92.6324 7.32561C92.3897 7.17628 92.105 7.07361 91.7784 7.01761C91.461 6.95228 91.1344 6.91961 90.7984 6.91961H90.4624V5.85561H90.9244C91.1577 5.85561 91.3957 5.83228 91.6384 5.78561C91.8904 5.73895 92.119 5.65495 92.3244 5.53361C92.5297 5.41228 92.6977 5.24895 92.8284 5.04361C92.959 4.82895 93.0244 4.56295 93.0244 4.24561C93.0244 3.98428 92.9777 3.76028 92.8844 3.57361C92.791 3.38695 92.665 3.23295 92.5064 3.11161C92.357 2.99028 92.1797 2.90628 91.9744 2.85961C91.7784 2.80361 91.5684 2.77561 91.3444 2.77561C90.8964 2.77561 90.5137 2.84095 90.1964 2.97161C89.8884 3.10228 89.627 3.23761 89.4124 3.37761L88.9084 2.38361C89.0204 2.30895 89.1604 2.22961 89.3284 2.14561C89.5057 2.05228 89.7017 1.96828 89.9164 1.89361C90.131 1.81895 90.3597 1.75828 90.6024 1.71161C90.8544 1.65561 91.1157 1.62761 91.3864 1.62761C91.8997 1.62761 92.343 1.69295 92.7164 1.82361C93.0897 1.94495 93.3977 2.12228 93.6404 2.35561C93.883 2.57961 94.065 2.85028 94.1864 3.16761C94.3077 3.47561 94.3684 3.81161 94.3684 4.17561C94.3684 4.67961 94.2237 5.11361 93.9344 5.47761C93.645 5.83228 93.295 6.10295 92.8844 6.28961C93.1364 6.36428 93.379 6.47161 93.6124 6.61161C93.8457 6.75161 94.0464 6.92895 94.2144 7.14361C94.3917 7.35828 94.5317 7.60561 94.6344 7.88561C94.7464 8.16561 94.8024 8.47828 94.8024 8.82361C94.8024 9.24361 94.7277 9.63561 94.5784 9.99961C94.4384 10.3543 94.2144 10.6623 93.9064 10.9236C93.6077 11.1849 93.2297 11.3903 92.7724 11.5396C92.315 11.6889 91.7737 11.7636 91.1484 11.7636C90.9057 11.7636 90.6537 11.7449 90.3924 11.7076C90.1404 11.6703 89.9024 11.6236 89.6784 11.5676C89.4544 11.5116 89.2584 11.4556 89.0904 11.3996C88.9224 11.3436 88.801 11.2969 88.7264 11.2596L88.9784 10.1256C89.137 10.2003 89.3984 10.2983 89.7624 10.4196C90.1357 10.5409 90.5884 10.6016 91.1204 10.6016Z" fill="#05195E"/>
<path d="M96.4187 8.19361C96.596 7.78295 96.8387 7.30695 97.1467 6.76561C97.4547 6.21495 97.8 5.65028 98.1827 5.07161C98.5747 4.49295 98.99 3.92361 99.4287 3.36361C99.8767 2.80361 100.325 2.29961 100.773 1.85161H102.019V8.01161H103.167V9.07561H102.019V11.5536H100.759V9.07561H96.4187V8.19361ZM100.759 3.39161C100.479 3.69028 100.194 4.02628 99.9047 4.39961C99.6247 4.76361 99.3494 5.14628 99.0787 5.54761C98.808 5.94895 98.5514 6.35961 98.3087 6.77961C98.0754 7.19961 97.8654 7.61028 97.6787 8.01161H100.759V3.39161Z" fill="#05195E"/>
<path d="M104.755 14.1436H103.425L108.171 0.591614H109.473L104.755 14.1436Z" fill="#05195E"/>
<path d="M110.436 3.85361C110.968 3.64828 111.486 3.38695 111.99 3.06961C112.494 2.74295 112.956 2.33695 113.376 1.85161H114.3V11.5536H112.998V3.65761C112.886 3.76028 112.746 3.86761 112.578 3.97961C112.419 4.09161 112.242 4.19895 112.046 4.30161C111.859 4.40428 111.659 4.50228 111.444 4.59561C111.239 4.68895 111.038 4.76828 110.842 4.83361L110.436 3.85361Z" fill="#05195E"/>
<path d="M119.528 9.95761C119.538 10.0323 119.542 10.1069 119.542 10.1816C119.542 10.2469 119.542 10.3169 119.542 10.3916C119.542 10.9796 119.454 11.5583 119.276 12.1276C119.108 12.7063 118.875 13.2569 118.576 13.7796L117.568 13.4576C117.802 12.9816 117.956 12.4963 118.03 12.0016C118.105 11.5163 118.142 11.0589 118.142 10.6296C118.142 10.5083 118.138 10.3916 118.128 10.2796C118.128 10.1676 118.124 10.0603 118.114 9.95761H119.528Z" fill="#05195E"/>
<path d="M8.29275 32.5536C8.13408 32.1336 7.98475 31.723 7.84475 31.3216C7.70475 30.911 7.56008 30.4956 7.41075 30.0756H3.01475L2.13275 32.5536H0.71875C1.09208 31.5269 1.44208 30.5796 1.76875 29.7116C2.09542 28.8343 2.41275 28.0036 2.72075 27.2196C3.03808 26.4356 3.35075 25.6889 3.65875 24.9796C3.96675 24.2609 4.28875 23.5516 4.62475 22.8516H5.87075C6.20675 23.5516 6.52875 24.2609 6.83675 24.9796C7.14475 25.6889 7.45275 26.4356 7.76075 27.2196C8.07808 28.0036 8.40008 28.8343 8.72675 29.7116C9.05342 30.5796 9.40342 31.5269 9.77675 32.5536H8.29275ZM7.01875 28.9556C6.72008 28.1436 6.42142 27.3596 6.12275 26.6036C5.83342 25.8383 5.53008 25.1056 5.21275 24.4056C4.88608 25.1056 4.57342 25.8383 4.27475 26.6036C3.98542 27.3596 3.69608 28.1436 3.40675 28.9556H7.01875Z" fill="#05195E"/>
<path d="M13.194 32.6936C12.3913 32.6749 11.822 32.5023 11.486 32.1756C11.15 31.849 10.982 31.3403 10.982 30.6496V21.9136L12.284 21.6896V30.4396C12.284 30.6543 12.3026 30.8316 12.34 30.9716C12.3773 31.1116 12.438 31.2236 12.522 31.3076C12.606 31.3916 12.718 31.4569 12.858 31.5036C12.998 31.5409 13.1706 31.5736 13.376 31.6016L13.194 32.6936Z" fill="#05195E"/>
<path d="M14.8381 25.4836C15.1367 25.4089 15.5287 25.3296 16.0141 25.2456C16.5087 25.1616 17.0781 25.1196 17.7221 25.1196C18.1887 25.1196 18.5807 25.1849 18.8981 25.3156C19.2154 25.4369 19.4814 25.6189 19.6961 25.8616C19.7614 25.8149 19.8641 25.7496 20.0041 25.6656C20.1441 25.5816 20.3167 25.5023 20.5221 25.4276C20.7274 25.3436 20.9561 25.2736 21.2081 25.2176C21.4601 25.1523 21.7307 25.1196 22.0201 25.1196C22.5801 25.1196 23.0374 25.2036 23.3921 25.3716C23.7467 25.5303 24.0221 25.7589 24.2181 26.0576C24.4234 26.3563 24.5587 26.7109 24.6241 27.1216C24.6987 27.5323 24.7361 27.9803 24.7361 28.4656V32.5536H23.4341V28.7456C23.4341 28.3163 23.4107 27.9476 23.3641 27.6396C23.3267 27.3316 23.2474 27.0749 23.1261 26.8696C23.0141 26.6643 22.8554 26.5149 22.6501 26.4216C22.4541 26.3189 22.1974 26.2676 21.8801 26.2676C21.4414 26.2676 21.0774 26.3283 20.7881 26.4496C20.5081 26.5616 20.3167 26.6643 20.2141 26.7576C20.2887 27.0003 20.3447 27.2663 20.3821 27.5556C20.4194 27.8449 20.4381 28.1483 20.4381 28.4656V32.5536H19.1361V28.7456C19.1361 28.3163 19.1127 27.9476 19.0661 27.6396C19.0194 27.3316 18.9354 27.0749 18.8141 26.8696C18.7021 26.6643 18.5434 26.5149 18.3381 26.4216C18.1421 26.3189 17.8901 26.2676 17.5821 26.2676C17.4514 26.2676 17.3114 26.2723 17.1621 26.2816C17.0127 26.2909 16.8681 26.3049 16.7281 26.3236C16.5974 26.3329 16.4761 26.3469 16.3641 26.3656C16.2521 26.3843 16.1774 26.3983 16.1401 26.4076V32.5536H14.8381V25.4836Z" fill="#05195E"/>
<path d="M29.3607 31.6156C29.6687 31.6156 29.9393 31.6109 30.1727 31.6016C30.4153 31.5829 30.616 31.5549 30.7747 31.5176V29.3476C30.6813 29.3009 30.5273 29.2636 30.3127 29.2356C30.1073 29.1983 29.8553 29.1796 29.5567 29.1796C29.3607 29.1796 29.1507 29.1936 28.9267 29.2216C28.712 29.2496 28.5113 29.3103 28.3247 29.4036C28.1473 29.4876 27.998 29.6089 27.8767 29.7676C27.7553 29.9169 27.6947 30.1176 27.6947 30.3696C27.6947 30.8363 27.844 31.163 28.1427 31.3496C28.4413 31.527 28.8473 31.6156 29.3607 31.6156ZM29.2487 25.0916C29.7713 25.0916 30.21 25.1616 30.5647 25.3016C30.9287 25.4323 31.218 25.6236 31.4327 25.8756C31.6567 26.1183 31.8153 26.4123 31.9087 26.7576C32.002 27.0936 32.0487 27.467 32.0487 27.8776V32.4276C31.9367 32.4463 31.778 32.4743 31.5727 32.5116C31.3767 32.5396 31.1527 32.5676 30.9007 32.5956C30.6487 32.6236 30.3733 32.6469 30.0747 32.6656C29.7853 32.6936 29.496 32.7076 29.2067 32.7076C28.796 32.7076 28.418 32.6656 28.0727 32.5816C27.7273 32.4976 27.4287 32.367 27.1767 32.1896C26.9247 32.003 26.7287 31.7603 26.5887 31.4616C26.4487 31.1629 26.3787 30.8036 26.3787 30.3836C26.3787 29.9823 26.458 29.6369 26.6167 29.3476C26.7847 29.0583 27.0087 28.8249 27.2887 28.6476C27.5687 28.4703 27.8953 28.3396 28.2687 28.2556C28.642 28.1716 29.034 28.1296 29.4447 28.1296C29.5753 28.1296 29.7107 28.1389 29.8507 28.1576C29.9907 28.1669 30.1213 28.1856 30.2427 28.2136C30.3733 28.2323 30.4853 28.2509 30.5787 28.2696C30.672 28.2883 30.7373 28.3023 30.7747 28.3116V27.9476C30.7747 27.7329 30.7513 27.5229 30.7047 27.3176C30.658 27.1029 30.574 26.9163 30.4527 26.7576C30.3313 26.5896 30.1633 26.4589 29.9487 26.3656C29.7433 26.2629 29.4727 26.2116 29.1367 26.2116C28.7073 26.2116 28.3293 26.2443 28.0027 26.3096C27.6853 26.3656 27.4473 26.4263 27.2887 26.4916L27.1347 25.4136C27.3027 25.3389 27.5827 25.2689 27.9747 25.2036C28.3667 25.1289 28.7913 25.0916 29.2487 25.0916Z" fill="#05195E"/>
<path d="M35.4291 25.2736H38.1871V26.3656H35.4291V29.7256C35.4291 30.0896 35.4571 30.3929 35.5131 30.6356C35.5691 30.8689 35.6531 31.0556 35.7651 31.1956C35.8771 31.3263 36.0171 31.4196 36.1851 31.4756C36.3531 31.5316 36.5491 31.5596 36.7731 31.5596C37.1651 31.5596 37.4778 31.5176 37.7111 31.4336C37.9538 31.3403 38.1218 31.2749 38.2151 31.2376L38.4671 32.3156C38.3365 32.3809 38.1078 32.4603 37.7811 32.5536C37.4545 32.6563 37.0811 32.7076 36.6611 32.7076C36.1665 32.7076 35.7558 32.6469 35.4291 32.5256C35.1118 32.3949 34.8551 32.2036 34.6591 31.9516C34.4631 31.6996 34.3231 31.3916 34.2391 31.0276C34.1645 30.6543 34.1271 30.2249 34.1271 29.7396V23.2436L35.4291 23.0196V25.2736Z" fill="#05195E"/>
<path d="M38.9899 33.9116C39.0926 33.9583 39.2233 34.0003 39.3819 34.0376C39.5499 34.0843 39.7133 34.1076 39.8719 34.1076C40.3853 34.1076 40.7866 33.9909 41.0759 33.7576C41.3653 33.5336 41.6266 33.1649 41.8599 32.6516C41.2719 31.5316 40.7213 30.3463 40.2079 29.0956C39.7039 27.8356 39.2839 26.5616 38.9479 25.2736H40.3479C40.4506 25.6936 40.5719 26.1463 40.7119 26.6316C40.8613 27.1169 41.0246 27.6163 41.2019 28.1296C41.3793 28.6429 41.5706 29.1563 41.7759 29.6696C41.9813 30.183 42.1959 30.6776 42.4199 31.1536C42.7746 30.1736 43.0826 29.2029 43.3439 28.2416C43.6053 27.2803 43.8526 26.2909 44.0859 25.2736H45.4299C45.0939 26.6456 44.7206 27.9663 44.3099 29.2356C43.8993 30.4956 43.4559 31.6763 42.9799 32.7776C42.7933 33.1976 42.5973 33.5569 42.3919 33.8556C42.1959 34.1636 41.9766 34.4156 41.7339 34.6116C41.4913 34.8076 41.2159 34.9523 40.9079 35.0456C40.6093 35.1389 40.2686 35.1856 39.8859 35.1856C39.7833 35.1856 39.6759 35.1763 39.5639 35.1576C39.4519 35.1483 39.3399 35.1296 39.2279 35.1016C39.1253 35.0829 39.0273 35.0596 38.9339 35.0316C38.8499 35.0036 38.7893 34.9803 38.7519 34.9616L38.9899 33.9116Z" fill="#05195E"/>
<path d="M48.1749 30.9576C48.1843 31.0323 48.1889 31.1069 48.1889 31.1816C48.1889 31.2469 48.1889 31.317 48.1889 31.3916C48.1889 31.9796 48.1003 32.5583 47.9229 33.1276C47.7549 33.7063 47.5216 34.257 47.2229 34.7796L46.2149 34.4576C46.4483 33.9816 46.6023 33.4963 46.6769 33.0016C46.7516 32.5163 46.7889 32.0589 46.7889 31.6296C46.7889 31.5083 46.7843 31.3916 46.7749 31.2796C46.7749 31.1676 46.7703 31.0603 46.7609 30.9576H48.1749Z" fill="#05195E"/>
<path d="M60.7545 22.8516C60.4651 23.1689 60.1385 23.5236 59.7745 23.9156C59.4105 24.2983 59.0278 24.6949 58.6265 25.1056C58.2345 25.5069 57.8425 25.9036 57.4505 26.2956C57.0585 26.6876 56.6898 27.0516 56.3445 27.3876C56.7458 27.6676 57.1705 28.0129 57.6185 28.4236C58.0665 28.8343 58.5051 29.2729 58.9345 29.7396C59.3638 30.2063 59.7651 30.6823 60.1385 31.1676C60.5211 31.6529 60.8385 32.1149 61.0905 32.5536H59.4945C59.2145 32.1149 58.8925 31.6763 58.5285 31.2376C58.1645 30.7896 57.7771 30.3649 57.3665 29.9636C56.9651 29.5529 56.5545 29.1749 56.1345 28.8296C55.7238 28.4843 55.3225 28.1903 54.9305 27.9476V32.5536H53.5725V22.8516H54.9305V27.1356C55.2571 26.8276 55.6165 26.4823 56.0085 26.0996C56.4005 25.7076 56.7878 25.3156 57.1705 24.9236C57.5531 24.5316 57.9125 24.1583 58.2485 23.8036C58.5938 23.4396 58.8831 23.1223 59.1165 22.8516H60.7545Z" fill="#05195E"/>
<path d="M64.7572 31.6156C65.0652 31.6156 65.3358 31.6109 65.5692 31.6016C65.8118 31.5829 66.0125 31.5549 66.1712 31.5176V29.3476C66.0778 29.3009 65.9238 29.2636 65.7092 29.2356C65.5038 29.1983 65.2518 29.1796 64.9532 29.1796C64.7572 29.1796 64.5472 29.1936 64.3232 29.2216C64.1085 29.2496 63.9078 29.3103 63.7212 29.4036C63.5438 29.4876 63.3945 29.6089 63.2732 29.7676C63.1518 29.9169 63.0912 30.1176 63.0912 30.3696C63.0912 30.8363 63.2405 31.163 63.5392 31.3496C63.8378 31.527 64.2438 31.6156 64.7572 31.6156ZM64.6452 25.0916C65.1678 25.0916 65.6065 25.1616 65.9612 25.3016C66.3252 25.4323 66.6145 25.6236 66.8292 25.8756C67.0532 26.1183 67.2118 26.4123 67.3052 26.7576C67.3985 27.0936 67.4452 27.467 67.4452 27.8776V32.4276C67.3332 32.4463 67.1745 32.4743 66.9692 32.5116C66.7732 32.5396 66.5492 32.5676 66.2972 32.5956C66.0452 32.6236 65.7698 32.6469 65.4712 32.6656C65.1818 32.6936 64.8925 32.7076 64.6032 32.7076C64.1925 32.7076 63.8145 32.6656 63.4692 32.5816C63.1238 32.4976 62.8252 32.367 62.5732 32.1896C62.3212 32.003 62.1252 31.7603 61.9852 31.4616C61.8452 31.1629 61.7752 30.8036 61.7752 30.3836C61.7752 29.9823 61.8545 29.6369 62.0132 29.3476C62.1812 29.0583 62.4052 28.8249 62.6852 28.6476C62.9652 28.4703 63.2918 28.3396 63.6652 28.2556C64.0385 28.1716 64.4305 28.1296 64.8412 28.1296C64.9718 28.1296 65.1072 28.1389 65.2472 28.1576C65.3872 28.1669 65.5178 28.1856 65.6392 28.2136C65.7698 28.2323 65.8818 28.2509 65.9752 28.2696C66.0685 28.2883 66.1338 28.3023 66.1712 28.3116V27.9476C66.1712 27.7329 66.1478 27.5229 66.1012 27.3176C66.0545 27.1029 65.9705 26.9163 65.8492 26.7576C65.7278 26.5896 65.5598 26.4589 65.3452 26.3656C65.1398 26.2629 64.8692 26.2116 64.5332 26.2116C64.1038 26.2116 63.7258 26.2443 63.3992 26.3096C63.0818 26.3656 62.8438 26.4263 62.6852 26.4916L62.5312 25.4136C62.6992 25.3389 62.9792 25.2689 63.3712 25.2036C63.7632 25.1289 64.1878 25.0916 64.6452 25.0916Z" fill="#05195E"/>
<path d="M74.4376 26.2536C74.2416 26.4683 73.9803 26.7716 73.6536 27.1636C73.3363 27.5556 72.9909 27.9896 72.6176 28.4656C72.2536 28.9416 71.8849 29.4409 71.5116 29.9636C71.1476 30.4863 70.8256 30.9856 70.5456 31.4616H74.5496V32.5536H68.9916V31.6856C69.2156 31.2749 69.4909 30.8223 69.8176 30.3276C70.1443 29.8329 70.4849 29.3429 70.8396 28.8576C71.2036 28.3629 71.5536 27.9009 71.8896 27.4716C72.2349 27.0329 72.5336 26.6643 72.7856 26.3656H69.1876V25.2736H74.4376V26.2536Z" fill="#05195E"/>
<path d="M78.6615 31.6156C78.9695 31.6156 79.2401 31.6109 79.4735 31.6016C79.7161 31.5829 79.9168 31.5549 80.0755 31.5176V29.3476C79.9821 29.3009 79.8281 29.2636 79.6135 29.2356C79.4081 29.1983 79.1561 29.1796 78.8575 29.1796C78.6615 29.1796 78.4515 29.1936 78.2275 29.2216C78.0128 29.2496 77.8121 29.3103 77.6255 29.4036C77.4481 29.4876 77.2988 29.6089 77.1775 29.7676C77.0561 29.9169 76.9955 30.1176 76.9955 30.3696C76.9955 30.8363 77.1448 31.163 77.4435 31.3496C77.7421 31.527 78.1481 31.6156 78.6615 31.6156ZM78.5495 25.0916C79.0721 25.0916 79.5108 25.1616 79.8655 25.3016C80.2295 25.4323 80.5188 25.6236 80.7335 25.8756C80.9575 26.1183 81.1161 26.4123 81.2095 26.7576C81.3028 27.0936 81.3495 27.467 81.3495 27.8776V32.4276C81.2375 32.4463 81.0788 32.4743 80.8735 32.5116C80.6775 32.5396 80.4535 32.5676 80.2015 32.5956C79.9495 32.6236 79.6741 32.6469 79.3755 32.6656C79.0861 32.6936 78.7968 32.7076 78.5075 32.7076C78.0968 32.7076 77.7188 32.6656 77.3735 32.5816C77.0281 32.4976 76.7295 32.367 76.4775 32.1896C76.2255 32.003 76.0295 31.7603 75.8895 31.4616C75.7495 31.1629 75.6795 30.8036 75.6795 30.3836C75.6795 29.9823 75.7588 29.6369 75.9174 29.3476C76.0854 29.0583 76.3095 28.8249 76.5895 28.6476C76.8695 28.4703 77.1961 28.3396 77.5695 28.2556C77.9428 28.1716 78.3348 28.1296 78.7455 28.1296C78.8761 28.1296 79.0115 28.1389 79.1515 28.1576C79.2915 28.1669 79.4221 28.1856 79.5435 28.2136C79.6741 28.2323 79.7861 28.2509 79.8795 28.2696C79.9728 28.2883 80.0381 28.3023 80.0755 28.3116V27.9476C80.0755 27.7329 80.0521 27.5229 80.0055 27.3176C79.9588 27.1029 79.8748 26.9163 79.7535 26.7576C79.6321 26.5896 79.4641 26.4589 79.2495 26.3656C79.0441 26.2629 78.7735 26.2116 78.4375 26.2116C78.0081 26.2116 77.6301 26.2443 77.3035 26.3096C76.9861 26.3656 76.7481 26.4263 76.5895 26.4916L76.4355 25.4136C76.6035 25.3389 76.8835 25.2689 77.2755 25.2036C77.6675 25.1289 78.0921 25.0916 78.5495 25.0916Z" fill="#05195E"/>
<path d="M86.1439 28.5496C86.4239 28.7643 86.7179 29.0303 87.0259 29.3476C87.3432 29.6649 87.6512 30.0103 87.9499 30.3836C88.2579 30.7476 88.5472 31.1209 88.8179 31.5036C89.0886 31.8769 89.3172 32.2269 89.5039 32.5536H87.9779C87.7819 32.2269 87.5532 31.8956 87.2919 31.5596C87.0399 31.2143 86.7739 30.8876 86.4939 30.5796C86.2139 30.2623 85.9292 29.9729 85.6399 29.7116C85.3506 29.4503 85.0752 29.2309 84.8139 29.0536V32.5536H83.5119V21.9136L84.8139 21.6896V28.3256C85.0379 28.1016 85.2852 27.8543 85.5559 27.5836C85.8266 27.3129 86.0926 27.0376 86.3539 26.7576C86.6152 26.4776 86.8626 26.2116 87.0959 25.9596C87.3292 25.6983 87.5299 25.4696 87.6979 25.2736H89.2239C89.0092 25.5069 88.7759 25.7636 88.5239 26.0436C88.2719 26.3236 88.0106 26.6083 87.7399 26.8976C87.4692 27.1776 87.1939 27.4623 86.9139 27.7516C86.6432 28.0316 86.3866 28.2976 86.1439 28.5496Z" fill="#05195E"/>
<path d="M90.8264 32.5536V21.9136L92.1284 21.6896V25.4136C92.371 25.3203 92.6277 25.2503 92.8984 25.2036C93.1784 25.1476 93.4537 25.1196 93.7244 25.1196C94.303 25.1196 94.7837 25.2036 95.1664 25.3716C95.549 25.5303 95.8524 25.7589 96.0764 26.0576C96.3097 26.3469 96.473 26.6969 96.5664 27.1076C96.6597 27.5183 96.7064 27.9709 96.7064 28.4656V32.5536H95.4044V28.7456C95.4044 28.2976 95.3717 27.9149 95.3064 27.5976C95.2504 27.2803 95.1524 27.0236 95.0124 26.8276C94.8724 26.6316 94.6857 26.4916 94.4524 26.4076C94.219 26.3143 93.9297 26.2676 93.5844 26.2676C93.4444 26.2676 93.2997 26.2769 93.1504 26.2956C93.001 26.3143 92.8564 26.3376 92.7164 26.3656C92.5857 26.3843 92.4644 26.4076 92.3524 26.4356C92.2497 26.4636 92.175 26.4869 92.1284 26.5056V32.5536H90.8264Z" fill="#05195E"/>
<path d="M100.518 31.6156C101.05 31.6156 101.442 31.5456 101.694 31.4056C101.956 31.2656 102.086 31.0416 102.086 30.7336C102.086 30.4163 101.96 30.1643 101.708 29.9776C101.456 29.7909 101.041 29.5809 100.462 29.3476C100.182 29.2356 99.9117 29.1236 99.6504 29.0116C99.3984 28.8903 99.1791 28.7503 98.9924 28.5916C98.8057 28.4329 98.6564 28.2416 98.5444 28.0176C98.4324 27.7936 98.3764 27.5183 98.3764 27.1916C98.3764 26.5476 98.6144 26.0389 99.0904 25.6656C99.5664 25.2829 100.215 25.0916 101.036 25.0916C101.242 25.0916 101.447 25.1056 101.652 25.1336C101.858 25.1523 102.049 25.1803 102.226 25.2176C102.404 25.2456 102.558 25.2783 102.688 25.3156C102.828 25.3529 102.936 25.3856 103.01 25.4136L102.772 26.5336C102.632 26.4589 102.413 26.3843 102.114 26.3096C101.816 26.2256 101.456 26.1836 101.036 26.1836C100.672 26.1836 100.355 26.2583 100.084 26.4076C99.8137 26.5476 99.6784 26.7716 99.6784 27.0796C99.6784 27.2383 99.7064 27.3783 99.7624 27.4996C99.8277 27.6209 99.9211 27.733 100.042 27.8356C100.173 27.929 100.332 28.0176 100.518 28.1016C100.705 28.1856 100.929 28.2743 101.19 28.3676C101.536 28.4983 101.844 28.629 102.114 28.7596C102.385 28.881 102.614 29.0256 102.8 29.1936C102.996 29.3616 103.146 29.5669 103.248 29.8096C103.351 30.0429 103.402 30.3323 103.402 30.6776C103.402 31.3496 103.15 31.8583 102.646 32.2036C102.152 32.549 101.442 32.7216 100.518 32.7216C99.8744 32.7216 99.3704 32.6656 99.0064 32.5536C98.6424 32.4509 98.3951 32.3716 98.2644 32.3156L98.5024 31.1956C98.6517 31.2516 98.8897 31.3356 99.2164 31.4476C99.5431 31.5596 99.9771 31.6156 100.518 31.6156Z" fill="#05195E"/>
<path d="M106.29 25.2736H109.048V26.3656H106.29V29.7256C106.29 30.0896 106.318 30.3929 106.374 30.6356C106.43 30.8689 106.514 31.0556 106.626 31.1956C106.738 31.3263 106.878 31.4196 107.046 31.4756C107.214 31.5316 107.41 31.5596 107.634 31.5596C108.026 31.5596 108.339 31.5176 108.572 31.4336C108.815 31.3403 108.983 31.2749 109.076 31.2376L109.328 32.3156C109.198 32.3809 108.969 32.4603 108.642 32.5536C108.316 32.6563 107.942 32.7076 107.522 32.7076C107.028 32.7076 106.617 32.6469 106.29 32.5256C105.973 32.3949 105.716 32.2036 105.52 31.9516C105.324 31.6996 105.184 31.3916 105.1 31.0276C105.026 30.6543 104.988 30.2249 104.988 29.7396V23.2436L106.29 23.0196V25.2736Z" fill="#05195E"/>
<path d="M113.169 31.6156C113.477 31.6156 113.748 31.6109 113.981 31.6016C114.224 31.5829 114.425 31.5549 114.583 31.5176V29.3476C114.49 29.3009 114.336 29.2636 114.121 29.2356C113.916 29.1983 113.664 29.1796 113.365 29.1796C113.169 29.1796 112.959 29.1936 112.735 29.2216C112.521 29.2496 112.32 29.3103 112.133 29.4036C111.956 29.4876 111.807 29.6089 111.685 29.7676C111.564 29.9169 111.503 30.1176 111.503 30.3696C111.503 30.8363 111.653 31.163 111.951 31.3496C112.25 31.527 112.656 31.6156 113.169 31.6156ZM113.057 25.0916C113.58 25.0916 114.019 25.1616 114.373 25.3016C114.737 25.4323 115.027 25.6236 115.241 25.8756C115.465 26.1183 115.624 26.4123 115.717 26.7576C115.811 27.0936 115.857 27.467 115.857 27.8776V32.4276C115.745 32.4463 115.587 32.4743 115.381 32.5116C115.185 32.5396 114.961 32.5676 114.709 32.5956C114.457 32.6236 114.182 32.6469 113.883 32.6656C113.594 32.6936 113.305 32.7076 113.015 32.7076C112.605 32.7076 112.227 32.6656 111.881 32.5816C111.536 32.4976 111.237 32.367 110.985 32.1896C110.733 32.003 110.537 31.7603 110.397 31.4616C110.257 31.1629 110.187 30.8036 110.187 30.3836C110.187 29.9823 110.267 29.6369 110.425 29.3476C110.593 29.0583 110.817 28.8249 111.097 28.6476C111.377 28.4703 111.704 28.3396 112.077 28.2556C112.451 28.1716 112.843 28.1296 113.253 28.1296C113.384 28.1296 113.519 28.1389 113.659 28.1576C113.799 28.1669 113.93 28.1856 114.051 28.2136C114.182 28.2323 114.294 28.2509 114.387 28.2696C114.481 28.2883 114.546 28.3023 114.583 28.3116V27.9476C114.583 27.7329 114.56 27.5229 114.513 27.3176C114.467 27.1029 114.383 26.9163 114.261 26.7576C114.14 26.5896 113.972 26.4589 113.757 26.3656C113.552 26.2629 113.281 26.2116 112.945 26.2116C112.516 26.2116 112.138 26.2443 111.811 26.3096C111.494 26.3656 111.256 26.4263 111.097 26.4916L110.943 25.4136C111.111 25.3389 111.391 25.2689 111.783 25.2036C112.175 25.1289 112.6 25.0916 113.057 25.0916Z" fill="#05195E"/>
<path d="M118.02 25.4836C118.318 25.4089 118.715 25.3296 119.21 25.2456C119.704 25.1616 120.274 25.1196 120.918 25.1196C121.496 25.1196 121.977 25.2036 122.36 25.3716C122.742 25.5303 123.046 25.7589 123.27 26.0576C123.503 26.3469 123.666 26.6969 123.76 27.1076C123.853 27.5183 123.9 27.9709 123.9 28.4656V32.5536H122.598V28.7456C122.598 28.2976 122.565 27.9149 122.5 27.5976C122.444 27.2803 122.346 27.0236 122.206 26.8276C122.066 26.6316 121.879 26.4916 121.646 26.4076C121.412 26.3143 121.123 26.2676 120.778 26.2676C120.638 26.2676 120.493 26.2723 120.344 26.2816C120.194 26.2909 120.05 26.3049 119.91 26.3236C119.779 26.3329 119.658 26.3469 119.546 26.3656C119.443 26.3843 119.368 26.3983 119.322 26.4076V32.5536H118.02V25.4836Z" fill="#05195E"/>
</svg>
