<svg width="80" height="38" viewBox="0 0 80 38" fill="none" xmlns="http://www.w3.org/2000/svg">
<path d="M28.4 8.96001L36.725 18.75L28.405 28.54C26.4745 30.4439 24.0242 31.7345 21.3622 32.2496C18.7003 32.7647 15.9454 32.4813 13.444 31.435C10.9427 30.3887 8.8065 28.6263 7.30406 26.3692C5.80163 24.1122 5.00002 21.4614 5.00002 18.75C5.00002 16.0386 5.80163 13.3878 7.30406 11.1308C8.8065 8.87375 10.9427 7.1113 13.444 6.06501C15.9454 5.01873 18.7003 4.73532 21.3622 5.25042C24.0242 5.76553 26.4745 7.05614 28.405 8.96001H28.4ZM40 14.89L32.08 5.56501L32.01 5.49001C29.3876 2.86827 26.0466 1.083 22.4096 0.359923C18.7726 -0.363149 15.0028 0.00845179 11.577 1.42774C8.1512 2.84703 5.22314 5.25026 3.16308 8.33358C1.10302 11.4169 0.003479 15.0418 0.003479 18.75C0.003479 22.4582 1.10302 26.0831 3.16308 29.1664C5.22314 32.2498 8.1512 34.653 11.577 36.0723C15.0028 37.4916 18.7726 37.8632 22.4096 37.1401C26.0466 36.417 29.3876 34.6318 32.01 32.01L32.08 31.935L40 22.61L47.92 31.935L47.99 32.01C50.6124 34.6318 53.9534 36.417 57.5904 37.1401C61.2274 37.8632 64.9971 37.4916 68.4229 36.0723C71.8488 34.653 74.7768 32.2498 76.8369 29.1664C78.8969 26.0831 79.9965 22.4582 79.9965 18.75C79.9965 15.0418 78.8969 11.4169 76.8369 8.33358C74.7768 5.25026 71.8488 2.84703 68.4229 1.42774C64.9971 0.00845179 61.2274 -0.363149 57.5904 0.359923C53.9534 1.083 50.6124 2.86827 47.99 5.49001L47.92 5.56501L40 14.89ZM43.28 18.75L51.595 8.96001C53.5255 7.05614 55.9757 5.76553 58.6377 5.25042C61.2997 4.73532 64.0546 5.01873 66.5559 6.06501C69.0573 7.1113 71.1935 8.87375 72.6959 11.1308C74.1983 13.3878 75 16.0386 75 18.75C75 21.4614 74.1983 24.1122 72.6959 26.3692C71.1935 28.6263 69.0573 30.3887 66.5559 31.435C64.0546 32.4813 61.2997 32.7647 58.6377 32.2496C55.9757 31.7345 53.5255 30.4439 51.595 28.54L43.28 18.75Z" fill="#4751BA"/>
</svg>
