<svg width="40" height="41" viewBox="0 0 40 41" fill="none" xmlns="http://www.w3.org/2000/svg">
<path d="M29.668 38.75C29.3069 38.8056 28.9946 38.7083 28.7313 38.4583C28.4669 38.2083 28.3346 37.8889 28.3346 37.5C28.3346 37.1945 28.4457 36.9233 28.668 36.6867C28.8902 36.4511 29.1541 36.3056 29.4596 36.25C31.0985 36 32.4946 35.2989 33.648 34.1467C34.8002 32.9933 35.5013 31.5972 35.7513 29.9583C35.8069 29.6528 35.9457 29.3889 36.168 29.1667C36.3902 28.9445 36.6541 28.8333 36.9596 28.8333C37.3485 28.8333 37.6752 28.9656 37.9396 29.23C38.203 29.4933 38.3069 29.8056 38.2513 30.1667C37.9457 32.3889 36.9946 34.2989 35.398 35.8967C33.8002 37.4933 31.8902 38.4445 29.668 38.75ZM3.0013 12.1667C2.61241 12.1667 2.29297 12.0345 2.04297 11.77C1.79297 11.5067 1.69575 11.1945 1.7513 10.8333C2.05686 8.61113 3.00852 6.70113 4.6063 5.10335C6.20297 3.50668 8.11241 2.55557 10.3346 2.25001C10.6957 2.19446 11.0085 2.29168 11.273 2.54168C11.5363 2.79168 11.668 3.11113 11.668 3.50001C11.668 3.80557 11.5569 4.07613 11.3346 4.31168C11.1124 4.54835 10.8485 4.69446 10.543 4.75001C8.93186 5.00001 7.54297 5.70835 6.3763 6.87501C5.20964 8.04168 4.5013 9.43057 4.2513 11.0417C4.19575 11.3472 4.05019 11.6111 3.81464 11.8333C3.57797 12.0556 3.30686 12.1667 3.0013 12.1667V12.1667ZM10.0846 16.875C9.94575 17.0139 9.8763 17.1806 9.8763 17.375C9.8763 17.5695 9.94575 17.75 10.0846 17.9167C10.8902 18.7778 11.3835 19.8195 11.5646 21.0417C11.7446 22.2639 11.4319 23.4167 10.6263 24.5C10.4874 24.6945 10.4252 24.8956 10.4396 25.1033C10.453 25.3122 10.5291 25.4861 10.668 25.625C10.8624 25.8195 11.0774 25.9167 11.313 25.9167C11.5496 25.9167 11.7374 25.8195 11.8763 25.625C12.7652 24.4861 13.2235 23.1317 13.2513 21.5617C13.2791 19.9928 12.8069 18.625 11.8346 17.4583L24.543 4.75001C24.9596 4.33335 25.453 4.12501 26.023 4.12501C26.5919 4.12501 27.0846 4.33335 27.5013 4.75001C27.8902 5.1389 28.0985 5.61779 28.1263 6.18668C28.1541 6.75668 27.9457 7.2639 27.5013 7.70835L18.9596 16.25C18.793 16.4167 18.7096 16.6111 18.7096 16.8333C18.7096 17.0556 18.7791 17.25 18.918 17.4167C19.0846 17.5556 19.2791 17.6317 19.5013 17.645C19.7235 17.6595 19.918 17.5833 20.0846 17.4167L31.0013 6.50001C31.3902 6.11113 31.8835 5.91668 32.4813 5.91668C33.078 5.91668 33.5707 6.11113 33.9596 6.50001C34.3485 6.8889 34.543 7.38168 34.543 7.97835C34.543 8.57613 34.3485 9.06946 33.9596 9.45835L23.0846 20.3333C22.918 20.5 22.8346 20.7011 22.8346 20.9367C22.8346 21.1733 22.918 21.375 23.0846 21.5417C23.2235 21.7083 23.4113 21.7917 23.648 21.7917C23.8835 21.7917 24.0846 21.7083 24.2513 21.5417L33.3763 12.4167C33.793 12 34.2863 11.7917 34.8563 11.7917C35.4252 11.7917 35.918 12 36.3346 12.4167C36.7235 12.8056 36.918 13.2983 36.918 13.895C36.918 14.4928 36.7235 14.9861 36.3346 15.375L26.0013 25.6667C25.8346 25.8333 25.7513 26.0278 25.7513 26.25C25.7513 26.4722 25.8346 26.6667 26.0013 26.8333C26.168 27 26.3624 27.09 26.5846 27.1033C26.8069 27.1178 27.0013 27.0417 27.168 26.875L33.9596 20.0833C34.4041 19.6389 34.9113 19.4306 35.4813 19.4583C36.0502 19.4861 36.5291 19.6945 36.918 20.0833C37.3069 20.4722 37.5152 20.9517 37.543 21.5217C37.5707 22.0906 37.3624 22.5972 36.918 23.0417L25.1263 34.8333C23.793 36.1667 22.2791 37.1667 20.5846 37.8333C18.8902 38.5 17.1613 38.8333 15.398 38.8333C13.6335 38.8333 11.9041 38.5 10.2096 37.8333C8.51519 37.1667 7.0013 36.1667 5.66797 34.8333C4.33464 33.5 3.33464 31.9861 2.66797 30.2917C2.0013 28.5972 1.66797 26.8678 1.66797 25.1033C1.66797 23.34 2.0013 21.6111 2.66797 19.9167C3.33464 18.2222 4.33464 16.7083 5.66797 15.375L13.3346 7.70835C13.7235 7.31946 14.2163 7.11113 14.813 7.08335C15.4107 7.05557 15.918 7.25002 16.3346 7.66668C16.7235 8.05557 16.918 8.54835 16.918 9.14501C16.918 9.74279 16.7235 10.2361 16.3346 10.625L10.0846 16.875Z" fill="#FCD44E"/>
</svg>
