<svg width="81" height="81" viewBox="0 0 81 81" fill="none" xmlns="http://www.w3.org/2000/svg">
<path d="M30.5226 22.6593C29.4288 20.6906 27.4351 17.1031 29.2788 14.7031C30.9226 12.5656 33.7351 13.2531 35.9976 15.5843L37.3226 17.0218C37.3226 17.0218 36.2038 12.9093 39.4726 11.7906C41.6663 11.0406 43.4851 11.8343 46.4288 15.3656C51.7351 21.7281 62.9913 41.1468 62.9913 41.1468C63.5163 42.0093 64.0351 42.7906 64.4163 42.6593C64.7226 42.5531 65.5538 39.4968 65.5538 39.4968C65.4913 35.2843 65.7976 30.3906 67.2663 27.6968C68.7726 24.9343 71.4913 23.9343 73.3851 24.5468C75.0413 25.0843 75.9101 26.3843 75.3851 29.2718C74.9413 31.7218 74.8101 37.9531 75.3413 44.0343C75.7663 48.9156 75.9663 52.0906 75.6101 56.0093C74.9288 63.4531 71.9851 70.8031 63.5101 75.2656C58.8288 77.7343 53.8101 78.2281 49.1413 77.4781C49.1351 77.4843 30.9476 23.4218 30.5226 22.6593V22.6593Z" fill="#DBA870"/>
<path d="M49.474 34.6593C47.7427 30.8343 45.7677 27.8905 43.5927 24.5593C42.0427 22.1843 39.324 18.1968 38.4802 16.1968C37.899 14.8218 37.9115 13.7218 37.9865 13.1343C38.0052 13.0093 37.8427 12.9468 37.7677 13.0468C37.0802 14.0405 36.7177 15.653 37.424 17.3843C38.5052 20.0093 40.8302 23.3593 42.4052 25.7655C44.7052 29.2843 46.3115 31.8468 47.7802 35.3843L50.1802 37.1968C50.1865 37.203 50.1177 36.0905 49.474 34.6593V34.6593Z" fill="#8E6637"/>
<path d="M33.7848 74.6343C32.1098 73.5593 27.7161 70.2718 22.9973 65.1343C15.9973 57.5093 12.6035 49.6343 11.1785 46.6781C9.8098 43.8343 9.4723 40.4593 11.1098 39.3031C12.9535 38.0031 14.666 39.3093 14.666 39.3093C13.0785 36.8281 12.0473 34.3843 11.7785 32.4031C11.4098 29.6406 13.091 28.3593 13.3973 28.1906C14.8473 27.3906 16.1598 28.4156 16.1598 28.4156C16.1598 28.4156 14.4285 25.9843 13.9848 23.3843C13.7098 21.7843 14.3098 20.1343 15.666 19.1968C17.3848 18.0156 19.0098 18.3593 21.5473 20.5968L22.5785 21.3843C22.5785 21.3843 22.1035 20.0531 22.0973 18.6468C22.091 17.3656 22.7036 15.9281 24.2036 15.3468C26.1348 14.5968 27.6098 15.0906 30.2598 17.8281C32.6348 20.2843 40.5285 28.4281 45.966 32.8281C49.7973 35.9343 54.0473 39.0281 56.2473 40.3406C56.9473 40.7593 57.5411 40.2031 57.3473 39.2156C56.1411 33.1218 55.6723 28.4218 56.8223 24.8656C57.9723 21.3031 60.166 19.3593 62.6348 19.5531C63.7973 19.6468 64.9536 20.3406 65.4536 21.6906C65.8973 22.9031 65.9098 24.9218 65.9661 26.2031C66.1661 31.1593 70.2535 45.3843 71.091 49.2968C72.691 56.7218 72.066 64.7468 65.1973 71.6468C55.991 80.9218 41.3535 79.4843 33.7848 74.6343V74.6343Z" fill="#F5C894"/>
<path d="M28.1611 57.7218C27.9048 58.5905 27.4298 59.5655 26.7673 59.0093C25.8611 58.2468 25.9861 57.4655 24.9736 56.4218C22.0611 53.4155 16.6548 45.6593 15.4111 42.5593C14.5548 40.4218 14.6736 39.3093 14.6736 39.3093C14.6736 39.3093 21.7173 50.1218 28.0798 56.0405C28.6423 56.5655 28.1923 57.6218 28.1611 57.7218V57.7218ZM31.9361 50.528C30.9923 50.1655 30.7986 48.7093 30.0986 48.0343C26.6673 44.7468 19.2986 35.6843 17.1048 31.4843C16.2111 29.7655 16.1986 28.9655 16.1361 28.378C16.1361 28.378 26.4611 41.303 31.9673 46.3218C32.3173 46.6405 33.4173 46.9968 33.6548 47.5218C34.1111 48.5343 32.6986 50.8155 31.9361 50.528V50.528ZM39.2861 39.3468C33.4236 34.4468 22.4673 21.328 22.4673 21.328C22.4673 21.328 22.6923 23.1718 23.9986 25.1905C26.2673 28.7093 32.8486 36.8718 37.2423 41.0218C38.0861 41.8218 38.0361 42.803 38.9298 42.878C39.8861 42.9593 41.0486 41.828 41.1111 40.9655C41.1673 40.228 40.2611 40.1593 39.2861 39.3468V39.3468Z" fill="#DBA870"/>
<path d="M3.5293 59.3343L11.5168 58.7656M19.423 68.3968L16.8043 75.9656M4.3418 71.4405L14.7543 64.1343M76.0105 12.2531L69.8418 17.3593M57.8105 14.1218L55.5418 6.44055M68.3043 2.87805L64.0855 14.8718" stroke="#10459E" stroke-width="1.5625" stroke-miterlimit="10" stroke-linecap="round" stroke-linejoin="round"/>
<path d="M68.1738 36.4218C67.4363 33.4156 66.6988 30.1281 66.4613 27.9031C66.2738 26.1468 66.1551 23.2968 65.9863 22.6718C65.3926 20.4218 64.0863 20.0281 64.0863 20.0281C64.0863 20.0281 64.9113 20.8968 64.9301 23.3031C64.9488 25.8531 65.0238 30.8468 66.4863 36.3718C67.4488 40.0093 69.0113 45.2468 69.7238 49.4343C71.2301 58.2531 69.8551 64.4593 64.5863 70.9968C61.5301 74.7843 54.9238 77.5781 54.9238 77.5781C54.9238 77.5781 60.3551 77.2343 65.0988 72.6718C71.3988 66.6093 73.6801 58.7468 71.6551 49.3218C70.9676 46.1281 68.4113 37.3968 68.1738 36.4218V36.4218Z" fill="#DBA870"/>
</svg>
