<svg width="40" height="41" viewBox="0 0 40 41" fill="none" xmlns="http://www.w3.org/2000/svg">
<path d="M34.9987 5.5C35.4407 5.5 35.8647 5.67559 36.1772 5.98816C36.4898 6.30072 36.6654 6.72464 36.6654 7.16667V30.5C36.6654 30.942 36.4898 31.366 36.1772 31.6785C35.8647 31.9911 35.4407 32.1667 34.9987 32.1667H10.757L3.33203 38V7.16667C3.33203 6.72464 3.50763 6.30072 3.82019 5.98816C4.13275 5.67559 4.55667 5.5 4.9987 5.5H34.9987ZM33.332 8.83333H6.66536V31.1417L9.6037 28.8333H33.332V8.83333ZM17.5237 12.8533L18.2687 14C15.4887 15.505 15.537 17.92 15.537 18.44C15.7954 18.4067 16.067 18.4 16.337 18.425C17.0673 18.4866 17.7482 18.8192 18.2457 19.3574C18.7432 19.8956 19.0213 20.6004 19.0254 21.3333C19.0254 22.1069 18.7181 22.8487 18.1711 23.3957C17.6241 23.9427 16.8822 24.25 16.1087 24.25C15.2137 24.25 14.3587 23.8417 13.8187 23.2667C12.9604 22.3567 12.4987 21.3333 12.4987 19.675C12.4987 16.7583 14.5454 14.145 17.5237 12.8533ZM25.857 12.8533L26.602 14C23.822 15.505 23.8704 17.92 23.8704 18.44C24.1287 18.4067 24.4004 18.4 24.6704 18.425C25.4007 18.4866 26.0815 18.8192 26.579 19.3574C27.0765 19.8956 27.3546 20.6004 27.3587 21.3333C27.3587 22.1069 27.0514 22.8487 26.5044 23.3957C25.9574 23.9427 25.2156 24.25 24.442 24.25C23.547 24.25 22.692 23.8417 22.152 23.2667C21.2937 22.3567 20.832 21.3333 20.832 19.675C20.832 16.7583 22.8787 14.145 25.857 12.8533Z" fill="white"/>
</svg>
