<svg width="135" height="12" viewBox="0 0 135 12" fill="none" xmlns="http://www.w3.org/2000/svg">
<path d="M8.32138 1.79115V2.96715H5.26938V11.4932H3.91138V2.96715H0.859375V1.79115H8.32138Z" fill="#05195E"/>
<path d="M8.49977 7.86715C8.49977 7.22315 8.5931 6.66315 8.77977 6.18715C8.96643 5.70182 9.21377 5.30048 9.52177 4.98315C9.82977 4.66582 10.1844 4.42782 10.5858 4.26915C10.9871 4.11048 11.3978 4.03115 11.8178 4.03115C12.7978 4.03115 13.5491 4.33915 14.0718 4.95515C14.5944 5.56182 14.8558 6.49048 14.8558 7.74115C14.8558 7.79715 14.8558 7.87182 14.8558 7.96515C14.8558 8.04915 14.8511 8.12848 14.8418 8.20315H9.85777C9.91377 8.95915 10.1331 9.53315 10.5158 9.92515C10.8984 10.3172 11.4958 10.5132 12.3078 10.5132C12.7651 10.5132 13.1478 10.4758 13.4558 10.4012C13.7731 10.3172 14.0111 10.2378 14.1698 10.1632L14.3518 11.2552C14.1931 11.3392 13.9131 11.4278 13.5118 11.5212C13.1198 11.6145 12.6718 11.6611 12.1678 11.6611C11.5331 11.6611 10.9824 11.5678 10.5158 11.3812C10.0584 11.1852 9.68043 10.9192 9.38177 10.5832C9.0831 10.2472 8.8591 9.85048 8.70977 9.39315C8.56977 8.92648 8.49977 8.41782 8.49977 7.86715ZM13.4978 7.15315C13.5071 6.56515 13.3578 6.08448 13.0498 5.71115C12.7511 5.32848 12.3358 5.13715 11.8038 5.13715C11.5051 5.13715 11.2391 5.19782 11.0058 5.31915C10.7818 5.43115 10.5904 5.58048 10.4318 5.76715C10.2731 5.95382 10.1471 6.16848 10.0538 6.41115C9.96977 6.65382 9.91377 6.90115 9.88577 7.15315H13.4978Z" fill="#05195E"/>
<path d="M19.4141 4.05915C19.5261 4.05915 19.6521 4.06848 19.7921 4.08715C19.9414 4.09648 20.0861 4.11515 20.2261 4.14315C20.3661 4.16182 20.4921 4.18515 20.6041 4.21315C20.7254 4.23182 20.8141 4.25048 20.8701 4.26915L20.6461 5.40315C20.5434 5.36582 20.3707 5.32382 20.1281 5.27715C19.8947 5.22115 19.5914 5.19315 19.2181 5.19315C18.9754 5.19315 18.7327 5.22115 18.4901 5.27715C18.2567 5.32382 18.1027 5.35648 18.0281 5.37515V11.4932H16.7261V4.52115C17.0341 4.40915 17.4167 4.30648 17.8741 4.21315C18.3314 4.11048 18.8447 4.05915 19.4141 4.05915Z" fill="#05195E"/>
<path d="M22.1265 4.42315C22.4251 4.34848 22.8171 4.26915 23.3025 4.18515C23.7971 4.10115 24.3665 4.05915 25.0105 4.05915C25.4771 4.05915 25.8691 4.12448 26.1865 4.25515C26.5038 4.37648 26.7698 4.55848 26.9845 4.80115C27.0498 4.75448 27.1525 4.68915 27.2925 4.60515C27.4325 4.52115 27.6051 4.44182 27.8105 4.36715C28.0158 4.28315 28.2445 4.21315 28.4965 4.15715C28.7485 4.09182 29.0191 4.05915 29.3085 4.05915C29.8685 4.05915 30.3258 4.14315 30.6805 4.31115C31.0351 4.46982 31.3105 4.69848 31.5065 4.99715C31.7118 5.29582 31.8471 5.65048 31.9125 6.06115C31.9871 6.47182 32.0245 6.91982 32.0245 7.40515V11.4932H30.7225V7.68515C30.7225 7.25582 30.6991 6.88715 30.6525 6.57915C30.6151 6.27115 30.5358 6.01448 30.4145 5.80915C30.3025 5.60382 30.1438 5.45448 29.9385 5.36115C29.7425 5.25848 29.4858 5.20715 29.1685 5.20715C28.7298 5.20715 28.3658 5.26782 28.0765 5.38915C27.7965 5.50115 27.6051 5.60382 27.5025 5.69715C27.5771 5.93982 27.6331 6.20582 27.6705 6.49515C27.7078 6.78448 27.7265 7.08782 27.7265 7.40515V11.4932H26.4245V7.68515C26.4245 7.25582 26.4011 6.88715 26.3545 6.57915C26.3078 6.27115 26.2238 6.01448 26.1025 5.80915C25.9905 5.60382 25.8318 5.45448 25.6265 5.36115C25.4305 5.25848 25.1785 5.20715 24.8705 5.20715C24.7398 5.20715 24.5998 5.21182 24.4505 5.22115C24.3011 5.23048 24.1565 5.24448 24.0165 5.26315C23.8858 5.27248 23.7645 5.28648 23.6525 5.30515C23.5405 5.32382 23.4658 5.33782 23.4285 5.34715V11.4932H22.1265V4.42315Z" fill="#05195E"/>
<path d="M35.8791 10.5552C36.4111 10.5552 36.8031 10.4852 37.0551 10.3452C37.3164 10.2052 37.4471 9.98115 37.4471 9.67315C37.4471 9.35582 37.3211 9.10382 37.0691 8.91715C36.8171 8.73048 36.4017 8.52048 35.8231 8.28715C35.5431 8.17515 35.2724 8.06315 35.0111 7.95115C34.7591 7.82982 34.5397 7.68982 34.3531 7.53115C34.1664 7.37248 34.0171 7.18115 33.9051 6.95715C33.7931 6.73315 33.7371 6.45782 33.7371 6.13115C33.7371 5.48715 33.9751 4.97848 34.4511 4.60515C34.9271 4.22248 35.5757 4.03115 36.3971 4.03115C36.6024 4.03115 36.8077 4.04515 37.0131 4.07315C37.2184 4.09182 37.4097 4.11982 37.5871 4.15715C37.7644 4.18515 37.9184 4.21782 38.0491 4.25515C38.1891 4.29248 38.2964 4.32515 38.3711 4.35315L38.1331 5.47315C37.9931 5.39848 37.7737 5.32382 37.4751 5.24915C37.1764 5.16515 36.8171 5.12315 36.3971 5.12315C36.0331 5.12315 35.7157 5.19782 35.4451 5.34715C35.1744 5.48715 35.0391 5.71115 35.0391 6.01915C35.0391 6.17782 35.0671 6.31782 35.1231 6.43915C35.1884 6.56048 35.2817 6.67248 35.4031 6.77515C35.5337 6.86848 35.6924 6.95715 35.8791 7.04115C36.0657 7.12515 36.2897 7.21382 36.5511 7.30715C36.8964 7.43782 37.2044 7.56848 37.4751 7.69915C37.7457 7.82048 37.9744 7.96515 38.1611 8.13315C38.3571 8.30115 38.5064 8.50648 38.6091 8.74915C38.7117 8.98248 38.7631 9.27182 38.7631 9.61715C38.7631 10.2892 38.5111 10.7978 38.0071 11.1432C37.5124 11.4885 36.8031 11.6611 35.8791 11.6611C35.2351 11.6611 34.7311 11.6052 34.3671 11.4932C34.0031 11.3905 33.7557 11.3112 33.6251 11.2552L33.8631 10.1352C34.0124 10.1912 34.2504 10.2752 34.5771 10.3872C34.9037 10.4992 35.3377 10.5552 35.8791 10.5552Z" fill="#05195E"/>
<path d="M46.1373 10.5552C46.4453 10.5552 46.716 10.5505 46.9493 10.5412C47.192 10.5225 47.3927 10.4945 47.5513 10.4572V8.28715C47.458 8.24048 47.304 8.20315 47.0893 8.17515C46.884 8.13782 46.632 8.11915 46.3333 8.11915C46.1373 8.11915 45.9273 8.13315 45.7033 8.16115C45.4887 8.18915 45.288 8.24982 45.1013 8.34315C44.924 8.42715 44.7747 8.54848 44.6533 8.70715C44.532 8.85648 44.4713 9.05715 44.4713 9.30915C44.4713 9.77582 44.6207 10.1025 44.9193 10.2892C45.218 10.4665 45.624 10.5552 46.1373 10.5552ZM46.0253 4.03115C46.548 4.03115 46.9867 4.10115 47.3413 4.24115C47.7053 4.37182 47.9947 4.56315 48.2093 4.81515C48.4333 5.05782 48.592 5.35182 48.6853 5.69715C48.7787 6.03315 48.8253 6.40648 48.8253 6.81715V11.3672C48.7133 11.3858 48.5547 11.4138 48.3493 11.4512C48.1533 11.4792 47.9293 11.5072 47.6773 11.5352C47.4253 11.5632 47.15 11.5865 46.8513 11.6052C46.562 11.6332 46.2727 11.6472 45.9833 11.6472C45.5727 11.6472 45.1947 11.6052 44.8493 11.5212C44.504 11.4372 44.2053 11.3065 43.9533 11.1292C43.7013 10.9425 43.5053 10.6998 43.3653 10.4012C43.2253 10.1025 43.1553 9.74315 43.1553 9.32315C43.1553 8.92182 43.2347 8.57648 43.3933 8.28715C43.5613 7.99782 43.7853 7.76448 44.0653 7.58715C44.3453 7.40982 44.672 7.27915 45.0453 7.19515C45.4187 7.11115 45.8107 7.06915 46.2213 7.06915C46.352 7.06915 46.4873 7.07848 46.6273 7.09715C46.7673 7.10648 46.898 7.12515 47.0193 7.15315C47.15 7.17182 47.262 7.19048 47.3553 7.20915C47.4487 7.22782 47.514 7.24182 47.5513 7.25115V6.88715C47.5513 6.67248 47.528 6.46248 47.4813 6.25715C47.4347 6.04248 47.3507 5.85582 47.2293 5.69715C47.108 5.52915 46.94 5.39848 46.7253 5.30515C46.52 5.20248 46.2493 5.15115 45.9133 5.15115C45.484 5.15115 45.106 5.18382 44.7793 5.24915C44.462 5.30515 44.224 5.36582 44.0653 5.43115L43.9113 4.35315C44.0793 4.27848 44.3593 4.20848 44.7513 4.14315C45.1433 4.06848 45.568 4.03115 46.0253 4.03115Z" fill="#05195E"/>
<path d="M50.9878 4.42315C51.2865 4.34848 51.6831 4.26915 52.1778 4.18515C52.6725 4.10115 53.2418 4.05915 53.8858 4.05915C54.4645 4.05915 54.9451 4.14315 55.3278 4.31115C55.7105 4.46982 56.0138 4.69848 56.2378 4.99715C56.4711 5.28648 56.6345 5.63648 56.7278 6.04715C56.8211 6.45782 56.8678 6.91048 56.8678 7.40515V11.4932H55.5658V7.68515C55.5658 7.23715 55.5331 6.85448 55.4678 6.53715C55.4118 6.21982 55.3138 5.96315 55.1738 5.76715C55.0338 5.57115 54.8471 5.43115 54.6138 5.34715C54.3805 5.25382 54.0911 5.20715 53.7458 5.20715C53.6058 5.20715 53.4611 5.21182 53.3118 5.22115C53.1625 5.23048 53.0178 5.24448 52.8778 5.26315C52.7471 5.27248 52.6258 5.28648 52.5138 5.30515C52.4111 5.32382 52.3365 5.33782 52.2898 5.34715V11.4932H50.9878V4.42315Z" fill="#05195E"/>
<path d="M63.7309 5.75315C63.5722 5.62248 63.3435 5.49648 63.0449 5.37515C62.7462 5.25382 62.4195 5.19315 62.0649 5.19315C61.6915 5.19315 61.3695 5.26315 61.0989 5.40315C60.8375 5.53382 60.6229 5.72048 60.4549 5.96315C60.2869 6.19648 60.1655 6.47648 60.0909 6.80315C60.0162 7.12982 59.9789 7.47982 59.9789 7.85315C59.9789 8.70248 60.1889 9.36048 60.6089 9.82715C61.0289 10.2845 61.5889 10.5132 62.2889 10.5132C62.6435 10.5132 62.9375 10.4992 63.1709 10.4712C63.4135 10.4338 63.6002 10.3965 63.7309 10.3592V5.75315ZM63.7309 0.85315L65.0329 0.62915V11.2832C64.7342 11.3672 64.3515 11.4512 63.8849 11.5352C63.4182 11.6192 62.8815 11.6611 62.2749 11.6611C61.7149 11.6611 61.2109 11.5725 60.7629 11.3952C60.3149 11.2178 59.9322 10.9658 59.6149 10.6392C59.2975 10.3125 59.0502 9.91582 58.8729 9.44915C58.7049 8.97315 58.6209 8.44115 58.6209 7.85315C58.6209 7.29315 58.6909 6.77982 58.8309 6.31315C58.9802 5.84648 59.1949 5.44515 59.4749 5.10915C59.7549 4.77315 60.0955 4.51182 60.4969 4.32515C60.9075 4.13848 61.3742 4.04515 61.8969 4.04515C62.3169 4.04515 62.6855 4.10115 63.0029 4.21315C63.3295 4.32515 63.5722 4.43248 63.7309 4.53515V0.85315Z" fill="#05195E"/>
<path d="M73.6752 11.6611C73.0872 11.6611 72.5692 11.5678 72.1212 11.3812C71.6826 11.1945 71.3092 10.9332 71.0012 10.5972C70.7026 10.2612 70.4786 9.86448 70.3292 9.40715C70.1799 8.94048 70.1052 8.42715 70.1052 7.86715C70.1052 7.30715 70.1846 6.79382 70.3432 6.32715C70.5112 5.86048 70.7446 5.45915 71.0432 5.12315C71.3419 4.77782 71.7059 4.51182 72.1352 4.32515C72.5739 4.12915 73.0592 4.03115 73.5912 4.03115C73.9179 4.03115 74.2446 4.05915 74.5712 4.11515C74.8979 4.17115 75.2106 4.25982 75.5092 4.38115L75.2152 5.48715C75.0192 5.39382 74.7906 5.31915 74.5292 5.26315C74.2772 5.20715 74.0066 5.17915 73.7172 5.17915C72.9892 5.17915 72.4292 5.40782 72.0372 5.86515C71.6546 6.32248 71.4632 6.98982 71.4632 7.86715C71.4632 8.25915 71.5052 8.61848 71.5892 8.94515C71.6826 9.27182 71.8226 9.55182 72.0092 9.78515C72.2052 10.0185 72.4526 10.2005 72.7512 10.3312C73.0499 10.4525 73.4139 10.5132 73.8432 10.5132C74.1886 10.5132 74.5012 10.4805 74.7812 10.4152C75.0612 10.3498 75.2806 10.2798 75.4392 10.2052L75.6212 11.2972C75.5466 11.3438 75.4392 11.3905 75.2992 11.4372C75.1592 11.4745 75.0006 11.5072 74.8232 11.5352C74.6459 11.5725 74.4546 11.6005 74.2492 11.6192C74.0532 11.6472 73.8619 11.6611 73.6752 11.6611Z" fill="#05195E"/>
<path d="M83.2673 7.85315C83.2673 8.43182 83.1833 8.95448 83.0153 9.42115C82.8473 9.88782 82.6093 10.2892 82.3013 10.6252C82.0026 10.9612 81.6433 11.2225 81.2233 11.4092C80.8033 11.5865 80.346 11.6751 79.8513 11.6751C79.3566 11.6751 78.8993 11.5865 78.4793 11.4092C78.0593 11.2225 77.6953 10.9612 77.3873 10.6252C77.0886 10.2892 76.8553 9.88782 76.6873 9.42115C76.5193 8.95448 76.4353 8.43182 76.4353 7.85315C76.4353 7.28382 76.5193 6.76582 76.6873 6.29915C76.8553 5.82315 77.0886 5.41715 77.3873 5.08115C77.6953 4.74515 78.0593 4.48848 78.4793 4.31115C78.8993 4.12448 79.3566 4.03115 79.8513 4.03115C80.346 4.03115 80.8033 4.12448 81.2233 4.31115C81.6433 4.48848 82.0026 4.74515 82.3013 5.08115C82.6093 5.41715 82.8473 5.82315 83.0153 6.29915C83.1833 6.76582 83.2673 7.28382 83.2673 7.85315ZM81.9093 7.85315C81.9093 7.03182 81.7226 6.38315 81.3493 5.90715C80.9853 5.42182 80.486 5.17915 79.8513 5.17915C79.2166 5.17915 78.7127 5.42182 78.3393 5.90715C77.9753 6.38315 77.7933 7.03182 77.7933 7.85315C77.7933 8.67448 77.9753 9.32782 78.3393 9.81315C78.7127 10.2892 79.2166 10.5272 79.8513 10.5272C80.486 10.5272 80.9853 10.2892 81.3493 9.81315C81.7226 9.32782 81.9093 8.67448 81.9093 7.85315Z" fill="#05195E"/>
<path d="M85.0991 4.42315C85.3978 4.34848 85.7945 4.26915 86.2891 4.18515C86.7838 4.10115 87.3531 4.05915 87.9971 4.05915C88.5758 4.05915 89.0565 4.14315 89.4391 4.31115C89.8218 4.46982 90.1251 4.69848 90.3491 4.99715C90.5825 5.28648 90.7458 5.63648 90.8391 6.04715C90.9325 6.45782 90.9791 6.91048 90.9791 7.40515V11.4932H89.6771V7.68515C89.6771 7.23715 89.6445 6.85448 89.5791 6.53715C89.5231 6.21982 89.4251 5.96315 89.2851 5.76715C89.1451 5.57115 88.9585 5.43115 88.7251 5.34715C88.4918 5.25382 88.2025 5.20715 87.8571 5.20715C87.7171 5.20715 87.5725 5.21182 87.4231 5.22115C87.2738 5.23048 87.1291 5.24448 86.9891 5.26315C86.8585 5.27248 86.7371 5.28648 86.6251 5.30515C86.5225 5.32382 86.4478 5.33782 86.4011 5.34715V11.4932H85.0991V4.42315Z" fill="#05195E"/>
<path d="M97.8422 5.75315C97.6835 5.62248 97.4549 5.49648 97.1562 5.37515C96.8575 5.25382 96.5309 5.19315 96.1762 5.19315C95.8029 5.19315 95.4809 5.26315 95.2102 5.40315C94.9489 5.53382 94.7342 5.72048 94.5662 5.96315C94.3982 6.19648 94.2769 6.47648 94.2022 6.80315C94.1275 7.12982 94.0902 7.47982 94.0902 7.85315C94.0902 8.70248 94.3002 9.36048 94.7202 9.82715C95.1402 10.2845 95.7002 10.5132 96.4002 10.5132C96.7549 10.5132 97.0489 10.4992 97.2822 10.4712C97.5249 10.4338 97.7115 10.3965 97.8422 10.3592V5.75315ZM97.8422 0.85315L99.1442 0.62915V11.2832C98.8455 11.3672 98.4629 11.4512 97.9962 11.5352C97.5295 11.6192 96.9929 11.6611 96.3862 11.6611C95.8262 11.6611 95.3222 11.5725 94.8742 11.3952C94.4262 11.2178 94.0435 10.9658 93.7262 10.6392C93.4089 10.3125 93.1615 9.91582 92.9842 9.44915C92.8162 8.97315 92.7322 8.44115 92.7322 7.85315C92.7322 7.29315 92.8022 6.77982 92.9422 6.31315C93.0915 5.84648 93.3062 5.44515 93.5862 5.10915C93.8662 4.77315 94.2069 4.51182 94.6082 4.32515C95.0189 4.13848 95.4855 4.04515 96.0082 4.04515C96.4282 4.04515 96.7969 4.10115 97.1142 4.21315C97.4409 4.32515 97.6835 4.43248 97.8422 4.53515V0.85315Z" fill="#05195E"/>
<path d="M102.684 11.4932H101.382V4.21315H102.684V11.4932ZM102.026 2.89715C101.793 2.89715 101.592 2.82248 101.424 2.67315C101.266 2.51448 101.186 2.30448 101.186 2.04315C101.186 1.78182 101.266 1.57648 101.424 1.42715C101.592 1.26848 101.793 1.18915 102.026 1.18915C102.26 1.18915 102.456 1.26848 102.614 1.42715C102.782 1.57648 102.866 1.78182 102.866 2.04315C102.866 2.30448 102.782 2.51448 102.614 2.67315C102.456 2.82248 102.26 2.89715 102.026 2.89715Z" fill="#05195E"/>
<path d="M106.141 4.21315H108.899V5.30515H106.141V8.66515C106.141 9.02915 106.169 9.33248 106.225 9.57515C106.281 9.80848 106.365 9.99515 106.477 10.1352C106.589 10.2658 106.729 10.3592 106.897 10.4152C107.065 10.4712 107.261 10.4992 107.485 10.4992C107.877 10.4992 108.19 10.4572 108.423 10.3732C108.666 10.2798 108.834 10.2145 108.927 10.1772L109.179 11.2552C109.049 11.3205 108.82 11.3998 108.493 11.4932C108.167 11.5958 107.793 11.6472 107.373 11.6472C106.879 11.6472 106.468 11.5865 106.141 11.4652C105.824 11.3345 105.567 11.1432 105.371 10.8912C105.175 10.6392 105.035 10.3312 104.951 9.96715C104.877 9.59382 104.839 9.16448 104.839 8.67915V2.18315L106.141 1.95915V4.21315Z" fill="#05195E"/>
<path d="M111.858 11.4932H110.556V4.21315H111.858V11.4932ZM111.2 2.89715C110.967 2.89715 110.766 2.82248 110.598 2.67315C110.439 2.51448 110.36 2.30448 110.36 2.04315C110.36 1.78182 110.439 1.57648 110.598 1.42715C110.766 1.26848 110.967 1.18915 111.2 1.18915C111.433 1.18915 111.629 1.26848 111.788 1.42715C111.956 1.57648 112.04 1.78182 112.04 2.04315C112.04 2.30448 111.956 2.51448 111.788 2.67315C111.629 2.82248 111.433 2.89715 111.2 2.89715Z" fill="#05195E"/>
<path d="M120.523 7.85315C120.523 8.43182 120.439 8.95448 120.271 9.42115C120.103 9.88782 119.865 10.2892 119.557 10.6252C119.259 10.9612 118.899 11.2225 118.479 11.4092C118.059 11.5865 117.602 11.6751 117.107 11.6751C116.613 11.6751 116.155 11.5865 115.735 11.4092C115.315 11.2225 114.951 10.9612 114.643 10.6252C114.345 10.2892 114.111 9.88782 113.943 9.42115C113.775 8.95448 113.691 8.43182 113.691 7.85315C113.691 7.28382 113.775 6.76582 113.943 6.29915C114.111 5.82315 114.345 5.41715 114.643 5.08115C114.951 4.74515 115.315 4.48848 115.735 4.31115C116.155 4.12448 116.613 4.03115 117.107 4.03115C117.602 4.03115 118.059 4.12448 118.479 4.31115C118.899 4.48848 119.259 4.74515 119.557 5.08115C119.865 5.41715 120.103 5.82315 120.271 6.29915C120.439 6.76582 120.523 7.28382 120.523 7.85315ZM119.165 7.85315C119.165 7.03182 118.979 6.38315 118.605 5.90715C118.241 5.42182 117.742 5.17915 117.107 5.17915C116.473 5.17915 115.969 5.42182 115.595 5.90715C115.231 6.38315 115.049 7.03182 115.049 7.85315C115.049 8.67448 115.231 9.32782 115.595 9.81315C115.969 10.2892 116.473 10.5272 117.107 10.5272C117.742 10.5272 118.241 10.2892 118.605 9.81315C118.979 9.32782 119.165 8.67448 119.165 7.85315Z" fill="#05195E"/>
<path d="M122.355 4.42315C122.654 4.34848 123.05 4.26915 123.545 4.18515C124.04 4.10115 124.609 4.05915 125.253 4.05915C125.832 4.05915 126.312 4.14315 126.695 4.31115C127.078 4.46982 127.381 4.69848 127.605 4.99715C127.838 5.28648 128.002 5.63648 128.095 6.04715C128.188 6.45782 128.235 6.91048 128.235 7.40515V11.4932H126.933V7.68515C126.933 7.23715 126.9 6.85448 126.835 6.53715C126.779 6.21982 126.681 5.96315 126.541 5.76715C126.401 5.57115 126.214 5.43115 125.981 5.34715C125.748 5.25382 125.458 5.20715 125.113 5.20715C124.973 5.20715 124.828 5.21182 124.679 5.22115C124.53 5.23048 124.385 5.24448 124.245 5.26315C124.114 5.27248 123.993 5.28648 123.881 5.30515C123.778 5.32382 123.704 5.33782 123.657 5.34715V11.4932H122.355V4.42315Z" fill="#05195E"/>
<path d="M132.088 10.5552C132.62 10.5552 133.012 10.4852 133.264 10.3452C133.525 10.2052 133.656 9.98115 133.656 9.67315C133.656 9.35582 133.53 9.10382 133.278 8.91715C133.026 8.73048 132.611 8.52048 132.032 8.28715C131.752 8.17515 131.481 8.06315 131.22 7.95115C130.968 7.82982 130.749 7.68982 130.562 7.53115C130.375 7.37248 130.226 7.18115 130.114 6.95715C130.002 6.73315 129.946 6.45782 129.946 6.13115C129.946 5.48715 130.184 4.97848 130.66 4.60515C131.136 4.22248 131.785 4.03115 132.606 4.03115C132.811 4.03115 133.017 4.04515 133.222 4.07315C133.427 4.09182 133.619 4.11982 133.796 4.15715C133.973 4.18515 134.127 4.21782 134.258 4.25515C134.398 4.29248 134.505 4.32515 134.58 4.35315L134.342 5.47315C134.202 5.39848 133.983 5.32382 133.684 5.24915C133.385 5.16515 133.026 5.12315 132.606 5.12315C132.242 5.12315 131.925 5.19782 131.654 5.34715C131.383 5.48715 131.248 5.71115 131.248 6.01915C131.248 6.17782 131.276 6.31782 131.332 6.43915C131.397 6.56048 131.491 6.67248 131.612 6.77515C131.743 6.86848 131.901 6.95715 132.088 7.04115C132.275 7.12515 132.499 7.21382 132.76 7.30715C133.105 7.43782 133.413 7.56848 133.684 7.69915C133.955 7.82048 134.183 7.96515 134.37 8.13315C134.566 8.30115 134.715 8.50648 134.818 8.74915C134.921 8.98248 134.972 9.27182 134.972 9.61715C134.972 10.2892 134.72 10.7978 134.216 11.1432C133.721 11.4885 133.012 11.6611 132.088 11.6611C131.444 11.6611 130.94 11.6052 130.576 11.4932C130.212 11.3905 129.965 11.3112 129.834 11.2552L130.072 10.1352C130.221 10.1912 130.459 10.2752 130.786 10.3872C131.113 10.4992 131.547 10.5552 132.088 10.5552Z" fill="#05195E"/>
</svg>
