<svg width="43" height="11" viewBox="0 0 43 11" fill="none" xmlns="http://www.w3.org/2000/svg">
<path d="M6.78819 10.1116C6.54552 9.73828 6.26552 9.34628 5.94819 8.93561C5.63085 8.52494 5.29485 8.12828 4.94019 7.74561C4.59485 7.36294 4.23552 6.99894 3.86219 6.65361C3.48885 6.30827 3.12019 6.00961 2.75619 5.75761V10.1116H0.992188V0.409608H2.75619V4.41361C3.06419 4.10561 3.38619 3.77894 3.72219 3.43361C4.05819 3.07894 4.38952 2.72427 4.71619 2.36961C5.05219 2.00561 5.36952 1.65561 5.66819 1.31961C5.96685 0.983608 6.23752 0.680275 6.48019 0.409608H8.59419C8.28619 0.764275 7.95952 1.13294 7.61419 1.51561C7.26885 1.89828 6.91419 2.28561 6.55019 2.67761C6.18619 3.06028 5.81752 3.44294 5.44419 3.82561C5.08019 4.20827 4.72085 4.57227 4.36619 4.91761C4.75819 5.21627 5.15485 5.56628 5.55619 5.96761C5.96685 6.35961 6.36819 6.78428 6.76019 7.24161C7.15219 7.68961 7.52552 8.16094 7.88019 8.65561C8.24419 9.14094 8.57552 9.62628 8.87419 10.1116H6.78819Z" fill="#3C21B2"/>
<path d="M10.1113 10.1116V0.409608H16.3413V1.90761H11.8753V4.30161H15.8513V5.77161H11.8753V8.61361H16.6773V10.1116H10.1113Z" fill="#3C21B2"/>
<path d="M24.8525 10.1116C24.5351 9.57961 24.1805 9.01028 23.7885 8.40361C23.3965 7.78761 22.9905 7.17161 22.5705 6.55561C22.1505 5.93028 21.7211 5.32827 21.2825 4.74961C20.8531 4.16161 20.4425 3.63428 20.0505 3.16761V10.1116H18.3145V0.409608H19.7565C20.1298 0.801608 20.5311 1.26827 20.9605 1.80961C21.3898 2.34161 21.8191 2.89694 22.2485 3.47561C22.6871 4.05427 23.1071 4.63761 23.5085 5.22561C23.9191 5.80428 24.2831 6.34561 24.6005 6.84961V0.409608H26.3505V10.1116H24.8525Z" fill="#3C21B2"/>
<path d="M28.6777 10.1116V0.409608H34.9077V1.90761H30.4417V4.30161H34.4177V5.77161H30.4417V8.61361H35.2437V10.1116H28.6777Z" fill="#3C21B2"/>
<path d="M39.2329 8.79561C39.8675 8.79561 40.3295 8.68827 40.6189 8.47361C40.9082 8.25894 41.0529 7.95561 41.0529 7.56361C41.0529 7.33027 41.0015 7.12961 40.8989 6.96161C40.8055 6.79361 40.6655 6.64428 40.4789 6.51361C40.3015 6.37361 40.0822 6.24761 39.8209 6.13561C39.5595 6.01428 39.2609 5.89761 38.9249 5.78561C38.5889 5.66427 38.2622 5.53361 37.9449 5.39361C37.6369 5.24427 37.3615 5.06227 37.1189 4.84761C36.8855 4.63294 36.6942 4.37627 36.5449 4.07761C36.4049 3.77894 36.3349 3.41961 36.3349 2.99961C36.3349 2.12227 36.6382 1.43627 37.2449 0.941608C37.8515 0.437608 38.6775 0.185608 39.7229 0.185608C40.3295 0.185608 40.8662 0.255608 41.3329 0.395608C41.8089 0.526275 42.1822 0.670942 42.4529 0.829608L41.9069 2.25761C41.5895 2.08027 41.2395 1.94494 40.8569 1.85161C40.4835 1.75828 40.0962 1.71161 39.6949 1.71161C39.2189 1.71161 38.8455 1.80961 38.5749 2.00561C38.3135 2.20161 38.1829 2.47694 38.1829 2.83161C38.1829 3.04627 38.2249 3.23294 38.3089 3.39161C38.4022 3.54094 38.5282 3.67627 38.6869 3.79761C38.8549 3.91894 39.0462 4.03094 39.2609 4.13361C39.4849 4.23628 39.7275 4.33428 39.9889 4.42761C40.4462 4.59561 40.8522 4.76827 41.2069 4.94561C41.5709 5.11361 41.8742 5.31894 42.1169 5.56161C42.3689 5.79494 42.5602 6.07494 42.6909 6.40161C42.8215 6.71894 42.8869 7.10627 42.8869 7.56361C42.8869 8.44094 42.5742 9.12228 41.9489 9.60761C41.3329 10.0836 40.4275 10.3216 39.2329 10.3216C38.8315 10.3216 38.4629 10.2936 38.1269 10.2376C37.8002 10.1909 37.5062 10.1303 37.2449 10.0556C36.9929 9.98094 36.7735 9.90628 36.5869 9.83161C36.4002 9.74761 36.2509 9.67294 36.1389 9.60761L36.6569 8.16561C36.9089 8.30561 37.2495 8.44561 37.6789 8.58561C38.1082 8.72561 38.6262 8.79561 39.2329 8.79561Z" fill="#3C21B2"/>
</svg>
