<svg width="95" height="11" viewBox="0 0 95 11" fill="none" xmlns="http://www.w3.org/2000/svg">
<path d="M7.75075 10.1116C7.62008 9.72894 7.48475 9.35094 7.34475 8.97761C7.20475 8.60428 7.06942 8.22161 6.93875 7.82961H2.85075C2.72008 8.22161 2.58475 8.60894 2.44475 8.99161C2.31408 9.36494 2.18342 9.73828 2.05275 10.1116H0.21875C0.58275 9.07561 0.928083 8.11894 1.25475 7.24161C1.58142 6.36428 1.89875 5.53361 2.20675 4.74961C2.52408 3.96561 2.83675 3.21894 3.14475 2.50961C3.45275 1.80027 3.77008 1.10028 4.09675 0.409608H5.76275C6.08942 1.10028 6.40675 1.80027 6.71475 2.50961C7.02275 3.21894 7.33075 3.96561 7.63875 4.74961C7.95608 5.53361 8.27808 6.36428 8.60475 7.24161C8.94075 8.11894 9.29075 9.07561 9.65475 10.1116H7.75075ZM4.89475 2.28561C4.68008 2.78027 4.43275 3.38227 4.15275 4.09161C3.88208 4.80094 3.59742 5.57094 3.29875 6.40161H6.49075C6.19208 5.57094 5.90275 4.79627 5.62275 4.07761C5.34275 3.35894 5.10008 2.76161 4.89475 2.28561Z" fill="#3C21B2"/>
<path d="M13.8071 10.2236C13.2937 10.2236 12.7757 10.2049 12.2531 10.1676C11.7304 10.1396 11.2731 10.0743 10.8811 9.97161V0.549608C11.0864 0.512275 11.3057 0.479608 11.5391 0.451608C11.7724 0.414275 12.0104 0.386275 12.2531 0.367608C12.4957 0.348942 12.7337 0.334942 12.9671 0.325608C13.2097 0.316275 13.4384 0.311608 13.6531 0.311608C14.2411 0.311608 14.7871 0.358274 15.2911 0.451608C15.7951 0.535608 16.2291 0.680274 16.5931 0.885608C16.9664 1.09094 17.2557 1.36161 17.4611 1.69761C17.6664 2.03361 17.7691 2.44894 17.7691 2.94361C17.7691 3.40094 17.6571 3.79294 17.4331 4.11961C17.2184 4.44627 16.9151 4.70761 16.5231 4.90361C17.1111 5.09961 17.5451 5.38894 17.8251 5.77161C18.1051 6.15427 18.2451 6.63961 18.2451 7.22761C18.2451 8.22628 17.8811 8.97761 17.1531 9.48161C16.4251 9.97628 15.3097 10.2236 13.8071 10.2236ZM12.6171 5.74361V8.69761C12.8131 8.71627 13.0231 8.73028 13.2471 8.73961C13.4711 8.74894 13.6764 8.75361 13.8631 8.75361C14.2271 8.75361 14.5631 8.73027 14.8711 8.68361C15.1884 8.63694 15.4591 8.55761 15.6831 8.44561C15.9164 8.32427 16.0984 8.16561 16.2291 7.96961C16.3691 7.77361 16.4391 7.52161 16.4391 7.21361C16.4391 6.66294 16.2384 6.28027 15.8371 6.06561C15.4357 5.85094 14.8804 5.74361 14.1711 5.74361H12.6171ZM12.6171 4.35761H13.8631C14.5351 4.35761 15.0624 4.26427 15.4451 4.07761C15.8277 3.88161 16.0191 3.53628 16.0191 3.04161C16.0191 2.57494 15.8184 2.24361 15.4171 2.04761C15.0251 1.85161 14.5117 1.75361 13.8771 1.75361C13.6064 1.75361 13.3637 1.75827 13.1491 1.76761C12.9437 1.77694 12.7664 1.79094 12.6171 1.80961V4.35761Z" fill="#3C21B2"/>
<path d="M21.5242 5.25361C21.5242 5.78561 21.5896 6.27094 21.7202 6.70961C21.8509 7.13894 22.0376 7.50761 22.2802 7.81561C22.5322 8.11427 22.8356 8.34761 23.1902 8.51561C23.5449 8.68361 23.9462 8.76761 24.3942 8.76761C24.8329 8.76761 25.2296 8.68361 25.5842 8.51561C25.9389 8.34761 26.2376 8.11427 26.4802 7.81561C26.7322 7.50761 26.9236 7.13894 27.0542 6.70961C27.1849 6.27094 27.2502 5.78561 27.2502 5.25361C27.2502 4.72161 27.1849 4.24094 27.0542 3.81161C26.9236 3.37294 26.7322 3.00427 26.4802 2.70561C26.2376 2.39761 25.9389 2.15961 25.5842 1.99161C25.2296 1.82361 24.8329 1.73961 24.3942 1.73961C23.9462 1.73961 23.5449 1.82361 23.1902 1.99161C22.8356 2.15961 22.5322 2.39761 22.2802 2.70561C22.0376 3.01361 21.8509 3.38227 21.7202 3.81161C21.5896 4.24094 21.5242 4.72161 21.5242 5.25361ZM29.0982 5.25361C29.0982 6.08428 28.9722 6.81694 28.7202 7.45161C28.4776 8.08628 28.1416 8.61828 27.7122 9.04761C27.2922 9.46761 26.7976 9.78494 26.2282 9.99961C25.6589 10.2143 25.0522 10.3216 24.4082 10.3216C23.7642 10.3216 23.1529 10.2143 22.5742 9.99961C22.0049 9.78494 21.5056 9.46761 21.0762 9.04761C20.6562 8.61828 20.3202 8.08628 20.0682 7.45161C19.8162 6.81694 19.6902 6.08428 19.6902 5.25361C19.6902 4.42294 19.8162 3.69494 20.0682 3.06961C20.3202 2.43494 20.6609 1.90294 21.0902 1.47361C21.5289 1.04427 22.0329 0.722275 22.6022 0.507608C23.1716 0.292941 23.7736 0.185608 24.4082 0.185608C25.0429 0.185608 25.6449 0.292941 26.2142 0.507608C26.7836 0.722275 27.2782 1.04427 27.6982 1.47361C28.1276 1.90294 28.4682 2.43494 28.7202 3.06961C28.9722 3.69494 29.0982 4.42294 29.0982 5.25361Z" fill="#3C21B2"/>
<path d="M34.7714 10.3216C34.1087 10.3216 33.5394 10.2283 33.0634 10.0416C32.5874 9.84561 32.1907 9.57494 31.8734 9.22961C31.5654 8.88428 31.3367 8.47827 31.1874 8.01161C31.0381 7.54494 30.9634 7.03161 30.9634 6.47161V0.409608H32.7414V6.30361C32.7414 6.74227 32.7881 7.12028 32.8814 7.43761C32.9841 7.74561 33.1241 7.99761 33.3014 8.19361C33.4881 8.38961 33.7027 8.53427 33.9454 8.62761C34.1974 8.72094 34.4774 8.76761 34.7854 8.76761C35.0934 8.76761 35.3734 8.72094 35.6254 8.62761C35.8774 8.53427 36.0921 8.38961 36.2694 8.19361C36.4561 7.99761 36.5961 7.74561 36.6894 7.43761C36.7921 7.12028 36.8434 6.74227 36.8434 6.30361V0.409608H38.6214V6.47161C38.6214 7.03161 38.5421 7.54494 38.3834 8.01161C38.2341 8.47827 38.0007 8.88428 37.6834 9.22961C37.3754 9.57494 36.9787 9.84561 36.4934 10.0416C36.0081 10.2283 35.4341 10.3216 34.7714 10.3216Z" fill="#3C21B2"/>
<path d="M47.6392 0.409608V1.93561H44.6572V10.1116H42.8792V1.93561H39.8972V0.409608H47.6392Z" fill="#3C21B2"/>
<path d="M58.0482 10.1116C57.8055 9.73828 57.5255 9.34628 57.2082 8.93561C56.8908 8.52494 56.5548 8.12828 56.2002 7.74561C55.8548 7.36294 55.4955 6.99894 55.1222 6.65361C54.7488 6.30827 54.3802 6.00961 54.0162 5.75761V10.1116H52.2522V0.409608H54.0162V4.41361C54.3242 4.10561 54.6462 3.77894 54.9822 3.43361C55.3182 3.07894 55.6495 2.72427 55.9762 2.36961C56.3122 2.00561 56.6295 1.65561 56.9282 1.31961C57.2268 0.983608 57.4975 0.680275 57.7402 0.409608H59.8542C59.5462 0.764275 59.2195 1.13294 58.8742 1.51561C58.5288 1.89828 58.1742 2.28561 57.8102 2.67761C57.4462 3.06028 57.0775 3.44294 56.7042 3.82561C56.3402 4.20827 55.9808 4.57227 55.6262 4.91761C56.0182 5.21627 56.4148 5.56628 56.8162 5.96761C57.2268 6.35961 57.6282 6.78428 58.0202 7.24161C58.4122 7.68961 58.7855 8.16094 59.1402 8.65561C59.5042 9.14094 59.8355 9.62628 60.1342 10.1116H58.0482Z" fill="#3C21B2"/>
<path d="M61.3713 10.1116V0.409608H67.6013V1.90761H63.1353V4.30161H67.1113V5.77161H63.1353V8.61361H67.9373V10.1116H61.3713Z" fill="#3C21B2"/>
<path d="M76.1124 10.1116C75.7951 9.57961 75.4404 9.01028 75.0484 8.40361C74.6564 7.78761 74.2504 7.17161 73.8304 6.55561C73.4104 5.93028 72.9811 5.32827 72.5424 4.74961C72.1131 4.16161 71.7024 3.63428 71.3104 3.16761V10.1116H69.5744V0.409608H71.0164C71.3898 0.801608 71.7911 1.26827 72.2204 1.80961C72.6498 2.34161 73.0791 2.89694 73.5084 3.47561C73.9471 4.05427 74.3671 4.63761 74.7684 5.22561C75.1791 5.80428 75.5431 6.34561 75.8604 6.84961V0.409608H77.6104V10.1116H76.1124Z" fill="#3C21B2"/>
<path d="M79.9377 10.1116V0.409608H86.1677V1.90761H81.7017V4.30161H85.6777V5.77161H81.7017V8.61361H86.5037V10.1116H79.9377Z" fill="#3C21B2"/>
<path d="M90.4928 8.79561C91.1275 8.79561 91.5895 8.68827 91.8788 8.47361C92.1682 8.25894 92.3128 7.95561 92.3128 7.56361C92.3128 7.33027 92.2615 7.12961 92.1588 6.96161C92.0655 6.79361 91.9255 6.64428 91.7388 6.51361C91.5615 6.37361 91.3422 6.24761 91.0808 6.13561C90.8195 6.01428 90.5208 5.89761 90.1848 5.78561C89.8488 5.66427 89.5222 5.53361 89.2048 5.39361C88.8968 5.24427 88.6215 5.06227 88.3788 4.84761C88.1455 4.63294 87.9542 4.37627 87.8048 4.07761C87.6648 3.77894 87.5948 3.41961 87.5948 2.99961C87.5948 2.12227 87.8982 1.43627 88.5048 0.941608C89.1115 0.437608 89.9375 0.185608 90.9828 0.185608C91.5895 0.185608 92.1262 0.255608 92.5928 0.395608C93.0688 0.526275 93.4422 0.670942 93.7128 0.829608L93.1668 2.25761C92.8495 2.08027 92.4995 1.94494 92.1168 1.85161C91.7435 1.75828 91.3562 1.71161 90.9548 1.71161C90.4788 1.71161 90.1055 1.80961 89.8348 2.00561C89.5735 2.20161 89.4428 2.47694 89.4428 2.83161C89.4428 3.04627 89.4848 3.23294 89.5688 3.39161C89.6622 3.54094 89.7882 3.67627 89.9468 3.79761C90.1148 3.91894 90.3062 4.03094 90.5208 4.13361C90.7448 4.23628 90.9875 4.33428 91.2488 4.42761C91.7062 4.59561 92.1122 4.76827 92.4668 4.94561C92.8308 5.11361 93.1342 5.31894 93.3768 5.56161C93.6288 5.79494 93.8202 6.07494 93.9508 6.40161C94.0815 6.71894 94.1468 7.10627 94.1468 7.56361C94.1468 8.44094 93.8342 9.12228 93.2088 9.60761C92.5928 10.0836 91.6875 10.3216 90.4928 10.3216C90.0915 10.3216 89.7228 10.2936 89.3868 10.2376C89.0602 10.1909 88.7662 10.1303 88.5048 10.0556C88.2528 9.98094 88.0335 9.90628 87.8468 9.83161C87.6602 9.74761 87.5108 9.67294 87.3988 9.60761L87.9168 8.16561C88.1688 8.30561 88.5095 8.44561 88.9388 8.58561C89.3682 8.72561 89.8862 8.79561 90.4928 8.79561Z" fill="#3C21B2"/>
</svg>
