<svg width="64" height="11" viewBox="0 0 64 11" fill="none" xmlns="http://www.w3.org/2000/svg">
<path d="M5.39475 10.3216C4.66675 10.3216 4.01342 10.2096 3.43475 9.98561C2.85608 9.76161 2.36608 9.43494 1.96475 9.00561C1.56342 8.56694 1.25542 8.03494 1.04075 7.40961C0.826083 6.78428 0.71875 6.06561 0.71875 5.25361C0.71875 4.44161 0.840083 3.72294 1.08275 3.09761C1.33475 2.47227 1.67542 1.94494 2.10475 1.51561C2.53408 1.07694 3.03808 0.745608 3.61675 0.521608C4.19542 0.297608 4.81608 0.185608 5.47875 0.185608C5.88008 0.185608 6.24408 0.218275 6.57075 0.283608C6.89742 0.339608 7.18208 0.404941 7.42475 0.479608C7.66742 0.554275 7.86808 0.633608 8.02675 0.717608C8.18542 0.801608 8.29742 0.862274 8.36275 0.899608L7.84475 2.34161C7.62075 2.20161 7.29875 2.07094 6.87875 1.94961C6.46808 1.81894 6.02008 1.75361 5.53475 1.75361C5.11475 1.75361 4.72275 1.82828 4.35875 1.97761C3.99475 2.11761 3.67742 2.33227 3.40675 2.62161C3.14542 2.91094 2.94008 3.27494 2.79075 3.71361C2.64142 4.15227 2.56675 4.66094 2.56675 5.23961C2.56675 5.75294 2.62275 6.22427 2.73475 6.65361C2.85608 7.08294 3.03808 7.45627 3.28075 7.77361C3.52342 8.08161 3.83142 8.32428 4.20475 8.50161C4.57808 8.66961 5.02608 8.75361 5.54875 8.75361C6.17408 8.75361 6.68275 8.69294 7.07475 8.57161C7.46675 8.44094 7.77008 8.31961 7.98475 8.20761L8.46075 9.64961C8.34875 9.72428 8.19475 9.79894 7.99875 9.87361C7.81208 9.94828 7.58808 10.0229 7.32675 10.0976C7.06542 10.1629 6.77142 10.2143 6.44475 10.2516C6.11808 10.2983 5.76808 10.3216 5.39475 10.3216Z" fill="#3C21B2"/>
<path d="M11.2064 5.25361C11.2064 5.78561 11.2717 6.27094 11.4024 6.70961C11.5331 7.13894 11.7197 7.50761 11.9624 7.81561C12.2144 8.11427 12.5177 8.34761 12.8724 8.51561C13.2271 8.68361 13.6284 8.76761 14.0764 8.76761C14.5151 8.76761 14.9117 8.68361 15.2664 8.51561C15.6211 8.34761 15.9197 8.11427 16.1624 7.81561C16.4144 7.50761 16.6057 7.13894 16.7364 6.70961C16.8671 6.27094 16.9324 5.78561 16.9324 5.25361C16.9324 4.72161 16.8671 4.24094 16.7364 3.81161C16.6057 3.37294 16.4144 3.00427 16.1624 2.70561C15.9197 2.39761 15.6211 2.15961 15.2664 1.99161C14.9117 1.82361 14.5151 1.73961 14.0764 1.73961C13.6284 1.73961 13.2271 1.82361 12.8724 1.99161C12.5177 2.15961 12.2144 2.39761 11.9624 2.70561C11.7197 3.01361 11.5331 3.38227 11.4024 3.81161C11.2717 4.24094 11.2064 4.72161 11.2064 5.25361ZM18.7804 5.25361C18.7804 6.08428 18.6544 6.81694 18.4024 7.45161C18.1597 8.08628 17.8237 8.61828 17.3944 9.04761C16.9744 9.46761 16.4797 9.78494 15.9104 9.99961C15.3411 10.2143 14.7344 10.3216 14.0904 10.3216C13.4464 10.3216 12.8351 10.2143 12.2564 9.99961C11.6871 9.78494 11.1877 9.46761 10.7584 9.04761C10.3384 8.61828 10.0024 8.08628 9.75039 7.45161C9.49839 6.81694 9.37239 6.08428 9.37239 5.25361C9.37239 4.42294 9.49839 3.69494 9.75039 3.06961C10.0024 2.43494 10.3431 1.90294 10.7724 1.47361C11.2111 1.04427 11.7151 0.722275 12.2844 0.507608C12.8537 0.292941 13.4557 0.185608 14.0904 0.185608C14.7251 0.185608 15.3271 0.292941 15.8964 0.507608C16.4657 0.722275 16.9604 1.04427 17.3804 1.47361C17.8097 1.90294 18.1504 2.43494 18.4024 3.06961C18.6544 3.69494 18.7804 4.42294 18.7804 5.25361Z" fill="#3C21B2"/>
<path d="M27.2536 10.1116C26.9362 9.57961 26.5816 9.01028 26.1896 8.40361C25.7976 7.78761 25.3916 7.17161 24.9716 6.55561C24.5516 5.93028 24.1222 5.32827 23.6836 4.74961C23.2542 4.16161 22.8436 3.63428 22.4516 3.16761V10.1116H20.7156V0.409608H22.1576C22.5309 0.801608 22.9322 1.26827 23.3616 1.80961C23.7909 2.34161 24.2202 2.89694 24.6496 3.47561C25.0882 4.05427 25.5082 4.63761 25.9096 5.22561C26.3202 5.80428 26.6842 6.34561 27.0016 6.84961V0.409608H28.7516V10.1116H27.2536Z" fill="#3C21B2"/>
<path d="M37.8408 0.409608V1.93561H34.8588V10.1116H33.0808V1.93561H30.0988V0.409608H37.8408Z" fill="#3C21B2"/>
<path d="M44.8333 10.1116C44.7026 9.72894 44.5673 9.35094 44.4273 8.97761C44.2873 8.60428 44.152 8.22161 44.0213 7.82961H39.9333C39.8026 8.22161 39.6673 8.60894 39.5273 8.99161C39.3966 9.36494 39.266 9.73828 39.1353 10.1116H37.3013C37.6653 9.07561 38.0106 8.11894 38.3373 7.24161C38.664 6.36428 38.9813 5.53361 39.2893 4.74961C39.6066 3.96561 39.9193 3.21894 40.2273 2.50961C40.5353 1.80027 40.8526 1.10028 41.1793 0.409608H42.8453C43.172 1.10028 43.4893 1.80027 43.7973 2.50961C44.1053 3.21894 44.4133 3.96561 44.7213 4.74961C45.0386 5.53361 45.3606 6.36428 45.6873 7.24161C46.0233 8.11894 46.3733 9.07561 46.7373 10.1116H44.8333ZM41.9773 2.28561C41.7626 2.78027 41.5153 3.38227 41.2353 4.09161C40.9646 4.80094 40.68 5.57094 40.3813 6.40161H43.5733C43.2746 5.57094 42.9853 4.79627 42.7053 4.07761C42.4253 3.35894 42.1826 2.76161 41.9773 2.28561Z" fill="#3C21B2"/>
<path d="M52.0432 10.3216C51.3152 10.3216 50.6619 10.2096 50.0832 9.98561C49.5045 9.76161 49.0145 9.43494 48.6132 9.00561C48.2119 8.56694 47.9039 8.03494 47.6892 7.40961C47.4745 6.78428 47.3672 6.06561 47.3672 5.25361C47.3672 4.44161 47.4885 3.72294 47.7312 3.09761C47.9832 2.47227 48.3239 1.94494 48.7532 1.51561C49.1825 1.07694 49.6865 0.745608 50.2652 0.521608C50.8439 0.297608 51.4645 0.185608 52.1272 0.185608C52.5285 0.185608 52.8925 0.218275 53.2192 0.283608C53.5459 0.339608 53.8305 0.404941 54.0732 0.479608C54.3159 0.554275 54.5165 0.633608 54.6752 0.717608C54.8339 0.801608 54.9459 0.862274 55.0112 0.899608L54.4932 2.34161C54.2692 2.20161 53.9472 2.07094 53.5272 1.94961C53.1165 1.81894 52.6685 1.75361 52.1832 1.75361C51.7632 1.75361 51.3712 1.82828 51.0072 1.97761C50.6432 2.11761 50.3259 2.33227 50.0552 2.62161C49.7939 2.91094 49.5885 3.27494 49.4392 3.71361C49.2899 4.15227 49.2152 4.66094 49.2152 5.23961C49.2152 5.75294 49.2712 6.22427 49.3832 6.65361C49.5045 7.08294 49.6865 7.45627 49.9292 7.77361C50.1719 8.08161 50.4799 8.32428 50.8532 8.50161C51.2265 8.66961 51.6745 8.75361 52.1972 8.75361C52.8225 8.75361 53.3312 8.69294 53.7232 8.57161C54.1152 8.44094 54.4185 8.31961 54.6332 8.20761L55.1092 9.64961C54.9972 9.72428 54.8432 9.79894 54.6472 9.87361C54.4605 9.94828 54.2365 10.0229 53.9752 10.0976C53.7139 10.1629 53.4199 10.2143 53.0932 10.2516C52.7665 10.2983 52.4165 10.3216 52.0432 10.3216Z" fill="#3C21B2"/>
<path d="M63.626 0.409608V1.93561H60.644V10.1116H58.866V1.93561H55.884V0.409608H63.626Z" fill="#3C21B2"/>
</svg>
