<svg width="70" height="71" viewBox="0 0 70 71" fill="none" xmlns="http://www.w3.org/2000/svg">
<path d="M31.9443 59.4769C32.9202 60.16 34.1276 60.4273 35.3007 60.2202C36.4737 60.0131 37.5165 59.3484 38.1996 58.3725C38.3171 58.2053 38.4005 58.0165 38.4449 57.817C38.4893 57.6174 38.4938 57.4111 38.4582 57.2098C38.4226 57.0086 38.3476 56.8163 38.2375 56.6441C38.1273 56.4719 37.9843 56.3231 37.8165 56.2064L34.2193 52.4167L42.4287 58.1625C42.7423 58.3829 43.0963 58.5391 43.4704 58.6223C43.8445 58.7055 44.2313 58.7141 44.6087 58.6474C44.9861 58.5807 45.3466 58.4402 45.6696 58.2339C45.9926 58.0275 46.2716 57.7594 46.4907 57.445C46.7103 57.1312 46.8659 56.7772 46.9487 56.4032C47.0315 56.0292 47.0398 55.6426 46.9732 55.2654C46.9066 54.8882 46.7663 54.5279 46.5604 54.2049C46.3545 53.8819 46.087 53.6027 45.7732 53.3831L38.7809 46.9567L49.2323 54.2736C49.5459 54.494 49.8999 54.6502 50.274 54.7334C50.6481 54.8167 51.0349 54.8252 51.4123 54.7585C51.7897 54.6919 52.1503 54.5513 52.4732 54.345C52.7962 54.1386 53.0752 53.8706 53.2943 53.5561C53.5139 53.2423 53.6695 52.8883 53.7523 52.5143C53.8351 52.1403 53.8434 51.7537 53.7768 51.3765C53.7102 50.9994 53.5699 50.639 53.364 50.316C53.1581 49.993 52.8906 49.7138 52.5768 49.4942L43.3096 41.5744L54.7118 49.5564C55.0253 49.7767 55.3793 49.933 55.7534 50.0162C56.1275 50.0994 56.5144 50.108 56.8918 50.0413C57.2692 49.9746 57.6297 49.8341 57.9527 49.6278C58.2756 49.4214 58.5546 49.1533 58.7737 48.8389C58.9933 48.5251 59.149 48.1711 59.2318 47.7971C59.3146 47.4231 59.3229 47.0365 59.2562 46.6593C59.1896 46.2821 59.0494 45.9218 58.8435 45.5988C58.6376 45.2758 58.3701 44.9965 58.0562 44.7769L9.204 22.2661L2.46261 33.0014C1.70622 34.1681 1.91233 35.7489 2.99928 36.6783L18.1387 49.6497C18.829 50.2408 19.5465 50.7989 20.2912 51.32L31.9443 59.4769V59.4769Z" fill="#EAA44F"/>
<path d="M57.9479 42.7954L35.9718 26.9462L35.857 26.7906L35.9601 26.6351L36.0631 26.532L37.7237 27.444C39.5865 28.6495 43.8429 30.4306 47.0687 30.4306C49.2756 30.4306 50.5979 29.6043 50.9926 27.9865C51.1126 27.2714 50.9442 26.5378 50.5243 25.9467C50.1044 25.3555 49.4673 24.9548 48.7526 24.8326C46.8014 24.5414 44.9403 23.8165 43.3062 22.7112L42.227 21.9859C41.0137 21.1673 39.639 20.2398 38.624 19.6409C37.3601 18.8748 35.9854 18.5034 34.4181 18.5034C32.0926 18.5034 29.7301 19.324 27.4473 20.1173L24.9856 20.9651C23.9234 21.323 22.8088 21.5011 21.6879 21.492C18.6856 21.492 15.7476 20.3526 12.9068 19.252L12.6209 19.1393C12.0362 18.9154 11.3919 18.9015 10.7982 19.1002C10.2045 19.2988 9.69818 19.6975 9.36592 20.2281L2.62453 30.9673C2.28131 31.5025 2.14288 32.1436 2.2347 32.7728C2.32651 33.4019 2.6424 33.9767 3.12425 34.3915L18.2618 47.3648C18.9462 47.9501 19.6656 48.5081 20.4006 49.0215L32.3881 57.4137C32.8065 57.7068 33.2785 57.9146 33.7772 58.0253C34.2759 58.1359 34.7915 58.1472 35.2945 58.0586C35.7976 57.9699 36.2783 57.783 36.7091 57.5086C37.1399 57.2341 37.5124 56.8774 37.8054 56.459C38.0411 56.1205 38.1333 55.7026 38.0619 55.2964C37.9905 54.8902 37.7612 54.5287 37.4243 54.2909L33.8601 51.7962C33.7669 51.7307 33.6884 51.6466 33.6293 51.5492C33.5703 51.4518 33.5321 51.3432 33.5171 51.2303C33.5021 51.1174 33.5107 51.0026 33.5423 50.8932C33.5739 50.7838 33.6278 50.6821 33.7006 50.5945C33.8325 50.4363 34.0192 50.3334 34.2234 50.3064C34.4277 50.2793 34.6346 50.3302 34.8031 50.4487L42.5401 55.864C43.1316 56.2781 43.8634 56.4403 44.5745 56.3148C45.2855 56.1894 45.9177 55.7866 46.3318 55.1951C46.7459 54.6036 46.908 53.8718 46.7826 53.1607C46.6572 52.4497 46.2544 51.8175 45.6629 51.4034L38.4218 46.3362C38.3286 46.2707 38.25 46.1866 38.191 46.0892C38.132 45.9918 38.0938 45.8832 38.0788 45.7703C38.0638 45.6574 38.0724 45.5426 38.104 45.4332C38.1356 45.3238 38.1895 45.2221 38.2623 45.1345C38.3945 44.9766 38.5811 44.8741 38.7852 44.8471C38.9893 44.8201 39.1961 44.8706 39.3648 44.9887L49.3437 51.9751C49.6366 52.1801 49.967 52.3255 50.316 52.4028C50.6651 52.4802 51.026 52.488 51.3781 52.4259C51.7302 52.3638 52.0666 52.233 52.3681 52.0408C52.6696 51.8487 52.9303 51.5991 53.1354 51.3062C53.3404 51.0133 53.4858 50.6829 53.5631 50.3339C53.6405 49.9848 53.6483 49.6239 53.5862 49.2718C53.5241 48.9198 53.3932 48.5833 53.2011 48.2818C53.009 47.9803 52.7594 47.7196 52.4665 47.5145L43.0009 40.8898C42.9069 40.8249 42.8276 40.741 42.7681 40.6435C42.7086 40.5461 42.6701 40.4372 42.6553 40.324C42.6404 40.2107 42.6495 40.0956 42.6819 39.9861C42.7143 39.8766 42.7693 39.7751 42.8434 39.6881C42.9615 39.5473 43.1281 39.456 43.3104 39.4322C43.4926 39.4085 43.6771 39.454 43.8273 39.5598L54.8251 47.2579C55.1181 47.4629 55.4486 47.6082 55.7978 47.6855C56.147 47.7628 56.508 47.7706 56.8601 47.7084C57.2123 47.6462 57.5488 47.5153 57.8504 47.323C58.1519 47.1308 58.4127 46.881 58.6177 46.588C58.8228 46.295 58.9681 45.9645 59.0454 45.6153C59.1227 45.2661 59.1305 44.9051 59.0683 44.553C59.0061 44.2008 58.8751 43.8643 58.6829 43.5627C58.4906 43.2612 58.2409 43.0004 57.9479 42.7954Z" fill="#FFDC66"/>
<path d="M32.1552 54.8065C32.0191 55.3257 31.7527 55.7748 31.3988 56.1307L29.4466 58.0673C29.089 58.4291 28.6427 58.6906 28.1524 58.8257C27.662 58.9608 27.1448 58.9648 26.6524 58.8373C26.1553 58.7079 25.7012 58.4495 25.336 58.0882C24.9709 57.727 24.7076 57.2757 24.5728 56.78C24.438 56.2843 24.4365 55.7618 24.5685 55.2654C24.7005 54.769 24.9612 54.3162 25.3244 53.9529L27.2766 52.0162C27.6342 51.6545 28.0804 51.393 28.5708 51.2579C29.0611 51.1227 29.5784 51.1187 30.0708 51.2462C30.8188 51.4427 31.4584 51.9279 31.8491 52.5953C32.2399 53.2628 32.35 54.058 32.1552 54.8065V54.8065ZM11.653 45.2379L14.5755 42.327C14.9096 41.9933 15.1578 41.5834 15.2985 41.1326C15.4392 40.6818 15.4684 40.2035 15.3835 39.7389C15.2986 39.2743 15.1021 38.8373 14.811 38.4654C14.5198 38.0936 14.1428 37.7979 13.7121 37.604C13.1727 37.3614 12.5721 37.2891 11.9905 37.3968C11.4089 37.5045 10.8739 37.7871 10.4571 38.2068L7.53464 41.1176C7.20054 41.4515 6.95253 41.8615 6.81192 42.3124C6.67131 42.7634 6.64232 43.2417 6.72744 43.7063C6.81255 44.1709 7.00923 44.6079 7.30056 44.9796C7.59189 45.3514 7.96915 45.6469 8.39992 45.8407C8.93918 46.0826 9.53934 46.1545 10.1205 46.0468C10.7016 45.9391 11.2362 45.6569 11.653 45.2379V45.2379ZM21.7719 45.339C22.0582 45.0717 22.2877 44.7495 22.4468 44.3916C22.6058 44.0336 22.6912 43.6473 22.6977 43.2557C22.7043 42.8641 22.6319 42.4752 22.4848 42.1121C22.3378 41.7491 22.1191 41.4194 21.8419 41.1427C21.5647 40.866 21.2346 40.648 20.8713 40.5016C20.508 40.3553 20.1189 40.2836 19.7273 40.2909C19.3357 40.2981 18.9495 40.3842 18.5919 40.544C18.2343 40.7037 17.9125 40.9339 17.6458 41.2207L11.8085 47.0501C11.5222 47.3174 11.2927 47.6396 11.1336 47.9975C10.9746 48.3555 10.8892 48.7418 10.8827 49.1334C10.8761 49.525 10.9485 49.9139 11.0956 50.277C11.2426 50.64 11.4613 50.9697 11.7385 51.2464C12.0157 51.5231 12.3458 51.7411 12.7091 51.8875C13.0724 52.0338 13.4615 52.1055 13.8531 52.0982C14.2447 52.091 14.6309 52.0049 14.9885 51.8451C15.3461 51.6854 15.6679 51.4552 15.9346 51.1684L21.7719 45.339V45.339ZM26.1469 51.1723C26.5405 50.7779 26.8129 50.2789 26.9318 49.7345C27.0507 49.1901 27.0112 48.623 26.8179 48.1003C26.6246 47.5777 26.2856 47.1213 25.841 46.7853C25.3964 46.4493 24.8649 46.2477 24.3094 46.2043C23.8899 46.1726 23.4685 46.2327 23.0746 46.3805C22.6807 46.5283 22.3237 46.7601 22.0285 47.0598L18.1299 50.939C17.7357 51.3334 17.4628 51.8325 17.3435 52.3772C17.2242 52.9219 17.2636 53.4894 17.457 54.0125C17.6504 54.5355 17.9896 54.9921 18.4345 55.3283C18.8795 55.6644 19.4115 55.8659 19.9674 55.909C20.8521 55.979 21.6669 55.6348 22.2483 55.0534L26.1469 51.1723V51.1723ZM58.3371 43.1282L59.5563 42.0743L46.1144 20.9771L22.256 24.8368C21.8766 24.9009 21.5135 25.039 21.1874 25.2435C20.8614 25.4479 20.5788 25.7145 20.3558 26.0282C20.1328 26.3418 19.9738 26.6963 19.8878 27.0714C19.8018 27.4465 19.7905 27.8348 19.8546 28.2143C21.1341 33.4546 31.5271 29.5618 36.1005 27.0457L58.3371 43.1282Z" fill="#EAA44F"/>
<path d="M32.1552 52.8619C32.0191 53.3811 31.7527 53.8303 31.3988 54.1861L29.4466 56.1228C29.089 56.4845 28.6427 56.746 28.1524 56.8811C27.662 57.0162 27.1448 57.0203 26.6524 56.8928C26.1553 56.7633 25.7012 56.5049 25.336 56.1437C24.9709 55.7824 24.7076 55.3311 24.5728 54.8354C24.438 54.3398 24.4365 53.8173 24.5685 53.3208C24.7005 52.8244 24.9612 52.3716 25.3244 52.0083L27.2766 50.0716C27.6342 49.7099 28.0804 49.4484 28.5708 49.3133C29.0611 49.1782 29.5784 49.1742 30.0708 49.3017C30.8188 49.4981 31.4584 49.9833 31.8491 50.6508C32.2399 51.3182 32.35 52.1134 32.1552 52.8619V52.8619ZM11.653 43.2933L14.5755 40.3825C14.9096 40.0487 15.1578 39.6388 15.2985 39.188C15.4392 38.7372 15.4684 38.2589 15.3835 37.7944C15.2986 37.3298 15.1021 36.8928 14.811 36.5209C14.5198 36.149 14.1428 35.8534 13.7121 35.6594C13.1726 35.4174 12.5721 35.3454 11.9906 35.4531C11.4091 35.5607 10.8742 35.843 10.4571 36.2622L7.53464 39.173C7.20054 39.5069 6.95253 39.9169 6.81192 40.3679C6.67131 40.8188 6.64232 41.2971 6.72744 41.7617C6.81255 42.2263 7.00923 42.6633 7.30056 43.0351C7.59189 43.4069 7.96915 43.7023 8.39992 43.8961C8.93918 44.138 9.53934 44.2099 10.1205 44.1022C10.7016 43.9945 11.2362 43.7124 11.653 43.2933V43.2933ZM21.7719 43.3944C22.0582 43.1271 22.2877 42.8049 22.4468 42.447C22.6058 42.0891 22.6912 41.7028 22.6977 41.3111C22.7043 40.9195 22.6319 40.5306 22.4848 40.1676C22.3378 39.8045 22.1191 39.4748 21.8419 39.1981C21.5647 38.9214 21.2346 38.7034 20.8713 38.557C20.508 38.4107 20.1189 38.339 19.7273 38.3463C19.3357 38.3536 18.9495 38.4397 18.5919 38.5994C18.2343 38.7591 17.9125 38.9893 17.6458 39.2761L11.8085 45.1055C11.5222 45.3728 11.2927 45.695 11.1336 46.053C10.9746 46.4109 10.8892 46.7972 10.8827 47.1888C10.8761 47.5804 10.9485 47.9694 11.0956 48.3324C11.2426 48.6954 11.4613 49.0251 11.7385 49.3018C12.0157 49.5785 12.3458 49.7966 12.7091 49.9429C13.0724 50.0893 13.4615 50.1609 13.8531 50.1537C14.2447 50.1464 14.6309 50.0603 14.9885 49.9006C15.3461 49.7408 15.6679 49.5107 15.9346 49.2239L21.7719 43.3944V43.3944ZM26.1469 49.2278C26.5405 48.8333 26.8129 48.3343 26.9318 47.7899C27.0507 47.2455 27.0112 46.6784 26.8179 46.1557C26.6246 45.6331 26.2856 45.1767 25.841 44.8407C25.3964 44.5047 24.8649 44.3031 24.3094 44.2597C23.8899 44.228 23.4685 44.2882 23.0746 44.4359C22.6807 44.5837 22.3237 44.8155 22.0285 45.1153L18.1299 48.9944C17.7357 49.3888 17.4628 49.8879 17.3435 50.4326C17.2242 50.9774 17.2636 51.5449 17.457 52.0679C17.6504 52.5909 17.9896 53.0476 18.4345 53.3837C18.8795 53.7198 19.4115 53.9214 19.9674 53.9644C20.8521 54.0344 21.6669 53.6903 22.2483 53.1089L26.1469 49.2278V49.2278ZM68.0633 34.73C68.5781 34.285 68.9146 33.6689 69.0107 32.9952C69.1068 32.3216 68.9561 31.6359 68.5863 31.0647L68.5805 31.055L61.8391 18.3753C61.4831 17.8065 60.9405 17.3791 60.3042 17.1663C59.6678 16.9534 58.9773 16.9684 58.3508 17.2086C54.4774 18.7078 50.2346 20.4305 46.1163 19.0305L43.9813 18.2975C40.1935 16.985 36.0752 15.4469 32.3146 17.7258C30.9633 18.5211 28.9352 19.9289 27.6266 20.798C26.0099 21.8778 24.1771 22.5918 22.256 22.8903C21.876 22.9531 21.5122 23.0906 21.1855 23.2946C20.8588 23.4987 20.5757 23.7654 20.3525 24.0793C20.1293 24.3932 19.9704 24.7482 19.885 25.1238C19.7995 25.4994 19.7892 25.8882 19.8546 26.2678C21.0466 31.1522 30.1602 28.0333 35.0952 25.5503C35.4032 25.3956 35.7478 25.3285 36.0914 25.3563C36.435 25.384 36.7643 25.5056 37.0435 25.7078L59.568 42.0722L68.0633 34.73V34.73Z" fill="#FFDC66"/>
</svg>
