<svg width="132" height="48" viewBox="0 0 132 48" fill="none" xmlns="http://www.w3.org/2000/svg">
<path fill-rule="evenodd" clip-rule="evenodd" d="M35.2038 34.593C34.8753 33.2834 34.7111 31.8635 34.7111 30.3333C34.7111 26.5185 35.979 23.1852 38.5149 20.3333C41.0838 17.4815 44.1466 16.0556 47.7035 16.0556C50.2394 16.0556 52.2978 16.6852 53.8786 17.9444C55.4594 19.1667 56.2663 20.8333 56.2992 22.9444C56.2992 25.7963 55.2783 28.1111 53.2364 29.8889C51.2274 31.6667 48.461 32.9074 44.937 33.6111L44.2454 30.3333C46.2873 29.8518 47.8023 28.9259 48.7903 27.5556C49.8113 26.1852 50.3217 24.8704 50.3217 23.6111C50.3217 22.3148 50.0089 21.4444 49.3831 21C48.7903 20.5185 48.1316 20.2778 47.4071 20.2778C45.8592 20.2778 44.4924 21.2593 43.3068 23.2222C42.1541 25.1481 41.5778 27.463 41.5778 30.1667C41.5778 32.8333 42.1377 34.8333 43.2574 36.1667C44.4101 37.463 45.8262 38.1111 47.5059 38.1111C49.9759 38.1111 52.3472 37.1481 54.6196 35.2222C56.325 33.7769 57.7892 31.9979 59.0123 29.8851L60.3906 16.6111C61.7739 16.2037 62.8277 16 63.5523 16C65.7589 16 66.9115 16.9074 67.0103 18.7222C68.6241 16.9444 70.5507 16.0556 72.7902 16.0556C75.0627 16.0556 76.8411 16.6852 78.1255 17.9444C79.41 19.2037 80.0522 20.7963 80.0522 22.7222C80.0522 23.2407 79.9534 24.2222 79.7558 25.6667C78.9983 31.2963 78.6195 34.5741 78.6195 35.5C78.6195 37.2037 79.13 38.0556 80.151 38.0556C81.618 38.0556 82.8518 36.9272 83.8524 34.6705C83.5108 33.3394 83.34 31.8937 83.34 30.3333C83.34 26.5185 84.608 23.1852 87.1439 20.3333C89.7127 17.4815 92.7756 16.0556 96.3325 16.0556C98.8684 16.0556 100.927 16.6852 102.508 17.9444C104.088 19.1667 104.895 20.8333 104.928 22.9444C104.928 25.7963 103.907 28.1111 101.865 29.8889C99.8564 31.6667 97.0899 32.9074 93.566 33.6111L92.8744 30.3333C94.9163 29.8518 96.4313 28.9259 97.4193 27.5556C98.4402 26.1852 98.9507 24.8704 98.9507 23.6111C98.9507 22.3148 98.6378 21.4444 98.0121 21C97.4193 20.5185 96.7606 20.2778 96.0361 20.2778C94.4882 20.2778 93.1214 21.2593 91.9358 23.2222C90.7831 25.1481 90.2068 27.463 90.2068 30.1667C90.2068 32.8333 90.7666 34.8333 91.8864 36.1667C93.0391 37.463 94.4552 38.1111 96.1349 38.1111C98.6049 38.1111 100.976 37.1481 103.249 35.2222C103.6 34.9245 103.941 34.6125 104.272 34.2864C105.12 32.6427 106.508 30.6782 108.438 28.3931C108.555 28.1547 108.67 27.9125 108.781 27.6667C108.829 27.7181 108.877 27.7703 108.924 27.8233C110.229 26.3125 111.759 24.6676 113.515 22.8889C112.297 21.5185 111.687 20.0556 111.687 18.5C111.687 16.9444 112.198 15.6296 113.219 14.5556C114.273 13.4815 115.508 12.9444 116.924 12.9444C118.208 12.9444 119.328 13.5185 120.283 14.6667C120.909 15.4444 121.222 16.4259 121.222 17.6111C121.222 18.7963 120.876 20.1296 120.184 21.6111C123.708 23.3889 126.096 24.7778 127.347 25.7778C129.949 27.9259 131.25 30.463 131.25 33.3889C131.25 36.3148 130.229 38.6667 128.187 40.4444C126.145 42.2222 123.576 43.1111 120.481 43.1111C118.472 43.1111 116.792 42.5556 115.442 41.4444C114.124 40.2963 113.466 38.8889 113.466 37.2222C113.466 35.5556 113.96 34.2407 114.948 33.2778C115.936 32.2778 117.171 31.6667 118.653 31.4444C117.961 32.5556 117.615 33.6296 117.615 34.6667C117.615 35.6667 117.928 36.4815 118.554 37.1111C119.18 37.7407 119.97 38.0556 120.925 38.0556C121.88 38.0556 122.671 37.6667 123.296 36.8889C123.922 36.0741 124.235 35.1481 124.235 34.1111C124.235 32.4074 123.527 30.8889 122.111 29.5556C121.255 28.7778 120.332 28.0556 119.344 27.3889C118.356 26.6852 117.829 26.3148 117.764 26.2778C117.632 26.1667 117.5 26.0741 117.368 26C116.776 26.7778 115.919 27.8518 114.8 29.2222C113.68 30.5556 112.791 31.6296 112.132 32.4444C110.288 34.7037 109.25 36.5926 109.02 38.1111C108.954 38.4074 108.921 38.9815 108.921 39.8333C108.921 40.6481 109.135 41.5 109.563 42.3889C110.024 43.2778 110.567 43.9444 111.193 44.3889C111.819 44.8333 112.428 45.1852 113.021 45.4444C113.647 45.7407 114.174 45.9444 114.602 46.0556C115.063 46.1667 115.294 46.2407 115.294 46.2778C115.294 46.537 114.931 46.8333 114.207 47.1667C112.856 47.7222 111.44 48 109.958 48C108.509 48 107.093 47.4074 105.71 46.2222C103.981 44.7211 103.048 42.7643 102.911 40.3517C102.031 40.9349 101.073 41.4472 100.038 41.8889C98.1603 42.7037 96.2172 43.1111 94.2082 43.1111C90.9148 43.1111 88.313 41.9815 86.4029 39.7222C86.0221 39.2664 85.6769 38.7868 85.3671 38.2833C83.6039 41.5018 81.2065 43.1111 78.1749 43.1111C76.133 43.1111 74.6181 42.4074 73.6301 41C72.642 39.5926 72.148 38.1111 72.148 36.5556L73.3337 24.1667C73.3337 23.1667 73.1031 22.3333 72.642 21.6667C72.181 21 71.407 20.6667 70.3202 20.6667C69.2663 20.6667 68.3606 21.2037 67.6032 22.2778C66.8786 23.3148 66.4175 24.6296 66.2199 26.2222C65.0343 36.3704 64.4086 41.8889 64.3427 42.7778H57.6736L58.3085 36.6629C57.7103 37.353 57.057 38.0394 56.3486 38.7222C54.9654 40.0185 53.3187 41.0741 51.4085 41.8889C49.5313 42.7037 47.5882 43.1111 45.5792 43.1111C42.2859 43.1111 39.6841 41.9815 37.7739 39.7222C37.3006 39.1556 36.8821 38.5521 36.5185 37.9119C36.3879 38.1534 36.2524 38.3865 36.112 38.6111C35.2558 39.9815 34.3501 40.963 33.395 41.5556C31.7154 42.5926 30.1181 43.1111 28.6031 43.1111C25.9684 43.1111 24.0088 42.2593 22.7244 40.5556C21.4729 38.8148 20.8142 36.5 20.7484 33.6111C20.6496 28.9444 20.4026 26.037 20.0074 24.8889C19.6121 23.7407 18.7065 23.0926 17.2903 22.9444L17.6361 18.7778C18.2289 18.6667 18.69 18.5185 19.0193 18.3333C19.3487 18.1481 19.7768 17.7778 20.3038 17.2222C21.4235 16.1111 22.2469 13.5 22.7738 9.38889C23.2019 6.27778 24.0747 4.01852 25.392 2.61111C26.7423 1.2037 28.1914 0.5 29.7393 0.5C31.2872 0.5 32.654 1.01852 33.8396 2.05556C35.0252 3.05556 35.618 4.68519 35.618 6.94444C35.618 9.94444 34.6465 12.537 32.7034 14.7222C30.7932 16.9074 28.1256 18.8889 24.7004 20.6667C25.8861 21.2963 26.7588 22.3519 27.3187 23.8333C27.8786 25.3148 28.1914 26.8704 28.2573 28.5C28.3232 30.1296 28.3726 31.7037 28.4055 33.2222C28.5372 36.7778 29.4759 38.5556 31.2213 38.5556C32.684 38.5556 34.0115 37.2347 35.2038 34.593ZM1.58083 41.3333C2.63471 42.5185 4.0344 43.1111 5.7799 43.1111C11.0164 43.1111 14.1286 39.4815 15.1167 32.2222L18.7723 0.833333C18.0148 0.648148 16.8951 0.555556 15.4131 0.555556C13.964 0.555556 12.5643 1.03704 11.214 2C11.0493 3.33333 10.5553 8.11111 9.73197 16.3333C9.30383 20.3333 8.97449 23.4259 8.74395 25.6111C2.91465 28.7222 0 32.4444 0 36.7778C0 38.6296 0.526943 40.1481 1.58083 41.3333ZM31.7154 6.94444C32.0118 7.24074 32.16 7.66667 32.16 8.22222C32.16 10.2222 30.7767 12.2222 28.0103 14.2222C28.2408 13.4444 28.4384 12.6852 28.6031 11.9444C28.7678 11.1667 28.8995 10.5556 28.9983 10.1111C29.0971 9.66667 29.163 9.33333 29.1959 9.11111C29.2618 8.85185 29.3276 8.55556 29.3935 8.22222C29.4923 7.88889 29.5747 7.64815 29.6405 7.5C29.7064 7.31481 29.7887 7.14815 29.8875 7C30.0193 6.81481 30.151 6.68519 30.2827 6.61111C30.4474 6.53704 30.6615 6.5 30.9249 6.5C31.1884 6.5 31.4519 6.64815 31.7154 6.94444ZM5.33529 38.0556C4.21554 38.0556 3.65566 37.3889 3.65566 36.0556C3.65566 34.2407 5.18709 32.3333 8.24994 30.3333L7.85474 33.7778C7.65713 35.2593 7.29486 36.3519 6.76792 37.0556C6.27391 37.7222 5.79637 38.0556 5.33529 38.0556ZM117.813 17.5C117.813 17.9074 117.418 18.5741 116.627 19.5C115.87 18.8333 115.491 18.1852 115.491 17.5556C115.491 16.5185 115.903 16 116.726 16C117.451 16.0741 117.813 16.5741 117.813 17.5ZM82.4586 7.05248C81.6825 9.06567 79.4814 14.7759 68.389 10.295C68.2364 10.2611 68.0886 10.2273 67.9446 10.1944C65.6937 9.67991 64.3972 9.38355 60.818 12.2994C60.7466 12.2249 60.6129 12.1625 60.4697 12.0956C60.0852 11.9159 59.6319 11.7042 60.1318 11.142C61.6215 8.0541 66.7785 4.02475 74.96 8.45256C78.1649 9.63935 79.574 8.24645 80.6338 7.19884C80.9045 6.93122 81.1524 6.68614 81.4016 6.51235C81.4016 6.51235 82.4148 6.87732 82.4748 7.01046L82.4586 7.05248Z" fill="url(#paint0_linear_1290_13223)"/>
<defs>
<linearGradient id="paint0_linear_1290_13223" x1="133.108" y1="45.2531" x2="7.79995" y2="9.14865" gradientUnits="userSpaceOnUse">
<stop offset="0.149649" stop-color="#041963"/>
<stop offset="1" stop-color="#5B1E9F"/>
</linearGradient>
</defs>
</svg>
