<svg width="105" height="38" viewBox="0 0 105 38" fill="none" xmlns="http://www.w3.org/2000/svg">
<path fill-rule="evenodd" clip-rule="evenodd" d="M28.1631 27.2744C27.9003 26.2267 27.7688 25.0908 27.7688 23.8667C27.7688 20.8148 28.7832 18.1481 30.8119 15.8667C32.867 13.5852 35.3173 12.4444 38.1628 12.4444C40.1915 12.4444 41.8382 12.9481 43.1029 13.9556C44.3675 14.9333 45.013 16.2667 45.0394 17.9556C45.0394 20.237 44.2226 22.0889 42.5891 23.5111C40.9819 24.9333 38.7688 25.9259 35.9496 26.4889L35.3963 23.8667C37.0299 23.4815 38.2418 22.7407 39.0322 21.6444C39.849 20.5481 40.2574 19.4963 40.2574 18.4889C40.2574 17.4519 40.0071 16.7556 39.5065 16.4C39.0322 16.0148 38.5053 15.8222 37.9257 15.8222C36.6874 15.8222 35.5939 16.6074 34.6454 18.1778C33.7233 19.7185 33.2622 21.5704 33.2622 23.7333C33.2622 25.8667 33.7101 27.4667 34.6059 28.5333C35.5281 29.5704 36.661 30.0889 38.0047 30.0889C39.9807 30.0889 41.8777 29.3185 43.6957 27.7778C45.06 26.6215 46.2314 25.1983 47.2099 23.5081L48.3125 12.8889C49.4191 12.563 50.2622 12.4 50.8418 12.4C52.6071 12.4 53.5292 13.1259 53.6083 14.5778C54.8993 13.1556 56.4406 12.4444 58.2322 12.4444C60.0502 12.4444 61.4729 12.9481 62.5004 13.9556C63.528 14.963 64.0417 16.237 64.0417 17.7778C64.0417 18.1926 63.9627 18.9778 63.8046 20.1333C63.1986 24.637 62.8956 27.2593 62.8956 28C62.8956 29.363 63.304 30.0444 64.1208 30.0444C65.2944 30.0444 66.2814 29.1418 67.082 27.3364C66.8087 26.2715 66.672 25.1149 66.672 23.8667C66.672 20.8148 67.6864 18.1481 69.7151 15.8667C71.7702 13.5852 74.2205 12.4444 77.066 12.4444C79.0947 12.4444 80.7414 12.9481 82.0061 13.9556C83.2707 14.9333 83.9162 16.2667 83.9426 17.9556C83.9426 20.237 83.1258 22.0889 81.4923 23.5111C79.8851 24.9333 77.672 25.9259 74.8528 26.4889L74.2995 23.8667C75.9331 23.4815 77.145 22.7407 77.9354 21.6444C78.7522 20.5481 79.1606 19.4963 79.1606 18.4889C79.1606 17.4519 78.9103 16.7556 78.4097 16.4C77.9354 16.0148 77.4085 15.8222 76.8289 15.8222C75.5905 15.8222 74.4971 16.6074 73.5486 18.1778C72.6265 19.7185 72.1654 21.5704 72.1654 23.7333C72.1654 25.8667 72.6133 27.4667 73.5091 28.5333C74.4313 29.5704 75.5642 30.0889 76.9079 30.0889C78.8839 30.0889 80.7809 29.3185 82.5989 27.7778C82.8799 27.5396 83.1528 27.29 83.4175 27.0291C84.0958 25.7141 85.2067 24.1426 86.7502 22.3145C86.844 22.1237 86.9357 21.93 87.0252 21.7333C87.0635 21.7745 87.1016 21.8162 87.1394 21.8587C88.1829 20.65 89.4072 19.3341 90.8121 17.9111C89.8372 16.8148 89.3498 15.6444 89.3498 14.4C89.3498 13.1556 89.7582 12.1037 90.5749 11.2444C91.4181 10.3852 92.4061 9.95556 93.539 9.95556C94.5665 9.95556 95.4623 10.4148 96.2264 11.3333C96.727 11.9556 96.9773 12.7407 96.9773 13.6889C96.9773 14.637 96.7007 15.7037 96.1474 16.8889C98.9665 18.3111 100.877 19.4222 101.878 20.2222C103.959 21.9407 105 23.9704 105 26.3111C105 28.6519 104.183 30.5333 102.55 31.9556C100.916 33.3778 98.8611 34.0889 96.3845 34.0889C94.7773 34.0889 93.4336 33.6444 92.3534 32.7556C91.2995 31.837 90.7726 30.7111 90.7726 29.3778C90.7726 28.0444 91.1678 26.9926 91.9582 26.2222C92.7486 25.4222 93.7366 24.9333 94.9222 24.7556C94.3689 25.6444 94.0923 26.5037 94.0923 27.3333C94.0923 28.1333 94.3426 28.7852 94.8432 29.2889C95.3438 29.7926 95.9761 30.0444 96.7402 30.0444C97.5042 30.0444 98.1366 29.7333 98.6372 29.1111C99.1378 28.4593 99.3881 27.7185 99.3881 26.8889C99.3881 25.5259 98.8216 24.3111 97.6887 23.2444C97.0036 22.6222 96.2659 22.0444 95.4755 21.5111C94.6851 20.9481 94.2636 20.6519 94.2109 20.6222C94.1055 20.5333 94.0001 20.4593 93.8947 20.4C93.4204 21.0222 92.7354 21.8815 91.8396 22.9778C90.9438 24.0444 90.2324 24.9037 89.7055 25.5556C88.2301 27.363 87.4001 28.8741 87.2157 30.0889C87.163 30.3259 87.1366 30.7852 87.1366 31.4667C87.1366 32.1185 87.3079 32.8 87.6504 33.5111C88.0193 34.2222 88.454 34.7556 88.9546 35.1111C89.4552 35.4667 89.9426 35.7481 90.4169 35.9556C90.9175 36.1926 91.339 36.3556 91.6815 36.4444C92.0504 36.5333 92.2348 36.5926 92.2348 36.6222C92.2348 36.8296 91.945 37.0667 91.3654 37.3333C90.2851 37.7778 89.1522 38 87.9666 38C86.8073 38 85.6744 37.5259 84.5678 36.5778C83.1844 35.3769 82.4382 33.8114 82.3291 31.8814C81.6247 32.3479 80.8583 32.7578 80.03 33.1111C78.5282 33.763 76.9738 34.0889 75.3666 34.0889C72.7319 34.0889 70.6504 33.1852 69.1223 31.3778C68.8177 31.0131 68.5415 30.6294 68.2937 30.2266C66.8831 32.8015 64.9652 34.0889 62.54 34.0889C60.9064 34.0889 59.6945 33.5259 58.9041 32.4C58.1136 31.2741 57.7184 30.0889 57.7184 28.8444L58.6669 18.9333C58.6669 18.1333 58.4825 17.4667 58.1136 16.9333C57.7448 16.4 57.1256 16.1333 56.2562 16.1333C55.4131 16.1333 54.6885 16.563 54.0825 17.4222C53.5029 18.2519 53.134 19.3037 52.9759 20.5778C52.0274 28.6963 51.5269 33.1111 51.4742 33.8222H46.1389L46.6468 28.9303C46.1682 29.4824 45.6456 30.0315 45.0789 30.5778C43.9723 31.6148 42.655 32.4593 41.1268 33.1111C39.6251 33.763 38.0706 34.0889 36.4634 34.0889C33.8287 34.0889 31.7473 33.1852 30.2191 31.3778C29.8405 30.9245 29.5057 30.4417 29.2148 29.9295C29.1103 30.1227 29.0019 30.3092 28.8896 30.4889C28.2046 31.5852 27.4801 32.3704 26.716 32.8444C25.3723 33.6741 24.0945 34.0889 22.8825 34.0889C20.7747 34.0889 19.2071 33.4074 18.1795 32.0444C17.1783 30.6519 16.6514 28.8 16.5987 26.4889C16.5197 22.7556 16.322 20.4296 16.0059 19.5111C15.6897 18.5926 14.9652 18.0741 13.8322 17.9556L14.1089 14.6222C14.5831 14.5333 14.952 14.4148 15.2155 14.2667C15.4789 14.1185 15.8215 13.8222 16.243 13.3778C17.1388 12.4889 17.7975 10.4 18.219 7.11111C18.5616 4.62222 19.2598 2.81481 20.3136 1.68889C21.3939 0.562963 22.5531 0 23.7915 0C25.0298 0 26.1232 0.414815 27.0717 1.24444C28.0202 2.04445 28.4944 3.34815 28.4944 5.15556C28.4944 7.55556 27.7172 9.62963 26.1627 11.3778C24.6346 13.1259 22.5004 14.7111 19.7603 16.1333C20.7088 16.637 21.407 17.4815 21.8549 18.6667C22.3028 19.8519 22.5531 21.0963 22.6058 22.4C22.6585 23.7037 22.6981 24.963 22.7244 26.1778C22.8298 29.0222 23.5807 30.4444 24.9771 30.4444C26.1472 30.4444 27.2092 29.3878 28.1631 27.2744ZM1.26466 32.6667C2.10777 33.6148 3.22752 34.0889 4.62392 34.0889C8.81312 34.0889 11.3029 31.1852 12.0933 25.3778L15.0179 0.266666C14.4119 0.118518 13.5161 0.0444445 12.3305 0.0444445C11.1712 0.0444445 10.0514 0.42963 8.9712 1.2C8.83946 2.26667 8.44426 6.08889 7.78558 12.6667C7.44306 15.8667 7.17959 18.3407 6.99516 20.0889C2.33172 22.5778 0 25.5556 0 29.0222C0 30.5037 0.421554 31.7185 1.26466 32.6667ZM25.3723 5.15556C25.6094 5.39259 25.728 5.73333 25.728 6.17778C25.728 7.77778 24.6214 9.37778 22.4082 10.9778C22.5927 10.3556 22.7507 9.74815 22.8825 9.15556C23.0142 8.53333 23.1196 8.04445 23.1986 7.68889C23.2777 7.33333 23.3304 7.06667 23.3567 6.88889C23.4094 6.68148 23.4621 6.44444 23.5148 6.17778C23.5939 5.91111 23.6597 5.71852 23.7124 5.6C23.7651 5.45185 23.831 5.31852 23.91 5.2C24.0154 5.05185 24.1208 4.94815 24.2262 4.88889C24.3579 4.82963 24.5292 4.8 24.74 4.8C24.9507 4.8 25.1615 4.91852 25.3723 5.15556ZM4.26824 30.0444C3.37243 30.0444 2.92453 29.5111 2.92453 28.4444C2.92453 26.9926 4.14967 25.4667 6.59996 23.8667L6.28379 26.6222C6.12571 27.8074 5.83589 28.6815 5.41434 29.2444C5.01913 29.7778 4.63709 30.0444 4.26824 30.0444ZM94.2504 13.6C94.2504 13.9259 93.9342 14.4593 93.3019 15.2C92.6959 14.6667 92.3929 14.1481 92.3929 13.6444C92.3929 12.8148 92.7222 12.4 93.3809 12.4C93.9606 12.4593 94.2504 12.8593 94.2504 13.6ZM65.9669 5.24198C65.346 6.85254 63.5852 11.4207 54.7112 7.83601C54.5891 7.80889 54.4708 7.78185 54.3557 7.75553C52.555 7.34393 51.5178 7.10684 48.6544 9.43951C48.5973 9.37995 48.4904 9.32999 48.3758 9.27646C48.0682 9.13275 47.7055 8.96334 48.1055 8.51358C49.2972 6.04328 53.4228 2.8198 59.968 6.36205C62.532 7.31148 63.6592 6.19716 64.507 5.35907C64.7236 5.14498 64.9219 4.94891 65.1213 4.80988C65.1213 4.80988 65.9319 5.10186 65.9798 5.20837L65.9669 5.24198Z" fill="url(#paint0_linear_3_2536)"/>
<defs>
<linearGradient id="paint0_linear_3_2536" x1="106.486" y1="35.8025" x2="6.23996" y2="6.91892" gradientUnits="userSpaceOnUse">
<stop offset="0.149649" stop-color="#041963"/>
<stop offset="1" stop-color="#5B1E9F"/>
</linearGradient>
</defs>
</svg>
