<svg width="106" height="38" viewBox="0 0 106 38" fill="none" xmlns="http://www.w3.org/2000/svg">
<path fill-rule="evenodd" clip-rule="evenodd" d="M28.456 27.2744C28.1932 26.2267 28.0618 25.0908 28.0618 23.8667C28.0618 20.8148 29.0762 18.1481 31.1049 15.8667C33.16 13.5852 35.6103 12.4444 38.4558 12.4444C40.4845 12.4444 42.1312 12.9481 43.3958 13.9556C44.6605 14.9333 45.306 16.2667 45.3324 17.9556C45.3324 20.237 44.5156 22.0889 42.8821 23.5111C41.2749 24.9333 39.0617 25.9259 36.2426 26.4889L35.6893 23.8667C37.3228 23.4815 38.5348 22.7407 39.3252 21.6444C40.142 20.5481 40.5504 19.4963 40.5504 18.4889C40.5504 17.4519 40.3001 16.7556 39.7995 16.4C39.3252 16.0148 38.7983 15.8222 38.2186 15.8222C36.9803 15.8222 35.8869 16.6074 34.9384 18.1778C34.0163 19.7185 33.5552 21.5704 33.5552 23.7333C33.5552 25.8667 34.0031 27.4667 34.8989 28.5333C35.821 29.5704 36.954 30.0889 38.2977 30.0889C40.2737 30.0889 42.1707 29.3185 43.9887 27.7778C45.3529 26.6215 46.5243 25.1983 47.5028 23.5081L48.6055 12.8889C49.7121 12.563 50.5552 12.4 51.1348 12.4C52.9001 12.4 53.8222 13.1259 53.9012 14.5778C55.1923 13.1556 56.7336 12.4444 58.5252 12.4444C60.3431 12.4444 61.7659 12.9481 62.7934 13.9556C63.8209 14.963 64.3347 16.237 64.3347 17.7778C64.3347 18.1926 64.2557 18.9778 64.0976 20.1333C63.4916 24.637 63.1886 27.2593 63.1886 28C63.1886 29.363 63.597 30.0444 64.4138 30.0444C65.5874 30.0444 66.5744 29.1418 67.3749 27.3364C67.1016 26.2715 66.965 25.1149 66.965 23.8667C66.965 20.8148 67.9794 18.1481 70.0081 15.8667C72.0632 13.5852 74.5135 12.4444 77.3589 12.4444C79.3877 12.4444 81.0344 12.9481 82.299 13.9556C83.5637 14.9333 84.2092 16.2667 84.2355 17.9556C84.2355 20.237 83.4188 22.0889 81.7853 23.5111C80.1781 24.9333 77.9649 25.9259 75.1458 26.4889L74.5925 23.8667C76.226 23.4815 77.438 22.7407 78.2284 21.6444C79.0452 20.5481 79.4535 19.4963 79.4535 18.4889C79.4535 17.4519 79.2032 16.7556 78.7026 16.4C78.2284 16.0148 77.7015 15.8222 77.1218 15.8222C75.8835 15.8222 74.7901 16.6074 73.8416 18.1778C72.9194 19.7185 72.4584 21.5704 72.4584 23.7333C72.4584 25.8667 72.9063 27.4667 73.8021 28.5333C74.7242 29.5704 75.8572 30.0889 77.2009 30.0889C79.1769 30.0889 81.0739 29.3185 82.8918 27.7778C83.1729 27.5396 83.4458 27.29 83.7105 27.0291C84.3887 25.7141 85.4996 24.1426 87.0432 22.3145C87.137 22.1237 87.2286 21.93 87.3182 21.7333C87.3565 21.7745 87.3945 21.8162 87.4324 21.8587C88.4759 20.65 89.7001 19.3341 91.105 17.9111C90.1302 16.8148 89.6428 15.6444 89.6428 14.4C89.6428 13.1556 90.0512 12.1037 90.8679 11.2444C91.711 10.3852 92.699 9.95556 93.832 9.95556C94.8595 9.95556 95.7553 10.4148 96.5194 11.3333C97.02 11.9556 97.2703 12.7407 97.2703 13.6889C97.2703 14.637 96.9936 15.7037 96.4403 16.8889C99.2595 18.3111 101.17 19.4222 102.171 20.2222C104.252 21.9407 105.293 23.9704 105.293 26.3111C105.293 28.6519 104.476 30.5333 102.843 31.9556C101.209 33.3778 99.1541 34.0889 96.6775 34.0889C95.0703 34.0889 93.7266 33.6444 92.6463 32.7556C91.5925 31.837 91.0655 30.7111 91.0655 29.3778C91.0655 28.0444 91.4607 26.9926 92.2511 26.2222C93.0416 25.4222 94.0296 24.9333 95.2152 24.7556C94.6619 25.6444 94.3853 26.5037 94.3853 27.3333C94.3853 28.1333 94.6356 28.7852 95.1362 29.2889C95.6368 29.7926 96.2691 30.0444 97.0331 30.0444C97.7972 30.0444 98.4295 29.7333 98.9301 29.1111C99.4307 28.4593 99.681 27.7185 99.681 26.8889C99.681 25.5259 99.1146 24.3111 97.9816 23.2444C97.2966 22.6222 96.5589 22.0444 95.7685 21.5111C94.9781 20.9481 94.5565 20.6519 94.5038 20.6222C94.3984 20.5333 94.293 20.4593 94.1877 20.4C93.7134 21.0222 93.0284 21.8815 92.1326 22.9778C91.2368 24.0444 90.5254 24.9037 89.9985 25.5556C88.523 27.363 87.6931 28.8741 87.5087 30.0889C87.456 30.3259 87.4296 30.7852 87.4296 31.4667C87.4296 32.1185 87.6009 32.8 87.9434 33.5111C88.3122 34.2222 88.747 34.7556 89.2476 35.1111C89.7482 35.4667 90.2356 35.7481 90.7098 35.9556C91.2104 36.1926 91.632 36.3556 91.9745 36.4444C92.3434 36.5333 92.5278 36.5926 92.5278 36.6222C92.5278 36.8296 92.238 37.0667 91.6583 37.3333C90.5781 37.7778 89.4452 38 88.2596 38C87.1003 38 85.9674 37.5259 84.8608 36.5778C83.4774 35.3769 82.7312 33.8114 82.6221 31.8814C81.9177 32.3479 81.1513 32.7578 80.323 33.1111C78.8212 33.763 77.2667 34.0889 75.6596 34.0889C73.0248 34.0889 70.9434 33.1852 69.4153 31.3778C69.1107 31.0131 68.8345 30.6294 68.5867 30.2266C67.1761 32.8015 65.2582 34.0889 62.8329 34.0889C61.1994 34.0889 59.9874 33.5259 59.197 32.4C58.4066 31.2741 58.0114 30.0889 58.0114 28.8444L58.9599 18.9333C58.9599 18.1333 58.7755 17.4667 58.4066 16.9333C58.0377 16.4 57.4186 16.1333 56.5491 16.1333C55.706 16.1333 54.9815 16.563 54.3755 17.4222C53.7959 18.2519 53.427 19.3037 53.2689 20.5778C52.3204 28.6963 51.8198 33.1111 51.7671 33.8222H46.4318L46.9398 28.9303C46.4612 29.4824 45.9386 30.0315 45.3719 30.5778C44.2653 31.6148 42.9479 32.4593 41.4198 33.1111C39.918 33.763 38.3635 34.0889 36.7564 34.0889C34.1217 34.0889 32.0402 33.1852 30.5121 31.3778C30.1334 30.9245 29.7987 30.4417 29.5078 29.9295C29.4033 30.1227 29.2949 30.3092 29.1826 30.4889C28.4976 31.5852 27.773 32.3704 27.009 32.8444C25.6653 33.6741 24.3874 34.0889 23.1755 34.0889C21.0677 34.0889 19.5 33.4074 18.4725 32.0444C17.4713 30.6519 16.9444 28.8 16.8917 26.4889C16.8126 22.7556 16.615 20.4296 16.2989 19.5111C15.9827 18.5926 15.2581 18.0741 14.1252 17.9556L14.4019 14.6222C14.8761 14.5333 15.245 14.4148 15.5084 14.2667C15.7719 14.1185 16.1144 13.8222 16.536 13.3778C17.4318 12.4889 18.0905 10.4 18.512 7.11111C18.8545 4.62222 19.5527 2.81481 20.6066 1.68889C21.6868 0.562963 22.8461 0 24.0844 0C25.3227 0 26.4162 0.414815 27.3646 1.24444C28.3131 2.04445 28.7874 3.34815 28.7874 5.15556C28.7874 7.55556 28.0102 9.62963 26.4557 11.3778C24.9275 13.1259 22.7934 14.7111 20.0533 16.1333C21.0018 16.637 21.7 17.4815 22.1479 18.6667C22.5958 19.8519 22.8461 21.0963 22.8988 22.4C22.9515 23.7037 22.991 24.963 23.0174 26.1778C23.1228 29.0222 23.8737 30.4444 25.27 30.4444C26.4402 30.4444 27.5022 29.3878 28.456 27.2744ZM1.55763 32.6667C2.40074 33.6148 3.52049 34.0889 4.91689 34.0889C9.10608 34.0889 11.5959 31.1852 12.3863 25.3778L15.3108 0.266666C14.7048 0.118518 13.809 0.0444445 12.6234 0.0444445C11.4642 0.0444445 10.3444 0.42963 9.26417 1.2C9.13243 2.26667 8.73722 6.08889 8.07855 12.6667C7.73603 15.8667 7.47256 18.3407 7.28813 20.0889C2.62469 22.5778 0.292969 25.5556 0.292969 29.0222C0.292969 30.5037 0.714523 31.7185 1.55763 32.6667ZM25.6653 5.15556C25.9024 5.39259 26.0209 5.73333 26.0209 6.17778C26.0209 7.77778 24.9144 9.37778 22.7012 10.9778C22.8856 10.3556 23.0437 9.74815 23.1755 9.15556C23.3072 8.53333 23.4126 8.04445 23.4916 7.68889C23.5707 7.33333 23.6234 7.06667 23.6497 6.88889C23.7024 6.68148 23.7551 6.44444 23.8078 6.17778C23.8868 5.91111 23.9527 5.71852 24.0054 5.6C24.0581 5.45185 24.1239 5.31852 24.203 5.2C24.3084 5.05185 24.4138 4.94815 24.5192 4.88889C24.6509 4.82963 24.8221 4.8 25.0329 4.8C25.2437 4.8 25.4545 4.91852 25.6653 5.15556ZM4.5612 30.0444C3.6654 30.0444 3.2175 29.5111 3.2175 28.4444C3.2175 26.9926 4.44264 25.4667 6.89292 23.8667L6.57676 26.6222C6.41868 27.8074 6.12886 28.6815 5.7073 29.2444C5.3121 29.7778 4.93006 30.0444 4.5612 30.0444ZM94.5433 13.6C94.5433 13.9259 94.2272 14.4593 93.5948 15.2C92.9889 14.6667 92.6859 14.1481 92.6859 13.6444C92.6859 12.8148 93.0152 12.4 93.6739 12.4C94.2535 12.4593 94.5433 12.8593 94.5433 13.6ZM66.2598 5.24198C65.639 6.85254 63.8781 11.4207 55.0042 7.83601C54.8821 7.80889 54.7638 7.78185 54.6487 7.75553C52.848 7.34393 51.8107 7.10684 48.9473 9.43951C48.8903 9.37995 48.7833 9.32999 48.6687 9.27646C48.3611 9.13275 47.9985 8.96334 48.3984 8.51358C49.5902 6.04328 53.7158 2.8198 60.2609 6.36205C62.8249 7.31148 63.9522 6.19716 64.8 5.35907C65.0166 5.14498 65.2149 4.94891 65.4143 4.80988C65.4143 4.80988 66.2248 5.10186 66.2728 5.20837L66.2598 5.24198Z" fill="url(#paint0_linear_1083_4900)"/>
<defs>
<linearGradient id="paint0_linear_1083_4900" x1="106.779" y1="35.8025" x2="6.53293" y2="6.91892" gradientUnits="userSpaceOnUse">
<stop offset="0.149649" stop-color="#041963"/>
<stop offset="1" stop-color="#5B1E9F"/>
</linearGradient>
</defs>
</svg>
