<svg width="50" height="36" viewBox="0 0 50 36" fill="none" xmlns="http://www.w3.org/2000/svg">
<path d="M15 17.5996C19.8359 17.5996 23.75 13.6855 23.75 8.84961C23.75 4.01367 19.8359 0.0996094 15 0.0996094C10.1641 0.0996094 6.25 4.01367 6.25 8.84961C6.25 13.6855 10.1641 17.5996 15 17.5996ZM21 20.0996H20.3516C18.7266 20.8809 16.9219 21.3496 15 21.3496C13.0781 21.3496 11.2812 20.8809 9.64844 20.0996H9C4.03125 20.0996 0 24.1309 0 29.0996V31.3496C0 33.4199 1.67969 35.0996 3.75 35.0996H26.25C28.3203 35.0996 30 33.4199 30 31.3496V29.0996C30 24.1309 25.9687 20.0996 21 20.0996ZM37.5 17.5996C41.6406 17.5996 45 14.2402 45 10.0996C45 5.95898 41.6406 2.59961 37.5 2.59961C33.3594 2.59961 30 5.95898 30 10.0996C30 14.2402 33.3594 17.5996 37.5 17.5996ZM41.25 20.0996H40.9531C39.8672 20.4746 38.7187 20.7246 37.5 20.7246C36.2812 20.7246 35.1328 20.4746 34.0469 20.0996H33.75C32.1562 20.0996 30.6875 20.5605 29.3984 21.3027C31.3047 23.3574 32.5 26.084 32.5 29.0996V32.0996C32.5 32.2715 32.4609 32.4355 32.4531 32.5996H46.25C48.3203 32.5996 50 30.9199 50 28.8496C50 24.0137 46.0859 20.0996 41.25 20.0996Z" fill="#05195E" fill-opacity="0.79"/>
</svg>
