<svg width="25" height="35" viewBox="0 0 25 35" fill="none" xmlns="http://www.w3.org/2000/svg">
<path d="M1 33.1254V33.1247V4.99967C1 4.15982 1.33363 3.35437 1.9275 2.7605C2.52136 2.16664 3.32681 1.83301 4.16667 1.83301H20.8333C21.6732 1.83301 22.4786 2.16664 23.0725 2.7605C23.6664 3.35437 24 4.15982 24 4.99967L24 33.1247L24 33.1254C24 33.1326 23.9981 33.1398 23.9945 33.146C23.991 33.1523 23.9858 33.1576 23.9796 33.1613C23.9734 33.165 23.9663 33.167 23.9591 33.1671C23.9518 33.1672 23.9447 33.1655 23.9383 33.162L23.9373 33.1614L12.979 27.1823L12.5 26.9209L12.021 27.1823L1.0627 33.1614L1.06167 33.162C1.05532 33.1655 1.04818 33.1672 1.04094 33.1671C1.03371 33.167 1.02663 33.165 1.02041 33.1613C1.01418 33.1576 1.00903 33.1523 1.00545 33.146C1.00187 33.1398 0.999995 33.1326 1 33.1254Z" stroke="#3A4980" stroke-width="2"/>
</svg>
