<svg width="30" height="41" viewBox="0 0 30 41" fill="none" xmlns="http://www.w3.org/2000/svg">
<path fill-rule="evenodd" clip-rule="evenodd" d="M5 0.700195C3.67392 0.700195 2.40215 1.22698 1.46447 2.16466C0.526784 3.10234 0 4.37411 0 5.7002V35.7002C0 37.0263 0.526784 38.298 1.46447 39.2357C2.40215 40.1734 3.67392 40.7002 5 40.7002H25C26.3261 40.7002 27.5979 40.1734 28.5355 39.2357C29.4732 38.298 30 37.0263 30 35.7002V14.2352C29.9997 12.9092 29.4727 11.6377 28.535 10.7002L20 2.1652C19.0625 1.22745 17.791 0.700478 16.465 0.700195H5ZM10 25.7002C10 25.0372 9.73661 24.4013 9.26777 23.9324C8.79893 23.4636 8.16304 23.2002 7.5 23.2002C6.83696 23.2002 6.20107 23.4636 5.73223 23.9324C5.26339 24.4013 5 25.0372 5 25.7002V33.2002C5 33.8632 5.26339 34.4991 5.73223 34.968C6.20107 35.4368 6.83696 35.7002 7.5 35.7002C8.16304 35.7002 8.79893 35.4368 9.26777 34.968C9.73661 34.4991 10 33.8632 10 33.2002V25.7002ZM15 18.2002C15.663 18.2002 16.2989 18.4636 16.7678 18.9324C17.2366 19.4013 17.5 20.0372 17.5 20.7002V33.2002C17.5 33.8632 17.2366 34.4991 16.7678 34.968C16.2989 35.4368 15.663 35.7002 15 35.7002C14.337 35.7002 13.7011 35.4368 13.2322 34.968C12.7634 34.4991 12.5 33.8632 12.5 33.2002V20.7002C12.5 20.0372 12.7634 19.4013 13.2322 18.9324C13.7011 18.4636 14.337 18.2002 15 18.2002ZM25 15.7002C25 15.0372 24.7366 14.4013 24.2678 13.9324C23.7989 13.4636 23.163 13.2002 22.5 13.2002C21.837 13.2002 21.2011 13.4636 20.7322 13.9324C20.2634 14.4013 20 15.0372 20 15.7002V33.2002C20 33.8632 20.2634 34.4991 20.7322 34.968C21.2011 35.4368 21.837 35.7002 22.5 35.7002C23.163 35.7002 23.7989 35.4368 24.2678 34.968C24.7366 34.4991 25 33.8632 25 33.2002V15.7002Z" fill="#05195E" fill-opacity="0.79"/>
</svg>
