<svg width="67" height="32" viewBox="0 0 67 32" fill="none" xmlns="http://www.w3.org/2000/svg">
<path d="M23.8317 7.96667L30.7692 16.125L23.8359 24.2833C22.2271 25.8699 20.1852 26.9454 17.9669 27.3747C15.7486 27.8039 13.4529 27.5677 11.3684 26.6958C9.28397 25.8239 7.50382 24.3552 6.25179 22.4744C4.99976 20.5935 4.33175 18.3845 4.33175 16.125C4.33175 13.8655 4.99976 11.6565 6.25179 9.77564C7.50382 7.89479 9.28397 6.42608 11.3684 5.55417C13.4529 4.68227 15.7486 4.4461 17.9669 4.87535C20.1852 5.3046 22.2271 6.38012 23.8359 7.96667H23.8317ZM33.4984 12.9083L26.8984 5.1375L26.84 5.07501C24.6547 2.89022 21.8706 1.4025 18.8397 0.799936C15.8089 0.197376 12.6674 0.507043 9.81258 1.68978C6.95773 2.87252 4.51768 4.87522 2.80097 7.44465C1.08425 10.0141 0.167969 13.0348 0.167969 16.125C0.167969 19.2152 1.08425 22.2359 2.80097 24.8054C4.51768 27.3748 6.95773 29.3775 9.81258 30.5602C12.6674 31.743 15.8089 32.0526 18.8397 31.4501C21.8706 30.8475 24.6547 29.3598 26.84 27.175L26.8984 27.1125L33.4984 19.3417L40.0984 27.1125L40.1567 27.175C42.3421 29.3598 45.1262 30.8475 48.157 31.4501C51.1879 32.0526 54.3293 31.743 57.1842 30.5602C60.039 29.3775 62.4791 27.3748 64.1958 24.8054C65.9125 22.2359 66.8288 19.2152 66.8288 16.125C66.8288 13.0348 65.9125 10.0141 64.1958 7.44465C62.4791 4.87522 60.039 2.87252 57.1842 1.68978C54.3293 0.507043 51.1879 0.197376 48.157 0.799936C45.1262 1.4025 42.3421 2.89022 40.1567 5.07501L40.0984 5.1375L33.4984 12.9083ZM36.2317 16.125L43.1609 7.96667C44.7696 6.38012 46.8115 5.3046 49.0298 4.87535C51.2481 4.4461 53.5439 4.68227 55.6283 5.55417C57.7128 6.42608 59.4929 7.89479 60.745 9.77564C61.997 11.6565 62.665 13.8655 62.665 16.125C62.665 18.3845 61.997 20.5935 60.745 22.4744C59.4929 24.3552 57.7128 25.8239 55.6283 26.6958C53.5439 27.5677 51.2481 27.8039 49.0298 27.3747C46.8115 26.9454 44.7696 25.8699 43.1609 24.2833L36.2317 16.125Z" fill="#4751BA"/>
</svg>
