<svg width="50" height="51" viewBox="0 0 50 51" fill="none" xmlns="http://www.w3.org/2000/svg">
<path fill-rule="evenodd" clip-rule="evenodd" d="M3.125 25.5C3.125 31.3016 5.42968 36.8656 9.53204 40.968C13.6344 45.0703 19.1984 47.375 25 47.375C30.8016 47.375 36.3656 45.0703 40.468 40.968C44.5703 36.8656 46.875 31.3016 46.875 25.5C46.875 19.6984 44.5703 14.1344 40.468 10.032C36.3656 5.92968 30.8016 3.625 25 3.625C19.1984 3.625 13.6344 5.92968 9.53204 10.032C5.42968 14.1344 3.125 19.6984 3.125 25.5ZM50 25.5C50 32.1304 47.3661 38.4893 42.6777 43.1777C37.9893 47.8661 31.6304 50.5 25 50.5C18.3696 50.5 12.0107 47.8661 7.32233 43.1777C2.63392 38.4893 0 32.1304 0 25.5C0 18.8696 2.63392 12.5107 7.32233 7.82233C12.0107 3.13392 18.3696 0.5 25 0.5C31.6304 0.5 37.9893 3.13392 42.6777 7.82233C47.3661 12.5107 50 18.8696 50 25.5ZM14.0625 23.9375C13.6481 23.9375 13.2507 24.1021 12.9576 24.3951C12.6646 24.6882 12.5 25.0856 12.5 25.5C12.5 25.9144 12.6646 26.3118 12.9576 26.6049C13.2507 26.8979 13.6481 27.0625 14.0625 27.0625H32.1656L25.4562 33.7687C25.311 33.914 25.1957 34.0865 25.1171 34.2763C25.0385 34.4661 24.998 34.6696 24.998 34.875C24.998 35.0804 25.0385 35.2839 25.1171 35.4737C25.1957 35.6635 25.311 35.836 25.4562 35.9813C25.6015 36.1265 25.774 36.2418 25.9638 36.3204C26.1536 36.399 26.357 36.4395 26.5625 36.4395C26.768 36.4395 26.9714 36.399 27.1612 36.3204C27.351 36.2418 27.5235 36.1265 27.6688 35.9813L37.0438 26.6063C37.1893 26.4611 37.3047 26.2887 37.3835 26.0989C37.4622 25.909 37.5028 25.7055 37.5028 25.5C37.5028 25.2945 37.4622 25.091 37.3835 24.9011C37.3047 24.7113 37.1893 24.5389 37.0438 24.3937L27.6688 15.0187C27.5235 14.8735 27.351 14.7582 27.1612 14.6796C26.9714 14.601 26.768 14.5605 26.5625 14.5605C26.357 14.5605 26.1536 14.601 25.9638 14.6796C25.774 14.7582 25.6015 14.8735 25.4562 15.0187C25.311 15.164 25.1957 15.3365 25.1171 15.5263C25.0385 15.7161 24.998 15.9195 24.998 16.125C24.998 16.3305 25.0385 16.5339 25.1171 16.7237C25.1957 16.9135 25.311 17.086 25.4562 17.2313L32.1656 23.9375H14.0625Z" fill="white"/>
</svg>
