<svg width="81" height="38" viewBox="0 0 81 38" fill="none" xmlns="http://www.w3.org/2000/svg">
<path d="M29.1026 8.96001L37.4276 18.75L29.1076 28.54C27.1771 30.4439 24.7268 31.7345 22.0648 32.2496C19.4028 32.7647 16.648 32.4813 14.1466 31.435C11.6453 30.3887 9.50908 28.6263 8.00664 26.3692C6.5042 24.1122 5.70259 21.4614 5.70259 18.75C5.70259 16.0386 6.5042 13.3878 8.00664 11.1308C9.50908 8.87375 11.6453 7.1113 14.1466 6.06501C16.648 5.01873 19.4028 4.73532 22.0648 5.25042C24.7268 5.76553 27.1771 7.05614 29.1076 8.96001H29.1026ZM40.7026 14.89L32.7826 5.56501L32.7126 5.49001C30.0901 2.86827 26.7492 1.083 23.1122 0.359923C19.4752 -0.363149 15.7054 0.00845179 12.2796 1.42774C8.85377 2.84703 5.92571 5.25026 3.86566 8.33358C1.8056 11.4169 0.706055 15.0418 0.706055 18.75C0.706055 22.4582 1.8056 26.0831 3.86566 29.1664C5.92571 32.2498 8.85377 34.653 12.2796 36.0723C15.7054 37.4916 19.4752 37.8632 23.1122 37.1401C26.7492 36.417 30.0901 34.6318 32.7126 32.01L32.7826 31.935L40.7026 22.61L48.6226 31.935L48.6926 32.01C51.315 34.6318 54.6559 36.417 58.2929 37.1401C61.9299 37.8632 65.6997 37.4916 69.1255 36.0723C72.5513 34.653 75.4794 32.2498 77.5395 29.1664C79.5995 26.0831 80.6991 22.4582 80.6991 18.75C80.6991 15.0418 79.5995 11.4169 77.5395 8.33358C75.4794 5.25026 72.5513 2.84703 69.1255 1.42774C65.6997 0.00845179 61.9299 -0.363149 58.2929 0.359923C54.6559 1.083 51.315 2.86827 48.6926 5.49001L48.6226 5.56501L40.7026 14.89ZM43.9826 18.75L52.2976 8.96001C54.2281 7.05614 56.6783 5.76553 59.3403 5.25042C62.0023 4.73532 64.7571 5.01873 67.2585 6.06501C69.7599 7.1113 71.896 8.87375 73.3985 11.1308C74.9009 13.3878 75.7025 16.0386 75.7025 18.75C75.7025 21.4614 74.9009 24.1122 73.3985 26.3692C71.896 28.6263 69.7599 30.3887 67.2585 31.435C64.7571 32.4813 62.0023 32.7647 59.3403 32.2496C56.6783 31.7345 54.2281 30.4439 52.2976 28.54L43.9826 18.75Z" fill="#3C21B2"/>
</svg>
