<svg width="42" height="22" viewBox="0 0 42 22" fill="none" xmlns="http://www.w3.org/2000/svg">
<path d="M17.5638 4.6875C11.8763 4.47917 0.167969 7.3125 0.167969 13V17.1667H20.043C14.8971 11.4167 17.4805 4.89583 17.5638 4.6875ZM36.4805 13.0417C37.2305 11.8125 37.668 10.375 37.668 8.83333C37.668 4.22917 33.9388 0.5 29.3346 0.5C24.7305 0.5 21.0013 4.22917 21.0013 8.83333C21.0013 13.4375 24.7305 17.1667 29.3346 17.1667C30.8763 17.1667 32.3138 16.7083 33.543 15.9792L38.8971 21.3333L41.8346 18.3958L36.4805 13.0417ZM29.3346 13C27.043 13 25.168 11.125 25.168 8.83333C25.168 6.54167 27.043 4.66667 29.3346 4.66667C31.6263 4.66667 33.5013 6.54167 33.5013 8.83333C33.5013 11.125 31.6263 13 29.3346 13Z" fill="#05195E" fill-opacity="0.79"/>
</svg>
