<svg width="80" height="75" viewBox="0 0 80 75" fill="none" xmlns="http://www.w3.org/2000/svg">
<path fill-rule="evenodd" clip-rule="evenodd" d="M40 0C33.4012 0.0206926 27.0274 2.40068 22.03 6.71C18.2 10.01 15.425 14.31 14.71 18.625C6.33 20.475 0 27.775 0 36.59C0 46.83 8.54 55 18.905 55H37.5V28.535L26.77 39.27C26.3006 39.7394 25.6639 40.0032 25 40.0032C24.3361 40.0032 23.6994 39.7394 23.23 39.27C22.7606 38.8006 22.4968 38.1639 22.4968 37.5C22.4968 36.8361 22.7606 36.1994 23.23 35.73L38.23 20.73C38.4622 20.4972 38.7381 20.3125 39.0418 20.1864C39.3456 20.0604 39.6712 19.9955 40 19.9955C40.3288 19.9955 40.6544 20.0604 40.9582 20.1864C41.2619 20.3125 41.5378 20.4972 41.77 20.73L56.77 35.73C57.2394 36.1994 57.5032 36.8361 57.5032 37.5C57.5032 38.1639 57.2394 38.8006 56.77 39.27C56.3006 39.7394 55.6639 40.0032 55 40.0032C54.3361 40.0032 53.6994 39.7394 53.23 39.27L42.5 28.535V55H63.44C72.51 55 80 47.85 80 38.865C80 30.685 73.79 24.02 65.83 22.895C64.615 9.995 53.45 0 40 0ZM37.5 72.5V55H42.5V72.5C42.5 73.163 42.2366 73.7989 41.7678 74.2678C41.2989 74.7366 40.663 75 40 75C39.337 75 38.7011 74.7366 38.2322 74.2678C37.7634 73.7989 37.5 73.163 37.5 72.5Z" fill="white"/>
</svg>
